<?xml version="1.0" encoding="utf-8"?>
<!-- Generator: Adobe Illustrator 16.0.0, SVG Export Plug-In . SVG Version: 6.00 Build 0)  -->
<!DOCTYPE svg PUBLIC "-//W3C//DTD SVG 1.1//EN" "http://www.w3.org/Graphics/SVG/1.1/DTD/svg11.dtd">
<svg version="1.1" xmlns="http://www.w3.org/2000/svg" xmlns:xlink="http://www.w3.org/1999/xlink" x="0px" y="0px" width="512px"
	 height="245px" viewBox="0 0 512 245" enable-background="new 0 0 512 245" xml:space="preserve">
<g id="Layer_1">
	<g>
		<path fill="#1876F6" d="M208.978,16.737c0.238-0.366,0.739-0.836,1.115-1.054l7.216-4.197c0.375-0.217,1.024-0.323,1.445-0.236
			l10.114,2.069c0.422,0.086,0.497,0.382,0.165,0.659l-39.587,32.928c-0.334,0.279-0.411,0.21-0.173-0.154L208.978,16.737z"/>
		<path fill="#1876F6" d="M189.657,47.278l52.433-27.715c0.383-0.202,1.029-0.259,1.441-0.122l15.244,5.023
			c0.411,0.137,0.479,0.478,0.149,0.754l-11.578,9.85c-0.331,0.283-0.944,0.581-1.368,0.675l-56.247,11.743
			C189.307,47.577,189.272,47.481,189.657,47.278z"/>
		<path fill="#1876F6" d="M228.428,18.006l0.597,5.118c0.014,0.348-0.222,0.764-0.525,0.936l-32.855,18.939
			c-0.305,0.169-0.334,0.128-0.067-0.095l32.337-25.123C228.185,17.558,228.417,17.659,228.428,18.006z"/>
	</g>
	<g opacity="0.24">
		<path fill="none" stroke="#000000" stroke-miterlimit="10" d="M406,242.987c0,0,79,5,65-68s-42-73-57-59s-7,59.844,37,59.922
			s52-38.379,48-67.15s-21-64.771-77-86.771s-150-12-155-9"/>
		<line fill="none" stroke="#000000" stroke-miterlimit="10" x1="406" y1="242.987" x2="79" y2="242.987"/>
	</g>
	<g>
		<path d="M141.105,119.831v-6.875c1.246,1.046,2.6,1.83,4.061,2.353c1.461,0.523,2.936,0.784,4.426,0.784
			c0.874,0,1.636-0.079,2.288-0.236c0.651-0.157,1.196-0.376,1.633-0.655c0.437-0.279,0.763-0.608,0.978-0.988
			c0.215-0.379,0.322-0.791,0.322-1.235c0-0.602-0.172-1.139-0.516-1.611s-0.813-0.909-1.407-1.311
			c-0.595-0.401-1.3-0.788-2.116-1.16c-0.816-0.372-1.697-0.752-2.643-1.139c-2.406-1.002-4.2-2.227-5.382-3.674
			c-1.182-1.446-1.772-3.194-1.772-5.242c0-1.604,0.322-2.982,0.967-4.136c0.645-1.153,1.521-2.102,2.632-2.847
			c1.11-0.745,2.396-1.292,3.856-1.644c1.461-0.351,3.008-0.526,4.641-0.526c1.604,0,3.025,0.097,4.265,0.29
			c1.239,0.193,2.381,0.491,3.427,0.892v6.424c-0.516-0.358-1.078-0.673-1.687-0.945c-0.609-0.272-1.235-0.498-1.88-0.677
			c-0.645-0.179-1.286-0.312-1.923-0.397c-0.638-0.086-1.243-0.129-1.815-0.129c-0.788,0-1.504,0.075-2.148,0.226
			s-1.189,0.362-1.633,0.634c-0.444,0.272-0.788,0.598-1.031,0.978c-0.244,0.38-0.365,0.806-0.365,1.278
			c0,0.516,0.136,0.978,0.408,1.386c0.272,0.408,0.659,0.795,1.16,1.16c0.501,0.365,1.11,0.724,1.826,1.074
			c0.716,0.351,1.525,0.713,2.428,1.085c1.231,0.516,2.338,1.063,3.319,1.644c0.981,0.58,1.822,1.235,2.524,1.966
			c0.702,0.73,1.239,1.565,1.611,2.503c0.372,0.938,0.559,2.03,0.559,3.276c0,1.719-0.326,3.162-0.978,4.329
			c-0.652,1.167-1.536,2.113-2.653,2.836c-1.117,0.724-2.417,1.243-3.899,1.558s-3.047,0.473-4.694,0.473
			c-1.69,0-3.298-0.144-4.823-0.43S142.223,120.404,141.105,119.831z"/>
		<path d="M192.303,107.671c0,9.253-4.312,13.879-12.934,13.879c-8.365,0-12.547-4.519-12.547-13.557V90.204h6.961v17.875
			c0,4.984,1.948,7.477,5.844,7.477c3.824,0,5.736-2.406,5.736-7.219V90.204h6.939V107.671z"/>
		<path d="M199.006,121.013V90.204h11.215c3.438,0,6.08,0.63,7.928,1.891c1.848,1.261,2.771,3.037,2.771,5.328
			c0,1.662-0.563,3.115-1.687,4.361c-1.125,1.246-2.561,2.113-4.308,2.6v0.086c2.191,0.272,3.942,1.082,5.253,2.428
			c1.311,1.347,1.966,2.986,1.966,4.92c0,2.822-1.01,5.06-3.029,6.714s-4.777,2.481-8.271,2.481H199.006z M205.945,95.317v7.305
			h3.051c1.432,0,2.56-0.347,3.384-1.042c0.823-0.694,1.235-1.65,1.235-2.868c0-2.263-1.69-3.395-5.07-3.395H205.945z
			 M205.945,107.778v8.121h3.76c1.604,0,2.861-0.372,3.771-1.117c0.909-0.745,1.364-1.762,1.364-3.051
			c0-1.231-0.448-2.198-1.343-2.9c-0.896-0.702-2.145-1.053-3.749-1.053H205.945z"/>
		<path d="M225.797,119.831v-6.875c1.246,1.046,2.6,1.83,4.061,2.353c1.461,0.523,2.936,0.784,4.426,0.784
			c0.874,0,1.636-0.079,2.288-0.236c0.651-0.157,1.196-0.376,1.633-0.655c0.437-0.279,0.763-0.608,0.978-0.988
			c0.215-0.379,0.322-0.791,0.322-1.235c0-0.602-0.172-1.139-0.516-1.611s-0.813-0.909-1.407-1.311
			c-0.595-0.401-1.3-0.788-2.116-1.16c-0.816-0.372-1.697-0.752-2.643-1.139c-2.406-1.002-4.2-2.227-5.382-3.674
			c-1.182-1.446-1.772-3.194-1.772-5.242c0-1.604,0.322-2.982,0.967-4.136c0.645-1.153,1.521-2.102,2.632-2.847
			c1.11-0.745,2.396-1.292,3.856-1.644c1.461-0.351,3.008-0.526,4.641-0.526c1.604,0,3.025,0.097,4.265,0.29
			c1.239,0.193,2.381,0.491,3.427,0.892v6.424c-0.516-0.358-1.078-0.673-1.687-0.945c-0.609-0.272-1.235-0.498-1.88-0.677
			c-0.645-0.179-1.286-0.312-1.923-0.397c-0.638-0.086-1.243-0.129-1.815-0.129c-0.788,0-1.504,0.075-2.148,0.226
			s-1.189,0.362-1.633,0.634c-0.444,0.272-0.788,0.598-1.031,0.978c-0.244,0.38-0.365,0.806-0.365,1.278
			c0,0.516,0.136,0.978,0.408,1.386c0.272,0.408,0.659,0.795,1.16,1.16c0.501,0.365,1.11,0.724,1.826,1.074
			c0.716,0.351,1.525,0.713,2.428,1.085c1.231,0.516,2.338,1.063,3.319,1.644c0.981,0.58,1.822,1.235,2.524,1.966
			c0.702,0.73,1.239,1.565,1.611,2.503c0.372,0.938,0.559,2.03,0.559,3.276c0,1.719-0.326,3.162-0.978,4.329
			c-0.652,1.167-1.536,2.113-2.653,2.836c-1.117,0.724-2.417,1.243-3.899,1.558s-3.047,0.473-4.694,0.473
			c-1.69,0-3.298-0.144-4.823-0.43S226.914,120.404,225.797,119.831z"/>
		<path d="M273.965,119.917c-2.249,1.089-5.186,1.633-8.809,1.633c-4.727,0-8.443-1.389-11.15-4.168
			c-2.707-2.778-4.061-6.481-4.061-11.107c0-4.927,1.521-8.923,4.565-11.988c3.044-3.065,6.993-4.598,11.849-4.598
			c3.008,0,5.543,0.38,7.605,1.139v6.682c-2.063-1.231-4.412-1.848-7.047-1.848c-2.894,0-5.229,0.91-7.004,2.729
			c-1.776,1.819-2.664,4.283-2.664,7.391c0,2.979,0.838,5.354,2.514,7.122c1.676,1.769,3.932,2.653,6.768,2.653
			c2.707,0,5.185-0.659,7.434-1.977V119.917z"/>
		<path d="M305.182,121.013h-7.971l-4.791-7.928c-0.358-0.602-0.702-1.139-1.031-1.611c-0.33-0.473-0.662-0.877-0.999-1.214
			c-0.337-0.336-0.688-0.594-1.053-0.773c-0.365-0.179-0.763-0.269-1.192-0.269h-1.869v11.795h-6.939V90.204h11
			c7.477,0,11.215,2.793,11.215,8.379c0,1.074-0.165,2.066-0.494,2.976c-0.33,0.91-0.795,1.729-1.396,2.46s-1.328,1.361-2.181,1.891
			c-0.853,0.53-1.802,0.945-2.847,1.246v0.086c0.458,0.144,0.902,0.376,1.332,0.698s0.845,0.698,1.246,1.128
			c0.4,0.43,0.784,0.892,1.149,1.386s0.698,0.978,0.999,1.45L305.182,121.013z M286.275,95.403v8.572h3.008
			c1.489,0,2.686-0.43,3.588-1.289c0.916-0.874,1.375-1.955,1.375-3.244c0-2.692-1.611-4.039-4.834-4.039H286.275z"/>
		<path d="M315,121.013h-6.939V90.204H315V121.013z"/>
		<path d="M322.004,121.013V90.204h11.215c3.438,0,6.08,0.63,7.928,1.891c1.848,1.261,2.771,3.037,2.771,5.328
			c0,1.662-0.563,3.115-1.687,4.361c-1.125,1.246-2.561,2.113-4.308,2.6v0.086c2.191,0.272,3.942,1.082,5.253,2.428
			c1.311,1.347,1.966,2.986,1.966,4.92c0,2.822-1.01,5.06-3.029,6.714s-4.777,2.481-8.271,2.481H322.004z M328.943,95.317v7.305
			h3.051c1.432,0,2.56-0.347,3.384-1.042c0.823-0.694,1.235-1.65,1.235-2.868c0-2.263-1.69-3.395-5.07-3.395H328.943z
			 M328.943,107.778v8.121h3.76c1.604,0,2.86-0.372,3.771-1.117c0.909-0.745,1.364-1.762,1.364-3.051c0-1.231-0.448-2.198-1.343-2.9
			c-0.896-0.702-2.146-1.053-3.749-1.053H328.943z"/>
		<path d="M368.689,121.013h-18.477V90.204h17.768v5.65h-10.828v6.854h10.076v5.629h-10.076v7.047h11.537V121.013z"/>
	</g>
	<circle fill="#1876F6" cx="380" cy="116.013" r="5"/>
</g>
<g id="Layer_2">
</g>
</svg>
