<svg xmlns="http://www.w3.org/2000/svg" xmlns:xlink="http://www.w3.org/1999/xlink" width="939" height="400"><path fill="#fff" d="M0 0h939v400H0z"/><g fill="#f7f7f7"><path opacity=".72" d="M141.95 62.877c0 6.627-5.373 12-12 12H31.5c-6.627 0-12-5.373-12-12V48.782c0-6.627 5.373-12 12-12h98.45c6.627 0 12 5.373 12 12v14.095zm777.55 0a12 12 0 0 1-12 12h-98.448a12 12 0 0 1-12-12V48.782c0-6.627 5.372-12 12-12H907.5c6.628 0 12 5.373 12 12v14.095zm0 76.483c0 6.627-5.808 12-12.97 12H32.466c-7.163 0-12.966-5.373-12.966-12v-24.3c0-6.627 5.803-12 12.966-12H906.53c7.16 0 12.97 5.373 12.97 12v24.3zm0 72.14c0 6.628-5.808 12-12.97 12H32.466c-7.163 0-12.966-5.372-12.966-12v-24.3c0-6.628 5.803-12 12.966-12H906.53c7.16 0 12.97 5.373 12.97 12v24.3z"/><use xlink:href="#B" opacity=".72"/><use xlink:href="#B" y="74.109" opacity=".72"/></g><defs ><path id="B" d="M919.5 284.027c0 6.627-5.808 12-12.97 12H32.466c-7.163 0-12.966-5.373-12.966-12v-24.3c0-6.63 5.803-12 12.966-12H906.53c7.16 0 12.97 5.372 12.97 12v24.3z"/></defs></svg>