<?xml version="1.0" encoding="utf-8"?>
<!-- Generator: Adobe Illustrator 16.0.0, SVG Export Plug-In . SVG Version: 6.00 Build 0)  -->
<!DOCTYPE svg PUBLIC "-//W3C//DTD SVG 1.1//EN" "http://www.w3.org/Graphics/SVG/1.1/DTD/svg11.dtd">
<svg version="1.1" id="Capa_1" xmlns="http://www.w3.org/2000/svg" xmlns:xlink="http://www.w3.org/1999/xlink" x="0px" y="0px"
	 width="880.019px" height="143.42px" viewBox="-193.598 315.79 880.019 143.42"
	 enable-background="new -193.598 315.79 880.019 143.42" xml:space="preserve">
<path fill="#1876F6" d="M69.337,387.493c0,4.515-3.644,8.133-8.154,8.133c-4.49,0-8.16-3.618-8.16-8.133
	c0-4.472,3.67-8.119,8.16-8.119C65.693,379.374,69.337,383.021,69.337,387.493z"/>
<path fill="#1876F6" d="M439.813,387.493c0,4.515-3.717,8.133-8.187,8.133c-4.469,0-8.142-3.618-8.142-8.133
	c0-4.472,3.673-8.119,8.142-8.119C436.096,379.374,439.813,383.021,439.813,387.493z"/>
<g>
	<g transform="translate(1)">
		<path fill="#9EC5FB" d="M682.432,338.323c-0.524-0.396-1.213-0.465-1.837-0.207l-3.489,1.403l-101.059,40.772l-12.382,5.143
			l37.438,15.136h0.043v0.04l9.573,33.444l0.426,1.477c0.198,0.711,0.748,1.258,1.458,1.431c0.701,0.204,1.449-0.009,1.998-0.534
			l19.118-19.563l1.703-1.74l26.204,10.283l1.925,0.765c1.165,0.463,2.479,0.396,3.544-0.237c1.122-0.603,1.875-1.698,2.046-2.953
			l14.182-82.513C683.498,339.626,683.173,338.778,682.432,338.323z M621.851,409.429l0.102,0.035l-0.105,0.123L621.851,409.429z"/>
		<path fill="#DAE9FE" d="M677.105,339.52l-101.059,40.772l-12.382,5.143l37.438,15.136h0.043v0.04l9.573,33.444l18.515-18.931
			l4.485,1.74l1.703-1.74l26.204,10.283c0.71-0.622,1.174-1.477,1.306-2.426l14.223-82.513
			C677.198,340.148,677.198,339.814,677.105,339.52z M615.633,409.587l0.047-0.158l0.05,0.035L615.633,409.587z"/>
		<path fill="#9EC5FB" d="M635.422,415.124l-20.821,21.304c0.235-0.264,0.393-0.58,0.521-0.939l6.725-25.901l0.105-0.123
			l8.915,3.738l4.023,1.711L635.422,415.124z"/>
		<path fill="#DAE9FE" d="M682.614,338.438l-60.662,71.025l-0.102-0.035l-0.004,0.158l-6.725,25.901
			c-0.129,0.359-0.286,0.676-0.521,0.939c-0.549,0.525-1.297,0.738-1.998,0.534c-0.71-0.173-1.26-0.72-1.458-1.431l-9.999-34.921
			v-0.04h-0.043v-0.003L682.614,338.438z"/>
		<g>
			<path fill="#FFFFFF" d="M667.843,425.418h-0.046l-26.176-10.294l-1.73,1.74l21.735,8.543l1.925,0.765
				C664.99,426.778,666.673,426.462,667.843,425.418z"/>
			<path fill="#FFFFFF" d="M601.103,400.57h0.043v0.04l9.573,33.444l0.426,1.477c0.198,0.711,0.748,1.258,1.458,1.431
				c0.701,0.204,1.449-0.009,1.998-0.534l2.293-2.363l-9.578-33.454v-0.04h-0.043l-37.396-15.136l12.383-5.143l101.014-40.772
				c-0.101-0.422-0.328-0.795-0.705-1.081h0.046h-0.046c-0.041-0.046-0.086-0.091-0.137-0.115c-0.524-0.396-1.213-0.465-1.837-0.207
				l-3.489,1.403l-101.059,40.772l-12.382,5.143L601.103,400.57L601.103,400.57z"/>
		</g>
	</g>
	<g>
		<polygon fill="#FFFFFF" points="569.574,385.196 594.428,395.245 602.854,398.672 601.306,402.497 592.896,399.094 
			568.024,389.009 		"/>
		<g>
			<path fill="#1876F6" d="M569.574,385.196l-4.113-1.673c-1.086-0.42-2.254,0.087-2.674,1.141
				c-0.432,1.049,0.049,2.245,1.124,2.684l4.113,1.661l7.677,3.111c1.012,0.422,2.23-0.095,2.649-1.144
				c0.421-1.052-0.087-2.268-1.122-2.688l-7.654-3.104V385.196z"/>
			<path fill="#1876F6" d="M584.896,391.396c-0.506-0.213-1.073-0.213-1.594,0l-0.373,0.191c-0.09,0.066-0.176,0.164-0.267,0.28
				c-0.108,0.065-0.199,0.183-0.286,0.279c-0.042,0.11-0.136,0.249-0.189,0.369c-0.188,0.513-0.188,1.081,0,1.591
				c0.476,1.033,1.688,1.506,2.709,1.091c0.242-0.11,0.463-0.269,0.664-0.467c0.178-0.175,0.372-0.418,0.467-0.667
				c0.174-0.497,0.174-1.08,0-1.567c-0.246-0.521-0.668-0.909-1.156-1.114L584.896,391.396z"/>
			<path fill="#1876F6" d="M604.49,401.36l50.148-37.349c0.646-0.421,1.021-1.174,0.935-1.946c-0.093-0.743-0.559-1.4-1.26-1.704
				c-0.718-0.276-1.55-0.171-2.103,0.352L601.77,398.22l-9.248-3.736c-1.035-0.42-2.251,0.089-2.671,1.134
				c-0.42,1.054,0.094,2.265,1.13,2.686l9.442,3.817l9.739,34.001c0.496,1.783,2.138,2.975,3.946,2.975h0.047
				c0.992-0.031,1.967-0.4,2.68-1.086c0.084-0.046,0.127-0.088,0.218-0.157l19.968-20.369l26.735,10.587
				c1.724,0.742,3.693,0.621,5.282-0.291c1.683-0.938,2.848-2.583,3.12-4.481l6.738-45.151l7.436-37.278
				c0.32-1.492-0.242-3.036-1.412-4.014c-1.116-0.965-2.701-1.215-4.113-0.657l-104.514,42.187c-1.066,0.444-1.59,1.635-1.17,2.698
				c0.422,1.063,1.638,1.573,2.721,1.125l99.84-40.288l-49.554,58.436c-0.702,0.849-0.597,2.166,0.245,2.902
				c0.883,0.74,2.187,0.627,2.939-0.254l50.244-59.282l-6.679,33.72l-6.785,45.225c-0.096,0.633-0.47,1.194-1.021,1.499
				c-0.566,0.294-1.199,0.347-1.771,0.083l-28.15-11.074l-13.512-5.635c-1.016-0.422-2.231,0.045-2.651,1.1
				c-0.046,0.156-0.099,0.285-0.099,0.422h-0.048l-6.734,25.892L604.49,401.36z M624.261,412.274l6.814,2.85l1.791,0.686
				l-12.963,13.235L624.261,412.274z"/>
		</g>
	</g>
</g>
<g>
	<g transform="translate(1 1)">
		<path fill="#9EC5FB" d="M305.235,372.037v70.154c0,2.305-1.81,4.145-4.114,4.148h-111.43c-2.276-0.004-4.112-1.844-4.112-4.148
			v-70.154l0.844-0.651l0.527,0.651h116.937l0.507-0.651L305.235,372.037z"/>
		<path fill="#CEE2FD" d="M299.064,372.037v70.154c0,2.305-1.868,4.145-4.113,4.148h-105.26c-2.276-0.004-4.112-1.844-4.112-4.148
			v-70.154h112.082l0.527-0.651L299.064,372.037z"/>
		<g>
			<path fill="#9EC5FB" d="M304.395,371.385l-0.507,0.651l-56.425,43.333h-4.113l-56.398-43.333l-0.527-0.651l19.775-15.382
				l27.206-21.098l9.54-7.384c1.433-1.157,3.489-1.157,4.987,0l9.494,7.384l27.211,21.098L304.395,371.385z"/>
			<path fill="#9EC5FB" d="M284.636,339.045v47.78l-6.223,4.772l-30.951,23.771h-4.113l-37.15-28.544v-47.78
				c0.002-2.291,1.87-4.139,4.159-4.14h70.165C282.766,334.906,284.636,336.755,284.636,339.045z"/>
		</g>
		<path fill="#DAE9FE" d="M278.413,339.045v52.552l-30.951,23.771h-4.113l-37.15-28.544v-47.78c0.002-2.291,1.87-4.139,4.159-4.14
			H274.3C276.596,334.906,278.413,336.755,278.413,339.045z"/>
		<path fill="#9EC5FB" d="M304.453,444.624c-0.751,1.088-2.018,1.715-3.332,1.715h-111.43c-1.305,0-2.521-0.627-3.305-1.715
			l47.259-36.685l9.298-7.204c1.433-1.166,3.489-1.166,4.987,0l9.26,7.204L304.453,444.624z"/>
		<g>
			<path fill="#FFFFFF" d="M186.387,444.624c0.037,0.043,0.089,0.086,0.114,0.139c0.105,0.158,0.264,0.316,0.45,0.475
				c0.078,0.053,0.183,0.141,0.276,0.227c0.122,0.09,0.224,0.195,0.41,0.291c0.098,0.059,0.185,0.115,0.341,0.168
				c0.133,0.082,0.316,0.158,0.501,0.209c0.097,0.002,0.185,0.055,0.343,0.086c0.273,0.074,0.594,0.121,0.87,0.121h6.225
				c-0.331,0-0.609-0.047-0.926-0.121c-0.103-0.031-0.189-0.084-0.342-0.086c-0.133-0.051-0.316-0.127-0.502-0.209
				c-0.099-0.053-0.236-0.109-0.342-0.168c-0.133-0.096-0.276-0.201-0.408-0.291c-0.094-0.086-0.188-0.174-0.277-0.227
				c-0.156-0.158-0.288-0.316-0.431-0.475c-0.044-0.053-0.097-0.096-0.097-0.139c-0.555-0.705-0.844-1.549-0.844-2.434v-70.154
				l0.896-0.651l19.77-15.382v-16.958c0-2.291,1.824-4.139,4.113-4.14h-6.17c-2.289,0-4.157,1.849-4.159,4.14v16.958l-19.775,15.382
				l-0.844,0.651v70.154C185.58,443.075,185.868,443.919,186.387,444.624L186.387,444.624z"/>
			<path fill="#FFFFFF" d="M248.49,327.984l-0.559-0.462c-1.498-1.16-3.554-1.16-4.987,0l-9.54,7.384h6.208L248.49,327.984z"/>
		</g>
	</g>
	<g>
		<polygon fill="#FFFFFF" points="184.523,443.19 184.523,416.369 184.523,373.037 188.636,373.037 188.636,416.369 188.636,443.19 
					"/>
		<g>
			<path fill="#1876F6" d="M185.793,428.582c0.132,0.084,0.231,0.096,0.377,0.127c0.132,0.021,0.276,0.043,0.41,0.043
				c0.562,0,1.082-0.213,1.458-0.59c0.188-0.207,0.32-0.434,0.418-0.697c0.337-0.74,0.167-1.635-0.418-2.242
				c-0.188-0.184-0.432-0.334-0.651-0.42c-0.28-0.121-0.519-0.164-0.807-0.164c-0.555,0-1.062,0.207-1.444,0.584
				c-0.834,0.818-0.834,2.137,0,2.939l0.284,0.248C185.55,428.492,185.65,428.539,185.793,428.582z"/>
			<path fill="#1876F6" d="M308.203,372.505c0-0.12-0.042-0.236-0.101-0.352c-0.086-0.122-0.129-0.213-0.216-0.307
				c-0.086-0.129-0.188-0.234-0.285-0.327c-0.001-0.043-0.053-0.069-0.084-0.095l-19.825-15.424v-15.956
				c0-3.443-2.767-6.196-6.17-6.196h-22.401l-8.925-6.966c-2.24-1.706-5.322-1.706-7.528,0l-8.974,6.966h-22.338
				c-3.443,0-6.215,2.752-6.215,6.196v15.956l-19.812,15.424c-0.519,0.369-0.807,0.979-0.807,1.611l0,0v45.411
				c0,1.126,0.917,2.057,2.057,2.057c1.127,0,2.057-0.937,2.057-2.057v-42.25l33.801,26.239c0.939,0.707,2.197,0.541,2.896-0.348
				c0.694-0.912,0.563-2.196-0.334-2.9l-34.34-26.684l14.482-11.268v15.936c0,1.15,0.942,2.056,2.057,2.056
				c1.16,0,2.073-0.906,2.073-2.056v-37.128c0-1.156,0.925-2.082,2.085-2.082h70.165c1.12,0,2.057,0.926,2.057,2.082v37.128
				c0,1.15,0.905,2.056,2.057,2.056c1.12,0,2.057-0.906,2.057-2.056v-15.936l14.529,11.268l-34.438,26.735
				c-0.898,0.695-1.026,1.979-0.341,2.897c0.683,0.883,1.962,1.053,2.877,0.347l33.858-26.287v65.854l-53.982-41.955
				c-2.238-1.725-5.32-1.725-7.526,0l-54.033,41.955v-7.099c0-1.16-0.929-2.057-2.057-2.057c-1.135,0-2.057,0.896-2.057,2.057v8.237
				c0,0.674,0.098,1.338,0.341,1.971c-0.475,0.707-0.475,1.637,0.032,2.342c0.523,0.676,1.405,0.975,2.245,0.738
				c1.028,0.738,2.302,1.154,3.55,1.154h111.43c1.314,0,2.527-0.416,3.606-1.174c0.158,0.072,0.318,0.086,0.507,0.086
				c0.766,0,1.463-0.383,1.84-1.068c0.371-0.654,0.318-1.451-0.102-2.078c0.23-0.633,0.318-1.297,0.347-1.971v-70.154
				c0-0.043-0.029-0.068-0.029-0.111C308.292,372.78,308.257,372.638,308.203,372.505z M245.191,330.151
				c0.709-0.577,1.736-0.577,2.431,0l4.767,3.698h-11.965L245.191,330.151z M245.191,403.354c0.709-0.567,1.736-0.567,2.431,0
				l53.992,41.922H191.219L245.191,403.354z"/>
			<path fill="#1876F6" d="M225.809,352.403h41.265c1.114,0,2.057-0.911,2.057-2.058c0-1.147-0.942-2.056-2.057-2.056h-41.265
				c-1.184,0-2.08,0.908-2.08,2.056C223.729,351.492,224.625,352.403,225.809,352.403z"/>
			<path fill="#1876F6" d="M225.809,364.785h41.265c1.114,0,2.057-0.901,2.057-2.056c0-1.138-0.942-2.057-2.057-2.057h-41.265
				c-1.184,0-2.08,0.919-2.08,2.057C223.729,363.884,224.625,364.785,225.809,364.785z"/>
			<path fill="#1876F6" d="M267.073,373.037h-18.611c-1.114,0-2.057,0.942-2.057,2.08c0,1.125,0.942,2.057,2.057,2.057h18.611
				c1.114,0,2.057-0.931,2.057-2.057C269.13,373.979,268.188,373.037,267.073,373.037z"/>
		</g>
	</g>
</g>
<g>
	<g transform="translate(1 1)">
		<path fill="#9EC5FB" d="M-188.412,326.715h74.198c2.28,0,4.118,1.85,4.118,4.114v111.304c0,2.267-1.838,4.113-4.118,4.113h-74.198
			c-2.268,0-4.113-1.847-4.113-4.113V330.829C-192.525,328.564-190.68,326.715-188.412,326.715z"/>
		<g>
			<path fill="#DAE9FE" d="M-188.412,326.715h68.025c2.273,0,4.116,1.85,4.116,4.114v111.304c0,2.267-1.843,4.113-4.116,4.113
				h-68.025c-2.268,0-4.113-1.847-4.113-4.113V330.829C-192.525,328.564-190.68,326.715-188.412,326.715z"/>
			<polygon fill="#DAE9FE" points="-171.425,417.62 -180.164,438.02 -159.763,429.265 -157.498,425.641 -167.802,415.344 			"/>
		</g>
		<polygon fill="#9EC5FB" points="-77.446,346.986 -159.763,429.291 -171.425,417.611 -89.127,335.316 -82.624,341.841 		"/>
		<g>
			<polygon fill="#DAE9FE" points="-82.624,341.841 -93.946,353.174 -164.912,424.125 -171.425,417.611 -89.127,335.316 			"/>
			<polygon fill="#DAE9FE" points="-82.494,352.027 -88.793,358.315 -93.946,353.156 -87.669,346.86 			"/>
		</g>
		<polygon fill="#EFF5FE" points="-87.669,346.886 -93.946,353.174 -100.475,346.652 -94.178,340.371 		"/>
		<path fill="#9EC5FB" d="M-75.241,344.76l-7.256,7.268l-5.083-5.065l-6.598-6.591l7.289-7.274c2.072-2.1,5.107-2.896,7.957-2.143
			c2.847,0.771,5.087,2.986,5.833,5.835C-72.342,339.643-73.145,342.685-75.241,344.76z"/>
		<path fill="#DAE9FE" d="M-80.299,339.688l-7.281,7.273l-6.598-6.591l7.289-7.274c2.246-2.242,5.562-3.009,8.559-1.954
			C-77.302,334.125-78.054,337.446-80.299,339.688z"/>
		<path fill="#FFFFFF" d="M-188.412,446.246h6.192c-2.29,0-4.113-1.847-4.135-4.113V330.829c0.022-2.265,1.846-4.113,4.135-4.114
			h-6.192c-2.268,0.001-4.113,1.85-4.113,4.114v111.304C-192.525,444.399-190.68,446.246-188.412,446.246z"/>
	</g>
	<g>
		<polygon fill="#FFFFFF" points="-189.469,331.829 -189.469,358.643 -189.469,443.133 -193.598,443.133 -193.598,358.643 
			-193.598,331.829 		"/>
		<g>
			<path fill="#1876F6" d="M-191.525,342.138c1.118,0,2.057-0.912,2.057-2.057v-8.252c0-1.117,0.906-2.057,2.057-2.057h74.198
				c1.148,0,2.057,0.939,2.057,2.057v12.392c0,1.119,0.929,2.057,2.06,2.057c1.145,0,2.081-0.938,2.081-2.057v-12.392
				c0-3.405-2.792-6.171-6.198-6.171h-74.198c-3.416,0-6.186,2.766-6.186,6.171v8.252
				C-193.598,341.226-192.675,342.138-191.525,342.138z"/>
			<path fill="#1876F6" d="M-190.756,346.436c-0.116-0.07-0.235-0.093-0.373-0.11c-0.128-0.021-0.258-0.048-0.396-0.048
				c-0.564,0-1.077,0.211-1.474,0.58c-0.187,0.211-0.33,0.448-0.422,0.686c-0.327,0.765-0.152,1.659,0.422,2.267
				c0.202,0.186,0.421,0.318,0.678,0.422c0.253,0.106,0.513,0.159,0.796,0.159c0.534,0,1.05-0.211,1.449-0.581
				c0.794-0.82,0.794-2.135,0-2.952l-0.307-0.233C-190.498,346.539-190.619,346.488-190.756,346.436z"/>
			<path fill="#1876F6" d="M-187.412,449.342h74.198c3.406,0,6.198-2.782,6.198-6.209v-49.466c0-1.117-0.936-2.055-2.08-2.055
				c-1.133,0-2.062,0.938-2.062,2.055v49.466c0,1.159-0.908,2.057-2.057,2.057h-74.198c-1.15,0-2.057-0.897-2.057-2.057v-86.547
				c0-1.152-0.939-2.056-2.057-2.056c-1.15,0-2.073,0.903-2.073,2.056v86.547C-193.598,446.56-190.828,449.342-187.412,449.342z"/>
			<path fill="#1876F6" d="M-87.337,332.621l-13.587,13.583l-70.95,70.951c-0.024,0.032-0.024,0.043-0.048,0.078
				c-0.163,0.165-0.3,0.376-0.397,0.587l-0.023,0.008l-8.712,20.391c-0.285,0.633-0.211,1.346,0.161,1.936
				c0.397,0.584,1.028,0.922,1.73,0.922c0.277,0,0.562-0.054,0.819-0.159l20.355-8.741l0.044-0.013
				c0.211-0.105,0.398-0.211,0.564-0.368c0.023-0.037,0.044-0.037,0.067-0.054l70.972-70.977l13.551-13.557
				c4.011-4.042,4.01-10.533-0.003-14.551C-76.822,328.653-83.314,328.636-87.337,332.621L-87.337,332.621z M-87.802,356.401
				l-8.746-8.749l3.37-3.359l8.744,8.734L-87.802,356.401z M-99.448,350.575l8.748,8.74l-68.063,68.05l-8.74-8.754L-99.448,350.575z
				 M-175.26,435.115l5.516-12.886l7.359,7.351L-175.26,435.115z M-75.694,344.293l-5.836,5.835l-8.742-8.757l5.838-5.824
				c1.545-1.562,3.836-2.17,5.976-1.583c2.111,0.555,3.795,2.228,4.357,4.366c0.599,2.124-0.009,4.414-1.591,5.963H-75.694z"/>
			<path fill="#1876F6" d="M-125.576,344.221h-49.475c-1.123,0-2.057,0.912-2.057,2.057c0,1.134,0.934,2.057,2.057,2.057h49.475
				c1.142,0,2.057-0.923,2.057-2.057C-123.52,345.133-124.435,344.221-125.576,344.221z"/>
			<path fill="#1876F6" d="M-123.52,358.643c0-1.153-0.915-2.057-2.057-2.057h-49.475c-1.123,0-2.057,0.903-2.057,2.057
				c0,1.134,0.934,2.057,2.057,2.057h49.475C-124.435,360.699-123.52,359.776-123.52,358.643z"/>
			<path fill="#1876F6" d="M-175.051,368.947c-1.123,0-2.057,0.907-2.057,2.057c0,1.139,0.934,2.057,2.057,2.057h37.109
				c1.132,0,2.057-0.918,2.057-2.057c0-1.149-0.926-2.057-2.057-2.057H-175.051z"/>
		</g>
	</g>
</g>
</svg>
