<?xml version="1.0" encoding="UTF-8" standalone="no"?>
<!DOCTYPE svg PUBLIC "-//W3C//DTD SVG 1.1//EN" "http://www.w3.org/Graphics/SVG/1.1/DTD/svg11.dtd">
<svg width="100%" height="100%" viewBox="0 0 1000 1000" version="1.1" xmlns="http://www.w3.org/2000/svg" xmlns:xlink="http://www.w3.org/1999/xlink" xml:space="preserve" xmlns:serif="http://www.serif.com/" style="fill-rule:evenodd;clip-rule:evenodd;stroke-linejoin:round;stroke-miterlimit:2;">
    <g transform="matrix(1.37848,0,0,1.37848,-278.697,-209.969)">
        <circle cx="564.894" cy="515.036" r="362.718" style="fill:rgb(0,85,254);"/>
    </g>
    <g id="Building" transform="matrix(1.17192,0,0,1.17192,199.989,183.645)">
        <path d="M396.109,247.074L508.988,247.074L489.215,152.156C487.766,145.199 481.633,140.219 474.527,140.219L300.781,140.219L396.109,247.074Z" style="fill:rgb(155,189,255);fill-rule:nonzero;"/>
        <path d="M210.934,140.215L37.473,140.215C30.367,140.215 24.234,145.199 22.785,152.156L3.012,247.074L114.797,247.074L210.934,140.215Z" style="fill:rgb(155,189,255);fill-rule:nonzero;"/>
        <path d="M256,224.941C247.73,224.941 241,231.672 241,239.941C241,248.211 247.73,254.938 256,254.938C264.27,254.938 271,248.211 271,239.941C271,231.668 264.27,224.941 256,224.941Z" style="fill:rgb(155,189,255);fill-rule:nonzero;"/>
        <rect x="240.434" y="428.992" width="30" height="82.988" style="fill:rgb(155,189,255);fill-rule:nonzero;"/>
        <path d="M389.387,277.074C385.113,277.074 381.039,275.25 378.195,272.059L271,151.895L271,74.996L339.199,74.996C346.965,74.996 351.766,66.535 347.781,59.867L334.418,37.504L347.781,15.141C351.766,8.473 346.965,0.012 339.199,0.012L256.18,0.012C256.121,0.008 256.062,0 256,0C247.715,0 241,6.715 241,15L241,151.648L132.633,272.105C129.785,275.27 125.734,277.074 121.48,277.074L0,277.074L0,496.98C0,505.266 6.715,511.98 15,511.98L210.434,511.98L210.434,413.992C210.434,405.711 217.148,398.992 225.434,398.992L285.434,398.992C293.719,398.992 300.434,405.711 300.434,413.992L300.434,511.98L497,511.98C505.285,511.98 512,505.266 512,496.98L512,277.074L389.387,277.074ZM91.426,433.992C91.426,442.277 84.711,448.992 76.426,448.992C68.145,448.992 61.426,442.277 61.426,433.992L61.426,413.992C61.426,405.711 68.145,398.992 76.426,398.992C84.711,398.992 91.426,405.711 91.426,413.992L91.426,433.992ZM91.426,353.996C91.426,362.281 84.711,368.996 76.426,368.996C68.145,368.996 61.426,362.281 61.426,353.996L61.426,333.996C61.426,325.715 68.145,318.996 76.426,318.996C84.711,318.996 91.426,325.715 91.426,333.996L91.426,353.996ZM151.426,433.992C151.426,442.277 144.711,448.992 136.426,448.992C128.145,448.992 121.426,442.277 121.426,433.992L121.426,413.992C121.426,405.711 128.145,398.992 136.426,398.992C144.711,398.992 151.426,405.711 151.426,413.992L151.426,433.992ZM151.426,353.996C151.426,362.281 144.711,368.996 136.426,368.996C128.145,368.996 121.426,362.281 121.426,353.996L121.426,333.996C121.426,325.715 128.145,318.996 136.426,318.996C144.711,318.996 151.426,325.715 151.426,333.996L151.426,353.996ZM240.25,353.996C240.25,362.281 233.535,368.996 225.25,368.996C216.965,368.996 210.25,362.281 210.25,353.996L210.25,333.996C210.25,325.715 216.965,318.996 225.25,318.996C233.535,318.996 240.25,325.715 240.25,333.996L240.25,353.996ZM211,239.938C211,215.125 231.188,194.941 256,194.941C280.813,194.941 301,215.125 301,239.938C301,264.754 280.813,284.938 256,284.938C231.188,284.938 211,264.754 211,239.938ZM301.75,353.996C301.75,362.281 295.035,368.996 286.75,368.996C278.465,368.996 271.75,362.281 271.75,353.996L271.75,333.996C271.75,325.715 278.465,318.996 286.75,318.996C295.035,318.996 301.75,325.715 301.75,333.996L301.75,353.996ZM386.824,433.992C386.824,442.277 380.105,448.992 371.824,448.992C363.539,448.992 356.824,442.277 356.824,433.992L356.824,413.992C356.824,405.711 363.539,398.992 371.824,398.992C380.105,398.992 386.824,405.711 386.824,413.992L386.824,433.992ZM386.824,353.996C386.824,362.281 380.105,368.996 371.824,368.996C363.539,368.996 356.824,362.281 356.824,353.996L356.824,333.996C356.824,325.715 363.539,318.996 371.824,318.996C380.105,318.996 386.824,325.715 386.824,333.996L386.824,353.996ZM446.824,433.992C446.824,442.277 440.105,448.992 431.824,448.992C423.539,448.992 416.824,442.277 416.824,433.992L416.824,413.992C416.824,405.711 423.539,398.992 431.824,398.992C440.105,398.992 446.824,405.711 446.824,413.992L446.824,433.992ZM446.824,353.996C446.824,362.281 440.105,368.996 431.824,368.996C423.539,368.996 416.824,362.281 416.824,353.996L416.824,333.996C416.824,325.715 423.539,318.996 431.824,318.996C440.105,318.996 446.824,325.715 446.824,333.996L446.824,353.996Z" style="fill:rgb(155,189,255);fill-rule:nonzero;"/>
    </g>
</svg>
