<?xml version="1.0" encoding="utf-8"?>
<!-- Generator: Adobe Illustrator 16.0.0, SVG Export Plug-In . SVG Version: 6.00 Build 0)  -->
<!DOCTYPE svg PUBLIC "-//W3C//DTD SVG 1.1//EN" "http://www.w3.org/Graphics/SVG/1.1/DTD/svg11.dtd">
<svg version="1.1" id="Layer_1" xmlns:serif="http://www.serif.com/"
	 xmlns="http://www.w3.org/2000/svg" xmlns:xlink="http://www.w3.org/1999/xlink" x="0px" y="0px" width="332.976px"
	 height="333.332px" viewBox="303.012 33.333 332.976 333.332" enable-background="new 303.012 33.333 332.976 333.332"
	 xml:space="preserve">
<g transform="matrix(0.195312,0,0,0.195312,48.2813,48.2812)">
	<g transform="matrix(1,0,0,1,-196,-196)">
		<path fill="#6CABCA" d="M3137.447,1323.573H1567.846c-37.348,0-67.62-30.275-67.62-67.62V187.088
			c-0.003-37.348,30.273-67.62,67.62-67.62h1569.602c37.345,0,67.62,30.273,67.62,67.62v1068.865
			C3205.067,1293.298,3174.792,1323.573,3137.447,1323.573z"/>
	</g>
	<g transform="matrix(1,0,0,1,-196,-196)">
		<path fill="#99E6FC" d="M1698.334,1212.608V230.435c0-11.945,9.68-21.625,21.623-21.625h1228.501c11.94,0,21.62,9.68,21.62,21.625
			v982.172c0,11.94-9.68,21.62-21.62,21.62H1719.956C1708.014,1234.228,1698.334,1224.548,1698.334,1212.608z"/>
	</g>
	<g transform="matrix(1,0,0,1,-196,-196)">
		<path fill="#62DBFB" d="M2656.471,1148.353c-461.676,0-835.942-374.266-835.942-835.94V208.81h-100.573
			c-11.943,0-21.623,9.68-21.623,21.625v982.172c0,11.94,9.68,21.62,21.623,21.62h1228.501c11.94,0,21.62-9.68,21.62-21.62v-64.255
			H2656.471z"/>
	</g>
	<g transform="matrix(1,0,0,1,-196,-196)">
		<path fill="#FEE45A" d="M1800.229,1046.372h1065.278c7.905,0,14.31-6.405,14.31-14.305v-52.4c0-7.9-6.405-14.307-14.31-14.307
			H1800.229c-7.9,0-14.308,6.407-14.308,14.307v52.4C1785.921,1039.967,1792.326,1046.372,1800.229,1046.372z"/>
	</g>
	<g transform="matrix(1,0,0,1,-196,-196)">
		<path fill="#FE646F" d="M1955.297,717.281V382.878c0-46.788,37.928-84.72,84.718-84.72h588.377c46.79,0,84.725,37.93,84.725,84.72
			v334.403c0,46.79-37.93,84.72-84.725,84.72h-588.377C1993.224,802.002,1955.297,764.072,1955.297,717.281z"/>
	</g>
	<g transform="matrix(1,0,0,1,-196,-196)">
		<path fill="#FB2B3A" d="M2450.651,720.191c-212.221,0-384.266-172.043-384.266-384.268v-34.855c0-0.978,0.045-1.943,0.075-2.907
			h-26.445c-46.79,0-84.723,37.93-84.723,84.72v334.403c0,46.788,37.933,84.72,84.723,84.72h588.377
			c45.815,0,83.11-36.37,84.645-81.81h-262.385V720.191z"/>
	</g>
	<g transform="matrix(1,0,0,1,-196,-196)">
		<path fill="#FFFFFF" d="M2257.575,642.536V449.243c0-17.09,18.78-27.52,33.285-18.49l155.265,96.648
			c13.695,8.52,13.695,28.453,0,36.978l-155.265,96.645C2276.355,670.054,2257.575,659.624,2257.575,642.536z"/>
	</g>
	<g transform="matrix(1,0,0,1,-196,-196)">
		<circle fill="#FE646F" cx="2123.22" cy="1005.865" r="97.873"/>
	</g>
	<g transform="matrix(1,0,0,1,-196,-196)">
		<circle fill="#FFFFFF" cx="2123.22" cy="1005.863" r="44.529"/>
	</g>
	<g transform="matrix(1,0,0,1,-196,-196)">
		<circle fill="#0681AF" cx="3089.117" cy="721.52" r="34.364"/>
	</g>
	<g transform="matrix(1,0,0,1,-196,-196)">
		<path fill="#0681AF" d="M1604.646,888.804c-14.238,0-25.773-11.537-25.773-25.772V688.834c0-14.238,11.535-25.773,25.773-25.773
			s25.773,11.535,25.773,25.773v174.198C1630.418,877.267,1618.883,888.804,1604.646,888.804z"/>
	</g>
	<g transform="matrix(1,0,0,1,-196,-196)">
		<path fill="#0681AF" d="M1604.646,635.644c-14.238,0-25.773-11.537-25.773-25.773v-42.385c0-14.235,11.535-25.773,25.773-25.773
			s25.773,11.537,25.773,25.773v42.385C1630.418,624.106,1618.883,635.644,1604.646,635.644z"/>
	</g>
	<g transform="matrix(1,0,0,1,-196,-196)">
		<path fill="#FED2A4" d="M2960.907,1424.323v111.955c-1.44-0.1-2.92-0.135-4.4-0.135h-438.366c-1.48,0-2.92,0.035-4.365,0.135
			v-134.045l-110.65-152.335c-3.78-5.185-5.845-11.475-5.845-17.935v-219.516c0-37.005,30.035-67.04,67.045-67.04h65.085V634.971
			c0-34.02,27.59-61.615,61.645-61.615c17.045,0,32.44,6.907,43.61,18.04c11.135,11.167,18.04,26.565,18.04,43.575v217.586
			c0-34.053,27.595-61.645,61.645-61.645c17.01,0,32.405,6.905,43.575,18.04c11.135,11.165,18.04,26.595,18.04,43.605
			c0-34.053,27.59-61.645,61.645-61.645c17.01,0,32.44,6.905,43.605,18.04c11.135,11.165,18.04,26.595,18.04,43.605
			c0-34.053,27.595-61.645,61.65-61.645c17.01,0,32.405,6.905,43.57,18.04c11.135,11.165,18.045,26.595,18.045,43.605v481.221
			c0,7.185-2.375,14.195-6.805,19.865L2960.907,1424.323z"/>
	</g>
	<g transform="matrix(1,0,0,1,-196,-196)">
		<path fill="#FFBD86" d="M2960.907,1536.279v-0.14h-4.4C2957.987,1536.139,2959.467,1536.179,2960.907,1536.279z"/>
	</g>
	<g transform="matrix(1,0,0,1,-196,-196)">
		<path fill="#FFBD86" d="M2567.671,1402.228l-110.65-152.335c-3.78-5.185-5.84-11.475-5.84-17.935v-219.516
			c0-37.005,30.035-67.038,67.045-67.038h-53.9c-37.01,0-67.045,30.033-67.045,67.038v219.516c0,6.46,2.065,12.75,5.845,17.935
			l110.65,152.335v134.05c1.445-0.105,2.885-0.14,4.365-0.14h49.53V1402.228z"/>
	</g>
	<g transform="matrix(1,0,0,1,-196,-196)">
		<path fill="#6CF5C2" d="M3000.087,1826.134c12.39,0,22.43-10.045,22.43-22.435v-246.216c0-34.985-27.215-63.605-61.61-65.875
			c-1.445-0.105-2.925-0.135-4.4-0.135h-438.371c-1.475,0-2.92,0.03-4.365,0.135c-34.43,2.27-61.65,30.89-61.65,65.875v246.216
			c0,12.395,10.05,22.435,22.435,22.435H3000.087z"/>
	</g>
	<g transform="matrix(1,0,0,1,-196,-196)">
		<path fill="#00F2A6" d="M2691.616,1491.603c1.445-0.1,2.885-0.135,4.365-0.135h-177.841c-1.48,0-2.92,0.035-4.365,0.135
			c-34.435,2.27-61.65,30.895-61.65,65.875v246.221c0,12.39,10.045,22.43,22.435,22.43h155.406v-268.651
			C2629.966,1522.499,2657.181,1493.878,2691.616,1491.603z"/>
	</g>
	<g transform="matrix(1,0,0,1,-196,-196)">
		<path fill="#FFBD86" d="M2556.091,1048.497c15.03,0,27.22-12.185,27.22-27.215V634.971c0-24.35,14.17-45.35,34.7-55.35
			c-8.15-3.97-17.265-6.265-26.955-6.265c-34.055,0-61.645,27.595-61.645,61.615v413.526H2556.091z"/>
		<path fill="#FFBD86" d="M2660.951,907.992c25.215,0,45.65-20.438,45.65-45.655v-10.532c0-24.058,13.85-44.823,33.98-54.968
			c-10.21-4.82-21.9-7.023-34.28-5.403c-30.995,4.063-53.595,31.53-53.595,62.788v53.77H2660.951z"/>
		<path fill="#FFBD86" d="M2784.241,907.992c25.215,0,45.655-20.438,45.655-45.655v-10.532c0-24.058,13.845-44.82,33.97-54.963
			c-7.98-3.765-16.855-5.935-26.255-5.935c-33.815,0-61.235,27.218-61.61,60.95v56.135H2784.241z"/>
		<path fill="#FFBD86" d="M2907.272,907.992c25.215,0,45.655-20.438,45.655-45.655v-10.532c0-24.103,13.9-44.903,34.09-55.028
			c-7.94-3.723-16.76-5.87-26.11-5.87c-34.055,0-61.65,27.595-61.65,61.648c0-0.898-0.09-1.77-0.13-2.658
			c-0.02,0.64-0.1,1.26-0.1,1.908v56.188H2907.272z"/>
	</g>
</g>
</svg>
