<?xml version="1.0" encoding="utf-8"?>
<!-- Generator: Adobe Illustrator 16.0.0, SVG Export Plug-In . SVG Version: 6.00 Build 0)  -->
<!DOCTYPE svg PUBLIC "-//W3C//DTD SVG 1.1//EN" "http://www.w3.org/Graphics/SVG/1.1/DTD/svg11.dtd">
<svg version="1.1" id="Layer_1" xmlns:serif="http://www.serif.com/"
	 xmlns="http://www.w3.org/2000/svg" xmlns:xlink="http://www.w3.org/1999/xlink" x="0px" y="0px" width="333px" height="333px"
	 viewBox="302 34.5 333 333" enable-background="new 302 34.5 333 333" xml:space="preserve">
<g id="Capa-1" serif:id="Capa 1">
	<g transform="matrix(0,1,1,0,79.9016,38.2168)">
		<path fill="#C1B5C6" d="M146.466,295.624h100.011c1.803,0,3.01,1.854,2.27,3.493L151.409,513.23L146.466,295.624z"/>
	</g>
	<g transform="matrix(0.406538,0.913634,0.913634,-0.406538,38.2188,47.6271)">
		<path fill="#D0C7D4" d="M355.328,211.651c1.06,0.253,1.883,1.203,1.883,2.42l-1.883,235.186l-71.387-184.756L355.328,211.651z"/>
	</g>
	<g transform="matrix(0.730993,0.682385,0.682385,-0.730993,51.7131,41.9648)">
		<path fill="#EFECF0" d="M358.678,119.292l97.653,0c2.251,0.013,4.22,1.544,4.78,3.726l35.44,138.514L358.678,119.292z"/>
	</g>
	<g transform="matrix(-0.707134,-0.70708,-0.70708,0.707134,80.5084,62.5645)">
		<path fill="#EFECF0" d="M-294.965-122.248l61.733,0c2.45-0.003,3.41-3.187,1.367-4.543l-220.471-145.824L-294.965-122.248z"/>
	</g>
	<g transform="matrix(1,0,0,1,100.387,100.823)">
		<path fill="#FF97A4" d="M503.736,158.224c-4.706-3.2-21.026-11.561-41.59,8.34c-20.533-19.9-36.856-11.54-41.56-8.34
			c-13.634,9.3-17.78,29.663-9.44,46.356c15.08,30.15,48.047,41.443,49.45,41.91c1.01,0.323,2.12,0.323,3.133,0
			c1.403-0.467,34.364-11.76,49.457-41.91C521.509,187.887,517.373,167.524,503.736,158.224"/>
	</g>
	<g transform="matrix(1,0,0,1,77.0688,88.7237)">
		<path fill="#FF7D8D" d="M449.328,216.038c-8.357-16.689-4.217-37.029,9.439-46.33c1.283-0.889,3.474-2.173,6.39-3.136
			c-10.529-2.423-18.246,1.703-21.253,3.75c-13.633,9.3-17.78,29.667-9.44,46.356c15.08,30.15,48.047,41.443,49.45,41.913
			c1.014,0.32,2.124,0.32,3.134,0c0.37-0.123,2.837-0.983,6.553-2.689C483.47,251.466,461.01,239.435,449.328,216.038"/>
	</g>
	<g transform="matrix(1,0,0,1,51.9722,37.1196)">
		<path fill="#FF97A4" d="M390.768,9.596c-4.703-3.203-21.022-11.567-41.566,8.336c-20.54-19.903-36.86-11.543-41.57-8.336
			c-13.637,9.303-17.783,29.66-9.44,46.354c15.077,30.146,48.054,41.426,49.45,41.9c1,0.33,2.113,0.33,3.123,0
			c1.396-0.474,34.373-11.753,49.446-41.9C408.558,39.256,404.409,18.899,390.768,9.596"/>
	</g>
	<g transform="matrix(1,0,0,1,28.7129,25.163)">
		<path fill="#FF7D8D" d="M336.497,66.923c-8.347-16.683-4.196-37.043,9.443-46.34c1.19-0.816,3.14-1.963,5.71-2.896
			c-10.273-2.187-17.8,1.853-20.76,3.867c-13.637,9.303-17.783,29.66-9.44,46.343c15.077,30.157,48.054,41.437,49.45,41.907
			c1.003,0.333,2.113,0.333,3.123,0c0.377-0.13,3.05-1.04,7.043-2.894C371.061,102.567,348.3,90.53,336.497,66.923"/>
	</g>
	<g transform="matrix(1,0,0,1,32.4385,105.962)">
		<path fill="#FE5578" d="M345.19,199.315c-5.667-3.844-14.647-4.657-24.003,3.402c-9.36-8.06-18.333-7.246-24.007-3.402
			c-8.37,5.726-10.963,18.096-5.903,28.206c8.66,17.33,27.547,23.79,28.347,24.063c1.014,0.316,2.12,0.316,3.13,0
			c0.797-0.273,19.687-6.733,28.347-24.063C356.153,217.411,353.56,205.041,345.19,199.315"/>
	</g>
	<g transform="matrix(1,0,0,1,27.5273,92.0636)">
		<path fill="#FE3F67" d="M333.73,261.465c-0.8-0.27-19.693-6.733-28.35-24.063c-4.707-9.416-2.783-20.783,4.257-26.923
			c-2.874,0.297-5.437,1.31-7.547,2.733c-8.367,5.727-10.963,18.097-5.903,28.207c8.653,17.333,27.546,23.79,28.347,24.063
			c1.013,0.32,2.12,0.32,3.13,0c0.33-0.126,3.73-1.283,8.224-3.816C335.16,261.738,334.42,261.682,333.73,261.465"/>
	</g>
	<g transform="matrix(1,0,0,1,94.7583,42.1612)">
		<path fill="#FE5578" d="M490.603,50.443c-5.667-3.863-14.641-4.657-24.011,3.383c-9.37-8.04-18.336-7.24-24.006-3.383
			c-8.36,5.71-10.947,18.097-5.897,28.203c8.657,17.324,27.54,23.784,28.351,24.054c1.013,0.333,2.123,0.333,3.113,0
			c0.81-0.27,19.693-6.73,28.347-24.054C501.552,68.539,498.966,56.143,490.603,50.443"/>
	</g>
	<g transform="matrix(1,0,0,1,90.0474,28.248)">
		<path fill="#FE3F67" d="M479.611,112.592c-0.787-0.263-19.67-6.73-28.347-24.05c-4.71-9.443-2.767-20.87,4.333-26.983
			c-3.177,0.18-6.014,1.24-8.3,2.797c-8.36,5.703-10.95,18.097-5.896,28.207c8.656,17.323,27.54,23.78,28.35,24.05
			c1.014,0.333,2.123,0.333,3.113,0c0.333-0.113,3.717-1.263,8.157-3.783C480.547,112.809,480.083,112.745,479.611,112.592"/>
	</g>
</g>
</svg>
