<?xml version="1.0" encoding="utf-8"?>
<!-- Generator: Adobe Illustrator 16.0.0, SVG Export Plug-In . SVG Version: 6.00 Build 0)  -->
<!DOCTYPE svg PUBLIC "-//W3C//DTD SVG 1.1//EN" "http://www.w3.org/Graphics/SVG/1.1/DTD/svg11.dtd">
<svg version="1.1" id="Capa_1" xmlns="http://www.w3.org/2000/svg" xmlns:xlink="http://www.w3.org/1999/xlink" x="0px" y="0px"
	 width="340px" height="512px" viewBox="36.5 0 340 512" enable-background="new 36.5 0 340 512" xml:space="preserve">
<g>
	<path fill="#BCD151" d="M201.74,389.07h18.143c32.595-41.799,154.376-17,114.707,122.93H87.032
		C47.363,372.07,169.144,347.271,201.74,389.07z"/>
	<path fill="#8D9F25" d="M245.219,373.107c39.536,10.129,76.43,52.638,51.977,138.893h37.395
		C366.995,397.692,291.662,360.213,245.219,373.107z"/>
	<path fill="#F6BB93" d="M210.811,420.408L210.811,420.408c20.652,0,37.395-16.742,37.395-37.395v-46.281h-74.788v46.281
		C173.417,403.666,190.159,420.408,210.811,420.408z"/>
	<path fill="#E49775" d="M173.417,373.628c23.266,5.312,49.784,6.729,74.788,4.256v-41.151h-74.788V373.628L173.417,373.628z"/>
	<g>
		<path fill="#F6BB93" d="M82.297,260.107h41.787v-63.192H82.297c-17.45,0-31.596,14.146-31.596,31.596l0,0
			C50.701,245.962,64.847,260.107,82.297,260.107z"/>
		<path fill="#F6BB93" d="M339.324,260.107h-41.786v-63.192h41.786c17.45,0,31.597,14.146,31.597,31.596l0,0
			C370.922,245.962,356.775,260.107,339.324,260.107z"/>
	</g>
	<path fill="#52668D" d="M98.356,247.588c-7.792-33.731-19.307-78.69-24.498-100.62c-33.375-28.978-40.279-90.227-20.1-133.762
		c2.909-6.276,10.926-8.149,16.294-3.787c13.263,10.777,39.427,20.997,88.337,3.057c95.249-34.936,175.458,12.1,180.062,36.183
		c5.15,0,30.163,3.544,30.163,28.141c0,20.922-34.384,132.353-49.209,170.789L98.356,247.588L98.356,247.588z"/>
	<path fill="#243B5D" d="M338.45,48.658C334.832,29.732,284.52-3.37,216.91,0.279c51.025,3.103,87.437,31.427,90.335,48.38
		c4.607,0,26.983,3.544,26.983,28.141c0,20.922-30.759,132.353-44.021,170.789h29.196c14.825-38.436,49.209-149.867,49.209-170.789
		C368.614,52.202,343.601,48.658,338.45,48.658z"/>
	<path fill="#F6BB93" d="M92.978,290.193c0,83.216,235.667,83.216,235.667,0c0-47.684-6.377-128.417-20.272-159.8
		c-3.298-7.451-10.472-15.096-16.343-18.605c-4.966-2.968-10.174-4.646-15.471-4.646c-5.926,0-11.708,1.898-17.513,4.646
		c-15.041,7.107-30.214,19.863-48.235,19.863c-18.021,0-33.193-12.757-48.234-19.863c-5.805-2.748-11.588-4.646-17.514-4.646
		c-5.297,0-10.505,1.677-15.471,4.646c-5.882,3.509-13.064,11.167-16.376,18.638C99.378,161.637,92.978,241.606,92.978,290.193z"/>
	<path fill="#E49775" d="M308.372,130.393c-3.299-7.451-10.472-15.096-16.343-18.605c-4.966-2.968-10.174-4.646-15.471-4.646
		c-4.309,0-8.543,1.012-12.764,2.616c1.147,0.587,2.284,1.263,3.406,2.029c5.138,3.509,11.417,11.154,14.304,18.605
		c12.161,31.383,17.743,112.117,17.743,159.799c0,39.763-47.094,60.523-96.275,62.287c61.41,1.929,125.672-18.832,125.672-62.287
		C328.645,242.511,322.267,161.777,308.372,130.393z"/>
	<g>
		<path fill="#243B5D" d="M267.094,231.592c-4.268,0-7.726-3.459-7.726-7.726v-12.021c0-4.268,3.459-7.726,7.726-7.726
			s7.726,3.459,7.726,7.726v12.021C274.82,228.133,271.361,231.592,267.094,231.592z"/>
		<path fill="#243B5D" d="M154.529,231.592c-4.267,0-7.726-3.459-7.726-7.726v-12.021c0-4.268,3.459-7.726,7.726-7.726
			c4.268,0,7.727,3.459,7.727,7.726v12.021C162.256,228.133,158.796,231.592,154.529,231.592z"/>
	</g>
	<path fill="#243B5D" d="M266.451,196.591c-8.576,0-17.152-2.425-23.835-7.275c-3.454-2.507-4.222-7.338-1.716-10.792
		c2.507-3.455,7.338-4.222,10.791-1.715c8,5.807,21.518,5.807,29.518,0c3.452-2.505,8.284-1.739,10.792,1.715
		c2.506,3.454,1.737,8.285-1.715,10.792C283.603,194.166,275.027,196.591,266.451,196.591z"/>
	<path fill="#243B5D" d="M174.462,196.591c-1.573,0-3.161-0.48-4.532-1.474c-8-5.807-21.518-5.806-29.518,0
		c-3.455,2.504-8.286,1.737-10.791-1.715c-2.508-3.454-1.738-8.285,1.715-10.792c13.366-9.698,34.304-9.698,47.671,0
		c3.453,2.507,4.221,7.338,1.715,10.792C179.21,195.484,176.853,196.59,174.462,196.591z"/>
	<path fill="#8D9F25" d="M112.119,512v-38.286c0-4.268,3.459-7.726,7.726-7.726s7.726,3.459,7.726,7.726V512H112.119z M309.505,512
		v-38.286c0-4.268-3.459-7.726-7.727-7.726s-7.726,3.459-7.726,7.726V512H309.505z"/>
	<path fill="#828C1F" d="M309.505,473.714c0-3.146-1.885-5.85-4.584-7.054c-0.554,13.524-2.98,28.604-7.726,45.34h12.309
		L309.505,473.714L309.505,473.714z"/>
	<path fill="#243B5D" d="M231.674,294.632c-1.977,0-3.955-0.755-5.463-2.263c-8.49-8.49-22.305-8.492-30.796,0
		c-3.018,3.016-7.91,3.017-10.927-0.001c-3.019-3.017-3.019-7.909,0-10.927c14.516-14.516,38.135-14.515,52.648,0
		c3.019,3.017,3.019,7.908,0.001,10.927C235.629,293.877,233.651,294.632,231.674,294.632z"/>
</g>
</svg>
