<?xml version="1.0" encoding="utf-8"?>
<!-- Generator: Adobe Illustrator 16.0.0, SVG Export Plug-In . SVG Version: 6.00 Build 0)  -->
<!DOCTYPE svg PUBLIC "-//W3C//DTD SVG 1.1//EN" "http://www.w3.org/Graphics/SVG/1.1/DTD/svg11.dtd">
<svg version="1.1" xmlns="http://www.w3.org/2000/svg" xmlns:xlink="http://www.w3.org/1999/xlink" x="0px" y="0px"
	 width="648.861px" height="129.241px" viewBox="0 0 648.861 129.241" enable-background="new 0 0 648.861 129.241"
	 xml:space="preserve">
<g id="_x32_">
	<g>
		<rect fill="#FFFFFF" width="18.358" height="129.241"/>
		<rect x="23.189" fill="#FFFFFF" width="18.357" height="129.241"/>
		<rect x="46.378" fill="#FFFFFF" width="18.357" height="129.241"/>
		<rect x="69.566" fill="#FFFFFF" width="18.358" height="129.241"/>
		<rect x="92.755" fill="#FFFFFF" width="18.357" height="129.241"/>
		<rect x="115.944" fill="#FFFFFF" width="18.358" height="129.241"/>
		<rect x="139.133" fill="#FFFFFF" width="18.358" height="129.241"/>
		<rect x="162.322" fill="#FFFFFF" width="18.358" height="129.241"/>
		<rect x="185.51" fill="#FFFFFF" width="18.358" height="129.241"/>
		<rect x="208.7" fill="#FFFFFF" width="18.358" height="129.241"/>
		<rect x="231.889" fill="#FFFFFF" width="18.357" height="129.241"/>
		<rect x="255.077" fill="#FFFFFF" width="18.358" height="129.241"/>
		<rect x="278.266" fill="#FFFFFF" width="18.358" height="129.241"/>
		<rect x="301.455" fill="#FFFFFF" width="18.357" height="129.241"/>
		<rect x="324.644" fill="#FFFFFF" width="18.357" height="129.241"/>
		<rect x="347.833" fill="#FFFFFF" width="18.358" height="129.241"/>
		<rect x="371.021" fill="#FFFFFF" width="18.358" height="129.241"/>
		<rect x="394.21" fill="#FFFFFF" width="18.358" height="129.241"/>
		<rect x="417.399" fill="#FFFFFF" width="18.358" height="129.241"/>
		<rect x="440.588" fill="#FFFFFF" width="18.357" height="129.241"/>
		<rect x="463.776" fill="#FFFFFF" width="18.358" height="129.241"/>
		<rect x="486.965" fill="#FFFFFF" width="18.357" height="129.241"/>
		<rect x="510.155" fill="#FFFFFF" width="18.357" height="129.241"/>
		<rect x="533.343" fill="#FFFFFF" width="18.357" height="129.241"/>
		<rect x="556.532" fill="#FFFFFF" width="18.357" height="129.241"/>
		<rect x="579.721" fill="#FFFFFF" width="18.357" height="129.241"/>
		<rect x="602.91" fill="#FFFFFF" width="18.357" height="129.241"/>
		<rect x="626.098" fill="#FFFFFF" width="18.357" height="129.241"/>
		<rect x="11.339" width="18.358" height="68.522"/>
		<rect x="34.383" width="18.358" height="68.522"/>
		<rect x="81.935" width="18.358" height="68.522"/>
		<rect x="104.979" width="18.358" height="68.522"/>
		<rect x="127.657" width="18.358" height="68.522"/>
		<rect x="174.72" width="18.358" height="68.522"/>
		<rect x="197.764" width="18.358" height="68.522"/>
		<rect x="245.315" width="18.358" height="68.522"/>
		<rect x="268.359" width="18.358" height="68.522"/>
		<rect x="291.038" width="18.358" height="68.522"/>
		<rect x="336.15" width="18.358" height="68.522"/>
		<rect x="359.195" width="18.358" height="68.522"/>
		<rect x="406.746" width="18.358" height="68.522"/>
		<rect x="429.79" width="18.358" height="68.522"/>
		<rect x="452.468" width="18.358" height="68.522"/>
		<rect x="500.019" width="18.358" height="68.522"/>
		<rect x="523.063" width="18.358" height="68.522"/>
		<rect x="570.615" width="18.358" height="68.522"/>
		<rect x="593.659" width="18.357" height="68.522"/>
		<rect x="616.336" width="18.358" height="68.522"/>
	</g>
</g>
<g id="Designed_by_Vecteezy">
</g>
</svg>
