<svg xmlns="http://www.w3.org/2000/svg" height="32" width="32"><path fill="#C6D5E6" d="M4.671 28l-2.004-3.214c2.207-1.41 3.849-2.918 4.923-4.525 1.075-1.607 1.613-3.623 1.613-6.047a2.332 2.332 0 0 1-.698.085c-1.22 0-2.294-.367-3.224-1.1-.93-.733-1.394-1.776-1.394-3.13 0-1.465.435-2.621 1.307-3.467.871-.846 1.975-1.269 3.311-1.269 1.685 0 3.022.663 4.01 1.988.987 1.325 1.48 3.228 1.48 5.709 0 3.383-.798 6.3-2.396 8.754-1.598 2.452-3.907 4.524-6.928 6.216zm15.338 0l-2.005-3.214c2.208-1.41 3.85-2.918 4.924-4.525 1.075-1.607 1.612-3.623 1.612-6.047a2.332 2.332 0 0 1-.697.085c-1.22 0-2.295-.367-3.224-1.1-.93-.733-1.395-1.776-1.395-3.13 0-1.465.436-2.621 1.308-3.467.871-.846 1.975-1.269 3.311-1.269 1.685 0 3.021.663 4.009 1.988.988 1.325 1.481 3.228 1.481 5.709 0 3.383-.798 6.3-2.396 8.754-1.598 2.452-3.907 4.524-6.928 6.216z"/></svg>