<?xml version="1.0" encoding="UTF-8" standalone="no"?>
<!DOCTYPE svg PUBLIC "-//W3C//DTD SVG 1.1//EN" "http://www.w3.org/Graphics/SVG/1.1/DTD/svg11.dtd">
<svg width="100%" height="100%" viewBox="0 0 24 24" version="1.1" xmlns="http://www.w3.org/2000/svg" xmlns:xlink="http://www.w3.org/1999/xlink" xml:space="preserve" xmlns:serif="http://www.serif.com/" style="fill-rule:evenodd;clip-rule:evenodd;stroke-linejoin:round;stroke-miterlimit:2;">
    <path d="M9.413,9.375L7.912,8.888L7.912,13.613C7.912,14.813 8.7,15.9 9.825,16.275L13.163,17.4L13.163,15.9L10.425,15C9.825,14.813 9.413,14.213 9.413,13.575L9.413,9.375Z" style="fill-rule:nonzero;stroke:black;stroke-width:1px;"/>
    <path d="M4.875,7.875L3.45,7.388C3.413,7.388 3.375,7.388 3.375,7.425L3.375,16.575C3.375,17.775 4.163,18.863 5.287,19.238L13.05,21.825C13.088,21.825 13.125,21.825 13.125,21.788L13.125,20.4C13.125,20.363 13.125,20.363 13.088,20.363L5.888,17.963C5.287,17.775 4.875,17.175 4.875,16.538L4.875,7.912C4.912,7.912 4.912,7.875 4.875,7.875Z" style="fill-rule:nonzero;stroke:black;stroke-width:1px;"/>
    <path d="M4.8,4.088L3.413,5.138L14.4,8.813C15,9 15.413,9.6 15.413,10.238L15.413,22.763L16.913,21.638L16.913,10.163C16.913,8.963 16.125,7.875 15,7.5L4.8,4.088Z" style="fill-rule:nonzero;stroke:black;stroke-width:1px;"/>
    <path d="M8.25,1.5L6.863,2.55L18.113,6.3C18.713,6.488 19.125,7.088 19.125,7.725L19.125,19.95L20.625,18.825L20.625,7.65C20.625,6.45 19.837,5.363 18.713,4.988L8.25,1.5Z" style="fill-rule:nonzero;stroke:black;stroke-width:1px;"/>
</svg>
