<?xml version="1.0" encoding="utf-8"?>
<!-- Generator: Adobe Illustrator 16.0.0, SVG Export Plug-In . SVG Version: 6.00 Build 0)  -->
<!DOCTYPE svg PUBLIC "-//W3C//DTD SVG 1.1//EN" "http://www.w3.org/Graphics/SVG/1.1/DTD/svg11.dtd">
<svg version="1.1" id="Layer_1" xmlns="http://www.w3.org/2000/svg" xmlns:xlink="http://www.w3.org/1999/xlink" x="0px" y="0px"
	 width="600px" height="435.513px" viewBox="0 0 600 435.513" enable-background="new 0 0 600 435.513" xml:space="preserve">
<g>
	<g>
		<g>
			<g>
				<path fill="#FEC9A3" d="M437.853,156.032l-24.47-4.588v-19.831h-13.222h-13.221v19.831l-23.524,7.237
					c-0.965,0.297-1.894,0.684-2.785,1.137c0.692,8.859,2.824,17.346,3.769,26.078l4.915-5.809v30.848h79.322v-41.909
					C448.637,162.664,444.106,157.205,437.853,156.032z"/>
				<path fill="#FEB784" d="M393.294,149.24h13.734c2.401-0.003,4.696-0.988,6.354-2.727v-14.9h-13.222h-13.221v14.9
					C388.598,148.252,390.893,149.238,393.294,149.24z"/>
				<path fill="#F35244" d="M448.637,169.028v13.264H431.01v28.645h-61.695v-30.848l-9.089,10.742l-14.77-14.769l9.465-11.647
					c2.201-2.711,5.158-4.706,8.497-5.732l23.522-7.237v2.203c0.004,7.302,5.927,13.217,13.229,13.213
					c7.296-0.004,13.209-5.917,13.214-13.213v-2.203l15.063,2.823l9.408,1.765C444.107,157.206,448.637,162.665,448.637,169.028z"/>
				<path fill="#FEB784" d="M422.196,107.376h-2.203v13.221h2.203c3.65,0,6.611-2.96,6.611-6.61
					C428.807,110.337,425.846,107.376,422.196,107.376z"/>
				<path fill="#FEB784" d="M378.239,107.376h-0.109c-3.651,0-6.61,2.96-6.61,6.61s2.959,6.61,6.61,6.61h2.335l-0.132-13.221
					L378.239,107.376L378.239,107.376z"/>
				<path fill="#FEC9A3" d="M419.991,105.173v15.424c0,10.952-8.879,19.83-19.83,19.83s-19.829-8.878-19.829-19.83v-15.424
					c0-10.638,8.395-19.38,19.021-19.813c0.268-0.012,0.537-0.017,0.808-0.017C411.114,85.344,419.99,94.221,419.991,105.173z"/>
				<path fill="#FEB784" d="M419.991,105.173v15.424c0,10.077-7.559,18.551-17.568,19.701c4.671-3.76,7.386-9.436,7.379-15.433
					v-22.033c-0.004-7.303-4.018-14.014-10.447-17.473c0.268-0.012,0.537-0.017,0.808-0.017
					C411.114,85.344,419.99,94.221,419.991,105.173z"/>
				<circle fill="#6E3C24" cx="390.245" cy="110.612" r="3.305"/>
				<circle fill="#6E3C24" cx="410.076" cy="110.612" r="3.305"/>
				<path fill="#F7A468" d="M393.656,119.723l4.402-11.012l4.091,1.635l-4.402,11.013L393.656,119.723z"/>
				<g>
					<path fill="#6E3C24" d="M419.991,109.58V98.834c0-5.339-3.634-9.993-8.813-11.288v6.61
						C411.179,94.156,415.161,103.783,419.991,109.58z"/>
					<path fill="#6E3C24" d="M380.331,109.58V98.834c0-5.339,3.634-9.993,8.813-11.288v6.61
						C389.145,94.156,385.161,103.783,380.331,109.58z"/>
					<path fill="#6E3C24" d="M411.179,87.546v6.61h-22.034v-6.61l0.74-1.11c2.291-3.436,6.146-5.5,10.276-5.5
						c4.129,0,7.986,2.064,10.276,5.5L411.179,87.546z"/>
				</g>
				<path fill="#7A432A" d="M400.161,80.936c-0.762,0.008-1.521,0.086-2.27,0.234l6.543,12.986h4.934l-6.501-12.905
					C401.981,81.046,401.073,80.941,400.161,80.936L400.161,80.936z"/>
				<path fill="#7A432A" d="M391.468,84.544l4.083,9.612h4.789l-5.16-12.146C393.797,82.62,392.538,83.479,391.468,84.544z"/>
				<path fill="#6E3C24" d="M419.991,107.376v13.337c0,2.843-0.458,5.666-1.356,8.362l-3.244,9.733
					c-1.199,3.598-4.567,6.025-8.361,6.025h-13.734c-3.794,0-7.161-2.428-8.361-6.026l-3.245-9.733
					c-0.897-2.696-1.354-5.52-1.354-8.361v-13.337l7.505,11.259c0.816,1.226,2.192,1.962,3.667,1.962h17.315
					c1.474,0,2.851-0.736,3.666-1.963L419.991,107.376z"/>
				<path fill="#FEC9A3" d="M397.653,131.614h-4.101v-4.406h4.101c3.017,0,5.937-0.694,8.01-1.903l2.221,3.807
					C405.114,130.725,401.481,131.614,397.653,131.614z"/>
				<path fill="#EA4A3B" d="M448.637,169.028v13.264H431.01v28.645h-61.695v-5.002c18.279-5.724,44.886-19.376,59.131-51.666
					l9.408,1.765C444.107,157.206,448.637,162.665,448.637,169.028z"/>
				<path fill="#FEC093" d="M431.01,182.291h17.627v6.61H431.01V182.291z"/>
			</g>
		</g>
		<g>
			<path fill="#FFE9CC" d="M456.11,219.24c2.163-0.006,3.917-1.365,3.924-3.045v-47.174h-19.615c-2.167,0-3.925-1.361-3.925-3.043
				V149.24H350.19c-2.163,0.004-3.917,1.365-3.924,3.043v63.912c0.007,1.68,1.761,3.039,3.924,3.045H456.11z"/>
			<path fill="#FFE2BD" d="M346.266,169.022v47.174c0,1.682,1.757,3.045,3.924,3.045h56.704
				C377.547,210.928,355.039,192.284,346.266,169.022z"/>
			<path fill="#FFA993" d="M440.416,169.022h19.616l-23.54-19.781v16.738C436.492,167.66,438.25,169.022,440.416,169.022z"/>
			<g>
				<path fill="#FF7956" d="M383.96,176.646l-4.766,19.935h-5.979l-3.187-13.337l-3.215,13.337h-5.978l-4.766-19.935h5.244
					l2.566,14.437l3.496-14.437h5.271l3.496,14.437l2.595-14.437H383.96z"/>
				<path fill="#FF7956" d="M398.848,192.944h-7.473l-1.24,3.637h-5.076l7.303-19.793h5.556l7.303,19.793h-5.131L398.848,192.944z
					 M397.607,189.278l-2.48-7.331l-2.511,7.331H397.607z"/>
				<path fill="#FF7956" d="M411.903,192.887h6.429v3.693h-11.252v-19.935h4.822L411.903,192.887L411.903,192.887z"/>
				<path fill="#FF7956" d="M434.882,176.646v3.835h-5.413v16.1h-4.852v-16.1h-5.355v-3.835H434.882z"/>
				<path fill="#FF7956" d="M441.903,192.69h8.797v3.891h-14.153v-3.665l8.655-12.406h-8.543v-3.863h13.984v3.666L441.903,192.69z"
					/>
			</g>
		</g>
	</g>
	<g>
		<path fill="#E4EAF6" d="M394.813,37.429c39.922,7.045,79.23,6.124,118.406,4.912V21.339c0-10.041-8.215-18.256-18.256-18.256
			H385.434c-10.041,0-18.256,8.215-18.256,18.256v16.543C376.39,36.884,385.601,35.754,394.813,37.429z"/>
		<path fill="#E4EAF6" d="M489.813,34.429c-28-1-56,0-84-4c-12.879-1.756-25.756-0.762-38.635,1.359v23.443
			c0,10.037,8.215,18.253,18.256,18.253h59.328v17.311c0,2.035,2.459,3.055,3.895,1.613l18.926-18.924h27.384
			c10.041,0,18.254-8.216,18.254-18.252V34.719C505.252,35.202,497.25,34.96,489.813,34.429z"/>
		<g>
			<path fill="#4F6184" d="M389.573,31.541v15.554h-3.783v-6.49h-5.896v6.49h-3.762V31.541h3.762v6.028h5.896v-6.028H389.573z"/>
			<path fill="#4F6184" d="M392.432,29.947c0.411-0.374,0.953-0.562,1.629-0.562c0.674,0,1.217,0.188,1.627,0.562
				c0.411,0.374,0.617,0.847,0.617,1.419c0,0.558-0.206,1.023-0.617,1.397c-0.41,0.374-0.953,0.561-1.627,0.561
				c-0.676,0-1.218-0.187-1.629-0.561c-0.41-0.374-0.615-0.839-0.615-1.397C391.817,30.794,392.022,30.321,392.432,29.947z
				 M395.93,34.82v12.276h-3.762V34.82H395.93z"/>
			<path fill="#4F6184" d="M401.606,47.535c0,1.012-0.268,1.848-0.803,2.508s-1.367,0.99-2.496,0.99v-1.386
				c0.396,0,0.686-0.088,0.868-0.264c0.184-0.176,0.274-0.514,0.274-1.012v-0.22h-1.605v-3.388h3.102
				C401.387,45.614,401.606,46.538,401.606,47.535z"/>
			<path fill="#4F6184" d="M411.903,31.541v15.554h-3.763V31.541H411.903z"/>
			<path fill="#4F6184" d="M417.512,31.167c0,1.012-0.261,1.823-0.781,2.431c-0.521,0.609-1.279,0.913-2.277,0.913v-1.408
				c0.765,0,1.146-0.491,1.146-1.474v-0.352h-1.386v-2.706h2.882C417.371,29.407,417.512,30.273,417.512,31.167z"/>
			<path fill="#4F6184" d="M439.27,36.084c0.865,0.932,1.298,2.226,1.298,3.883v7.128h-3.739v-6.688
				c0-0.777-0.209-1.382-0.627-1.815c-0.419-0.433-0.986-0.649-1.705-0.649c-0.748,0-1.34,0.231-1.771,0.693
				c-0.435,0.462-0.648,1.111-0.648,1.947v6.512h-3.763v-6.688c0-0.777-0.206-1.382-0.616-1.815
				c-0.41-0.433-0.976-0.649-1.692-0.649c-0.748,0-1.343,0.228-1.782,0.682c-0.44,0.455-0.66,1.108-0.66,1.958v6.512h-3.763V34.82
				h3.763v2.09c0.322-0.689,0.817-1.232,1.485-1.628c0.667-0.396,1.446-0.594,2.343-0.594c0.938,0,1.767,0.217,2.484,0.649
				c0.719,0.432,1.263,1.052,1.63,1.859c0.425-0.763,1.008-1.371,1.748-1.826c0.739-0.455,1.559-0.682,2.452-0.682
				C437.216,34.687,438.405,35.153,439.27,36.084z"/>
			<path fill="#4F6184" d="M459.035,40.451c0.551,0.689,0.825,1.489,0.825,2.398c0,1.335-0.442,2.376-1.331,3.124
				c-0.888,0.748-2.159,1.122-3.816,1.122h-7.238V31.541h7.063c1.584,0,2.81,0.345,3.675,1.034c0.864,0.689,1.299,1.672,1.299,2.948
				c0,0.938-0.25,1.72-0.748,2.343c-0.499,0.624-1.152,1.031-1.959,1.221C457.741,39.307,458.487,39.762,459.035,40.451z
				 M451.238,37.9h2.464c1.306,0,1.958-0.558,1.958-1.672s-0.667-1.672-2.002-1.672h-2.42V37.9L451.238,37.9z M456.012,42.322
				c0-0.557-0.185-0.994-0.551-1.309c-0.367-0.315-0.888-0.473-1.563-0.473h-2.662v3.498h2.686
				C455.315,44.037,456.012,43.466,456.012,42.322z"/>
			<path fill="#4F6184" d="M467.418,35.347c0.739-0.44,1.544-0.66,2.409-0.66v4.026h-1.077c-0.998,0-1.771,0.212-2.322,0.638
				c-0.549,0.426-0.824,1.144-0.824,2.156v5.588h-3.762V34.82h3.762v2.31C466.073,36.382,466.678,35.787,467.418,35.347z"/>
			<path fill="#4F6184" d="M471.676,29.947c0.41-0.374,0.953-0.562,1.627-0.562c0.675,0,1.218,0.188,1.629,0.562
				c0.41,0.374,0.615,0.847,0.615,1.419c0,0.558-0.205,1.023-0.615,1.397c-0.411,0.374-0.954,0.561-1.629,0.561
				c-0.674,0-1.217-0.187-1.627-0.561c-0.411-0.374-0.617-0.839-0.617-1.397C471.059,30.794,471.265,30.321,471.676,29.947z
				 M475.174,34.82v12.276h-3.764V34.82H475.174z"/>
			<path fill="#4F6184" d="M484.853,35.303c0.676,0.426,1.174,1.005,1.496,1.738V34.82h3.74v12.276h-3.74v-2.222
				c-0.322,0.734-0.82,1.313-1.496,1.738c-0.674,0.425-1.48,0.638-2.42,0.638c-1.012,0-1.918-0.253-2.717-0.759
				c-0.801-0.506-1.431-1.235-1.893-2.189c-0.462-0.953-0.692-2.068-0.692-3.344c0-1.29,0.23-2.409,0.692-3.355
				s1.092-1.672,1.893-2.178c0.799-0.506,1.705-0.759,2.717-0.759C483.371,34.665,484.179,34.878,484.853,35.303z M481.697,38.758
				c-0.492,0.528-0.735,1.261-0.735,2.2s0.243,1.672,0.735,2.2c0.49,0.528,1.142,0.792,1.947,0.792c0.791,0,1.441-0.271,1.947-0.814
				c0.506-0.542,0.758-1.269,0.758-2.178c0-0.924-0.252-1.653-0.758-2.189c-0.507-0.535-1.156-0.803-1.947-0.803
				C482.837,37.966,482.187,38.229,481.697,38.758z"/>
			<path fill="#4F6184" d="M503.827,36.095c0.828,0.939,1.242,2.229,1.242,3.872v7.128h-3.762v-6.688
				c0-0.821-0.217-1.463-0.648-1.925c-0.434-0.462-1.009-0.693-1.728-0.693c-0.763,0-1.368,0.242-1.814,0.726
				c-0.447,0.484-0.672,1.174-0.672,2.068v6.512h-3.762V34.82h3.762v2.244c0.354-0.733,0.877-1.312,1.573-1.738
				c0.696-0.425,1.515-0.638,2.453-0.638C501.881,34.687,502.998,35.157,503.827,36.095z"/>
		</g>
	</g>
</g>
<g>
	<g>
		<g>
			<path fill="#374357" d="M172.165,138.766h39.661v11.017h-39.661V138.766z"/>
			<path fill="#FEC093" d="M231.137,155.724l-19.311-5.941l-6.61-2.203v-19.83h-13.22h-13.221v19.83l-6.609,2.203l-19.313,5.942
				c-5.547,1.707-9.333,6.832-9.333,12.636v45.32h96.949V168.36C240.47,162.556,236.684,157.431,231.137,155.724z"/>
			<path fill="#FEB784" d="M196.498,147.579c3.209-0.001,6.308-1.17,8.718-3.289v-16.541h-13.22h-13.221v16.541
				c2.41,2.118,5.509,3.288,8.718,3.289H196.498z"/>
			<path fill="#374357" d="M240.47,168.36v45.321h-96.949V168.36c0-5.804,3.785-10.929,9.332-12.636l19.313-5.941l4.406-1.468v1.468
				c0,8.519,6.906,15.424,15.425,15.424c8.518,0,15.424-6.905,15.424-15.424v-1.468l4.407,1.468l19.31,5.941
				C236.683,157.43,240.47,162.556,240.47,168.36z"/>
			<path fill="#404F66" d="M185.385,154.19v59.491h-41.864V168.36c-0.001-5.804,3.784-10.93,9.332-12.636l19.313-5.941
				L185.385,154.19z"/>
			<path fill="#404F66" d="M240.47,168.36v45.321h-41.864V154.19l13.221-4.407l19.312,5.941
				C236.684,157.433,240.468,162.557,240.47,168.36z"/>
			<path fill="#3B495E" d="M240.47,170.756v42.925h-41.864v-6.054C213.376,201.945,230.111,191.173,240.47,170.756z"/>
			<g>
				<path fill="#374357" d="M165.134,181.536l-3.564,2.595l-16.273-22.387c0.765-1.321,1.751-2.501,2.917-3.487L165.134,181.536z"/>
				<path fill="#374357" d="M218.436,169.614h4.407v44.067h-4.407V169.614z"/>
				<path fill="#374357" d="M238.698,161.752l-16.276,22.379l-3.564-2.595l16.928-23.273
					C236.95,159.249,237.936,160.43,238.698,161.752L238.698,161.752z"/>
				<path fill="#374357" d="M161.148,169.614h4.407v44.067h-4.407V169.614z"/>
			</g>
			<path fill="#FEB784" d="M214.029,105.715h-2.202v13.221h2.202c3.65,0,6.61-2.96,6.61-6.61
				C220.639,108.676,217.679,105.715,214.029,105.715z"/>
			<path fill="#FEB784" d="M170.072,105.715h-0.109c-3.651,0-6.61,2.96-6.61,6.61c0,3.65,2.959,6.61,6.61,6.61h2.203v-13.221
				L170.072,105.715L170.072,105.715z"/>
			<path fill="#FEC9A3" d="M211.826,103.512v16.173c0,5.319-1.08,10.584-3.177,15.474v0.002c-2.084,4.86-6.862,8.012-12.151,8.013
				h-9.006c-5.288-0.002-10.066-3.152-12.151-8.013c-2.096-4.89-3.176-10.155-3.176-15.476v-15.493c0-9.314,6.2-17.588,14.895-19.88
				c1.185-0.312,2.396-0.508,3.616-0.586c10.928-0.729,20.377,7.539,21.105,18.467C211.811,102.632,211.826,103.072,211.826,103.512
				L211.826,103.512z"/>
			<path fill="#FEC093" d="M211.826,103.512v16.173c0,5.319-1.08,10.584-3.177,15.474v0.002c-2.084,4.86-6.862,8.012-12.151,8.013
				h-5.327c6.596-3.403,10.74-10.205,10.739-17.628v-22.033c-0.003-9.034-6.107-16.926-14.852-19.2
				c1.185-0.312,2.396-0.508,3.616-0.586c10.928-0.729,20.377,7.539,21.104,18.467C211.811,102.632,211.826,103.072,211.826,103.512
				L211.826,103.512z"/>
			<path fill="#F7A468" d="M185.49,115.933l4.401-11.013l4.091,1.636l-4.401,11.012L185.49,115.933z"/>
			<path fill="#F7A468" d="M189.487,127.749h-4.102v-4.407h4.102c3.017,0,5.935-0.693,8.01-1.903l2.22,3.807
				C196.948,126.861,193.314,127.749,189.487,127.749z"/>
			<circle fill="#7A432A" cx="182.08" cy="109.019" r="3.305"/>
			<circle fill="#7A432A" cx="201.91" cy="109.019" r="3.305"/>
			<path fill="#6E3C24" d="M172.165,110.122v-8.813c0-7.302,4.933-13.221,11.017-13.221l-0.388,1.396
				C180.634,97.26,176.995,104.326,172.165,110.122L172.165,110.122z"/>
			<path fill="#6E3C24" d="M211.826,110.122V94.97c0-3.918-3.177-7.094-7.095-7.094c-0.58,0-1.157,0.071-1.72,0.212v6.61
				C203.012,94.698,206.996,104.326,211.826,110.122z"/>
			<path fill="#61311B" d="M211.826,93.162v1.536h-28.645c-6.084,0-11.017-4.933-11.017-11.017h30.18
				c1.872,0,3.702,0.554,5.259,1.592C210.241,87.031,211.825,89.992,211.826,93.162z"/>
			<path fill="#4D5E78" d="M195.032,146.388l-9.647-3.215l-13.22-4.407v11.017l13.22,4.407l6.342,2.113
				c2.733,0.93,5.701-0.532,6.63-3.266c0.93-2.732-0.532-5.7-3.266-6.63C195.072,146.402,195.052,146.395,195.032,146.388z"/>
			<path fill="#4D5E78" d="M211.826,138.766l-11.715,3.904c-0.899,0.3-1.506,1.143-1.506,2.091v9.429l13.221-4.407V138.766z"/>
			<path fill="#353F52" d="M189.792,165.049v48.632h-4.407v-49.959C186.779,164.383,188.265,164.83,189.792,165.049z"/>
			<path fill="#4D5E78" d="M165.555,178.427h19.83v8.813h-19.83V178.427z"/>
			<path fill="#4D5E78" d="M198.606,178.427h19.83v8.813h-19.83V178.427z"/>
		</g>
		<g>
			<path fill="#FFE9CC" d="M246.944,218.833c2.163-0.005,3.916-1.365,3.924-3.044v-47.174h-19.615c-2.167,0-3.923-1.362-3.923-3.043
				v-16.739h-86.306c-2.163,0.005-3.916,1.365-3.923,3.044v63.912c0.007,1.679,1.76,3.039,3.923,3.044H246.944z"/>
			<path fill="#FFE2BD" d="M137.101,168.615v47.174c0,1.681,1.757,3.044,3.923,3.044h56.705
				C168.38,210.521,145.874,191.879,137.101,168.615z"/>
			<path fill="#FFA993" d="M231.252,168.615h19.615l-23.538-19.782v16.739C227.329,167.253,229.085,168.615,231.252,168.615z"/>
			<g>
				<path fill="#FF7956" d="M157.495,180.077v4.173h6.738v3.637h-6.738v4.427h7.584v3.863h-12.406v-19.935h12.406v3.835H157.495z"/>
				<path fill="#FF7956" d="M182.138,176.242v3.835h-5.414v16.1h-4.85v-16.1h-5.357v-3.835H182.138z"/>
				<path fill="#FF7956" d="M188.848,176.242v11.504c0,1.316,0.296,2.322,0.888,3.017c0.593,0.696,1.452,1.044,2.58,1.044
					c1.127,0,1.988-0.348,2.58-1.044c0.592-0.694,0.889-1.7,0.889-3.017v-11.504h4.821v11.504c0,1.88-0.367,3.464-1.1,4.751
					c-0.733,1.288-1.734,2.256-3.003,2.904c-1.27,0.648-2.703,0.973-4.3,0.973c-1.599,0-3.009-0.319-4.229-0.959
					c-1.222-0.639-2.181-1.606-2.876-2.903c-0.696-1.298-1.043-2.886-1.043-4.766v-11.504H188.848z"/>
				<path fill="#FF7956" d="M220.498,191.369c-0.837,1.514-2.04,2.693-3.609,3.539c-1.57,0.846-3.417,1.269-5.541,1.269h-7.528
					v-19.935h7.528c2.144,0,3.994,0.414,5.555,1.24c1.561,0.828,2.759,1.993,3.596,3.497c0.836,1.504,1.254,3.232,1.254,5.188
					S221.334,189.857,220.498,191.369z M215.31,190.368c1.043-0.996,1.565-2.396,1.565-4.201s-0.521-3.204-1.565-4.201
					c-1.043-0.996-2.505-1.494-4.384-1.494h-2.284v11.391h2.284C212.805,191.863,214.267,191.365,215.31,190.368z"/>
				<path fill="#FF7956" d="M229.309,180.077v4.173h6.739v3.637h-6.739v4.427h7.584v3.863h-12.406v-19.935h12.406v3.835H229.309z"/>
			</g>
		</g>
	</g>
	<g>
		<path fill="#E4EAF6" d="M188.5,38.028c39.922,7.045,79.23,6.125,118.406,4.912V21.938c0-10.041-8.215-18.256-18.256-18.256
			H179.122c-10.042,0-18.256,8.215-18.256,18.256v16.543C170.078,37.482,179.289,36.353,188.5,38.028z"/>
		<path fill="#E4EAF6" d="M283.5,35.028c-28-1-56,0-84-4c-12.878-1.756-25.756-0.762-38.634,1.359V55.83
			c0,10.037,8.214,18.253,18.256,18.253h59.328v17.311c0,2.035,2.459,3.055,3.895,1.613l18.925-18.924h27.382
			c10.041,0,18.256-8.216,18.256-18.252V35.317C298.94,35.801,290.938,35.559,283.5,35.028z"/>
		<g>
			<path fill="#4F6184" d="M188.261,32.14v15.554h-3.784v-6.49h-5.896v6.49h-3.763V32.14h3.763v6.028h5.896V32.14H188.261z"/>
			<path fill="#4F6184" d="M191.12,30.545c0.41-0.374,0.952-0.561,1.628-0.561c0.674,0,1.217,0.187,1.628,0.561
				s0.616,0.847,0.616,1.419c0,0.558-0.206,1.023-0.616,1.397s-0.954,0.561-1.628,0.561c-0.676,0-1.218-0.187-1.628-0.561
				c-0.411-0.374-0.616-0.839-0.616-1.397C190.504,31.392,190.71,30.919,191.12,30.545z M194.618,35.418v12.276h-3.763V35.418
				H194.618z"/>
			<path fill="#4F6184" d="M200.294,48.134c0,1.012-0.269,1.848-0.803,2.508c-0.536,0.66-1.368,0.99-2.497,0.99v-1.386
				c0.396,0,0.686-0.088,0.868-0.264c0.185-0.176,0.275-0.514,0.275-1.012v-0.22h-1.605v-3.388h3.102
				C200.074,46.213,200.294,47.137,200.294,48.134z"/>
			<path fill="#4F6184" d="M210.59,32.14v15.554h-3.762V32.14H210.59z"/>
			<path fill="#4F6184" d="M216.2,31.766c0,1.012-0.262,1.823-0.781,2.431c-0.521,0.609-1.28,0.913-2.277,0.913v-1.408
				c0.763,0,1.145-0.491,1.145-1.474v-0.352H212.9V29.17h2.883C216.06,30.006,216.2,30.872,216.2,31.766z"/>
			<path fill="#4F6184" d="M237.958,36.683c0.864,0.932,1.298,2.226,1.298,3.883v7.128h-3.74v-6.688
				c0-0.777-0.209-1.382-0.627-1.815s-0.987-0.649-1.705-0.649c-0.748,0-1.339,0.231-1.771,0.693
				c-0.434,0.462-0.649,1.111-0.649,1.947v6.512h-3.762v-6.688c0-0.777-0.206-1.382-0.616-1.815s-0.976-0.649-1.694-0.649
				c-0.748,0-1.342,0.228-1.781,0.682c-0.44,0.455-0.66,1.108-0.66,1.958v6.512h-3.763V35.418h3.763v2.09
				c0.321-0.689,0.816-1.232,1.484-1.628s1.448-0.594,2.344-0.594c0.938,0,1.767,0.217,2.485,0.649
				c0.719,0.433,1.262,1.052,1.628,1.859c0.426-0.763,1.009-1.371,1.749-1.826c0.74-0.455,1.559-0.682,2.453-0.682
				C235.904,35.286,237.092,35.752,237.958,36.683z"/>
			<path fill="#4F6184" d="M249.926,42.238v5.456h-3.762V32.14h6.094c1.848,0,3.256,0.459,4.224,1.375
				c0.969,0.917,1.452,2.153,1.452,3.707c0,0.968-0.216,1.83-0.648,2.585c-0.434,0.756-1.075,1.35-1.926,1.782
				c-0.851,0.433-1.885,0.649-3.102,0.649H249.926z M254.106,37.222c0-1.364-0.756-2.046-2.266-2.046h-1.914v4.048h1.914
				C253.35,39.224,254.106,38.557,254.106,37.222z"/>
			<path fill="#4F6184" d="M266.865,35.902c0.675,0.426,1.173,1.005,1.495,1.738v-2.222h3.74v12.276h-3.74v-2.222
				c-0.322,0.734-0.82,1.313-1.495,1.738c-0.676,0.425-1.481,0.638-2.421,0.638c-1.012,0-1.917-0.253-2.717-0.759
				s-1.43-1.235-1.892-2.189c-0.462-0.953-0.693-2.068-0.693-3.344c0-1.29,0.231-2.409,0.693-3.355
				c0.462-0.946,1.092-1.672,1.892-2.178c0.799-0.506,1.705-0.759,2.717-0.759C265.384,35.264,266.19,35.477,266.865,35.902z
				 M263.708,39.356c-0.492,0.528-0.737,1.261-0.737,2.2s0.246,1.672,0.737,2.2c0.491,0.528,1.14,0.792,1.946,0.792
				c0.792,0,1.441-0.271,1.947-0.814c0.506-0.542,0.759-1.269,0.759-2.178c0-0.924-0.253-1.653-0.759-2.189
				c-0.506-0.535-1.155-0.803-1.947-0.803C264.848,38.564,264.199,38.828,263.708,39.356z"/>
			<path fill="#4F6184" d="M286.907,35.418v12.276h-3.784v-2.222c-0.353,0.719-0.876,1.291-1.572,1.716
				c-0.697,0.425-1.508,0.638-2.432,0.638c-1.408,0-2.526-0.469-3.354-1.408c-0.829-0.938-1.243-2.229-1.243-3.872v-7.128h3.74
				v6.666c0,0.836,0.216,1.485,0.648,1.947c0.432,0.462,1.016,0.693,1.749,0.693c0.763,0,1.363-0.242,1.805-0.726
				c0.438-0.484,0.659-1.173,0.659-2.068v-6.512H286.907z"/>
			<path fill="#4F6184" d="M293.264,31.414v16.28h-3.762v-16.28H293.264z"/>
		</g>
	</g>
</g>
<g>
	<path fill="#0055FE" d="M63.522,260.417c1.663,0.951,2.976,2.279,3.937,3.984s1.441,3.632,1.441,5.781s-0.48,4.082-1.441,5.797
		c-0.961,1.716-2.274,3.049-3.937,3.999c-1.664,0.95-3.519,1.426-5.564,1.426s-3.901-0.476-5.564-1.426
		c-1.664-0.95-2.976-2.283-3.937-3.999c-0.961-1.715-1.442-3.647-1.442-5.797s0.481-4.076,1.442-5.781s2.273-3.033,3.937-3.984
		c1.663-0.949,3.519-1.426,5.564-1.426S61.858,259.468,63.522,260.417z M54.578,263.89c-0.972,0.578-1.731,1.41-2.279,2.495
		c-0.548,1.085-0.821,2.352-0.821,3.798c0,1.447,0.273,2.713,0.821,3.797c0.547,1.086,1.307,1.918,2.279,2.496
		c0.971,0.578,2.097,0.867,3.379,0.867c1.281,0,2.407-0.289,3.379-0.867c0.971-0.578,1.73-1.41,2.278-2.496
		c0.547-1.084,0.822-2.35,0.822-3.797c0-1.446-0.274-2.713-0.822-3.798c-0.548-1.085-1.307-1.917-2.278-2.495
		c-0.972-0.578-2.098-0.868-3.379-0.868C56.676,263.022,55.55,263.312,54.578,263.89z"/>
	<path fill="#0055FE" d="M87.159,265.718c1.178,1.303,1.767,3.132,1.767,5.488v9.981h-4.34v-9.485c0-1.365-0.352-2.424-1.054-3.178
		c-0.703-0.754-1.664-1.132-2.883-1.132c-1.24,0-2.232,0.403-2.976,1.209c-0.744,0.806-1.116,1.964-1.116,3.472v9.114h-4.371
		v-17.174h4.371v3.44c0.455-1.156,1.204-2.061,2.248-2.712c1.043-0.651,2.248-0.977,3.611-0.977
		C84.4,263.766,85.981,264.417,87.159,265.718z"/>
	<path fill="#0055FE" d="M108.765,273.438H96.179c0.062,1.53,0.475,2.655,1.24,3.379s1.715,1.085,2.852,1.085
		c1.013,0,1.855-0.248,2.527-0.744c0.671-0.496,1.1-1.167,1.286-2.015h4.619c-0.228,1.198-0.713,2.273-1.457,3.224
		c-0.744,0.951-1.7,1.695-2.868,2.232s-2.464,0.806-3.89,0.806c-1.674,0-3.162-0.356-4.464-1.069
		c-1.302-0.713-2.314-1.73-3.038-3.053c-0.724-1.323-1.085-2.884-1.085-4.682s0.361-3.363,1.085-4.697
		c0.723-1.332,1.736-2.35,3.038-3.053c1.302-0.703,2.79-1.055,4.464-1.055c1.694,0,3.177,0.352,4.448,1.055s2.252,1.669,2.945,2.898
		c0.692,1.23,1.038,2.631,1.038,4.201C108.92,272.384,108.868,272.88,108.765,273.438z M103.418,268.323
		c-0.795-0.724-1.772-1.085-2.929-1.085c-1.178,0-2.17,0.361-2.976,1.085s-1.25,1.788-1.333,3.193h8.339
		C104.58,270.111,104.213,269.046,103.418,268.323z"/>
	<path fill="#0055FE" d="M131.224,264.851c1.333,0.703,2.381,1.721,3.146,3.053c0.764,1.334,1.147,2.899,1.147,4.697
		s-0.383,3.358-1.147,4.682c-0.765,1.322-1.813,2.34-3.146,3.053s-2.836,1.069-4.511,1.069c-1.674,0-3.177-0.356-4.51-1.069
		s-2.382-1.73-3.146-3.053c-0.765-1.323-1.147-2.884-1.147-4.682s0.382-3.363,1.147-4.697c0.764-1.332,1.813-2.35,3.146-3.053
		s2.836-1.055,4.51-1.055C128.388,263.796,129.891,264.148,131.224,264.851z M123.614,268.866c-0.848,0.857-1.271,2.103-1.271,3.735
		s0.423,2.878,1.271,3.735c0.847,0.858,1.88,1.286,3.1,1.286c1.219,0,2.252-0.428,3.1-1.286c0.847-0.857,1.271-2.103,1.271-3.735
		s-0.424-2.878-1.271-3.735c-0.848-0.857-1.881-1.286-3.1-1.286C125.494,267.58,124.461,268.008,123.614,268.866z"/>
	<path fill="#0055FE" d="M144.414,261.596c-0.517,0.454-0.775,1.251-0.775,2.387v0.031h3.472v3.688h-3.472v13.485h-4.371v-13.485
		h-2.201v-3.688h2.201v-0.403c0-2.046,0.584-3.621,1.752-4.728c1.167-1.104,2.898-1.658,5.192-1.658c0.392,0,0.692,0.011,0.899,0.03
		v3.783C145.83,260.956,144.931,261.142,144.414,261.596z"/>
	<path fill="#0055FE" d="M165.649,277.437v3.751h-2.294c-1.922,0-3.395-0.465-4.417-1.396c-1.023-0.93-1.535-2.479-1.535-4.649
		v-7.44h-2.387v-3.688h2.387v-4.247h4.371v4.247h3.844v3.688h-3.844v7.502c0,0.827,0.165,1.406,0.496,1.736
		c0.331,0.331,0.889,0.496,1.674,0.496H165.649z"/>
	<path fill="#0055FE" d="M183.753,265.718c1.178,1.303,1.767,3.132,1.767,5.488v9.981h-4.34v-9.485c0-1.365-0.352-2.424-1.054-3.178
		c-0.703-0.754-1.664-1.132-2.883-1.132c-1.24,0-2.232,0.403-2.976,1.209c-0.744,0.806-1.116,1.964-1.116,3.472v9.114h-4.371v-22.94
		h4.371v9.207c0.455-1.156,1.204-2.061,2.248-2.712c1.043-0.651,2.248-0.977,3.611-0.977
		C180.994,263.766,182.574,264.417,183.753,265.718z"/>
	<path fill="#0055FE" d="M205.359,273.438h-12.586c0.062,1.53,0.475,2.655,1.24,3.379s1.715,1.085,2.852,1.085
		c1.013,0,1.855-0.248,2.527-0.744c0.671-0.496,1.1-1.167,1.286-2.015h4.619c-0.228,1.198-0.713,2.273-1.457,3.224
		c-0.744,0.951-1.7,1.695-2.868,2.232s-2.464,0.806-3.89,0.806c-1.674,0-3.162-0.356-4.464-1.069
		c-1.302-0.713-2.314-1.73-3.038-3.053c-0.724-1.323-1.085-2.884-1.085-4.682s0.361-3.363,1.085-4.697
		c0.723-1.332,1.736-2.35,3.038-3.053c1.302-0.703,2.79-1.055,4.464-1.055c1.694,0,3.177,0.352,4.448,1.055s2.252,1.669,2.945,2.898
		c0.692,1.23,1.038,2.631,1.038,4.201C205.514,272.384,205.462,272.88,205.359,273.438z M200.011,268.323
		c-0.795-0.724-1.772-1.085-2.929-1.085c-1.178,0-2.17,0.361-2.976,1.085s-1.25,1.788-1.333,3.193h8.339
		C201.174,270.111,200.807,269.046,200.011,268.323z"/>
	<path fill="#0055FE" d="M229.538,264.851c1.157,0.703,2.062,1.721,2.712,3.053c0.651,1.334,0.977,2.899,0.977,4.697
		s-0.325,3.363-0.977,4.696c-0.651,1.333-1.555,2.351-2.712,3.054c-1.158,0.703-2.459,1.054-3.906,1.054
		c-1.447,0-2.682-0.346-3.705-1.038s-1.751-1.617-2.186-2.775v11.781h-4.371v-25.358h4.371v3.565
		c0.434-1.158,1.163-2.078,2.186-2.76s2.258-1.023,3.705-1.023C227.079,263.796,228.381,264.148,229.538,264.851z M220.998,268.958
		c-0.858,0.898-1.286,2.113-1.286,3.643c0,1.509,0.428,2.713,1.286,3.611c0.857,0.898,1.948,1.349,3.271,1.349
		c1.364,0,2.459-0.438,3.286-1.317c0.826-0.879,1.24-2.093,1.24-3.643c0-1.551-0.414-2.77-1.24-3.658
		c-0.827-0.889-1.922-1.333-3.286-1.333C222.946,267.61,221.855,268.06,220.998,268.958z"/>
	<path fill="#0055FE" d="M236.575,257.365c0.496-0.444,1.147-0.667,1.953-0.667s1.457,0.223,1.953,0.667
		c0.496,0.444,0.744,1.018,0.744,1.721c0,0.682-0.248,1.244-0.744,1.689c-0.496,0.444-1.147,0.666-1.953,0.666
		s-1.457-0.222-1.953-0.666c-0.496-0.445-0.744-1.008-0.744-1.689C235.831,258.382,236.079,257.809,236.575,257.365z
		 M240.698,264.014v17.174h-4.371v-17.174H240.698z"/>
	<path fill="#0055FE" d="M255.113,264.82c1.033,0.682,1.767,1.602,2.201,2.76v-3.565h4.34v17.174h-4.34v-3.597
		c-0.434,1.158-1.167,2.083-2.201,2.775c-1.034,0.692-2.274,1.038-3.72,1.038c-1.447,0-2.749-0.351-3.906-1.054
		c-1.158-0.703-2.062-1.721-2.713-3.054c-0.651-1.333-0.976-2.898-0.976-4.696s0.325-3.363,0.976-4.697
		c0.651-1.332,1.555-2.35,2.713-3.053c1.157-0.703,2.459-1.055,3.906-1.055C252.839,263.796,254.079,264.138,255.113,264.82z
		 M249.471,268.943c-0.827,0.889-1.24,2.107-1.24,3.658c0,1.55,0.414,2.764,1.24,3.643c0.826,0.879,1.922,1.317,3.286,1.317
		c1.322,0,2.413-0.45,3.271-1.349c0.857-0.898,1.286-2.103,1.286-3.611c0-1.529-0.429-2.744-1.286-3.643
		c-0.858-0.898-1.948-1.349-3.271-1.349C251.393,267.61,250.297,268.054,249.471,268.943z"/>
	<path fill="#0055FE" d="M280.595,265.718c1.178,1.303,1.767,3.132,1.767,5.488v9.981h-4.34v-9.485c0-1.365-0.352-2.424-1.054-3.178
		c-0.703-0.754-1.664-1.132-2.883-1.132c-1.24,0-2.232,0.403-2.976,1.209c-0.744,0.806-1.116,1.964-1.116,3.472v9.114h-4.371
		v-17.174h4.371v3.44c0.455-1.156,1.204-2.061,2.248-2.712c1.043-0.651,2.248-0.977,3.611-0.977
		C277.836,263.766,279.417,264.417,280.595,265.718z"/>
	<path fill="#0055FE" d="M286.453,257.365c0.496-0.444,1.147-0.667,1.953-0.667s1.457,0.223,1.953,0.667
		c0.496,0.444,0.744,1.018,0.744,1.721c0,0.682-0.248,1.244-0.744,1.689c-0.496,0.444-1.147,0.666-1.953,0.666
		s-1.457-0.222-1.953-0.666c-0.496-0.445-0.744-1.008-0.744-1.689C285.709,258.382,285.957,257.809,286.453,257.365z
		 M290.576,264.014v17.174h-4.371v-17.174H290.576z"/>
	<path fill="#0055FE" d="M305.487,265.378c1.262,1.054,2.047,2.459,2.357,4.215h-4.093c-0.165-0.826-0.538-1.487-1.116-1.983
		s-1.332-0.743-2.263-0.743c-0.744,0-1.323,0.176-1.736,0.526c-0.414,0.352-0.62,0.827-0.62,1.426c0,0.476,0.165,0.858,0.496,1.147
		c0.33,0.289,0.744,0.517,1.24,0.682c0.496,0.166,1.209,0.361,2.139,0.589c1.303,0.29,2.361,0.595,3.178,0.915
		s1.52,0.826,2.108,1.519s0.884,1.628,0.884,2.806c0,1.468-0.574,2.656-1.721,3.564c-1.147,0.91-2.692,1.364-4.635,1.364
		c-2.232,0-4.02-0.501-5.363-1.503c-1.344-1.002-2.16-2.434-2.449-4.294h4.185c0.103,0.848,0.475,1.515,1.116,1.999
		c0.641,0.486,1.478,0.729,2.511,0.729c0.744,0,1.313-0.18,1.705-0.542c0.393-0.361,0.589-0.831,0.589-1.411
		c0-0.495-0.171-0.898-0.511-1.209c-0.342-0.31-0.766-0.547-1.271-0.713c-0.507-0.164-1.225-0.361-2.155-0.588
		c-1.282-0.289-2.32-0.584-3.115-0.885c-0.796-0.299-1.478-0.779-2.046-1.441c-0.568-0.66-0.853-1.57-0.853-2.728
		c0-1.487,0.568-2.696,1.705-3.627c1.136-0.93,2.708-1.396,4.712-1.396C302.553,263.796,304.227,264.324,305.487,265.378z"/>
	<path fill="#0055FE" d="M320.49,277.437v3.751h-2.293c-1.923,0-3.395-0.465-4.418-1.396c-1.023-0.93-1.535-2.479-1.535-4.649v-7.44
		h-2.387v-3.688h2.387v-4.247h4.371v4.247h3.844v3.688h-3.844v7.502c0,0.827,0.166,1.406,0.496,1.736
		c0.33,0.331,0.889,0.496,1.674,0.496H320.49z"/>
	<path fill="#0055FE" d="M334.565,265.378c1.26,1.054,2.046,2.459,2.355,4.215h-4.092c-0.166-0.826-0.537-1.487-1.115-1.983
		c-0.58-0.496-1.334-0.743-2.264-0.743c-0.744,0-1.322,0.176-1.736,0.526c-0.414,0.352-0.619,0.827-0.619,1.426
		c0,0.476,0.164,0.858,0.496,1.147c0.33,0.289,0.743,0.517,1.239,0.682c0.496,0.166,1.209,0.361,2.14,0.589
		c1.301,0.29,2.36,0.595,3.177,0.915s1.519,0.826,2.108,1.519c0.589,0.692,0.883,1.628,0.883,2.806c0,1.468-0.573,2.656-1.721,3.564
		c-1.146,0.91-2.691,1.364-4.634,1.364c-2.231,0-4.021-0.501-5.362-1.503c-1.344-1.002-2.16-2.434-2.449-4.294h4.185
		c0.103,0.848,0.476,1.515,1.116,1.999c0.641,0.486,1.477,0.729,2.511,0.729c0.744,0,1.312-0.18,1.705-0.542
		c0.392-0.361,0.589-0.831,0.589-1.411c0-0.495-0.17-0.898-0.512-1.209c-0.341-0.31-0.765-0.547-1.271-0.713
		c-0.507-0.164-1.225-0.361-2.155-0.588c-1.281-0.289-2.32-0.584-3.115-0.885c-0.795-0.299-1.478-0.779-2.046-1.441
		c-0.568-0.66-0.853-1.57-0.853-2.728c0-1.487,0.568-2.696,1.705-3.627c1.137-0.93,2.707-1.396,4.712-1.396
		C331.629,263.796,333.303,264.324,334.565,265.378z"/>
	<path fill="#0055FE" d="M357.597,264.82c1.033,0.682,1.767,1.602,2.2,2.76v-3.565h4.341v17.174h-4.341v-3.597
		c-0.434,1.158-1.167,2.083-2.2,2.775c-1.034,0.692-2.274,1.038-3.72,1.038c-1.447,0-2.749-0.351-3.906-1.054
		c-1.158-0.703-2.062-1.721-2.713-3.054c-0.65-1.333-0.977-2.898-0.977-4.696s0.326-3.363,0.977-4.697
		c0.651-1.332,1.555-2.35,2.713-3.053c1.157-0.703,2.459-1.055,3.906-1.055C355.323,263.796,356.563,264.138,357.597,264.82z
		 M351.955,268.943c-0.827,0.889-1.24,2.107-1.24,3.658c0,1.55,0.413,2.764,1.24,3.643c0.826,0.879,1.922,1.317,3.285,1.317
		c1.322,0,2.413-0.45,3.271-1.349c0.856-0.898,1.285-2.103,1.285-3.611c0-1.529-0.429-2.744-1.285-3.643
		c-0.858-0.898-1.949-1.349-3.271-1.349C353.877,267.61,352.781,268.054,351.955,268.943z"/>
	<path fill="#0055FE" d="M382.272,264.851c1.158,0.703,2.063,1.721,2.713,3.053c0.651,1.334,0.977,2.899,0.977,4.697
		s-0.325,3.363-0.977,4.696c-0.65,1.333-1.555,2.351-2.713,3.054c-1.157,0.703-2.459,1.054-3.905,1.054s-2.682-0.346-3.704-1.038
		c-1.023-0.692-1.752-1.617-2.186-2.775v3.597h-4.371v-22.94h4.371v9.332c0.434-1.158,1.162-2.078,2.186-2.76
		c1.022-0.682,2.258-1.023,3.704-1.023S381.115,264.148,382.272,264.851z M373.732,268.958c-0.858,0.898-1.286,2.113-1.286,3.643
		c0,1.509,0.428,2.713,1.286,3.611c0.857,0.898,1.948,1.349,3.271,1.349c1.364,0,2.459-0.438,3.286-1.317
		c0.826-0.879,1.24-2.093,1.24-3.643c0-1.551-0.414-2.77-1.24-3.658c-0.827-0.889-1.922-1.333-3.286-1.333
		C375.68,267.61,374.589,268.06,373.732,268.958z"/>
	<path fill="#0055FE" d="M401.508,264.851c1.333,0.703,2.381,1.721,3.146,3.053c0.764,1.334,1.146,2.899,1.146,4.697
		s-0.383,3.358-1.146,4.682c-0.766,1.322-1.813,2.34-3.146,3.053s-2.836,1.069-4.511,1.069c-1.674,0-3.177-0.356-4.511-1.069
		c-1.332-0.713-2.382-1.73-3.146-3.053c-0.765-1.323-1.146-2.884-1.146-4.682s0.382-3.363,1.146-4.697
		c0.765-1.332,1.814-2.35,3.146-3.053c1.334-0.703,2.837-1.055,4.511-1.055C398.672,263.796,400.175,264.148,401.508,264.851z
		 M393.897,268.866c-0.848,0.857-1.271,2.103-1.271,3.735s0.423,2.878,1.271,3.735c0.848,0.858,1.881,1.286,3.101,1.286
		s2.253-0.428,3.101-1.286c0.847-0.857,1.271-2.103,1.271-3.735s-0.424-2.878-1.271-3.735c-0.848-0.857-1.881-1.286-3.101-1.286
		S394.744,268.008,393.897,268.866z"/>
	<path fill="#0055FE" d="M416.372,276.817l4.34-12.803h4.649l-6.354,17.174h-5.332l-6.354-17.174h4.681L416.372,276.817z"/>
	<path fill="#0055FE" d="M443.776,273.438H431.19c0.063,1.53,0.476,2.655,1.24,3.379s1.715,1.085,2.852,1.085
		c1.014,0,1.855-0.248,2.527-0.744s1.1-1.167,1.286-2.015h4.619c-0.228,1.198-0.713,2.273-1.457,3.224
		c-0.744,0.951-1.7,1.695-2.868,2.232c-1.167,0.537-2.464,0.806-3.89,0.806c-1.675,0-3.162-0.356-4.464-1.069
		c-1.303-0.713-2.314-1.73-3.038-3.053c-0.724-1.323-1.085-2.884-1.085-4.682s0.361-3.363,1.085-4.697
		c0.724-1.332,1.735-2.35,3.038-3.053c1.302-0.703,2.789-1.055,4.464-1.055c1.694,0,3.177,0.352,4.448,1.055
		s2.252,1.669,2.945,2.898c0.691,1.23,1.038,2.631,1.038,4.201C443.931,272.384,443.879,272.88,443.776,273.438z M438.428,268.323
		c-0.795-0.724-1.771-1.085-2.929-1.085c-1.179,0-2.17,0.361-2.976,1.085c-0.807,0.724-1.251,1.788-1.334,3.193h8.34
		C439.591,270.111,439.224,269.046,438.428,268.323z"/>
	<path fill="#0055FE" d="M454.036,257.365c0.496-0.444,1.147-0.667,1.953-0.667s1.457,0.223,1.953,0.667
		c0.495,0.444,0.743,1.018,0.743,1.721c0,0.682-0.248,1.244-0.743,1.689c-0.496,0.444-1.147,0.666-1.953,0.666
		s-1.457-0.222-1.953-0.666c-0.496-0.445-0.744-1.008-0.744-1.689C453.292,258.382,453.54,257.809,454.036,257.365z
		 M458.159,264.014v17.174h-4.371v-17.174H458.159z"/>
	<path fill="#0055FE" d="M473.071,265.378c1.26,1.054,2.046,2.459,2.355,4.215h-4.092c-0.166-0.826-0.537-1.487-1.115-1.983
		c-0.58-0.496-1.334-0.743-2.264-0.743c-0.744,0-1.322,0.176-1.736,0.526c-0.414,0.352-0.619,0.827-0.619,1.426
		c0,0.476,0.164,0.858,0.496,1.147c0.33,0.289,0.743,0.517,1.239,0.682c0.496,0.166,1.209,0.361,2.14,0.589
		c1.301,0.29,2.36,0.595,3.177,0.915s1.519,0.826,2.108,1.519c0.589,0.692,0.883,1.628,0.883,2.806c0,1.468-0.573,2.656-1.721,3.564
		c-1.146,0.91-2.691,1.364-4.634,1.364c-2.231,0-4.021-0.501-5.362-1.503c-1.344-1.002-2.16-2.434-2.449-4.294h4.185
		c0.103,0.848,0.476,1.515,1.116,1.999c0.641,0.486,1.477,0.729,2.511,0.729c0.744,0,1.312-0.18,1.705-0.542
		c0.392-0.361,0.589-0.831,0.589-1.411c0-0.495-0.17-0.898-0.512-1.209c-0.341-0.31-0.765-0.547-1.271-0.713
		c-0.507-0.164-1.225-0.361-2.155-0.588c-1.281-0.289-2.32-0.584-3.115-0.885c-0.795-0.299-1.478-0.779-2.046-1.441
		c-0.568-0.66-0.853-1.57-0.853-2.728c0-1.487,0.568-2.696,1.705-3.627c1.137-0.93,2.707-1.396,4.712-1.396
		C470.135,263.796,471.809,264.324,473.071,265.378z"/>
	<path fill="#0055FE" d="M490.026,273.066v8.122h-4.371v-21.886h7.968c2.583,0,4.53,0.619,5.843,1.859s1.969,2.925,1.969,5.053
		c0,2.088-0.677,3.752-2.03,4.992c-1.354,1.239-3.281,1.859-5.781,1.859H490.026z M497.001,266.214c0-1.095-0.3-1.932-0.899-2.51
		c-0.6-0.579-1.58-0.869-2.945-0.869h-3.131v6.728h3.131C495.719,269.563,497.001,268.447,497.001,266.214z"/>
	<path fill="#0055FE" d="M514.733,264.82c1.033,0.682,1.768,1.602,2.201,2.76v-3.565h4.34v17.174h-4.34v-3.597
		c-0.434,1.158-1.168,2.083-2.201,2.775s-2.273,1.038-3.72,1.038s-2.749-0.351-3.905-1.054c-1.158-0.703-2.063-1.721-2.713-3.054
		c-0.651-1.333-0.977-2.898-0.977-4.696s0.325-3.363,0.977-4.697c0.65-1.332,1.555-2.35,2.713-3.053
		c1.156-0.703,2.459-1.055,3.905-1.055S513.699,264.138,514.733,264.82z M509.091,268.943c-0.827,0.889-1.24,2.107-1.24,3.658
		c0,1.55,0.413,2.764,1.24,3.643c0.826,0.879,1.922,1.317,3.286,1.317c1.322,0,2.412-0.45,3.271-1.349
		c0.856-0.898,1.286-2.103,1.286-3.611c0-1.529-0.43-2.744-1.286-3.643c-0.858-0.898-1.948-1.349-3.271-1.349
		C511.013,267.61,509.917,268.054,509.091,268.943z"/>
	<path fill="#0055FE" d="M541.672,264.014v17.174h-4.371v-3.472c-0.455,1.157-1.204,2.061-2.248,2.713
		c-1.043,0.65-2.247,0.976-3.611,0.976c-1.983,0-3.564-0.651-4.742-1.952c-1.178-1.303-1.768-3.121-1.768-5.457v-9.981h4.34v9.485
		c0,1.364,0.352,2.424,1.055,3.178c0.702,0.755,1.652,1.132,2.852,1.132c1.26,0,2.264-0.403,3.007-1.209
		c0.744-0.806,1.116-1.964,1.116-3.472v-9.114H541.672z"/>
	<path fill="#0055FE" d="M550.01,258.248v22.94h-4.371v-22.94H550.01z"/>
	<path fill="#0055FE" d="M557.482,281.746c0,1.281-0.336,2.336-1.007,3.162c-0.672,0.826-1.711,1.24-3.116,1.24v-1.674
		c0.538,0,0.931-0.129,1.179-0.388s0.371-0.718,0.371-1.38v-0.31h-1.983v-4.03h3.813
		C557.234,279.483,557.482,280.61,557.482,281.746z"/>
	<path fill="#0055FE" d="M144.322,302.02c1.033,0.683,1.767,1.603,2.201,2.759v-3.564h4.34v17.174h-4.34v-3.596
		c-0.434,1.157-1.167,2.082-2.201,2.774c-1.034,0.692-2.274,1.038-3.72,1.038c-1.447,0-2.749-0.352-3.906-1.054
		c-1.158-0.702-2.062-1.721-2.713-3.054c-0.651-1.333-0.976-2.898-0.976-4.696s0.325-3.364,0.976-4.696
		c0.651-1.334,1.555-2.352,2.713-3.054c1.157-0.702,2.459-1.054,3.906-1.054C142.048,300.998,143.288,301.338,144.322,302.02z
		 M138.679,306.143c-0.827,0.89-1.24,2.108-1.24,3.658s0.414,2.765,1.24,3.643c0.826,0.878,1.922,1.317,3.286,1.317
		c1.322,0,2.413-0.449,3.271-1.349c0.857-0.899,1.286-2.103,1.286-3.611c0-1.529-0.429-2.743-1.286-3.643
		c-0.858-0.899-1.948-1.349-3.271-1.349C140.601,304.81,139.506,305.255,138.679,306.143z"/>
	<path fill="#0055FE" d="M169.803,302.919c1.178,1.302,1.767,3.131,1.767,5.486v9.982h-4.34v-9.486c0-1.363-0.352-2.422-1.054-3.178
		c-0.703-0.754-1.664-1.131-2.883-1.131c-1.24,0-2.232,0.402-2.976,1.209c-0.744,0.807-1.116,1.963-1.116,3.473v9.113h-4.371
		v-17.174h4.371v3.441c0.455-1.158,1.204-2.063,2.248-2.713c1.043-0.651,2.248-0.977,3.611-0.977
		C167.045,300.966,168.625,301.617,169.803,302.919z"/>
	<path fill="#0055FE" d="M185.845,302.02c1.023,0.683,1.762,1.603,2.216,2.759v-9.33h4.34v22.939h-4.34v-3.596
		c-0.455,1.157-1.193,2.082-2.216,2.774s-2.258,1.038-3.705,1.038c-1.447,0-2.749-0.352-3.906-1.054
		c-1.158-0.702-2.062-1.721-2.713-3.054c-0.651-1.333-0.976-2.898-0.976-4.696s0.325-3.364,0.976-4.696
		c0.651-1.334,1.555-2.352,2.713-3.054c1.157-0.702,2.459-1.054,3.906-1.054C183.587,300.998,184.823,301.338,185.845,302.02z
		 M180.219,306.143c-0.827,0.89-1.24,2.108-1.24,3.658s0.414,2.765,1.24,3.643c0.826,0.878,1.922,1.317,3.286,1.317
		c1.322,0,2.413-0.449,3.271-1.349c0.857-0.899,1.286-2.103,1.286-3.611c0-1.529-0.429-2.743-1.286-3.643
		c-0.858-0.899-1.948-1.349-3.271-1.349C182.141,304.81,181.045,305.255,180.219,306.143z"/>
	<path fill="#0055FE" d="M212.303,314.637v3.751h-2.294c-1.922,0-3.395-0.465-4.417-1.395c-1.023-0.931-1.535-2.48-1.535-4.65
		v-7.439h-2.387v-3.689h2.387v-4.247h4.371v4.247h3.844v3.689h-3.844v7.502c0,0.826,0.165,1.405,0.496,1.735
		c0.331,0.331,0.889,0.496,1.674,0.496H212.303z"/>
	<path fill="#0055FE" d="M230.407,302.919c1.178,1.302,1.767,3.131,1.767,5.486v9.982h-4.34v-9.486c0-1.363-0.352-2.422-1.054-3.178
		c-0.703-0.754-1.664-1.131-2.883-1.131c-1.24,0-2.232,0.402-2.976,1.209c-0.744,0.807-1.116,1.963-1.116,3.473v9.113h-4.371
		v-22.939h4.371v9.207c0.455-1.158,1.204-2.063,2.248-2.713c1.043-0.651,2.248-0.977,3.611-0.977
		C227.648,300.966,229.229,301.617,230.407,302.919z"/>
	<path fill="#0055FE" d="M252.013,310.638h-12.586c0.062,1.529,0.475,2.656,1.24,3.379c0.765,0.724,1.715,1.085,2.852,1.085
		c1.013,0,1.855-0.248,2.527-0.743c0.671-0.496,1.1-1.168,1.286-2.016h4.619c-0.228,1.199-0.713,2.273-1.457,3.225
		c-0.744,0.95-1.7,1.694-2.868,2.231c-1.167,0.538-2.464,0.806-3.89,0.806c-1.674,0-3.162-0.356-4.464-1.069
		c-1.302-0.713-2.314-1.73-3.038-3.054c-0.724-1.322-1.085-2.883-1.085-4.681s0.361-3.364,1.085-4.696
		c0.723-1.334,1.736-2.352,3.038-3.054c1.302-0.702,2.79-1.054,4.464-1.054c1.694,0,3.177,0.352,4.448,1.054
		s2.252,1.669,2.945,2.898c0.692,1.229,1.038,2.63,1.038,4.2C252.168,309.583,252.116,310.08,252.013,310.638z M246.666,305.523
		c-0.795-0.723-1.772-1.085-2.929-1.085c-1.178,0-2.17,0.362-2.976,1.085c-0.806,0.725-1.25,1.788-1.333,3.193h8.339
		C247.828,307.311,247.461,306.248,246.666,305.523z"/>
	<path fill="#0055FE" d="M274.472,302.051c1.333,0.702,2.381,1.72,3.146,3.054c0.764,1.332,1.147,2.898,1.147,4.696
		s-0.383,3.358-1.147,4.681c-0.765,1.323-1.813,2.341-3.146,3.054s-2.836,1.069-4.511,1.069c-1.674,0-3.177-0.356-4.51-1.069
		s-2.382-1.73-3.146-3.054c-0.765-1.322-1.147-2.883-1.147-4.681s0.382-3.364,1.147-4.696c0.764-1.334,1.813-2.352,3.146-3.054
		s2.836-1.054,4.51-1.054C271.636,300.998,273.139,301.349,274.472,302.051z M266.862,306.066c-0.848,0.857-1.271,2.104-1.271,3.735
		c0,1.633,0.423,2.878,1.271,3.735c0.847,0.857,1.88,1.287,3.1,1.287c1.219,0,2.252-0.43,3.1-1.287
		c0.847-0.857,1.271-2.103,1.271-3.735c0-1.632-0.424-2.878-1.271-3.735c-0.848-0.857-1.881-1.287-3.1-1.287
		C268.742,304.779,267.709,305.208,266.862,306.066z"/>
	<path fill="#0055FE" d="M291.042,314.637v3.751h-2.294c-1.922,0-3.395-0.465-4.417-1.395c-1.023-0.931-1.535-2.48-1.535-4.65
		v-7.439h-2.387v-3.689h2.387v-4.247h4.371v4.247h3.844v3.689h-3.844v7.502c0,0.826,0.165,1.405,0.496,1.735
		c0.331,0.331,0.889,0.496,1.674,0.496H291.042z"/>
	<path fill="#0055FE" d="M309.145,302.919c1.178,1.302,1.768,3.131,1.768,5.486v9.982h-4.34v-9.486c0-1.363-0.352-2.422-1.055-3.178
		c-0.703-0.754-1.664-1.131-2.883-1.131c-1.24,0-2.232,0.402-2.976,1.209c-0.744,0.807-1.116,1.963-1.116,3.473v9.113h-4.371
		v-22.939h4.371v9.207c0.455-1.158,1.204-2.063,2.248-2.713c1.043-0.651,2.247-0.977,3.611-0.977
		C306.387,300.966,307.967,301.617,309.145,302.919z"/>
	<path fill="#0055FE" d="M330.752,310.638h-12.586c0.062,1.529,0.475,2.656,1.239,3.379c0.765,0.724,1.716,1.085,2.853,1.085
		c1.012,0,1.854-0.248,2.526-0.743c0.671-0.496,1.101-1.168,1.286-2.016h4.619c-0.228,1.199-0.713,2.273-1.457,3.225
		c-0.744,0.95-1.7,1.694-2.867,2.231c-1.168,0.538-2.465,0.806-3.891,0.806c-1.674,0-3.162-0.356-4.465-1.069
		c-1.301-0.713-2.314-1.73-3.037-3.054c-0.724-1.322-1.085-2.883-1.085-4.681s0.361-3.364,1.085-4.696
		c0.723-1.334,1.736-2.352,3.037-3.054c1.303-0.702,2.791-1.054,4.465-1.054c1.694,0,3.178,0.352,4.448,1.054
		s2.253,1.669,2.945,2.898s1.038,2.63,1.038,4.2C330.906,309.583,330.855,310.08,330.752,310.638z M325.405,305.523
		c-0.796-0.723-1.772-1.085-2.93-1.085c-1.178,0-2.17,0.362-2.977,1.085c-0.806,0.725-1.25,1.788-1.332,3.193h8.338
		C326.567,307.311,326.199,306.248,325.405,305.523z"/>
	<path fill="#0055FE" d="M340.919,301.912c1.054-0.63,2.231-0.945,3.534-0.945v4.681h-1.271c-3.203,0-4.805,1.488-4.805,4.464v8.277
		h-4.371v-17.174h4.371v3.285C339.018,303.405,339.865,302.542,340.919,301.912z"/>
	<path fill="#0055FE" d="M353.877,294.564c0.496-0.443,1.146-0.666,1.953-0.666c0.806,0,1.457,0.223,1.953,0.666
		c0.495,0.445,0.743,1.02,0.743,1.721c0,0.683-0.248,1.246-0.743,1.689c-0.496,0.445-1.147,0.667-1.953,0.667
		c-0.807,0-1.457-0.222-1.953-0.667c-0.496-0.443-0.744-1.007-0.744-1.689C353.133,295.583,353.381,295.009,353.877,294.564z
		 M358,301.214v17.174h-4.371v-17.174H358z"/>
	<path fill="#0055FE" d="M372.91,302.578c1.261,1.055,2.047,2.46,2.356,4.217h-4.093c-0.165-0.826-0.537-1.488-1.115-1.984
		c-0.579-0.496-1.333-0.744-2.264-0.744c-0.744,0-1.322,0.176-1.735,0.527c-0.414,0.352-0.62,0.826-0.62,1.426
		c0,0.476,0.165,0.857,0.496,1.146c0.33,0.291,0.744,0.518,1.24,0.683s1.209,0.362,2.139,0.589c1.302,0.29,2.361,0.595,3.178,0.914
		c0.816,0.321,1.519,0.828,2.107,1.52c0.59,0.693,0.884,1.627,0.884,2.806c0,1.468-0.573,2.655-1.721,3.565
		c-1.147,0.909-2.692,1.363-4.634,1.363c-2.232,0-4.021-0.5-5.363-1.504c-1.344-1.002-2.16-2.434-2.449-4.293h4.186
		c0.103,0.848,0.475,1.514,1.115,2c0.641,0.485,1.478,0.729,2.512,0.729c0.744,0,1.312-0.182,1.705-0.543
		c0.392-0.361,0.588-0.832,0.588-1.41c0-0.496-0.17-0.899-0.511-1.209c-0.341-0.311-0.765-0.548-1.271-0.713
		c-0.508-0.166-1.225-0.361-2.155-0.59c-1.282-0.289-2.32-0.584-3.115-0.883c-0.796-0.3-1.478-0.78-2.046-1.441
		c-0.568-0.662-0.854-1.57-0.854-2.729c0-1.488,0.568-2.697,1.705-3.627s2.708-1.395,4.713-1.395
		C369.976,300.998,371.65,301.525,372.91,302.578z"/>
	<path fill="#0055FE" d="M400.887,308.98c0.796,0.981,1.193,2.134,1.193,3.456c0,1.84-0.615,3.292-1.844,4.355
		c-1.23,1.065-3.012,1.597-5.348,1.597h-9.393v-21.887h9.207c2.211,0,3.91,0.486,5.1,1.457c1.188,0.973,1.782,2.336,1.782,4.093
		c0,1.364-0.356,2.479-1.069,3.349c-0.713,0.867-1.648,1.436-2.806,1.704C399.032,307.373,400.092,307.999,400.887,308.98z
		 M389.867,305.678h3.937c1.095,0,1.927-0.243,2.495-0.729s0.854-1.183,0.854-2.093c0-0.908-0.279-1.611-0.838-2.107
		c-0.558-0.496-1.416-0.744-2.572-0.744h-3.875V305.678z M396.687,314.064c0.62-0.506,0.931-1.245,0.931-2.217
		c0-0.971-0.316-1.721-0.945-2.248c-0.631-0.526-1.525-0.79-2.682-0.79h-4.123v6.015h4.153
		C395.178,314.824,396.067,314.57,396.687,314.064z"/>
	<path fill="#0055FE" d="M412.063,301.912c1.054-0.63,2.231-0.945,3.533-0.945v4.681h-1.271c-3.204,0-4.806,1.488-4.806,4.464v8.277
		h-4.371v-17.174h4.371v3.285C410.16,303.405,411.008,302.542,412.063,301.912z"/>
	<path fill="#0055FE" d="M418.262,294.564c0.496-0.443,1.147-0.666,1.953-0.666c0.807,0,1.457,0.223,1.953,0.666
		c0.496,0.445,0.744,1.02,0.744,1.721c0,0.683-0.248,1.246-0.744,1.689c-0.496,0.445-1.146,0.667-1.953,0.667
		c-0.806,0-1.457-0.222-1.953-0.667c-0.496-0.443-0.744-1.007-0.744-1.689C417.518,295.583,417.766,295.009,418.262,294.564z
		 M422.385,301.214v17.174h-4.371v-17.174H422.385z"/>
	<path fill="#0055FE" d="M436.801,302.02c1.033,0.683,1.767,1.603,2.2,2.759v-3.564h4.341v17.174h-4.341v-3.596
		c-0.434,1.157-1.167,2.082-2.2,2.774c-1.034,0.692-2.274,1.038-3.721,1.038c-1.447,0-2.748-0.352-3.906-1.054
		c-1.157-0.702-2.061-1.721-2.713-3.054c-0.65-1.333-0.976-2.898-0.976-4.696s0.325-3.364,0.976-4.696
		c0.652-1.334,1.556-2.352,2.713-3.054c1.158-0.702,2.459-1.054,3.906-1.054C434.527,300.998,435.767,301.338,436.801,302.02z
		 M431.158,306.143c-0.826,0.89-1.24,2.108-1.24,3.658s0.414,2.765,1.24,3.643s1.922,1.317,3.286,1.317
		c1.322,0,2.413-0.449,3.271-1.349s1.286-2.103,1.286-3.611c0-1.529-0.429-2.743-1.286-3.643s-1.948-1.349-3.271-1.349
		C433.08,304.81,431.985,305.255,431.158,306.143z"/>
	<path fill="#0055FE" d="M462.281,302.919c1.178,1.302,1.768,3.131,1.768,5.486v9.982h-4.34v-9.486c0-1.363-0.352-2.422-1.055-3.178
		c-0.703-0.754-1.664-1.131-2.883-1.131c-1.24,0-2.232,0.402-2.976,1.209c-0.744,0.807-1.116,1.963-1.116,3.473v9.113h-4.371
		v-17.174h4.371v3.441c0.455-1.158,1.203-2.063,2.248-2.713c1.043-0.651,2.247-0.977,3.611-0.977
		C459.524,300.966,461.104,301.617,462.281,302.919z"/>
	<path fill="#0055FE" d="M471.52,313.832v4.557h-4.713v-4.557H471.52z"/>
	<path fill="#0055FE" d="M94.581,364.13H86.8l-1.209,3.658h-6.417l8.029-21.855h7.037l7.998,21.855H95.79L94.581,364.13z
		 M93.062,359.542l-2.356-7.131l-2.387,7.131H93.062z"/>
	<path fill="#0055FE" d="M114.39,362.58v5.209h-2.511c-2.129,0-3.793-0.527-4.991-1.582c-1.199-1.053-1.798-2.8-1.798-5.238v-5.487
		h-2.232v-5.084h2.232v-4.216h6.107v4.216h3.131v5.084h-3.131v5.611c0,0.538,0.119,0.919,0.356,1.147
		c0.237,0.227,0.636,0.34,1.193,0.34H114.39z"/>
	<path fill="#0055FE" d="M129.022,344.848v22.94h-6.107v-22.94H129.022z"/>
	<path fill="#0055FE" d="M148.955,360.193h-11.501c0.103,1.964,0.961,2.945,2.573,2.945c0.6,0,1.095-0.145,1.488-0.434
		c0.392-0.289,0.661-0.672,0.806-1.147h6.448c-0.228,1.22-0.734,2.32-1.519,3.302c-0.786,0.981-1.778,1.751-2.976,2.309
		c-1.199,0.559-2.511,0.838-3.937,0.838c-1.736,0-3.271-0.357-4.604-1.07s-2.372-1.746-3.115-3.1
		c-0.744-1.354-1.116-2.939-1.116-4.758s0.372-3.4,1.116-4.744c0.744-1.343,1.787-2.371,3.131-3.084
		c1.343-0.713,2.873-1.069,4.588-1.069c1.736,0,3.265,0.352,4.588,1.054c1.322,0.703,2.351,1.705,3.084,3.008
		c0.733,1.301,1.1,2.811,1.1,4.525C149.11,359.201,149.058,359.677,148.955,360.193z M142.197,355.636
		c-0.496-0.455-1.116-0.682-1.86-0.682c-0.806,0-1.462,0.227-1.968,0.682c-0.507,0.455-0.801,1.127-0.884,2.015h5.425
		C142.93,356.763,142.693,356.091,142.197,355.636z"/>
	<path fill="#0055FE" d="M161.184,350.97c0.899,0.527,1.566,1.256,2,2.186v-2.759h6.076v17.392h-6.076v-2.76
		c-0.434,0.93-1.1,1.658-2,2.186c-0.899,0.527-1.958,0.791-3.177,0.791c-1.385,0-2.635-0.357-3.751-1.07
		c-1.116-0.713-1.995-1.746-2.635-3.1s-0.961-2.939-0.961-4.758s0.32-3.4,0.961-4.744c0.641-1.343,1.519-2.371,2.635-3.084
		c1.116-0.713,2.366-1.069,3.751-1.069C159.226,350.18,160.285,350.443,161.184,350.97z M157.712,356.458
		c-0.589,0.631-0.884,1.503-0.884,2.62c0,1.137,0.294,2.02,0.884,2.65c0.589,0.631,1.358,0.945,2.31,0.945
		c0.909,0,1.663-0.32,2.263-0.961c0.599-0.641,0.899-1.52,0.899-2.635c0-1.096-0.3-1.964-0.899-2.604
		c-0.6-0.641-1.354-0.961-2.263-0.961C159.071,355.512,158.301,355.828,157.712,356.458z"/>
	<path fill="#0055FE" d="M184.698,351.854c1.364,1.116,2.221,2.594,2.573,4.433h-5.704c-0.145-0.619-0.439-1.084-0.883-1.395
		c-0.445-0.311-0.987-0.465-1.627-0.465c-0.455,0-0.801,0.098-1.039,0.295c-0.238,0.196-0.356,0.47-0.356,0.82
		c0,0.435,0.253,0.76,0.759,0.977c0.506,0.218,1.338,0.461,2.496,0.729c1.343,0.29,2.454,0.6,3.333,0.931s1.643,0.868,2.294,1.612
		s0.977,1.746,0.977,3.006c0,1.014-0.279,1.912-0.837,2.697c-0.558,0.786-1.369,1.4-2.434,1.845s-2.32,0.667-3.767,0.667
		c-2.438,0-4.381-0.527-5.828-1.581c-1.447-1.054-2.325-2.563-2.635-4.526h5.859c0.083,0.641,0.356,1.116,0.822,1.426
		c0.465,0.311,1.048,0.465,1.751,0.465c0.475,0,0.837-0.103,1.085-0.31c0.248-0.206,0.372-0.476,0.372-0.806
		c0-0.496-0.264-0.857-0.791-1.086c-0.527-0.227-1.37-0.453-2.526-0.682c-1.323-0.268-2.408-0.563-3.255-0.883
		c-0.848-0.32-1.586-0.838-2.216-1.551c-0.631-0.713-0.945-1.699-0.945-2.96c0-1.57,0.609-2.853,1.829-3.845
		c1.219-0.991,2.956-1.487,5.208-1.487C181.504,350.18,183.333,350.738,184.698,351.854z"/>
	<path fill="#0055FE" d="M200.538,362.58v5.209h-2.511c-2.129,0-3.793-0.527-4.991-1.582c-1.199-1.053-1.798-2.8-1.798-5.238v-5.487
		h-2.232v-5.084h2.232v-4.216h6.107v4.216h3.131v5.084h-3.131v5.611c0,0.538,0.119,0.919,0.356,1.147
		c0.237,0.227,0.636,0.34,1.193,0.34H200.538z"/>
	<path fill="#0055FE" d="M221.943,351.25c1.374,0.713,2.454,1.746,3.239,3.1c0.785,1.354,1.178,2.93,1.178,4.729
		c0,1.818-0.393,3.399-1.178,4.742c-0.786,1.344-1.865,2.377-3.239,3.1c-1.375,0.725-2.93,1.086-4.666,1.086
		c-1.736,0-3.297-0.361-4.681-1.086c-1.385-0.723-2.47-1.756-3.255-3.1c-0.786-1.343-1.178-2.924-1.178-4.742s0.393-3.4,1.178-4.744
		c0.785-1.343,1.87-2.371,3.255-3.084c1.384-0.713,2.945-1.069,4.681-1.069C219.013,350.18,220.568,350.537,221.943,351.25z
		 M215.169,356.38c-0.558,0.619-0.837,1.519-0.837,2.697c0,1.198,0.279,2.107,0.837,2.728c0.558,0.62,1.261,0.93,2.108,0.93
		c0.826,0,1.519-0.314,2.077-0.945c0.558-0.63,0.837-1.534,0.837-2.712c0-1.179-0.279-2.078-0.837-2.697
		c-0.558-0.62-1.25-0.93-2.077-0.93C216.43,355.451,215.727,355.76,215.169,356.38z"/>
	<path fill="#0055FE" d="M245.147,352.242c1.136,1.333,1.705,3.146,1.705,5.44v10.106h-6.045v-9.332
		c0-1.012-0.263-1.803-0.791-2.371c-0.527-0.568-1.235-0.853-2.124-0.853c-0.91,0-1.633,0.294-2.17,0.884
		c-0.538,0.589-0.806,1.4-0.806,2.434v9.238h-6.107v-17.392h6.107v2.914c0.496-0.931,1.219-1.674,2.17-2.231
		c0.95-0.559,2.066-0.838,3.348-0.838C242.439,350.242,244.01,350.909,245.147,352.242z"/>
	<path fill="#0055FE" d="M266.66,360.193h-11.501c0.103,1.964,0.961,2.945,2.573,2.945c0.6,0,1.095-0.145,1.488-0.434
		c0.392-0.289,0.661-0.672,0.806-1.147h6.448c-0.228,1.22-0.734,2.32-1.519,3.302c-0.786,0.981-1.778,1.751-2.976,2.309
		c-1.199,0.559-2.511,0.838-3.937,0.838c-1.736,0-3.271-0.357-4.604-1.07s-2.372-1.746-3.115-3.1
		c-0.744-1.354-1.116-2.939-1.116-4.758s0.372-3.4,1.116-4.744c0.744-1.343,1.787-2.371,3.131-3.084
		c1.343-0.713,2.873-1.069,4.588-1.069c1.736,0,3.265,0.352,4.588,1.054c1.322,0.703,2.351,1.705,3.084,3.008
		c0.733,1.301,1.1,2.811,1.1,4.525C266.815,359.201,266.763,359.677,266.66,360.193z M259.903,355.636
		c-0.496-0.455-1.116-0.682-1.86-0.682c-0.806,0-1.462,0.227-1.968,0.682c-0.507,0.455-0.801,1.127-0.884,2.015h5.425
		C260.635,356.763,260.398,356.091,259.903,355.636z"/>
	<path fill="#0055FE" d="M287.88,351.25c1.374,0.713,2.454,1.746,3.239,3.1c0.785,1.354,1.178,2.93,1.178,4.729
		c0,1.818-0.393,3.399-1.178,4.742c-0.786,1.344-1.865,2.377-3.239,3.1c-1.375,0.725-2.93,1.086-4.666,1.086
		c-1.736,0-3.297-0.361-4.681-1.086c-1.385-0.723-2.47-1.756-3.255-3.1c-0.786-1.343-1.178-2.924-1.178-4.742s0.393-3.4,1.178-4.744
		c0.785-1.343,1.87-2.371,3.255-3.084c1.384-0.713,2.945-1.069,4.681-1.069C284.95,350.18,286.505,350.537,287.88,351.25z
		 M281.106,356.38c-0.558,0.619-0.837,1.519-0.837,2.697c0,1.198,0.279,2.107,0.837,2.728c0.558,0.62,1.261,0.93,2.108,0.93
		c0.826,0,1.519-0.314,2.077-0.945c0.558-0.63,0.837-1.534,0.837-2.712c0-1.179-0.279-2.078-0.837-2.697
		c-0.558-0.62-1.25-0.93-2.077-0.93C282.366,355.451,281.664,355.76,281.106,356.38z"/>
	<path fill="#0055FE" d="M303.705,348.568c-0.725,0-1.251,0.14-1.582,0.419c-0.33,0.278-0.526,0.749-0.588,1.41h2.82v5.084h-2.852
		v12.308h-6.107v-12.308h-1.984v-5.084h1.984c0-2.231,0.661-3.962,1.984-5.192c1.322-1.229,3.225-1.845,5.704-1.845
		c0.269,0,0.692,0.021,1.271,0.062v5.178C304.211,348.579,303.994,348.568,303.705,348.568z"/>
	<path fill="#0055FE" d="M322.522,362.58v5.209h-2.511c-2.129,0-3.793-0.527-4.991-1.582c-1.199-1.053-1.798-2.8-1.798-5.238v-5.487
		h-2.231v-5.084h2.231v-4.216h6.106v4.216h3.131v5.084h-3.131v5.611c0,0.538,0.119,0.919,0.357,1.147
		c0.236,0.227,0.635,0.34,1.193,0.34H322.522z"/>
	<path fill="#0055FE" d="M341.649,352.242c1.137,1.333,1.705,3.146,1.705,5.44v10.106h-6.045v-9.332
		c0-1.012-0.264-1.803-0.791-2.371s-1.234-0.853-2.123-0.853c-0.91,0-1.633,0.294-2.17,0.884c-0.538,0.589-0.807,1.4-0.807,2.434
		v9.238h-6.107v-22.94h6.107v8.463c0.496-0.931,1.219-1.674,2.17-2.231c0.951-0.559,2.066-0.838,3.348-0.838
		C338.941,350.242,340.512,350.909,341.649,352.242z"/>
	<path fill="#0055FE" d="M363.162,360.193h-11.5c0.103,1.964,0.961,2.945,2.572,2.945c0.6,0,1.096-0.145,1.488-0.434
		s0.661-0.672,0.807-1.147h6.447c-0.228,1.22-0.734,2.32-1.52,3.302s-1.777,1.751-2.976,2.309c-1.198,0.559-2.511,0.838-3.937,0.838
		c-1.736,0-3.271-0.357-4.604-1.07c-1.334-0.713-2.372-1.746-3.115-3.1c-0.744-1.354-1.117-2.939-1.117-4.758s0.373-3.4,1.117-4.744
		c0.743-1.343,1.787-2.371,3.131-3.084c1.343-0.713,2.872-1.069,4.588-1.069c1.736,0,3.265,0.352,4.588,1.054
		c1.322,0.703,2.351,1.705,3.084,3.008c0.733,1.301,1.101,2.811,1.101,4.525C363.318,359.201,363.266,359.677,363.162,360.193z
		 M356.405,355.636c-0.496-0.455-1.115-0.682-1.859-0.682c-0.807,0-1.463,0.227-1.969,0.682c-0.507,0.455-0.801,1.127-0.884,2.015
		h5.425C357.138,356.763,356.901,356.091,356.405,355.636z"/>
	<path fill="#0055FE" d="M393.776,352.226c1.229,1.322,1.844,3.142,1.844,5.456v10.106h-6.076v-9.332c0-0.93-0.258-1.652-0.775-2.17
		c-0.516-0.516-1.209-0.774-2.076-0.774c-0.91,0-1.627,0.263-2.154,0.79s-0.791,1.277-0.791,2.248v9.238h-6.076v-9.332
		c0-0.93-0.258-1.652-0.774-2.17c-0.517-0.516-1.209-0.774-2.077-0.774c-0.91,0-1.627,0.263-2.154,0.79s-0.791,1.277-0.791,2.248
		v9.238h-6.107v-17.392h6.107v2.666c0.496-0.868,1.188-1.555,2.077-2.062c0.889-0.506,1.933-0.76,3.131-0.76
		c1.302,0,2.449,0.29,3.441,0.868c0.991,0.579,1.767,1.405,2.325,2.479c0.599-1.012,1.404-1.822,2.418-2.433
		c1.012-0.609,2.139-0.915,3.379-0.915C390.834,350.242,392.545,350.904,393.776,352.226z"/>
	<path fill="#0055FE" d="M405.074,343.345c0.66-0.59,1.529-0.885,2.604-0.885s1.932,0.295,2.573,0.885
		c0.64,0.588,0.961,1.338,0.961,2.247c0,0.868-0.325,1.591-0.977,2.17s-1.503,0.868-2.558,0.868c-1.074,0-1.943-0.289-2.604-0.868
		c-0.662-0.579-0.992-1.302-0.992-2.17C404.082,344.683,404.412,343.933,405.074,343.345z M410.685,350.397v17.392h-6.106v-17.392
		H410.685z"/>
	<path fill="#0055FE" d="M426.155,351.854c1.363,1.116,2.221,2.594,2.572,4.433h-5.704c-0.145-0.619-0.438-1.084-0.884-1.395
		c-0.444-0.311-0.986-0.465-1.627-0.465c-0.455,0-0.801,0.098-1.039,0.295c-0.237,0.196-0.355,0.47-0.355,0.82
		c0,0.435,0.252,0.76,0.759,0.977c0.507,0.218,1.338,0.461,2.495,0.729c1.344,0.29,2.455,0.6,3.333,0.931s1.644,0.868,2.294,1.612
		s0.977,1.746,0.977,3.006c0,1.014-0.279,1.912-0.837,2.697c-0.558,0.786-1.369,1.4-2.434,1.845s-2.32,0.667-3.767,0.667
		c-2.438,0-4.381-0.527-5.828-1.581s-2.324-2.563-2.635-4.526h5.859c0.082,0.641,0.355,1.116,0.821,1.426
		c0.465,0.311,1.048,0.465,1.751,0.465c0.476,0,0.838-0.103,1.086-0.31c0.248-0.206,0.371-0.476,0.371-0.806
		c0-0.496-0.264-0.857-0.79-1.086c-0.526-0.227-1.37-0.453-2.526-0.682c-1.323-0.268-2.408-0.563-3.256-0.883
		s-1.586-0.838-2.216-1.551c-0.631-0.713-0.945-1.699-0.945-2.96c0-1.57,0.608-2.853,1.829-3.845
		c1.219-0.991,2.955-1.487,5.207-1.487C422.961,350.18,424.789,350.738,426.155,351.854z"/>
	<path fill="#0055FE" d="M443.483,344.848v22.94h-6.107v-22.94H443.483z"/>
	<path fill="#0055FE" d="M451.79,350.397l3.72,9.733l3.441-9.733h6.758l-11.005,25.699h-6.696l4.247-9.052l-7.254-16.647H451.79z"/>
	<path fill="#0055FE" d="M467.662,343.345c0.661-0.59,1.529-0.885,2.604-0.885s1.933,0.295,2.574,0.885
		c0.64,0.588,0.961,1.338,0.961,2.247c0,0.868-0.326,1.591-0.977,2.17c-0.651,0.579-1.504,0.868-2.559,0.868
		c-1.074,0-1.942-0.289-2.604-0.868c-0.662-0.579-0.992-1.302-0.992-2.17C466.67,344.683,467,343.933,467.662,343.345z
		 M473.274,350.397v17.392h-6.107v-17.392H473.274z"/>
	<path fill="#0055FE" d="M492.99,352.242c1.136,1.333,1.704,3.146,1.704,5.44v10.106h-6.045v-9.332c0-1.012-0.263-1.803-0.79-2.371
		c-0.526-0.568-1.235-0.853-2.124-0.853c-0.909,0-1.633,0.294-2.17,0.884c-0.537,0.589-0.806,1.4-0.806,2.434v9.238h-6.106v-17.392
		h6.106v2.914c0.496-0.931,1.22-1.674,2.171-2.231c0.949-0.559,2.066-0.838,3.348-0.838
		C490.281,350.242,491.852,350.909,492.99,352.242z"/>
	<path fill="#0055FE" d="M507.574,350.97c0.899,0.527,1.566,1.256,2,2.186v-2.759h6.076v17.205c0,1.612-0.311,3.073-0.931,4.387
		c-0.62,1.312-1.581,2.36-2.883,3.146c-1.302,0.785-2.944,1.178-4.929,1.178c-2.708,0-4.862-0.63-6.464-1.892
		c-1.602-1.26-2.537-2.986-2.806-5.176h5.983c0.144,0.578,0.454,1.022,0.93,1.332c0.476,0.311,1.116,0.465,1.923,0.465
		c2.065,0,3.1-1.146,3.1-3.44v-2.573c-0.434,0.93-1.101,1.658-2,2.186c-0.898,0.527-1.958,0.791-3.178,0.791
		c-1.385,0-2.635-0.357-3.75-1.07c-1.117-0.713-1.995-1.746-2.636-3.1s-0.961-2.939-0.961-4.758s0.32-3.4,0.961-4.744
		c0.641-1.343,1.519-2.371,2.636-3.084c1.115-0.713,2.365-1.069,3.75-1.069C505.616,350.18,506.676,350.443,507.574,350.97z
		 M504.103,356.458c-0.589,0.631-0.884,1.503-0.884,2.62c0,1.137,0.295,2.02,0.884,2.65s1.358,0.945,2.31,0.945
		c0.909,0,1.663-0.32,2.263-0.961c0.599-0.641,0.899-1.52,0.899-2.635c0-1.096-0.301-1.964-0.899-2.604
		c-0.6-0.641-1.354-0.961-2.263-0.961C505.461,355.512,504.692,355.828,504.103,356.458z"/>
	<path fill="#0055FE" d="M524.362,361.835v5.953h-6.17v-5.953H524.362z"/>
	<path fill="#0055FE" d="M79.05,370.888v-1.55h446.24v1.55H79.05z"/>
	<path fill="#0055FE" d="M104.503,401.302l-5.363,21.886h-5.394l-4.092-15.872l-4.123,15.872h-5.363l-5.363-21.886h4.743
		l3.348,16.957l4.34-16.957h4.805l4.371,16.957l3.348-16.957H104.503z"/>
	<path fill="#0055FE" d="M122.451,407.718c1.178,1.303,1.767,3.132,1.767,5.488v9.981h-4.34v-9.485c0-1.365-0.352-2.424-1.054-3.178
		c-0.703-0.754-1.664-1.132-2.883-1.132c-1.24,0-2.232,0.403-2.976,1.209c-0.744,0.806-1.116,1.964-1.116,3.472v9.114h-4.371v-22.94
		h4.371v9.207c0.455-1.156,1.204-2.061,2.248-2.712c1.043-0.651,2.248-0.977,3.611-0.977
		C119.693,405.766,121.273,406.417,122.451,407.718z"/>
	<path fill="#0055FE" d="M128.31,399.365c0.496-0.444,1.147-0.667,1.953-0.667s1.457,0.223,1.953,0.667
		c0.496,0.444,0.744,1.018,0.744,1.721c0,0.682-0.248,1.244-0.744,1.689c-0.496,0.444-1.147,0.666-1.953,0.666
		s-1.457-0.222-1.953-0.666c-0.496-0.445-0.744-1.008-0.744-1.689C127.566,400.382,127.814,399.809,128.31,399.365z
		 M132.433,406.014v17.174h-4.371v-17.174H132.433z"/>
	<path fill="#0055FE" d="M149.653,407.595c1.478,1.199,2.403,2.832,2.775,4.898h-4.619c-0.186-0.91-0.61-1.628-1.271-2.155
		c-0.662-0.526-1.499-0.79-2.511-0.79c-1.158,0-2.124,0.429-2.898,1.286c-0.775,0.858-1.163,2.113-1.163,3.767
		c0,1.654,0.388,2.909,1.163,3.767s1.741,1.286,2.898,1.286c1.013,0,1.85-0.264,2.511-0.791c0.661-0.526,1.085-1.244,1.271-2.154
		h4.619c-0.372,2.067-1.297,3.7-2.775,4.898c-1.478,1.199-3.322,1.798-5.533,1.798c-1.674,0-3.162-0.356-4.464-1.069
		c-1.302-0.713-2.314-1.73-3.038-3.053c-0.724-1.323-1.085-2.884-1.085-4.682s0.361-3.363,1.085-4.697
		c0.723-1.332,1.736-2.35,3.038-3.053c1.302-0.703,2.79-1.055,4.464-1.055C146.331,405.796,148.176,406.396,149.653,407.595z"/>
	<path fill="#0055FE" d="M170.501,407.718c1.178,1.303,1.767,3.132,1.767,5.488v9.981h-4.34v-9.485c0-1.365-0.352-2.424-1.054-3.178
		c-0.703-0.754-1.664-1.132-2.883-1.132c-1.24,0-2.232,0.403-2.976,1.209c-0.744,0.806-1.116,1.964-1.116,3.472v9.114h-4.371v-22.94
		h4.371v9.207c0.455-1.156,1.204-2.061,2.248-2.712c1.043-0.651,2.248-0.977,3.611-0.977
		C167.742,405.766,169.323,406.417,170.501,407.718z"/>
	<path fill="#0055FE" d="M197.035,406.851c1.157,0.703,2.062,1.721,2.712,3.053c0.651,1.334,0.977,2.899,0.977,4.697
		s-0.325,3.363-0.977,4.696c-0.651,1.333-1.555,2.351-2.712,3.054c-1.158,0.703-2.459,1.054-3.906,1.054
		c-1.447,0-2.682-0.346-3.705-1.038s-1.751-1.617-2.186-2.775v11.781h-4.371v-25.358h4.371v3.565
		c0.434-1.158,1.163-2.078,2.186-2.76s2.258-1.023,3.705-1.023C194.576,405.796,195.878,406.148,197.035,406.851z M188.495,410.958
		c-0.858,0.898-1.286,2.113-1.286,3.643c0,1.509,0.428,2.713,1.286,3.611c0.857,0.898,1.948,1.349,3.271,1.349
		c1.364,0,2.459-0.438,3.286-1.317c0.826-0.879,1.24-2.093,1.24-3.643c0-1.551-0.414-2.77-1.24-3.658
		c-0.827-0.889-1.922-1.333-3.286-1.333C190.443,409.61,189.352,410.06,188.495,410.958z"/>
	<path fill="#0055FE" d="M204.073,399.365c0.496-0.444,1.147-0.667,1.953-0.667s1.457,0.223,1.953,0.667
		c0.496,0.444,0.744,1.018,0.744,1.721c0,0.682-0.248,1.244-0.744,1.689c-0.496,0.444-1.147,0.666-1.953,0.666
		s-1.457-0.222-1.953-0.666c-0.496-0.445-0.744-1.008-0.744-1.689C203.328,400.382,203.576,399.809,204.073,399.365z
		 M208.196,406.014v17.174h-4.371v-17.174H208.196z"/>
	<path fill="#0055FE" d="M228.159,415.438h-12.586c0.062,1.53,0.475,2.655,1.24,3.379s1.715,1.085,2.852,1.085
		c1.013,0,1.855-0.248,2.527-0.744c0.671-0.496,1.1-1.167,1.286-2.015h4.619c-0.228,1.198-0.713,2.273-1.457,3.224
		c-0.744,0.951-1.7,1.695-2.868,2.232s-2.464,0.806-3.89,0.806c-1.674,0-3.162-0.356-4.464-1.069
		c-1.302-0.713-2.314-1.73-3.038-3.053c-0.724-1.323-1.085-2.884-1.085-4.682s0.361-3.363,1.085-4.697
		c0.723-1.332,1.736-2.35,3.038-3.053c1.302-0.703,2.79-1.055,4.464-1.055c1.694,0,3.177,0.352,4.448,1.055s2.252,1.669,2.945,2.898
		c0.692,1.23,1.038,2.631,1.038,4.201C228.314,414.384,228.262,414.88,228.159,415.438z M222.812,410.323
		c-0.795-0.724-1.772-1.085-2.929-1.085c-1.178,0-2.17,0.361-2.976,1.085s-1.25,1.788-1.333,3.193h8.339
		C223.974,412.111,223.607,411.046,222.812,410.323z"/>
	<path fill="#0055FE" d="M244.666,407.595c1.478,1.199,2.403,2.832,2.775,4.898h-4.619c-0.186-0.91-0.61-1.628-1.271-2.155
		c-0.662-0.526-1.499-0.79-2.511-0.79c-1.158,0-2.124,0.429-2.898,1.286c-0.775,0.858-1.163,2.113-1.163,3.767
		c0,1.654,0.388,2.909,1.163,3.767s1.741,1.286,2.898,1.286c1.013,0,1.85-0.264,2.511-0.791c0.661-0.526,1.085-1.244,1.271-2.154
		h4.619c-0.372,2.067-1.297,3.7-2.775,4.898c-1.478,1.199-3.322,1.798-5.533,1.798c-1.674,0-3.162-0.356-4.464-1.069
		c-1.302-0.713-2.314-1.73-3.038-3.053c-0.724-1.323-1.085-2.884-1.085-4.682s0.361-3.363,1.085-4.697
		c0.723-1.332,1.736-2.35,3.038-3.053c1.302-0.703,2.79-1.055,4.464-1.055C241.344,405.796,243.189,406.396,244.666,407.595z"/>
	<path fill="#0055FE" d="M266.537,415.438h-12.586c0.062,1.53,0.475,2.655,1.24,3.379s1.715,1.085,2.852,1.085
		c1.013,0,1.855-0.248,2.527-0.744c0.671-0.496,1.1-1.167,1.286-2.015h4.619c-0.228,1.198-0.713,2.273-1.457,3.224
		c-0.744,0.951-1.7,1.695-2.868,2.232s-2.464,0.806-3.89,0.806c-1.674,0-3.162-0.356-4.464-1.069
		c-1.302-0.713-2.314-1.73-3.038-3.053c-0.724-1.323-1.085-2.884-1.085-4.682s0.361-3.363,1.085-4.697
		c0.723-1.332,1.736-2.35,3.038-3.053c1.302-0.703,2.79-1.055,4.464-1.055c1.694,0,3.177,0.352,4.448,1.055s2.252,1.669,2.945,2.898
		c0.692,1.23,1.038,2.631,1.038,4.201C266.692,414.384,266.64,414.88,266.537,415.438z M261.189,410.323
		c-0.795-0.724-1.772-1.085-2.929-1.085c-1.178,0-2.17,0.361-2.976,1.085s-1.25,1.788-1.333,3.193h8.339
		C262.352,412.111,261.985,411.046,261.189,410.323z"/>
	<path fill="#0055FE" d="M276.797,399.365c0.496-0.444,1.147-0.667,1.953-0.667s1.457,0.223,1.953,0.667
		c0.496,0.444,0.744,1.018,0.744,1.721c0,0.682-0.248,1.244-0.744,1.689c-0.496,0.444-1.147,0.666-1.953,0.666
		s-1.457-0.222-1.953-0.666c-0.496-0.445-0.744-1.008-0.744-1.689C276.052,400.382,276.301,399.809,276.797,399.365z
		 M280.92,406.014v17.174h-4.371v-17.174H280.92z"/>
	<path fill="#0055FE" d="M295.83,407.378c1.261,1.054,2.046,2.459,2.356,4.215h-4.092c-0.166-0.826-0.538-1.487-1.116-1.983
		c-0.579-0.496-1.333-0.743-2.263-0.743c-0.744,0-1.323,0.176-1.736,0.526c-0.414,0.352-0.62,0.827-0.62,1.426
		c0,0.476,0.165,0.858,0.496,1.147c0.33,0.289,0.744,0.517,1.24,0.682c0.496,0.166,1.209,0.361,2.139,0.589
		c1.302,0.29,2.361,0.595,3.177,0.915s1.519,0.826,2.108,1.519c0.589,0.692,0.883,1.628,0.883,2.806
		c0,1.468-0.574,2.656-1.721,3.564c-1.147,0.91-2.692,1.364-4.634,1.364c-2.232,0-4.02-0.501-5.363-1.503
		c-1.344-1.002-2.16-2.434-2.449-4.294h4.185c0.103,0.848,0.475,1.515,1.116,1.999c0.641,0.486,1.478,0.729,2.511,0.729
		c0.744,0,1.312-0.18,1.705-0.542c0.392-0.361,0.589-0.831,0.589-1.411c0-0.495-0.17-0.898-0.511-1.209
		c-0.341-0.31-0.765-0.547-1.271-0.713c-0.507-0.164-1.225-0.361-2.155-0.588c-1.282-0.289-2.32-0.584-3.115-0.885
		c-0.796-0.299-1.478-0.779-2.046-1.441c-0.568-0.66-0.853-1.57-0.853-2.728c0-1.487,0.568-2.696,1.705-3.627
		c1.136-0.93,2.708-1.396,4.712-1.396C292.896,405.796,294.57,406.324,295.83,407.378z"/>
	<path fill="#0055FE" d="M323.807,413.779c0.796,0.982,1.193,2.135,1.193,3.457c0,1.84-0.615,3.291-1.844,4.355
		c-1.23,1.064-3.012,1.597-5.348,1.597h-9.393v-21.886h9.207c2.211,0,3.91,0.485,5.1,1.457c1.188,0.971,1.782,2.336,1.782,4.092
		c0,1.363-0.356,2.48-1.069,3.348c-0.713,0.868-1.648,1.438-2.806,1.705C321.952,412.173,323.012,412.798,323.807,413.779z
		 M312.787,410.478h3.937c1.095,0,1.927-0.242,2.495-0.729c0.568-0.485,0.854-1.184,0.854-2.092c0-0.91-0.279-1.613-0.838-2.109
		c-0.558-0.495-1.416-0.743-2.572-0.743h-3.875V410.478z M319.607,418.863c0.62-0.506,0.931-1.244,0.931-2.216
		s-0.316-1.721-0.945-2.247c-0.631-0.527-1.525-0.791-2.682-0.791h-4.123v6.014h4.153
		C318.098,419.623,318.987,419.371,319.607,418.863z"/>
	<path fill="#0055FE" d="M334.983,406.711c1.055-0.63,2.232-0.945,3.534-0.945v4.681h-1.271c-3.204,0-4.806,1.488-4.806,4.465v8.276
		h-4.371v-17.174h4.371v3.286C333.08,408.205,333.928,407.342,334.983,406.711z"/>
	<path fill="#0055FE" d="M341.182,399.365c0.496-0.444,1.147-0.667,1.953-0.667c0.807,0,1.457,0.223,1.953,0.667
		s0.744,1.018,0.744,1.721c0,0.682-0.248,1.244-0.744,1.689c-0.496,0.444-1.146,0.666-1.953,0.666c-0.806,0-1.457-0.222-1.953-0.666
		c-0.496-0.445-0.744-1.008-0.744-1.689C340.438,400.382,340.686,399.809,341.182,399.365z M345.305,406.014v17.174h-4.371v-17.174
		H345.305z"/>
	<path fill="#0055FE" d="M359.721,406.82c1.033,0.682,1.767,1.602,2.2,2.76v-3.565h4.341v17.174h-4.341v-3.597
		c-0.434,1.158-1.167,2.083-2.2,2.775c-1.034,0.692-2.274,1.038-3.721,1.038c-1.447,0-2.748-0.351-3.906-1.054
		c-1.157-0.703-2.061-1.721-2.713-3.054c-0.65-1.333-0.976-2.898-0.976-4.696s0.325-3.363,0.976-4.697
		c0.652-1.332,1.556-2.35,2.713-3.053c1.158-0.703,2.459-1.055,3.906-1.055C357.447,405.796,358.687,406.138,359.721,406.82z
		 M354.078,410.943c-0.826,0.889-1.24,2.107-1.24,3.658c0,1.55,0.414,2.764,1.24,3.643s1.922,1.317,3.286,1.317
		c1.322,0,2.413-0.45,3.271-1.349s1.286-2.103,1.286-3.611c0-1.529-0.429-2.744-1.286-3.643s-1.948-1.349-3.271-1.349
		C356,409.61,354.905,410.054,354.078,410.943z"/>
	<path fill="#0055FE" d="M385.201,407.718c1.178,1.303,1.768,3.132,1.768,5.488v9.981h-4.34v-9.485c0-1.365-0.352-2.424-1.055-3.178
		s-1.664-1.132-2.883-1.132c-1.24,0-2.232,0.403-2.976,1.209c-0.744,0.806-1.116,1.964-1.116,3.472v9.114h-4.371v-17.174h4.371v3.44
		c0.455-1.156,1.203-2.061,2.248-2.712c1.043-0.651,2.247-0.977,3.611-0.977C382.444,405.766,384.024,406.417,385.201,407.718z"/>
	<path fill="#0055FE" d="M411.737,406.851c1.158,0.703,2.063,1.721,2.713,3.053c0.651,1.334,0.977,2.899,0.977,4.697
		s-0.325,3.363-0.977,4.696c-0.65,1.333-1.555,2.351-2.713,3.054c-1.157,0.703-2.459,1.054-3.905,1.054s-2.682-0.346-3.704-1.038
		c-1.023-0.692-1.752-1.617-2.186-2.775v11.781h-4.371v-25.358h4.371v3.565c0.434-1.158,1.162-2.078,2.186-2.76
		c1.022-0.682,2.258-1.023,3.704-1.023S410.579,406.148,411.737,406.851z M403.197,410.958c-0.858,0.898-1.286,2.113-1.286,3.643
		c0,1.509,0.428,2.713,1.286,3.611c0.857,0.898,1.948,1.349,3.271,1.349c1.364,0,2.459-0.438,3.286-1.317
		c0.826-0.879,1.24-2.093,1.24-3.643c0-1.551-0.414-2.77-1.24-3.658c-0.827-0.889-1.922-1.333-3.286-1.333
		C405.145,409.61,404.054,410.06,403.197,410.958z"/>
	<path fill="#0055FE" d="M422.897,400.248v22.94h-4.371v-22.94H422.897z"/>
	<path fill="#0055FE" d="M437.313,406.82c1.033,0.682,1.767,1.602,2.2,2.76v-3.565h4.341v17.174h-4.341v-3.597
		c-0.434,1.158-1.167,2.083-2.2,2.775c-1.034,0.692-2.274,1.038-3.721,1.038c-1.447,0-2.748-0.351-3.906-1.054
		c-1.157-0.703-2.061-1.721-2.713-3.054c-0.65-1.333-0.976-2.898-0.976-4.696s0.325-3.363,0.976-4.697
		c0.652-1.332,1.556-2.35,2.713-3.053c1.158-0.703,2.459-1.055,3.906-1.055C435.038,405.796,436.279,406.138,437.313,406.82z
		 M431.67,410.943c-0.826,0.889-1.24,2.107-1.24,3.658c0,1.55,0.414,2.764,1.24,3.643s1.922,1.317,3.286,1.317
		c1.322,0,2.413-0.45,3.271-1.349s1.286-2.103,1.286-3.611c0-1.529-0.429-2.744-1.286-3.643s-1.948-1.349-3.271-1.349
		C433.592,409.61,432.496,410.054,431.67,410.943z"/>
	<path fill="#0055FE" d="M450.766,406.014l4.681,11.655l4.341-11.655h4.805l-10.51,25.358h-4.836l3.875-8.681l-7.223-16.678H450.766
		z"/>
	<path fill="#0055FE" d="M466.885,399.365c0.496-0.444,1.147-0.667,1.953-0.667c0.807,0,1.457,0.223,1.953,0.667
		s0.744,1.018,0.744,1.721c0,0.682-0.248,1.244-0.744,1.689c-0.496,0.444-1.146,0.666-1.953,0.666c-0.806,0-1.457-0.222-1.953-0.666
		c-0.496-0.445-0.744-1.008-0.744-1.689C466.141,400.382,466.389,399.809,466.885,399.365z M471.008,406.014v17.174h-4.371v-17.174
		H471.008z"/>
	<path fill="#0055FE" d="M489.949,407.718c1.178,1.303,1.768,3.132,1.768,5.488v9.981h-4.341v-9.485
		c0-1.365-0.352-2.424-1.054-3.178c-0.703-0.754-1.664-1.132-2.883-1.132c-1.24,0-2.232,0.403-2.977,1.209s-1.115,1.964-1.115,3.472
		v9.114h-4.371v-17.174h4.371v3.44c0.454-1.156,1.203-2.061,2.247-2.712s2.247-0.977,3.611-0.977
		C487.191,405.766,488.772,406.417,489.949,407.718z"/>
	<path fill="#0055FE" d="M506.008,406.82c1.033,0.682,1.767,1.602,2.2,2.76v-3.565h4.341v17.235c0,1.592-0.316,3.023-0.946,4.294
		s-1.571,2.269-2.821,2.991c-1.25,0.724-2.764,1.086-4.541,1.086c-2.48,0-4.484-0.59-6.014-1.768
		c-1.53-1.178-2.46-2.779-2.791-4.805h4.31c0.248,0.867,0.729,1.545,1.441,2.03c0.714,0.485,1.628,0.729,2.743,0.729
		c1.281,0,2.314-0.378,3.101-1.132c0.785-0.754,1.178-1.896,1.178-3.426v-3.658c-0.434,1.158-1.167,2.083-2.2,2.775
		c-1.034,0.692-2.274,1.038-3.721,1.038c-1.447,0-2.748-0.351-3.906-1.054c-1.157-0.703-2.061-1.721-2.713-3.054
		c-0.65-1.333-0.976-2.898-0.976-4.696s0.325-3.363,0.976-4.697c0.652-1.332,1.556-2.35,2.713-3.053
		c1.158-0.703,2.459-1.055,3.906-1.055C503.734,405.796,504.974,406.138,506.008,406.82z M500.365,410.943
		c-0.826,0.889-1.24,2.107-1.24,3.658c0,1.55,0.414,2.764,1.24,3.643s1.922,1.317,3.286,1.317c1.322,0,2.413-0.45,3.271-1.349
		s1.286-2.103,1.286-3.611c0-1.529-0.429-2.744-1.286-3.643s-1.948-1.349-3.271-1.349
		C502.287,409.61,501.192,410.054,500.365,410.943z"/>
	<path fill="#0055FE" d="M527.739,401.673c1.281,1.117,1.922,2.697,1.922,4.744c0,2.066-0.656,3.647-1.969,4.742
		c-1.313,1.096-3.074,1.664-5.285,1.705v3.131h-4.123v-5.982h1.767c1.674,0,2.976-0.253,3.905-0.76
		c0.931-0.506,1.396-1.441,1.396-2.806c0-0.909-0.259-1.616-0.774-2.123c-0.518-0.507-1.209-0.76-2.078-0.76
		c-0.95,0-1.704,0.274-2.262,0.821c-0.559,0.548-0.838,1.256-0.838,2.123h-4.123c-0.041-1.239,0.228-2.35,0.807-3.332
		c0.578-0.98,1.431-1.756,2.557-2.324c1.127-0.568,2.465-0.854,4.016-0.854C524.762,400,526.456,400.558,527.739,401.673z
		 M522.746,418.63v4.558h-4.711v-4.558H522.746z"/>
</g>
</svg>
