<?xml version="1.0" encoding="utf-8"?>
<!-- Generator: Adobe Illustrator 16.0.0, SVG Export Plug-In . SVG Version: 6.00 Build 0)  -->
<!DOCTYPE svg PUBLIC "-//W3C//DTD SVG 1.1//EN" "http://www.w3.org/Graphics/SVG/1.1/DTD/svg11.dtd">
<svg version="1.1" id="Layer_1" xmlns="http://www.w3.org/2000/svg" xmlns:xlink="http://www.w3.org/1999/xlink" x="0px" y="0px"
	 width="600px" height="179.055px" viewBox="0 0 600 179.055" enable-background="new 0 0 600 179.055" xml:space="preserve">
<text transform="matrix(1 0 0 1 723.2192 -132.2437)" fill="#0055FE" font-family="'Poppins-Black'" font-size="44">-  rh  +  ff</text>
<g>
	<path fill="#0055FE" d="M360.712,94.492h-9.536v9.792h-13.632v-9.792h-9.536V81.5h9.536v-9.856h13.632V81.5h9.536V94.492z"/>
</g>
<g>
	<path fill="#0055FE" d="M70.242,77.532c2.538,2.774,3.808,6.528,3.808,11.264v20.928H59.906V90.587
		c0-1.536-0.459-2.741-1.376-3.616c-0.918-0.874-2.144-1.312-3.68-1.312c-1.579,0-2.816,0.438-3.712,1.312
		c-0.896,0.875-1.344,2.08-1.344,3.616v19.136H35.65V90.587c0-1.536-0.459-2.741-1.376-3.616c-0.918-0.874-2.144-1.312-3.68-1.312
		c-1.579,0-2.816,0.438-3.712,1.312c-0.896,0.875-1.344,2.08-1.344,3.616v19.136H11.33V73.627h14.208v4.864
		c1.024-1.536,2.421-2.773,4.192-3.712c1.77-0.938,3.85-1.408,6.24-1.408c2.602,0,4.906,0.566,6.912,1.696
		c2.005,1.131,3.605,2.72,4.8,4.768c1.322-1.877,3.008-3.424,5.056-4.64c2.048-1.216,4.309-1.824,6.784-1.824
		C64.13,73.372,67.703,74.759,70.242,77.532z"/>
	<path fill="#0055FE" d="M132.737,94.492h-9.536v9.792h-13.632v-9.792h-9.536V81.5h9.536v-9.856h13.632V81.5h9.536V94.492z"/>
</g>
<g>
	<g>
		<path fill="#EDA04C" d="M427.661,101.719c-0.249,2.95,1.755,18.563,2.788,24.686c0.492,2.899,1.841,7.625,1.354,10.133
			c-0.69,3.497-0.893,8.022-0.512,10.657c0.24,1.602,0.998,8.981-0.086,11.681c-0.566,1.415-1.604,8.668-1.604,8.668
			c-2.708,6.835-1.181,6.499-1.181,6.499c0.837,1.027,2.273,0.08,2.273,0.08c1.092,0.697,1.849-0.165,1.849-0.165
			c0.94,0.776,2.034-0.096,2.034-0.096c1.18,0.612,2.271-0.517,2.271-0.517c0.678,0.341,0.843-0.09,0.843-0.09
			c2.032-0.131-1.134-6.634-1.134-6.634c-0.759-5.84,0.753-9.089,0.753-9.089c4.946-14.672,5.198-18.564,3.22-24.093
			c-0.556-1.597-0.696-2.229-0.439-2.92c0.591-1.601,0.16-8.033,0.883-10.588c1.395-4.925,2.769-17.418,3.486-23.249
			c0.963-7.852-3.412-18.38-3.412-18.38c-0.959-4.286,0.444-19.55,0.444-19.55c1.963,3.053,1.889,8.44,1.889,8.44
			c-0.313,5.653,4.565,14.289,4.565,14.289c2.342,3.569,3.23,6.955,3.23,7.208c0,1.027-0.226,3.517-0.226,3.517l0.09,2.168
			c0.041,0.552,0.351,2.452,0.301,3.371c-0.365,5.655,0.533,4.592,0.533,4.592c0.757,0,1.591-4.552,1.591-4.552
			c0,1.174-0.289,4.686,0.346,6.011c0.757,1.58,1.313-0.271,1.323-0.643c0.2-7.198,0.634-5.313,0.634-5.313
			c0.421,5.842,0.939,7.159,1.866,6.704c0.704-0.338,0.06-7.009,0.06-7.009c1.205,3.964,2.118,4.595,2.118,4.595
			c1.984,1.395,0.757-2.457,0.482-3.221c-1.473-4.054-1.517-5.459-1.517-5.459c1.835,3.641,3.22,3.508,3.22,3.508
			c1.791-0.572-1.564-5.729-3.531-8.201c-1.004-1.26-2.299-2.944-2.673-3.945c-0.61-1.696-1.074-7.146-1.074-7.146
			c-0.186-6.434-1.778-9.228-1.778-9.228c-2.719-4.351-3.23-12.47-3.23-12.47l-0.119-13.706c-0.953-9.351-7.842-9.419-7.842-9.419
			c-6.963-1.035-7.932-3.285-7.932-3.285c-1.477-2.122-0.631-6.19-0.631-6.19c1.222-0.995,1.693-3.638,1.693-3.638
			c2.032-1.559,1.933-3.838,0.996-3.813c-0.755,0.021-0.583-0.604-0.583-0.604c1.268-10.263-7.842-10.786-7.842-10.786h-1.391
			c0,0-9.115,0.523-7.848,10.784c0,0,0.172,0.625-0.587,0.604c-0.938-0.025-1.024,2.255,1.001,3.813c0,0,0.471,2.641,1.693,3.638
			c0,0,0.845,4.067-0.631,6.19c0,0-0.963,2.25-7.934,3.286c0,0-6.899,0.067-7.838,9.416l-0.131,13.707c0,0-0.5,8.118-3.23,12.471
			c0,0-1.583,2.794-1.767,9.227c0,0-0.463,5.45-1.072,7.146c-0.373,0.996-1.667,2.682-2.679,3.946
			c-1.981,2.466-5.315,7.614-3.533,8.201c0,0,1.392,0.135,3.22-3.509c0,0-0.038,1.395-1.504,5.459
			c-0.289,0.753-1.517,4.605,0.47,3.222c0,0,0.922-0.633,2.119-4.597c0,0-0.642,6.674,0.072,7.009
			c0.933,0.457,1.442-0.862,1.863-6.702c0,0,0.432-1.887,0.632,5.313c0.01,0.371,0.556,2.224,1.315,0.643
			c0.641-1.323,0.354-4.831,0.354-6.011c0,0,0.823,4.55,1.594,4.55c0,0,0.904,1.063,0.534-4.59
			c-0.063-0.924,0.263-2.818,0.303-3.371l0.087-2.168c0,0-0.224-2.483-0.224-3.518c0-0.256,0.886-3.639,3.229-7.208
			c0,0,4.873-8.641,4.558-14.287c0,0-0.066-5.39,1.895-8.441c0,0,1.393,15.264,0.448,19.549c0,0-4.383,10.528-3.415,18.381
			c0.711,5.845,2.085,18.321,3.481,23.249c0.73,2.549,0.298,8.98,0.884,10.586c0.264,0.698,0.127,1.341-0.44,2.921
			c-1.968,5.529-1.718,9.422,3.229,24.093c0,0,1.521,3.25,0.754,9.091c0,0-3.162,6.502-1.138,6.631c0,0,0.159,0.432,0.843,0.091
			c0,0,1.096,1.13,2.274,0.517c0,0,1.096,0.873,2.03,0.097c0,0,0.751,0.862,1.844,0.165c0,0,1.437,0.968,2.288-0.082
			c0,0,1.515,0.337-1.182-6.496c0,0-1.033-7.245-1.604-8.669c-1.086-2.699-0.319-10.096-0.088-11.681
			c0.375-2.65,0.175-7.165-0.508-10.656c-0.5-2.505,0.853-7.23,1.353-10.135c1.025-6.116,3.035-21.73,2.784-24.685l0.83,0.29
			C427.288,102.009,427.661,101.719,427.661,101.719z"/>
	</g>
</g>
<g>
	<g>
		<path fill="#512807" d="M270.041,122.01l-0.001-0.003c-0.108-0.432-0.324-0.828-0.627-1.151
			c-3.464-3.684-6.406-7.293-8.743-10.733c-0.219-0.321-0.509-0.592-0.847-0.788c-3.172-1.843-6.295-1.449-10.616-0.902
			c-1.115,0.141-2.38,0.3-3.761,0.436c-0.318,0.031-0.627,0.12-0.912,0.263c-1.24,0.619-1.775,2.104-1.218,3.374
			c0.218,0.497,5.001,11.35,7.549,15.929l-7.695,31.371c-0.188,0.776-0.013,1.596,0.481,2.225c0.493,0.628,1.248,0.996,2.045,0.996
			h10.199c1.206,0,2.256-0.831,2.534-2.006l6.896-29.361l4.445-7.716C270.108,123.357,270.203,122.664,270.041,122.01z"/>
		<path fill="#512807" d="M222.463,109.175c-0.239-0.95-0.99-1.685-1.945-1.904c-5.807-1.332-8.198-2.844-8.292-2.904
			c-0.702-0.475-1.59-0.582-2.382-0.28c-0.804,0.303-1.405,0.981-1.608,1.815l-5.253,21.533c-0.048,0.201-0.073,0.409-0.073,0.616
			v32.373c0,1.436,1.164,2.601,2.601,2.601h8.483c1.437,0,2.603-1.166,2.603-2.601v-32.216l5.809-17.584
			C222.563,110.158,222.579,109.654,222.463,109.175z"/>
	</g>
	<path fill="#B99C80" d="M288.655,76.931c-4.313-3.367-8.763-4.436-8.951-4.479c-1.116-0.262-2.272,0.24-2.845,1.231
		c-0.573,0.994-0.428,2.246,0.355,3.082c3.162,3.37,5.118,7.558,5.813,12.451c0.032,0.23,0.095,0.454,0.187,0.668
		c3.158,7.295,7.504,8.47,9.975,8.47c1.095,0,1.822-0.23,1.914-0.261c1.008-0.34,1.707-1.257,1.769-2.317
		C297.434,85.938,292.714,80.098,288.655,76.931z"/>
	<path fill="#512807" d="M189.265,20.609c-0.1-1.434-1.343-2.517-2.775-2.413c-1.433,0.1-2.514,1.344-2.414,2.776
		c0.061,0.866,0.242,3.438-4.235,5.62c1.458-3.768,1.148-7.086,1.126-7.303c-0.146-1.424-1.414-2.452-2.837-2.314
		c-1.425,0.138-2.468,1.408-2.34,2.832c0.021,0.221,0.417,5.181-3.364,8.727h-4.422c-1.147-0.922-2.58-4.76-2.979-9.208
		c-0.129-1.43-1.391-2.485-2.821-2.361c-1.431,0.125-2.49,1.388-2.361,2.82c0.103,1.182,0.56,5.269,2.089,8.749h-4.143
		c-1.25-1.658-2.646-5.927-3.294-9.448c-0.261-1.413-1.618-2.348-3.028-2.088c-1.414,0.259-2.349,1.614-2.09,3.026
		c0.2,1.095,0.987,5.024,2.496,8.454c-3.328-0.38-6.07-2.864-6.684-6.194c-0.207-1.122-0.238-2.234-0.094-3.306
		c0.193-1.424-0.806-2.733-2.228-2.925c-1.425-0.193-2.734,0.805-2.927,2.229c-0.218,1.616-0.174,3.28,0.132,4.945
		c1.12,6.091,6.456,10.51,12.687,10.51h3.958h0.002c0.001,0,0.002,0,0.002,0h10.619c0.004,0,0.011,0.001,0.016,0.001
		c0.002,0,0.005-0.001,0.009-0.001h4.276l2.436,6.019c0.409,1.012,1.386,1.628,2.411,1.628c0.325,0,0.656-0.063,0.977-0.193
		c1.33-0.538,1.973-2.054,1.436-3.387l-1.91-4.712c1.281-0.318,2.801-0.782,4.314-1.445
		C186.771,29.254,189.598,25.334,189.265,20.609z"/>
	<path fill="#A86B38" d="M282.703,115.831c0.079-0.139,0.149-0.263,0.209-0.37c1.138-2.066,2.449-5.637,3.898-10.616
		c1.422-4.891,2.686-12.334,0.625-20.016c-2.047-7.628-6.811-13.521-14.156-17.514c-9.317-5.061-20.283-3.466-29.957-2.059
		c-6.121,0.892-11.902,1.733-15.479,0.452c-8.654-3.101-21.229-2.126-25.902-1.616l-10.787-19.933
		c1.186-4.307,1.027-8.735,0.993-9.424c-0.035-0.716-0.364-1.385-0.91-1.85c-0.545-0.464-1.261-0.684-1.973-0.605
		c-5.25,0.574-8.707,2.237-10.988,4.154c-0.022-0.004-0.044-0.012-0.066-0.013c-15.159-1.868-19.651,7.385-20.851,11.249
		l-10.744,3.868c-0.686,0.248-1.236,0.77-1.517,1.444c-0.282,0.672-0.27,1.43,0.036,2.093l4.053,8.794
		c0.428,0.928,1.372,1.521,2.378,1.511c0.109-0.001,8.176-0.045,15.446-0.036c2.184,5.916,8.914,23.605,13.148,28.723
		c4.034,4.876,12.572,13.682,15.163,16.336v50.021c0,1.437,1.163,2.602,2.601,2.602h7.587c1.437,0,2.603-1.166,2.603-2.602v-32.06
		l4.409-18.083c3.341,1.345,9.485,3.136,19.642,3.899c8.199,0.617,13.69-0.078,17.701-0.584c3.566-0.451,5.389-0.64,6.877,0.008
		c0.703,1.011,1.458,2.041,2.262,3.087c4.85,6.311,10.17,11.434,12.54,13.611l-8.535,29.399c-0.23,0.784-0.074,1.633,0.417,2.287
		c0.492,0.654,1.263,1.04,2.081,1.04h8.991c1.123,0,2.119-0.722,2.471-1.79l11.412-34.74c0.245-0.744,0.141-1.556-0.279-2.213
		L282.703,115.831z"/>
	<g>
		<path fill="#8C4A14" d="M157.254,65.345c-2.036-0.002-4.136-0.001-6.104,0.003c0.137,0.022,0.275,0.034,0.417,0.032
			c0.059,0,2.406-0.012,5.693-0.023C157.258,65.354,157.256,65.35,157.254,65.345z"/>
		<path fill="#8C4A14" d="M200.944,117.763l-2.588,10.602v32.06c0,1.05-0.622,1.951-1.517,2.362c0.331,0.152,0.698,0.24,1.086,0.24
			h7.587c1.438,0,2.602-1.166,2.602-2.603v-32.06l4.411-18.083c-0.041-0.006-0.083-0.015-0.125-0.022
			C207.209,109.312,202.192,112.637,200.944,117.763z"/>
		<path fill="#8C4A14" d="M282.703,115.831c0.079-0.139,0.149-0.263,0.209-0.37c1.138-2.066,2.449-5.637,3.898-10.616
			c1.422-4.891,2.686-12.334,0.625-20.016c-2.047-7.628-6.811-13.521-14.156-17.514c-6.403-3.478-13.585-3.812-20.59-3.225
			c3.738,0.399,7.398,1.359,10.831,3.225c7.349,3.993,12.11,9.886,14.157,17.514c2.062,7.681,0.799,15.125-0.625,20.016
			c-1.447,4.979-2.759,8.55-3.899,10.616c-0.06,0.107-0.129,0.231-0.209,0.37l5.4,8.452c0.42,0.658,0.524,1.47,0.279,2.213
			l-11.41,34.742c-0.309,0.943-1.124,1.613-2.084,1.757c0.126,0.021,0.252,0.033,0.379,0.033h8.992c1.122,0,2.119-0.721,2.47-1.79
			l11.412-34.742c0.245-0.743,0.142-1.554-0.279-2.212L282.703,115.831z"/>
	</g>
	<path fill="#512807" d="M221.35,16.039c-1.421-0.131-2.698,0.915-2.834,2.345c-0.263,2.779-2.818,5.318-4.917,6.958
		c-1.108,0.868-2.343,1.57-3.655,2.094c2.282-3.538,3.551-7.32,3.773-8.013c0.438-1.366-0.317-2.83-1.684-3.269
		c-1.367-0.438-2.83,0.316-3.271,1.681c-0.008,0.026-0.821,2.532-2.256,5.187c-1.563,2.89-3.245,4.826-4.776,5.513h-2.264
		c1.803-2.653,2.44-5.658,2.466-7.591c0.019-1.431-1.121-2.598-2.553-2.626c-1.424-0.031-2.613,1.114-2.65,2.544
		c-0.007,0.253-0.225,6.164-5.719,7.672h-2.659c-0.634,0-1.248,0.232-1.723,0.652l-7.549,6.671
		c-1.077,0.952-1.176,2.596-0.227,3.673c0.514,0.581,1.231,0.876,1.95,0.876c0.614,0,1.228-0.215,1.722-0.652l6.812-6.019h2.01
		c0.002,0,0.006,0,0.008,0c0.005,0,0.007,0,0.013,0h10.837c0.003,0,0.005,0,0.009,0c0.001,0,0.005,0,0.009,0h2.017
		c4.563,0,9.026-1.525,12.569-4.295c4.22-3.301,6.539-6.855,6.891-10.567C223.832,17.444,222.781,16.175,221.35,16.039z"/>
	<path fill="#2B2B2B" d="M167.768,51.669c-1.661,0-3.013-1.35-3.013-3.008s1.353-3.008,3.013-3.008c1.664,0,3.015,1.35,3.015,3.008
		S169.432,51.669,167.768,51.669z"/>
	<path fill="#FFDCAF" d="M188.109,80.172h0.242c0.917,0,1.767-0.481,2.235-1.271c0.468-0.789,0.488-1.767,0.05-2.571l-6.876-12.659
		l0,0c-6.438,1.801-16.747,1.673-16.747,1.673l0,0c2.184,5.916,8.915,23.605,13.149,28.724c1.891,2.287,4.993,5.704,9.219,10.156
		c0.5,0.529,1.184,0.813,1.888,0.813c0.287,0,0.58-0.048,0.862-0.148c0.968-0.341,1.646-1.219,1.729-2.242
		C194.616,93.382,190.873,84.979,188.109,80.172z"/>
</g>
<g>
	<path fill="#0055FE" d="M515.874,82.012v11.712H486.05V82.012H515.874z"/>
	<path fill="#0055FE" d="M578.337,75.388c2.261,1.472,4.042,3.606,5.344,6.4c1.301,2.795,1.952,6.091,1.952,9.888
		c0,3.798-0.651,7.094-1.952,9.888c-1.302,2.795-3.083,4.928-5.344,6.4c-2.263,1.472-4.801,2.208-7.616,2.208
		c-2.347,0-4.363-0.48-6.048-1.44c-1.687-0.96-2.977-2.272-3.872-3.936v4.928h-14.208v-47.36h14.208v16.192
		c0.896-1.664,2.186-2.976,3.872-3.936c1.685-0.96,3.701-1.44,6.048-1.44C573.537,73.18,576.075,73.916,578.337,75.388z
		 M562.209,87.196c-0.982,1.067-1.473,2.56-1.473,4.48s0.49,3.414,1.473,4.48c0.98,1.067,2.239,1.6,3.775,1.6s2.794-0.533,3.776-1.6
		c0.98-1.066,1.472-2.56,1.472-4.48s-0.491-3.413-1.472-4.48c-0.982-1.066-2.24-1.6-3.776-1.6S563.19,86.129,562.209,87.196z"/>
</g>
</svg>
