<?xml version="1.0" encoding="utf-8"?>
<!-- Generator: Adobe Illustrator 16.0.0, SVG Export Plug-In . SVG Version: 6.00 Build 0)  -->
<!DOCTYPE svg PUBLIC "-//W3C//DTD SVG 1.1//EN" "http://www.w3.org/Graphics/SVG/1.1/DTD/svg11.dtd">
<svg version="1.1" id="Layer_1" xmlns="http://www.w3.org/2000/svg" xmlns:xlink="http://www.w3.org/1999/xlink" x="0px" y="0px"
	 width="600px" height="179.055px" viewBox="0 0 600 179.055" enable-background="new 0 0 600 179.055" xml:space="preserve">
<g enable-background="new    ">
	<path fill="#0055FE" d="M197.764,87.208v9.516h-24.232v-9.516H197.764z"/>
	<path fill="#0055FE" d="M238.193,81.201c1.369,0.78,2.418,1.847,3.146,3.198V71.243h11.544v38.48h-11.544v-4.004
		c-0.728,1.352-1.777,2.418-3.146,3.198c-1.37,0.779-3.008,1.17-4.914,1.17c-2.288,0-4.351-0.599-6.188-1.794
		c-1.838-1.196-3.285-2.93-4.342-5.2c-1.058-2.271-1.586-4.948-1.586-8.034c0-3.085,0.528-5.763,1.586-8.034
		c1.057-2.27,2.504-4.004,4.342-5.2c1.837-1.195,3.9-1.794,6.188-1.794C235.185,80.031,236.823,80.422,238.193,81.201z
		 M234.059,91.42c-0.798,0.866-1.196,2.08-1.196,3.64c0,1.561,0.398,2.774,1.196,3.64c0.797,0.867,1.82,1.301,3.068,1.301
		s2.27-0.434,3.068-1.301c0.797-0.865,1.196-2.079,1.196-3.64c0-1.56-0.399-2.773-1.196-3.64c-0.798-0.866-1.82-1.3-3.068-1.3
		S234.856,90.554,234.059,91.42z"/>
	<path fill="#0055FE" d="M259.071,68.254c1.213-1.092,2.825-1.639,4.836-1.639c1.976,0,3.57,0.547,4.784,1.639
		c1.213,1.092,1.82,2.47,1.82,4.134c0,1.63-0.607,2.981-1.82,4.056c-1.214,1.075-2.808,1.612-4.784,1.612
		c-2.011,0-3.623-0.537-4.836-1.612c-1.214-1.074-1.82-2.426-1.82-4.056C257.251,70.724,257.857,69.346,259.071,68.254z
		 M269.627,80.396v29.328h-11.544V80.396H269.627z"/>
	<path fill="#0055FE" d="M317.518,97.348h-7.748v7.956h-11.076v-7.956h-7.748V86.792h7.748v-8.009h11.076v8.009h7.748V97.348z"/>
</g>
<g enable-background="new    ">
	<path fill="#0055FE" d="M517.129,97.348h-7.748v7.956h-11.075v-7.956h-7.748V86.792h7.748v-8.009h11.075v8.009h7.748V97.348z"/>
	<path fill="#0055FE" d="M559.535,82.918c2.374,1.924,3.874,4.464,4.498,7.617H553.27c-0.451-1.663-1.631-2.495-3.537-2.495
		c-1.074,0-1.611,0.416-1.611,1.248c0,0.59,0.391,1.039,1.17,1.352c0.78,0.312,2.02,0.642,3.719,0.988
		c2.217,0.416,4.115,0.91,5.693,1.481c1.577,0.572,2.938,1.5,4.082,2.782c1.145,1.283,1.716,3.034,1.716,5.252
		c0,1.734-0.485,3.276-1.456,4.628c-0.971,1.353-2.392,2.41-4.264,3.172c-1.872,0.764-4.074,1.145-6.604,1.145
		c-4.23,0-7.593-0.901-10.088-2.704c-2.496-1.803-4.039-4.402-4.629-7.8h11.076c0.208,1.698,1.404,2.548,3.588,2.548
		c1.178,0,1.768-0.416,1.768-1.248c0-0.658-0.398-1.145-1.195-1.456c-0.798-0.313-2.08-0.624-3.848-0.937
		c-2.254-0.449-4.117-0.936-5.59-1.456c-1.475-0.52-2.766-1.403-3.875-2.651s-1.664-2.964-1.664-5.148
		c0-1.768,0.469-3.345,1.404-4.731s2.322-2.479,4.16-3.276c1.837-0.797,4.073-1.196,6.708-1.196
		C553.979,80.031,557.16,80.993,559.535,82.918z"/>
</g>
<g>
	<path fill="#E6E6E6" d="M448.68,73.999h-16.156v10.769h10.769c2.955,0,5.388,2.425,5.388,5.381v26.928
		c0,2.963-2.433,5.381-5.388,5.381h-10.769v10.77h16.156c5.916,0,10.766-4.842,10.766-10.77V84.768
		C459.446,78.845,454.596,73.999,448.68,73.999z"/>
	<path fill="#E6E6E6" d="M416.365,30.295c-3.722,0-7.143,1.274-9.874,3.387c-2.676-5.203-8.099-8.772-14.355-8.772
		c-2.285,0-4.453,0.479-6.426,1.341c-3.198-4.09-8.174-6.723-13.765-6.723c-8.418,0-15.433,5.937-17.111,13.847
		c-1-0.232-2.015-0.384-3.079-0.384c-7.434,0-13.464,6.029-13.464,13.46v21.54c0,2.962,2.417,5.381,5.388,5.381h2.687
		c2.962,0,5.39-2.419,5.39-5.381v-4.299c1.635,0.996,3.524,1.604,5.567,1.604h5.291c3.434,0,6.47-1.65,8.438-4.172
		c2.938,4.141,7.759,6.867,13.192,6.867c8.887,0,16.153-7.275,16.153-16.154h31.187c0.592-1.688,0.939-3.495,0.939-5.386
		C432.524,37.531,425.293,30.295,416.365,30.295z"/>
	<path fill="#F4C44E" d="M400.398,51.836c0,8.879-7.267,16.154-16.153,16.154c-5.434,0-10.254-2.727-13.192-6.867
		c-1.969,2.521-5.005,4.172-8.438,4.172h-5.291c-2.042,0-3.933-0.607-5.567-1.604v82.371c0,7.401,6.05,13.465,13.456,13.465h53.844
		c7.406,0,13.469-6.063,13.469-13.465V51.836H400.398z"/>
	<path fill="#F9DA49" d="M367.903,86.836c0-4.443-3.631-8.076-8.066-8.076c-4.448,0-8.081,3.633-8.081,8.076v56.537h16.147V86.836z"
		/>
	<path fill="#EEAF4B" d="M384.055,86.836c0-4.443-3.627-8.076-8.072-8.076c-4.438,0-8.08,3.633-8.08,8.076v56.537h16.152V86.836z"/>
	<path fill="#F9DA49" d="M400.211,86.836c0-4.443-3.627-8.076-8.075-8.076c-4.438,0-8.081,3.633-8.081,8.076v56.537h16.156V86.836z"
		/>
	<path fill="#EEAF4B" d="M416.365,86.836c0-4.443-3.625-8.076-8.073-8.076c-4.438,0-8.081,3.633-8.081,8.076v56.537h16.154V86.836z"
		/>
	<path fill="#F9DA49" d="M432.524,86.836c0-4.443-3.64-8.076-8.078-8.076c-4.448,0-8.08,3.633-8.08,8.076v56.537h16.158V86.836z"/>
</g>
<g>
	<path fill="#424A60" d="M134.788,47.102c-23.438-23.432-61.418-23.432-84.854,0c-23.43,23.433-23.43,61.419,0,84.852
		c23.437,23.432,61.417,23.432,84.854,0C158.216,108.521,158.216,70.534,134.788,47.102z M102.972,100.136
		c-5.859,5.859-15.363,5.859-21.211,0c-5.86-5.859-5.86-15.357,0-21.211c5.855-5.859,15.352-5.859,21.211,0
		C108.822,84.781,108.822,94.277,102.972,100.136z"/>
	<path fill="#E7ECED" d="M109.031,72.861c-9.211-9.205-24.129-9.205-33.341,0c-9.198,9.205-9.198,24.129,0,33.334
		c9.212,9.205,24.132,9.205,33.341,0C118.23,96.99,118.23,82.066,109.031,72.861z M96.902,94.072c-2.508,2.514-6.574,2.514-9.086,0
		c-2.516-2.508-2.516-6.58,0-9.09c2.512-2.511,6.578-2.511,9.086,0C99.421,87.491,99.421,91.564,96.902,94.072z"/>
	<g>
		<path fill="#7383BF" d="M109.031,106.195c-1.629,1.629-3.445,2.953-5.367,4.008l17.478,31.972
			c4.894-2.68,9.499-6.076,13.647-10.221c4.146-4.143,7.535-8.75,10.22-13.646l-31.971-17.479
			C111.984,102.755,110.659,104.566,109.031,106.195z"/>
		<path fill="#7383BF" d="M75.69,72.861c1.63-1.629,3.445-2.953,5.367-4.008l-17.473-31.97c-4.897,2.678-9.503,6.076-13.65,10.219
			c-4.141,4.144-7.537,8.75-10.219,13.647l31.968,17.479C72.738,76.301,74.062,74.49,75.69,72.861z"/>
	</g>
</g>
</svg>
