<?xml version="1.0" encoding="utf-8"?>
<!-- Generator: Adobe Illustrator 16.0.0, SVG Export Plug-In . SVG Version: 6.00 Build 0)  -->
<!DOCTYPE svg PUBLIC "-//W3C//DTD SVG 1.1//EN" "http://www.w3.org/Graphics/SVG/1.1/DTD/svg11.dtd">
<svg version="1.1" id="Layer_1" xmlns="http://www.w3.org/2000/svg" xmlns:xlink="http://www.w3.org/1999/xlink" x="0px" y="0px"
	 width="600px" height="179.055px" viewBox="0 0 600 179.055" enable-background="new 0 0 600 179.055" xml:space="preserve">
<g>
	<path fill="#0055FE" d="M413.385,79.478v11.529h-29.357V79.478H413.385z"/>
	<path fill="#0055FE" d="M471.565,74.689c3.171,2.604,5.176,6.216,6.017,10.836h-14.806c-0.545-1.848-1.617-2.772-3.213-2.772
		c-1.133,0-2.026,0.525-2.677,1.575c-0.651,1.051-0.977,2.605-0.977,4.662c0,2.059,0.325,3.613,0.977,4.662
		c0.65,1.05,1.544,1.575,2.677,1.575c1.596,0,2.668-0.923,3.213-2.772h14.806c-0.841,4.621-2.846,8.232-6.017,10.836
		c-3.172,2.604-7.066,3.906-11.687,3.906c-3.528,0-6.668-0.734-9.419-2.205c-2.75-1.47-4.893-3.58-6.426-6.332
		c-1.533-2.75-2.299-5.974-2.299-9.67c0-3.695,0.766-6.919,2.299-9.67c1.533-2.75,3.676-4.861,6.426-6.332
		c2.751-1.47,5.891-2.205,9.419-2.205C464.499,70.783,468.393,72.085,471.565,74.689z"/>
	<path fill="#0055FE" d="M533.714,91.762h-9.388v9.639h-13.418v-9.639h-9.388V78.973h9.388v-9.702h13.418v9.702h9.388V91.762z"/>
	<path fill="#0055FE" d="M578.317,72.201c1.68,0.945,2.961,2.237,3.844,3.875v-4.851h13.923v35.532h-13.923v-4.851
		c-0.883,1.638-2.164,2.93-3.844,3.875s-3.675,1.417-5.984,1.417c-2.771,0-5.271-0.725-7.497-2.173
		c-2.227-1.449-3.979-3.549-5.261-6.3c-1.281-2.75-1.922-5.995-1.922-9.733c0-3.738,0.641-6.982,1.922-9.733
		c1.281-2.75,3.034-4.851,5.261-6.3c2.226-1.449,4.726-2.174,7.497-2.174C574.642,70.783,576.637,71.256,578.317,72.201z
		 M573.278,84.581c-0.967,1.05-1.449,2.52-1.449,4.41c0,1.89,0.482,3.361,1.449,4.41c0.965,1.05,2.205,1.575,3.717,1.575
		s2.75-0.525,3.717-1.575c0.966-1.049,1.449-2.52,1.449-4.41c0-1.89-0.483-3.359-1.449-4.41c-0.967-1.05-2.205-1.575-3.717-1.575
		S574.243,83.531,573.278,84.581z"/>
</g>
<g>
	<path fill="#0055FE" d="M206.457,91.762h-9.387v9.639h-13.419v-9.639h-9.388V78.973h9.388v-9.702h13.419v9.702h9.387V91.762z"/>
</g>
<g>
	<path fill="#F2D2B7" d="M100.105,80.767c0,3.571-1.122,6.879-3.028,9.591h-0.009c-3.013,4.261-7.977,7.047-13.605,7.047
		c-5.395,0-10.189-2.564-13.232-6.543h-6.676l-31.683,0.004c-3.042,3.975-7.833,6.539-13.227,6.539C9.453,97.405,2,89.952,2,80.767
		c0-8.549,6.443-15.588,14.741-16.534V47.338c0-9.474,3.843-18.049,10.051-24.261c5.372-5.373,12.522-8.974,20.49-9.845
		c1.243-0.137,2.493-0.205,3.775-0.205c0.297,0,0.586,0.005,0.884,0.01c1.279,0.035,2.535,0.135,3.772,0.304
		c16.746,2.277,29.652,16.628,29.652,33.997v16.895C93.665,65.179,100.105,72.218,100.105,80.767z"/>
	<g>
		<path fill="#ECBF99" d="M55.714,35.865c0,2.259,2.298,9.275,8.452,12.79c6.147,3.525-12.979,2.521-12.979,2.521"/>
		<path fill="#ECBF99" d="M55.714,13.341v31.936h-4.656V13.028c0.297,0,0.586,0.005,0.884,0.01
			C53.222,13.073,54.478,13.172,55.714,13.341z"/>
		<path fill="#ECBF99" d="M97.068,90.358c-3.014,4.261-7.982,7.047-13.605,7.047c-5.395,0-10.189-2.564-13.232-6.545h-6.676v-6.091
			l10.875-19.202C74.431,75.04,80.267,90.358,97.068,90.358z"/>
		<path fill="#ECBF99" d="M50.785,13.033c-5.648,0.117-10.744,3.935-14.456,10.045c-3.763,6.212-6.093,14.787-6.093,24.261v16.891
			c-5.038,0.95-8.944,7.989-8.944,16.538c0,6.314,2.139,11.814,5.284,14.629c-2.363,1.279-5.06,2.009-7.933,2.009
			C9.453,97.405,2,89.952,2,80.767c0-8.549,6.442-15.588,14.741-16.538V47.338c0-9.474,3.843-18.049,10.051-24.261
			C32.939,16.927,41.418,13.099,50.785,13.033z"/>
	</g>
	<path fill="#FBF0E7" d="M79.169,65.047v5.261c0,13.696-9.801,25.111-22.779,27.603c-1.486,0.288-3.01,0.455-4.567,0.498h-0.038
		c-0.265,0.003-0.536,0.009-0.814,0.009c-15.492-0.03-28.036-12.619-28.036-28.109v-5.261c0-15.437,28.123-17.571,28.123-28.049
		C51.056,47.476,79.169,49.611,79.169,65.047z"/>
	<path fill="#F7E5D6" d="M55.891,98c-1.321,0.227-2.684,0.366-4.067,0.408h-0.042c-0.268,0.003-0.534,0.009-0.81,0.009
		c-15.493-0.03-28.036-12.619-28.036-28.109v-5.261c0-6.095,4.394-10.127,9.71-13.404v18.665C32.646,84.166,42.679,95.705,55.891,98
		z"/>
	<path fill="#F6E0CD" d="M51.049,82.264c-3.773,0-7.324-1.468-9.991-4.143c-0.694-0.691-0.694-1.808,0-2.504
		c0.69-0.692,1.816-0.692,2.506,0c2.001,1.997,4.662,3.097,7.485,3.097c2.831,0,5.491-1.1,7.489-3.097
		c0.691-0.692,1.818-0.692,2.505,0c0.699,0.696,0.699,1.813,0,2.504C58.38,80.796,54.828,82.264,51.049,82.264z"/>
	<path fill="#E8B182" d="M38.806,68.036c-0.983,0-1.774-0.794-1.774-1.782v-6.904c0-0.982,0.791-1.772,1.774-1.772
		c0.978,0,1.769,0.79,1.769,1.772v6.904C40.579,67.242,39.784,68.036,38.806,68.036z"/>
	<path fill="#E8B182" d="M63.298,68.036c-0.978,0-1.767-0.794-1.767-1.782v-6.904c0-0.982,0.789-1.772,1.767-1.772
		c0.983,0,1.779,0.79,1.779,1.772v6.904C65.077,67.242,64.282,68.036,63.298,68.036z"/>
	<path fill="#FBF0E7" d="M144.627,67.658c0,4.217-3.258,7.682-7.392,8.015c-0.213,0.018-0.437,0.026-0.658,0.026
		c-0.559,0-1.102-0.06-1.643-0.161H86.49c-0.53,0.102-1.078,0.161-1.64,0.161h-0.003c-4.448,0-8.04-3.599-8.04-8.041
		c0-4.191,3.199-7.631,7.286-8.007c0.252-0.029,0.498-0.037,0.757-0.037c0.338,0,0.669,0.025,0.997,0.059h49.739
		c0.327-0.033,0.66-0.059,0.992-0.059c0.479,0,0.947,0.037,1.405,0.126C141.76,60.398,144.627,63.689,144.627,67.658z"/>
	<path fill="#F7E5D6" d="M137.655,59.74v10.187c0,1.978-0.258,3.907-0.739,5.746c-0.217,0.018-0.439,0.026-0.654,0.026
		c-0.571,0-1.117-0.06-1.644-0.161H86.17c-0.534,0.102-1.078,0.161-1.643,0.161h-0.001c-0.494-1.854-0.755-3.778-0.755-5.772V59.651
		c0.251-0.029,0.5-0.039,0.757-0.039c0.338,0,0.672,0.027,0.998,0.061h49.739c0.327-0.033,0.66-0.061,0.997-0.061
		C136.736,59.614,137.207,59.651,137.655,59.74z"/>
	<path fill="#F6E0CD" d="M139.826,69.871c-0.762,0-1.483-0.447-1.81-1.187c-0.533-1.203-2.292-0.727-2.304-0.714
		c-1.046,0.296-2.14-0.313-2.439-1.359c-0.298-1.055,0.311-2.145,1.362-2.443c0.121-0.034,1.258-0.346,2.612-0.196
		c2.047,0.211,3.607,1.327,4.392,3.139c0.438,0.998-0.028,2.163-1.027,2.601C140.356,69.82,140.086,69.871,139.826,69.871z"/>
	<path fill="#F6E0CD" d="M81.602,69.871c-0.259,0-0.529-0.055-0.782-0.16c-1-0.438-1.46-1.603-1.024-2.601
		c0.854-1.959,3.062-3.784,6.693-3.024c1.063,0.231,1.748,1.281,1.521,2.35c-0.228,1.063-1.272,1.75-2.341,1.522
		c-0.659-0.143-1.839-0.235-2.253,0.73C83.088,69.423,82.367,69.871,81.602,69.871z"/>
	<path fill="#FCF4EE" d="M137.881,89.005L102.58,69.441L85.587,60.03c-5.012-9.448-10.811-44.528,7.184-39.952
		c0,0,12.896-7.657,29.016-6.279c5.921,0.508,12.26,2.228,18.568,5.996C163.833,33.823,154.329,80.467,137.881,89.005z"/>
	<path fill="#F6E2D1" d="M109.258,48.483c3.429,4.761-0.409,12.734-6.679,20.958L85.587,60.03
		c-5.012-9.448-10.811-44.528,7.184-39.952c0,0,12.896-7.657,29.016-6.279C99.18,11.842,99.82,35.399,109.258,48.483z"/>
	<path fill="#F7E5D6" d="M142.985,60.947v11.721c0,13.98-10.01,25.634-23.248,28.175h-0.012c-1.757,0.345-3.575,0.523-5.438,0.523
		c-15.854,0-28.7-12.851-28.7-28.698V60.03c9.32-7.897,9.624-21.656,9.624-21.656c0.177,2.06,1.235,3.749,2.922,5.175
		C108.532,52.341,142.985,50.863,142.985,60.947z"/>
	<path fill="#FBF0E7" d="M142.985,64.052v8.615c0,13.98-10.007,25.634-23.248,28.175h-0.012
		C106.489,98.294,96.49,86.648,96.49,72.667V53.125c0-2.347,0.287-4.62,0.81-6.802c0.269,0.087,0.55,0.196,0.833,0.327
		C108.536,55.444,142.985,53.963,142.985,64.052z"/>
	<path fill="#F6E0CD" d="M114.287,85.351c-4.351,0-8.445-1.691-11.521-4.765c-0.73-0.73-0.73-1.915,0-2.647
		c0.735-0.729,1.921-0.729,2.653,0c2.367,2.358,5.52,3.673,8.868,3.673c3.348,0,6.496-1.314,8.875-3.673
		c0.725-0.729,1.911-0.729,2.64,0c0.736,0.732,0.736,1.917,0,2.647C122.725,83.66,118.634,85.351,114.287,85.351z"/>
	<path fill="#E8B182" d="M101.785,70.667c-1.036,0-1.869-0.84-1.869-1.868v-7.104c0-1.036,0.833-1.878,1.869-1.878
		c1.034,0,1.876,0.842,1.876,1.878v7.104C103.661,69.828,102.819,70.667,101.785,70.667z"/>
	<path fill="#E8B182" d="M126.789,70.667c-1.025,0-1.868-0.84-1.868-1.868v-7.104c0-1.036,0.843-1.878,1.868-1.878
		c1.034,0,1.87,0.842,1.87,1.878v7.104C128.659,69.828,127.823,70.667,126.789,70.667z"/>
	<g>
		<path fill="#FFD0A6" d="M112.409,136.375c0,4.22-3.251,7.684-7.387,8.012c-0.217,0.019-0.435,0.031-0.658,0.031
			c-0.562,0-1.106-0.061-1.645-0.169H54.277c-0.529,0.108-1.079,0.169-1.644,0.169h-0.005c-4.441,0-8.037-3.605-8.037-8.043
			c0-4.192,3.201-7.635,7.289-8.005c0.247-0.036,0.497-0.042,0.753-0.042c0.341,0,0.672,0.024,0.998,0.063h49.737
			c0.327-0.039,0.659-0.063,0.997-0.063c0.481,0,0.946,0.042,1.405,0.128C109.539,129.117,112.409,132.404,112.409,136.375z"/>
		<path fill="#E8B182" d="M105.444,128.456v10.186c0,1.98-0.26,3.905-0.746,5.745c-0.213,0.019-0.439,0.031-0.652,0.031
			c-0.565,0-1.116-0.061-1.642-0.169H53.954c-0.531,0.108-1.08,0.169-1.643,0.169h-0.009c-0.483-1.854-0.747-3.784-0.747-5.776
			V128.37c0.25-0.036,0.502-0.042,0.756-0.042c0.338,0,0.67,0.024,0.996,0.06h49.747c0.324-0.035,0.652-0.06,0.992-0.06
			C104.522,128.328,104.995,128.37,105.444,128.456z"/>
		<path fill="#DDA378" d="M107.611,138.589c-0.764,0-1.483-0.447-1.813-1.186c-0.524-1.204-2.286-0.728-2.297-0.719
			c-1.055,0.297-2.144-0.308-2.443-1.358c-0.295-1.056,0.311-2.146,1.361-2.445c0.122-0.029,1.261-0.346,2.615-0.197
			c2.042,0.209,3.601,1.334,4.387,3.139c0.438,1.003-0.027,2.169-1.023,2.599C108.145,138.536,107.874,138.589,107.611,138.589z"/>
		<path fill="#DDA378" d="M49.389,138.589c-0.259,0-0.53-0.054-0.784-0.168c-1.002-0.43-1.461-1.596-1.023-2.599
			c0.85-1.954,3.057-3.778,6.689-3.02c1.066,0.228,1.747,1.276,1.521,2.351c-0.224,1.06-1.269,1.744-2.337,1.522
			c-0.665-0.143-1.839-0.239-2.258,0.729C50.877,138.142,50.15,138.589,49.389,138.589z"/>
		<path fill="#E8B182" d="M103.054,124.766v16.723c0,11.953-8.567,21.915-19.891,24.097c-1.508,0.287-3.07,0.442-4.664,0.442
			c-13.557,0-24.545-10.991-24.545-24.539v-16.723c0-13.55,10.989-24.546,24.545-24.546c1.594,0,3.155,0.148,4.664,0.444
			c4.91,0.942,9.297,3.352,12.694,6.738C100.299,111.853,103.054,117.983,103.054,124.766z"/>
		<path fill="#FFD0A6" d="M103.054,124.766v16.723c0,11.953-8.567,21.915-19.891,24.097c-11.329-2.182-19.885-12.144-19.885-24.097
			v-16.723c0-11.963,8.557-21.93,19.885-24.102c4.91,0.942,9.297,3.352,12.694,6.738
			C100.299,111.853,103.054,117.983,103.054,124.766z"/>
		<path fill="#DDA378" d="M78.503,153.692c-3.922,0-7.837-1.494-10.818-4.477c-0.619-0.614-0.619-1.62,0-2.229
			c0.614-0.617,1.616-0.615,2.234,0c4.728,4.729,12.43,4.731,17.162,0c0.618-0.617,1.619-0.615,2.234,0
			c0.618,0.609,0.618,1.615,0,2.229C86.334,152.198,82.417,153.692,78.503,153.692z"/>
		<path fill="#1A414C" d="M67.807,139.886c-0.944,0-1.712-0.771-1.712-1.716v-6.036c0-0.944,0.768-1.708,1.712-1.708
			c0.946,0,1.711,0.764,1.711,1.708v6.036C69.518,139.116,68.751,139.886,67.807,139.886z"/>
		<path fill="#1A414C" d="M89.193,139.886c-0.946,0-1.709-0.771-1.709-1.716v-6.036c0-0.944,0.763-1.708,1.709-1.708
			c0.946,0,1.711,0.764,1.711,1.708v6.036C90.905,139.116,90.139,139.886,89.193,139.886z"/>
		<path fill="#E8B182" d="M103.054,118.167v12.98c-11.967,0.46-20.652-2.284-26.763-5.737c0,0-0.005-0.012-0.005-0.018
			c-4.047-2.289-6.956-4.87-8.94-7.046v0.006c0,0-5.521,5.048-13.391,6.073v-6.259c0-12.61,10.223-22.837,22.832-22.837h3.43
			C92.827,95.331,103.054,105.557,103.054,118.167z"/>
		<path fill="#AA6952" d="M103.054,115.43v12.969c-11.967,0.467-20.652-2.288-26.763-5.742c0,0-0.005,0-0.005-0.003
			c-4.047-2.281-6.956-4.882-8.94-7.048v0.003c0,0-5.521,5.051-13.391,6.084v-6.263c0-12.615,10.223-22.84,22.832-22.84h3.43
			C92.827,92.59,103.054,102.815,103.054,115.43z"/>
		<path fill="#89412B" d="M76.285,122.654c-4.047-2.281-6.956-4.882-8.94-7.048v0.003c0,0-5.521,5.051-13.391,6.084v-6.263
			c0-12.615,10.223-22.84,22.832-22.84C67.868,97.722,70.525,118.568,76.285,122.654z"/>
	</g>
</g>
<g>
	<path fill="#FFC850" d="M339.518,35.332c2.328-1.891,5.803-0.233,5.803,2.765v47.698l-39.151-23.142L339.518,35.332z"/>
	<path fill="#EBAF4B" d="M341.762,83.688l-23.84-14.09l19.861-22.392c1.39-1.569,3.979-0.585,3.979,1.51V83.688z"/>
	<path fill="#FFC850" d="M258.576,35.332c-2.329-1.891-5.803-0.233-5.803,2.765v47.698l39.153-23.142L258.576,35.332z"/>
	<path fill="#EBAF4B" d="M256.332,83.688l23.842-14.09l-19.862-22.392c-1.39-1.569-3.98-0.585-3.98,1.51V83.688z"/>
	<ellipse fill="#FFDC64" cx="299.047" cy="97.36" rx="49.836" ry="47.168"/>
	<path fill="#5D5360" d="M302.972,108.404h-7.851c-1.703,0-2.642,1.967-1.578,3.286l3.936,4.863c0.81,0.998,2.329,0.998,3.137,0
		l3.936-4.863C305.615,110.371,304.676,108.404,302.972,108.404z"/>
	<g>
		<path fill="#E1A546" d="M347.104,128.507c-0.281,0-0.558-0.066-0.823-0.198c-10.767-5.597-27.606-8.921-27.771-8.953
			c-0.967-0.189-1.594-1.125-1.407-2.092c0.187-0.967,1.114-1.594,2.08-1.404c0.718,0.138,17.513,3.45,28.744,9.292
			c0.87,0.449,1.21,1.523,0.756,2.399C348.368,128.161,347.747,128.507,347.104,128.507z"/>
		<path fill="#E1A546" d="M350.66,116.051c-0.149,0-0.308-0.022-0.456-0.064c-9.977-2.68-28.12-2.169-28.303-2.162
			c-1,0.025-1.8-0.745-1.83-1.724c-0.029-0.984,0.742-1.807,1.723-1.833c0.771-0.028,18.856-0.532,29.332,2.282
			c0.946,0.258,1.51,1.229,1.253,2.184C352.164,115.527,351.45,116.047,350.66,116.051z"/>
	</g>
	<path fill="#FFC850" d="M311.504,140.966c-27.523,0-49.835-21.118-49.835-47.167c0-19.122,12.042-35.581,29.33-42.981
		c-23.69,3.641-41.787,23.09-41.787,46.544c0,26.049,22.309,47.167,49.835,47.167c7.313,0,14.248-1.502,20.505-4.182
		C316.929,140.749,314.242,140.966,311.504,140.966z"/>
	<g>
		<path fill="#E1A546" d="M250.993,128.507c-0.641,0-1.266-0.347-1.583-0.956c-0.447-0.876-0.113-1.95,0.758-2.399
			c11.23-5.842,28.024-9.154,28.74-9.292c0.965-0.196,1.896,0.437,2.084,1.404c0.185,0.966-0.441,1.903-1.408,2.092
			c-0.163,0.032-17.005,3.356-27.77,8.953C251.548,128.441,251.271,128.507,250.993,128.507z"/>
		<path fill="#E1A546" d="M247.429,116.051c-0.782,0-1.505-0.524-1.718-1.318c-0.252-0.954,0.309-1.926,1.258-2.184
			c10.475-2.817,28.562-2.306,29.33-2.282c0.982,0.026,1.751,0.849,1.726,1.833c-0.035,0.979-0.883,1.761-1.833,1.724
			c-0.185-0.005-18.33-0.518-28.297,2.162C247.74,116.029,247.584,116.051,247.429,116.051z"/>
	</g>
	<path fill="#4B3F4E" d="M278.583,103.592L278.583,103.592c-3.434,0-6.229-2.805-6.229-6.23v-3.563c0-3.426,2.795-6.23,6.229-6.23
		l0,0c3.425,0,6.228,2.805,6.228,6.23v3.563C284.811,100.787,282.008,103.592,278.583,103.592z"/>
	<path fill="#5D5360" d="M278.583,87.568c-0.313,0-0.602,0.053-0.893,0.095v8.809c0,1.964,1.594,3.558,3.562,3.558
		c1.961,0,3.559-1.593,3.559-3.558v-2.673C284.811,90.373,282.006,87.568,278.583,87.568z"/>
	<path fill="#FFFFFF" d="M278.585,89.352c1.468,0,2.667,1.194,2.667,2.673c0,1.47-1.199,2.667-2.667,2.667
		c-1.483,0-2.678-1.198-2.678-2.667C275.908,90.546,277.102,89.352,278.585,89.352z"/>
	<path fill="#4B3F4E" d="M319.509,103.592L319.509,103.592c-3.424,0-6.227-2.805-6.227-6.23v-3.563c0-3.426,2.803-6.23,6.227-6.23
		l0,0c3.434,0,6.229,2.805,6.229,6.23v3.563C325.739,100.787,322.943,103.592,319.509,103.592z"/>
	<path fill="#5D5360" d="M319.509,87.568c-0.298,0-0.593,0.053-0.879,0.095v8.809c0,1.964,1.588,3.558,3.558,3.558
		c1.961,0,3.551-1.593,3.551-3.558v-2.673C325.739,90.373,322.943,87.568,319.509,87.568z"/>
	<path fill="#FFFFFF" d="M319.509,89.352c1.484,0,2.677,1.194,2.677,2.673c0,1.47-1.192,2.667-2.677,2.667
		c-1.468,0-2.668-1.198-2.668-2.667C316.841,90.546,318.042,89.352,319.509,89.352z"/>
	<path fill="#4B3F4E" d="M300.424,116.629l-3.93-7.78c-0.076-0.139-0.113-0.293-0.171-0.445h-1.202
		c-1.703,0-2.642,1.967-1.578,3.286l3.936,4.863c0.763,0.943,2.145,0.967,2.979,0.126
		C300.448,116.661,300.436,116.649,300.424,116.629z"/>
	<path fill="#EBAF4B" d="M307.944,128.507c-2.51,0-4.941-0.746-7.019-2.166c-1.101-0.754-2.657-0.754-3.76,0
		c-2.073,1.42-4.507,2.166-7.017,2.166c-3.068,0-6.014-1.133-8.309-3.189c-0.733-0.656-0.791-1.783-0.139-2.516
		c0.653-0.729,1.782-0.794,2.514-0.134c2.988,2.681,7.672,2.974,10.938,0.736c2.332-1.588,5.456-1.588,7.787,0
		c3.267,2.236,7.949,1.942,10.94-0.735c0.729-0.656,1.854-0.597,2.51,0.132c0.654,0.735,0.595,1.861-0.136,2.517
		C313.959,127.374,311.014,128.507,307.944,128.507z"/>
</g>
</svg>
