<?xml version="1.0" encoding="utf-8"?>
<!-- Generator: Adobe Illustrator 16.0.0, SVG Export Plug-In . SVG Version: 6.00 Build 0)  -->
<!DOCTYPE svg PUBLIC "-//W3C//DTD SVG 1.1//EN" "http://www.w3.org/Graphics/SVG/1.1/DTD/svg11.dtd">
<svg version="1.1" id="Layer_1" xmlns="http://www.w3.org/2000/svg" xmlns:xlink="http://www.w3.org/1999/xlink" x="0px" y="0px"
	 width="600px" height="179.055px" viewBox="0 0 600 179.055" enable-background="new 0 0 600 179.055" xml:space="preserve">
<text transform="matrix(1 0 0 1 116.4922 109.7236)" fill="#0055FE" font-family="'Poppins-Black'" font-size="51">-  k  -  k  +</text>
<text transform="matrix(1 0 0 1 514.5181 109.7236)" fill="#0055FE" font-family="'Poppins-Black'" font-size="51">+  e </text>
<g>
	<path fill="#E2B164" d="M81.705,86.203c-3.037,0.012-5.694,1.617-7.179,4.014V87.7c0-4.661-3.817-8.702-8.486-8.701
		c-3.032,0.012-5.687,1.625-7.179,4.021v-1.671c0-4.746-3.883-8.779-8.624-8.689c-4.595,0.078-8.305,3.835-8.305,8.461v2.474
		c-1.489-2.409-4.153-4.023-7.197-4.023c-4.089,0-7.503,2.91-8.294,6.764c0,3.451,0,25.871,0,29.531
		c0,2.342-2.055,4.219-4.452,3.901c-1.983-0.252-3.416-2.035-3.416-4.033v-7.778c0-1.349-1.654-1.969-2.547-0.977l-7.712,8.637
		c-3.007,3.376-2.84,8.525,0.396,11.689l22.137,21.664c3.883,4.901,9.888,8.06,16.617,8.06h20.303
		c12.381,0,22.418-10.037,22.418-22.418V94.891C90.183,90.227,86.373,86.185,81.705,86.203z"/>
	<path fill="#FFE5C2" d="M55.547,63.585c2.127,0,3.847-1.726,3.847-3.85V25.88c0-2.133-1.72-3.853-3.847-3.853
		S51.7,23.748,51.7,25.88v33.855C51.7,61.86,53.42,63.585,55.547,63.585z"/>
	<path fill="#FFE5C2" d="M36.737,61.495c0.964,1.885,3.283,2.637,5.177,1.661c1.894-0.966,2.643-3.285,1.666-5.185L31.745,34.899
		c-0.971-1.883-3.29-2.637-5.184-1.661c-1.889,0.966-2.643,3.285-1.667,5.185L36.737,61.495z"/>
	<path fill="#FFE5C2" d="M11.676,59.583l12.693,10.373c1.647,1.349,4.074,1.109,5.418-0.539c1.353-1.648,1.106-4.075-0.542-5.417
		L16.553,53.62c-1.637-1.342-4.067-1.109-5.417,0.546C9.794,55.807,10.04,58.234,11.676,59.583z"/>
	<path fill="#FFE5C2" d="M100.239,54.167c-1.342-1.655-3.769-1.891-5.417-0.546L82.129,64c-1.647,1.342-1.884,3.769-0.539,5.417
		c1.342,1.648,3.769,1.888,5.417,0.539L99.7,59.583C101.347,58.234,101.583,55.807,100.239,54.167z"/>
	<path fill="#FFE5C2" d="M69.18,63.156c1.887,0.976,4.213,0.222,5.177-1.661l11.845-23.071c0.974-1.9,0.222-4.219-1.668-5.187
		c-1.891-0.974-4.213-0.224-5.184,1.663L67.507,57.971C66.538,59.871,67.286,62.189,69.18,63.156z"/>
</g>
<g id="_x30_02---Slight-Right-Turn">
	<path id="Rectangle-path" fill="#F0C419" d="M433.065,34.878l58.527,58.533c1.697,1.694,1.697,4.436,0,6.126l-58.527,58.536
		c-1.69,1.689-4.443,1.689-6.131,0l-58.527-58.536c-1.697-1.69-1.697-4.433,0-6.126l58.527-58.533
		C428.622,33.189,431.375,33.189,433.065,34.878z"/>
	<g>
		<path id="Shape" fill="#393F4A" d="M425.404,159.609c-0.22,0,3.257,3.226-58.533-58.535c-2.532-2.538-2.532-6.65,0-9.19
			l58.533-58.53c2.571-2.463,6.62-2.463,9.191,0l58.532,58.53c2.533,2.54,2.533,6.652,0,9.19l-58.532,58.535
			C432.057,162.141,427.944,162.141,425.404,159.609z M428.458,36.414L369.93,94.94c-0.406,0.406-0.64,0.965-0.64,1.54
			c0,0.58,0.233,1.138,0.64,1.544c61.764,61.669,58.311,58.526,58.527,58.526c0.406,0.408,0.965,0.638,1.543,0.638
			c0.576,0,1.135-0.23,1.541-0.638l58.525-58.526c0.408-0.406,0.643-0.965,0.643-1.544c0-0.575-0.234-1.133-0.643-1.54
			l-58.525-58.526c-0.406-0.408-0.965-0.643-1.541-0.643C429.422,35.771,428.864,36.006,428.458,36.414L428.458,36.414z"/>
		<path id="Shape_1_" fill="#393F4A" d="M456.489,75.35l-14.043,21.456c-0.48,0.635-1.268,0.965-2.055,0.852
			c-0.787-0.115-1.447-0.648-1.721-1.396c0-0.217-0.26-1.339-1.478-7.885c-0.345,0.127-9.573,3.466-9.341,3.402
			c-5.184,1.828-8.65,6.729-8.671,12.226v18.49c0,1.202-0.97,2.167-2.163,2.167h-8.697c-1.193,0-2.171-0.965-2.171-2.167v-20.026
			c0-10.041,6.284-18.993,15.718-22.42l10.842-3.897l-3.819-6.791c-0.331-0.61-0.356-1.347-0.056-1.981
			c0.295-0.635,0.891-1.079,1.578-1.205c0.672-0.151-1.105-0.56,25.555,7.527c0.318,0.117,0.559,0.381,0.66,0.698
			S456.678,75.071,456.489,75.35z"/>
	</g>
</g>
</svg>
