<?xml version="1.0" encoding="utf-8"?>
<!-- Generator: Adobe Illustrator 16.0.0, SVG Export Plug-In . SVG Version: 6.00 Build 0)  -->
<!DOCTYPE svg PUBLIC "-//W3C//DTD SVG 1.1//EN" "http://www.w3.org/Graphics/SVG/1.1/DTD/svg11.dtd">
<svg version="1.1" id="Layer_1" xmlns="http://www.w3.org/2000/svg" xmlns:xlink="http://www.w3.org/1999/xlink" x="0px" y="0px"
	 width="600px" height="269.014px" viewBox="0 1 600 269.014" enable-background="new 0 1 600 269.014" xml:space="preserve">
<g id="Layer_1_1_">
	<g id="Layer_5">
		<g enable-background="new    ">
			<path fill="#0055FE" d="M252,56.737v12h-40v-12H252z"/>
		</g>
		<path fill="#89E8DC" d="M167.789,89.151l-37.988-68.496c-2.836-5.039-8.002-8.127-13.801-8.127
			c-5.798,0-10.964,3.088-13.801,8.127L64.211,89.151c-2.71,4.915-2.646,10.774,0.249,15.629c2.837,4.854,7.938,7.748,13.55,7.748
			h75.982c5.61,0,10.713-2.896,13.551-7.748C170.436,99.926,170.5,94.066,167.789,89.151z"/>
		<circle fill="#89E8DC" cx="344" cy="62.528" r="50"/>
		<g enable-background="new    ">
			<path fill="#0055FE" d="M457.004,50.334v10.452h-30.474V50.334H457.004z M457.004,64.895v10.451h-30.474V64.895H457.004z"/>
		</g>
	</g>
	<g id="Layer_2">
		<g enable-background="new    ">
			<path fill="#0055FE" stroke="#0055FE" stroke-width="3" stroke-miterlimit="10" d="M495.932,109.282
				c-0.384-0.643-0.6-1.403-0.667-2.291c-0.058-0.894-0.03-1.78,0.095-2.675c0.129-0.887,0.285-1.727,0.476-2.48
				c0.196-0.776,0.396-1.403,0.585-1.915c0.892-2.479,2.217-4.659,3.998-6.537c1.792-1.889,3.448-3.199,4.98-3.978
				c1.517-0.699,3.261-1.213,5.193-1.572c1.947-0.34,4.031-0.425,6.256-0.228c1.15,0.116,2.589,0.396,4.298,0.799
				c1.722,0.414,3.16,1.23,4.301,2.439v-76.5h1.816v81.559c0,0.188-0.02,0.371-0.057,0.532c-0.021,0.151-0.038,0.301-0.038,0.434
				c-0.134,0.896-0.285,1.669-0.475,2.332c-0.188,0.662-0.38,1.257-0.579,1.76c-0.897,2.486-2.19,4.564-3.913,6.212
				c-1.724,1.654-3.313,2.942-4.771,3.829c-1.477,0.896-3.298,1.595-5.496,2.104c-2.196,0.501-4.659,0.6-7.406,0.286
				c-0.514-0.071-1.155-0.169-1.951-0.286c-0.796-0.133-1.61-0.336-2.442-0.622c-0.816-0.286-1.613-0.67-2.387-1.155
				C496.989,110.854,496.38,110.17,495.932,109.282z M498.323,107.745c0.447,0.833,1.073,1.378,1.866,1.629
				c0.796,0.249,1.62,0.343,2.482,0.245c0.854-0.098,1.741-0.3,2.673-0.622c0.925-0.322,1.762-0.671,2.537-1.063
				c1.078-0.503,2.063-1.003,2.957-1.515c0.887-0.511,1.836-1.063,2.86-1.629c0.957-0.511,1.873-1.047,2.767-1.63
				c0.89-0.57,1.881-1.21,2.972-1.906c0.7-0.438,1.423-0.972,2.192-1.579c0.764-0.607,1.395-1.271,1.9-2.007
				c0.51-0.723,0.853-1.479,1.003-2.238c0.17-0.762,0.019-1.552-0.416-2.385c-0.512-0.838-1.153-1.366-1.915-1.635
				c-0.771-0.242-1.59-0.318-2.479-0.222c-0.894,0.091-1.781,0.302-2.677,0.604c-0.893,0.323-1.719,0.682-2.485,1.06
				c-1.148,0.569-2.191,1.117-3.153,1.629c-0.948,0.499-1.915,1.045-2.864,1.609c-0.954,0.519-1.875,1.028-2.766,1.538
				c-0.892,0.512-1.856,1.119-2.876,1.817c-0.692,0.438-1.425,0.984-2.188,1.611c-0.767,0.645-1.396,1.307-1.906,2.006
				c-0.511,0.705-0.853,1.462-1.004,2.258C497.632,106.119,497.821,106.931,498.323,107.745z"/>
			<path fill="#0055FE" stroke="#0055FE" stroke-width="3" stroke-miterlimit="10" d="M530.216,111.478
				c0-1.345,0.48-2.465,1.439-3.39c0.949-0.931,2.125-1.384,3.523-1.384c1.399,0,2.586,0.453,3.545,1.384
				c0.947,0.925,1.432,2.045,1.432,3.39c0,1.332-0.483,2.479-1.432,3.429c-0.959,0.966-2.146,1.439-3.545,1.439
				c-1.398,0-2.574-0.475-3.523-1.439C530.698,113.957,530.216,112.81,530.216,111.478z"/>
		</g>
	</g>
</g>
<g id="Layer_6">
	<circle fill="#89E8DC" cx="344" cy="210.013" r="49.999"/>
	<path fill="#89E8DC" d="M167.786,236.634l-37.987-68.493c-2.837-5.032-8-8.127-13.799-8.127c-5.798,0-10.967,3.095-13.801,8.127
		l-37.986,68.493c-2.71,4.913-2.644,10.773,0.248,15.634c2.838,4.849,7.943,7.746,13.55,7.746h75.977
		c5.609,0,10.713-2.897,13.55-7.746C170.432,247.407,170.497,241.547,167.786,236.634z"/>
	<g enable-background="new    ">
		<path fill="#0055FE" d="M208.062,233.787c1.071,0.604,1.887,1.427,2.45,2.469v-3.091h8.875v22.65h-8.875v-3.091
			c-0.563,1.042-1.379,1.865-2.45,2.469c-1.071,0.603-2.343,0.902-3.815,0.902c-1.767,0-3.361-0.46-4.779-1.385
			c-1.421-0.923-2.538-2.261-3.354-4.017c-0.816-1.754-1.225-3.82-1.225-6.205c0-2.383,0.408-4.45,1.225-6.203
			c0.816-1.754,1.934-3.094,3.354-4.017c1.418-0.925,3.012-1.385,4.779-1.385C205.719,232.885,206.991,233.185,208.062,233.787z
			 M204.849,241.678c-0.617,0.67-0.923,1.606-0.923,2.811c0,1.206,0.308,2.145,0.923,2.813c0.616,0.669,1.405,1.003,2.37,1.003
			c0.964,0,1.753-0.334,2.37-1.003c0.616-0.668,0.923-1.606,0.923-2.813c0-1.204-0.307-2.141-0.923-2.811
			c-0.617-0.668-1.406-1.003-2.37-1.003C206.254,240.676,205.466,241.01,204.849,241.678z"/>
		<path fill="#0055FE" d="M245.351,235.614c1.458,1.74,2.188,4.096,2.188,7.069v13.132h-8.875v-12.009
			c0-1.07-0.288-1.919-0.864-2.549c-0.576-0.629-1.345-0.944-2.31-0.944c-0.99,0-1.766,0.315-2.329,0.944
			c-0.562,0.63-0.843,1.479-0.843,2.549v12.009h-8.917v-22.65h8.917v3.455c0.695-1.071,1.626-1.941,2.791-2.611
			c1.166-0.669,2.55-1.004,4.157-1.004C241.863,233.004,243.891,233.875,245.351,235.614z"/>
		<path fill="#0055FE" d="M263.342,233.787c1.058,0.604,1.868,1.427,2.43,2.469v-10.16h8.915v29.72h-8.915v-3.091
			c-0.563,1.042-1.372,1.865-2.43,2.469c-1.058,0.603-2.322,0.902-3.796,0.902c-1.766,0-3.359-0.46-4.777-1.385
			c-1.421-0.923-2.538-2.261-3.354-4.017c-0.816-1.754-1.225-3.82-1.225-6.205c0-2.383,0.41-4.45,1.225-6.203
			c0.817-1.754,1.934-3.094,3.354-4.017c1.418-0.925,3.011-1.385,4.777-1.385C261.019,232.885,262.283,233.185,263.342,233.787z
			 M260.149,241.678c-0.617,0.67-0.923,1.606-0.923,2.811c0,1.206,0.307,2.145,0.923,2.813c0.616,0.669,1.405,1.003,2.37,1.003
			s1.753-0.334,2.37-1.003c0.616-0.668,0.923-1.606,0.923-2.813c0-1.204-0.307-2.141-0.923-2.811
			c-0.617-0.668-1.405-1.003-2.37-1.003S260.764,241.01,260.149,241.678z"/>
	</g>
	<g enable-background="new    ">
		<path fill="#0055FE" d="M423.307,231.787c1.072,0.604,1.887,1.427,2.449,2.469v-3.091h8.876v22.65h-8.876v-3.091
			c-0.563,1.042-1.378,1.865-2.449,2.469c-1.071,0.603-2.343,0.902-3.813,0.902c-1.769,0-3.361-0.46-4.78-1.385
			c-1.421-0.923-2.537-2.261-3.352-4.017c-0.819-1.754-1.228-3.82-1.228-6.205c0-2.383,0.408-4.45,1.228-6.203
			c0.814-1.754,1.931-3.094,3.352-4.017c1.42-0.925,3.012-1.385,4.78-1.385C420.965,230.885,422.236,231.185,423.307,231.787z
			 M420.095,239.678c-0.615,0.67-0.924,1.606-0.924,2.811c0,1.206,0.309,2.145,0.924,2.813c0.616,0.669,1.406,1.003,2.37,1.003
			c0.963,0,1.752-0.334,2.369-1.003c0.615-0.668,0.923-1.606,0.923-2.813c0-1.204-0.308-2.141-0.923-2.811
			c-0.617-0.668-1.406-1.003-2.369-1.003C421.501,238.676,420.711,239.01,420.095,239.678z"/>
		<path fill="#0055FE" d="M450.898,232.189c1.312-0.791,2.678-1.186,4.095-1.186v9.519h-2.529c-1.687,0-2.925,0.293-3.714,0.883
			c-0.79,0.589-1.186,1.633-1.186,3.134v9.275h-8.915v-22.65h8.915v4.177C448.475,234.031,449.586,232.98,450.898,232.189z"/>
		<path fill="#0055FE" d="M479.13,244.056h-14.256c0.078,1.125,0.333,1.895,0.761,2.309c0.428,0.415,0.991,0.623,1.688,0.623
			c0.963,0,1.658-0.442,2.087-1.326h9.438c-0.321,1.607-0.997,3.046-2.029,4.317c-1.03,1.272-2.328,2.275-3.894,3.013
			c-1.567,0.737-3.287,1.104-5.159,1.104c-2.25,0-4.252-0.467-6.006-1.405c-1.753-0.938-3.119-2.282-4.095-4.036
			c-0.978-1.754-1.467-3.81-1.467-6.166c0-2.355,0.489-4.411,1.467-6.165c0.977-1.753,2.343-3.098,4.095-4.036
			c1.754-0.938,3.756-1.404,6.006-1.404s4.249,0.46,6.003,1.384s3.119,2.242,4.097,3.957c0.976,1.713,1.464,3.734,1.464,6.062
			C479.328,242.851,479.264,243.439,479.13,244.056z M470.293,240.402c0-0.856-0.24-1.494-0.721-1.909
			c-0.482-0.415-1.087-0.622-1.808-0.622c-1.634,0-2.572,0.844-2.813,2.531H470.293z"/>
		<path fill="#0055FE" d="M490.094,245.302v8.514h-8.837v-8.514H490.094z"/>
		<path fill="#0055FE" d="M501.216,245.302v8.514h-8.835v-8.514H501.216z"/>
		<path fill="#0055FE" d="M512.341,245.302v8.514h-8.834v-8.514H512.341z"/>
	</g>
</g>
</svg>
