<?xml version="1.0" encoding="UTF-8" standalone="no"?>
<!DOCTYPE svg PUBLIC "-//W3C//DTD SVG 1.1//EN" "http://www.w3.org/Graphics/SVG/1.1/DTD/svg11.dtd">
<svg width="100%" height="100%" viewBox="0 0 1000 1000" version="1.1" xmlns="http://www.w3.org/2000/svg" xmlns:xlink="http://www.w3.org/1999/xlink" xml:space="preserve" xmlns:serif="http://www.serif.com/" style="fill-rule:evenodd;clip-rule:evenodd;stroke-linejoin:round;stroke-miterlimit:2;">
    <g transform="matrix(1.37848,0,0,1.37848,-278.697,-209.969)">
        <circle cx="564.894" cy="515.036" r="362.718" style="fill:rgb(0,85,254);"/>
    </g>
    <g id="Baby" transform="matrix(0.758405,0.758405,-0.758405,0.758405,500.148,-248.788)">
        <path d="M494.744,620C523.313,642.182 559.191,655.395 598.13,655.395C602.704,655.395 607.237,655.213 611.72,654.855C606.31,715.127 555.595,762.437 493.918,762.437C432.194,762.437 381.45,715.057 376.102,654.714C381.128,655.165 386.217,655.395 391.359,655.395C430.294,655.395 466.167,642.185 494.744,620ZM460.961,514.72C471.688,516.655 482.858,517.677 494.331,517.677C538.944,517.677 578.977,502.224 606.134,477.801C610.068,489.578 612.199,502.173 612.199,515.262L612.199,625.895C607.579,626.358 602.882,626.596 598.13,626.596C530.497,626.596 474.002,578.533 460.961,514.72ZM375.636,625.72L375.636,515.262C375.636,501.958 377.838,489.163 381.895,477.228C395.253,489.399 411.786,499.378 430.48,506.378C434.675,542.267 450.149,574.732 473.254,600.124C450.217,616.779 421.925,626.596 391.359,626.596C386.043,626.596 380.796,626.299 375.636,625.72Z" style="fill:rgb(155,189,255);"/>
        <path d="M453.493,263.208C466.855,258.769 481.259,256.35 496.266,256.35C561.771,256.35 615.763,302.442 622.575,361.546L632.819,361.546C639.867,361.546 645.589,367.268 645.589,374.316C645.589,381.364 639.867,387.086 632.819,387.086L622.546,387.086C615.613,446.068 561.68,492.033 496.266,492.033C430.851,492.033 376.919,446.068 369.985,387.086L354.404,387.086C347.356,387.086 341.634,381.364 341.634,374.316C341.634,367.268 347.356,361.546 354.404,361.546L369.956,361.546C374.179,324.908 396.532,293.269 428.526,274.507C431.784,307.341 459.519,333.021 493.205,333.021C493.918,333.021 494.627,333.01 495.334,332.987C495.642,333.01 495.953,333.021 496.266,333.021C503.165,333.021 508.766,327.42 508.766,320.521C508.766,313.679 503.256,308.113 496.436,308.022L496.428,307.893C495.363,307.978 494.289,308.021 493.205,308.021C471.129,308.021 453.205,290.098 453.205,268.021C453.205,266.392 453.303,264.785 453.493,263.208ZM506.112,410.257C508.382,407.569 511.776,405.861 515.565,405.861C522.391,405.861 527.933,411.402 527.933,418.228C527.933,422.262 525.997,425.848 523.004,428.106L523.256,428.372C515.849,435.058 505.678,439.187 494.461,439.187C484.478,439.187 475.323,435.916 468.209,430.483C463.94,428.533 460.97,424.225 460.97,419.228C460.97,412.402 466.512,406.861 473.338,406.861C476.589,406.861 479.549,408.118 481.758,410.173L481.8,410.126C484.981,413.074 489.237,414.876 493.911,414.876C498.576,414.876 502.825,413.081 506.005,410.143L506.112,410.257ZM450.461,348.191C457.36,348.191 462.961,353.792 462.961,360.691C462.961,367.59 457.36,373.191 450.461,373.191C443.563,373.191 437.961,367.59 437.961,360.691C437.961,353.792 443.563,348.191 450.461,348.191ZM537.58,348.191C544.479,348.191 550.08,353.792 550.08,360.691C550.08,367.59 544.479,373.191 537.58,373.191C530.681,373.191 525.08,367.59 525.08,360.691C525.08,353.792 530.681,348.191 537.58,348.191Z" style="fill:rgb(155,189,255);"/>
        <path d="M428.526,274.507C428.314,272.373 428.205,270.21 428.205,268.021C428.205,232.147 457.331,203.021 493.205,203.021C518.31,203.021 540.11,217.285 550.936,238.142L550.922,238.149C554.043,244.236 551.68,251.727 545.61,254.915C539.502,258.123 531.939,255.769 528.731,249.661C528.645,249.498 528.564,249.334 528.486,249.168C521.743,236.586 508.466,228.021 493.205,228.021C472.758,228.021 455.873,243.397 453.493,263.208C444.683,266.134 436.321,269.937 428.526,274.507Z" style="fill:rgb(155,189,255);"/>
    </g>
</svg>
