<?xml version="1.0" encoding="UTF-8" standalone="no"?>
<!DOCTYPE svg PUBLIC "-//W3C//DTD SVG 1.1//EN" "http://www.w3.org/Graphics/SVG/1.1/DTD/svg11.dtd">
<svg width="100%" height="100%" viewBox="0 0 1000 1000" version="1.1" xmlns="http://www.w3.org/2000/svg" xmlns:xlink="http://www.w3.org/1999/xlink" xml:space="preserve" xmlns:serif="http://www.serif.com/" style="fill-rule:evenodd;clip-rule:evenodd;stroke-linejoin:round;stroke-miterlimit:2;">
    <g transform="matrix(1.37848,0,0,1.37848,-278.697,-209.969)">
        <circle cx="564.894" cy="515.036" r="362.718" style="fill:rgb(0,85,254);"/>
    </g>
    <g transform="matrix(1.22202,0,0,1.22202,225,225)">
        <g id="Sound">
            <g>
                <path d="M23.55,432.096L103.358,432.096C116.368,432.096 126.909,421.556 126.909,408.544C126.909,395.536 116.368,384.992 103.358,384.992L23.55,384.992C10.542,384.992 0,395.536 0,408.544C-0.008,421.556 10.542,432.096 23.55,432.096Z" style="fill:rgb(155,189,255);fill-rule:nonzero;"/>
                <path d="M23.55,370.598L103.358,370.598C116.368,370.598 126.909,360.054 126.909,347.046C126.909,334.034 116.368,323.494 103.358,323.494L23.55,323.494C10.542,323.494 0,334.034 0,347.046C-0.008,360.054 10.542,370.598 23.55,370.598Z" style="fill:rgb(155,189,255);fill-rule:nonzero;"/>
                <path d="M23.55,309.096L103.358,309.096C116.368,309.096 126.909,298.556 126.909,285.544C126.909,272.536 116.368,261.992 103.358,261.992L23.55,261.992C10.542,261.992 0,272.536 0,285.544C-0.008,298.556 10.542,309.096 23.55,309.096Z" style="fill:rgb(155,189,255);fill-rule:nonzero;"/>
                <path d="M23.55,247.598L103.358,247.598C116.368,247.598 126.909,237.054 126.909,224.046C126.909,211.04 116.368,200.494 103.358,200.494L23.55,200.494C10.542,200.494 0,211.04 0,224.046C-0.008,237.054 10.542,247.598 23.55,247.598Z" style="fill:rgb(155,189,255);fill-rule:nonzero;"/>
                <path d="M183.174,432.096L262.974,432.096C275.974,432.096 286.522,421.556 286.522,408.544C286.522,395.536 275.974,384.992 262.974,384.992L183.174,384.992C170.164,384.992 159.622,395.536 159.622,408.544C159.622,421.556 170.164,432.096 183.174,432.096Z" style="fill:rgb(155,189,255);fill-rule:nonzero;"/>
                <path d="M183.174,370.598L262.974,370.598C275.974,370.598 286.522,360.054 286.522,347.046C286.522,334.034 275.974,323.494 262.974,323.494L183.174,323.494C170.164,323.494 159.622,334.034 159.622,347.046C159.622,360.054 170.164,370.598 183.174,370.598Z" style="fill:rgb(155,189,255);fill-rule:nonzero;"/>
                <path d="M183.174,309.096L262.974,309.096C275.974,309.096 286.522,298.556 286.522,285.544C286.522,272.536 275.974,261.992 262.974,261.992L183.174,261.992C170.164,261.992 159.622,272.536 159.622,285.544C159.622,298.556 170.164,309.096 183.174,309.096Z" style="fill:rgb(155,189,255);fill-rule:nonzero;"/>
                <path d="M183.174,247.598L262.974,247.598C275.974,247.598 286.522,237.054 286.522,224.046C286.522,211.04 275.974,200.494 262.974,200.494L183.174,200.494C170.164,200.494 159.622,211.04 159.622,224.046C159.622,237.054 170.164,247.598 183.174,247.598Z" style="fill:rgb(155,189,255);fill-rule:nonzero;"/>
                <path d="M183.174,186.098L262.974,186.098C275.974,186.098 286.522,175.556 286.522,162.546C286.522,149.54 275.974,138.994 262.974,138.994L183.174,138.994C170.164,138.994 159.622,149.54 159.622,162.546C159.622,175.556 170.164,186.098 183.174,186.098Z" style="fill:rgb(155,189,255);fill-rule:nonzero;"/>
                <path d="M183.174,124.598L262.974,124.598C275.974,124.598 286.522,114.056 286.522,101.046C286.522,88.04 275.974,77.494 262.974,77.494L183.174,77.494C170.164,77.494 159.622,88.04 159.622,101.046C159.622,114.056 170.164,124.598 183.174,124.598Z" style="fill:rgb(155,189,255);fill-rule:nonzero;"/>
                <path d="M183.174,65.083L262.974,65.083C275.974,65.083 286.522,54.542 286.522,41.532C286.522,28.526 275.974,17.98 262.974,17.98L183.174,17.98C170.164,17.98 159.622,28.525 159.622,41.532C159.622,54.542 170.164,65.083 183.174,65.083Z" style="fill:rgb(155,189,255);fill-rule:nonzero;"/>
                <path d="M450.076,408.544C450.076,395.536 439.529,384.992 426.524,384.992L346.72,384.992C333.708,384.992 323.168,395.536 323.168,408.544C323.168,421.556 333.708,432.096 346.72,432.096L426.524,432.096C439.529,432.096 450.076,421.556 450.076,408.544Z" style="fill:rgb(155,189,255);fill-rule:nonzero;"/>
                <path d="M426.524,323.494L346.72,323.494C333.708,323.494 323.168,334.034 323.168,347.046C323.168,360.054 333.708,370.598 346.72,370.598L426.524,370.598C439.529,370.598 450.076,360.054 450.076,347.046C450.076,334.034 439.529,323.494 426.524,323.494Z" style="fill:rgb(155,189,255);fill-rule:nonzero;"/>
                <path d="M426.524,261.992L346.72,261.992C333.708,261.992 323.168,272.536 323.168,285.544C323.168,298.556 333.708,309.096 346.72,309.096L426.524,309.096C439.529,309.096 450.076,298.556 450.076,285.544C450.076,272.536 439.529,261.992 426.524,261.992Z" style="fill:rgb(155,189,255);fill-rule:nonzero;"/>
                <path d="M426.524,200.494L346.72,200.494C333.708,200.494 323.168,211.04 323.168,224.046C323.168,237.054 333.708,247.598 346.72,247.598L426.524,247.598C439.529,247.598 450.076,237.054 450.076,224.046C450.076,211.04 439.529,200.494 426.524,200.494Z" style="fill:rgb(155,189,255);fill-rule:nonzero;"/>
                <path d="M426.524,138.994L346.72,138.994C333.708,138.994 323.168,149.54 323.168,162.546C323.168,175.556 333.708,186.098 346.72,186.098L426.524,186.098C439.529,186.098 450.076,175.556 450.076,162.546C450.076,149.54 439.529,138.994 426.524,138.994Z" style="fill:rgb(155,189,255);fill-rule:nonzero;"/>
            </g>
        </g>
    </g>
</svg>
