<?xml version="1.0" encoding="UTF-8" standalone="no"?>
<!DOCTYPE svg PUBLIC "-//W3C//DTD SVG 1.1//EN" "http://www.w3.org/Graphics/SVG/1.1/DTD/svg11.dtd">
<svg width="100%" height="100%" viewBox="0 0 1000 1000" version="1.1" xmlns="http://www.w3.org/2000/svg" xmlns:xlink="http://www.w3.org/1999/xlink" xml:space="preserve" xmlns:serif="http://www.serif.com/" style="fill-rule:evenodd;clip-rule:evenodd;stroke-linejoin:round;stroke-miterlimit:2;">
    <g transform="matrix(1.37848,0,0,1.37848,-278.697,-209.969)">
        <circle cx="564.894" cy="515.036" r="362.718" style="fill:rgb(0,85,254);"/>
    </g>
    <g id="Rose" transform="matrix(1.17188,0,0,1.17188,200,199.545)">
        <path d="M330.742,65.008C348.121,86.445 358.887,111.41 362.746,137.406C378.105,139.719 392.906,144.109 406.699,150.906C416.773,99.496 396.09,64.887 363.441,32.238L342.203,11L320.98,32.227L342.238,53.484L330.742,65.008Z" style="fill:rgb(155,189,255);fill-rule:nonzero;"/>
        <path d="M433.516,167.746C434.762,168.691 435.859,169.84 437.074,170.828L469.551,138.352L490.777,159.574L512,138.352L490.777,117.125C471.355,97.703 458.367,84.684 429.262,74.539C440.266,103.711 442.164,136.098 433.516,167.746Z" style="fill:rgb(155,189,255);fill-rule:nonzero;"/>
        <path d="M395.266,255.086L416.488,233.859L437.715,255.086L458.938,233.859L437.715,212.637C416.488,191.41 400.23,175.141 364.066,167.887C362.102,203.488 348.113,238.559 320.977,265.695L302.629,284.047C335.266,289.793 370.105,280.242 395.266,255.086Z" style="fill:rgb(155,189,255);fill-rule:nonzero;"/>
        <path d="M278.527,435.496C236.332,393.297 175.16,382.02 122.316,400.684L172.406,350.598L193.629,371.82L214.855,350.598L193.629,329.371L214.855,308.148L236.078,329.371L257.305,308.148L236.078,286.922L258.25,264.754C262.477,267.754 266.875,270.426 271.379,272.848L299.754,244.473C341.887,202.34 354.832,129.758 289.141,64.063L267.914,42.84L246.691,64.063L267.914,85.289L246.691,106.512C209.367,143.836 206.453,202.289 237.152,243.398L193.629,286.922L172.406,265.695L151.18,286.922L172.406,308.145L101.094,379.457C119.758,326.613 108.48,265.445 66.281,223.246C11.402,278.125 8.68,364.918 56.742,423.809L0,480.551L21.223,501.777L77.969,445.035C136.855,493.098 223.648,490.375 278.527,435.496Z" style="fill:rgb(155,189,255);fill-rule:nonzero;"/>
    </g>
</svg>
