<?xml version="1.0" encoding="UTF-8" standalone="no"?>
<!DOCTYPE svg PUBLIC "-//W3C//DTD SVG 1.1//EN" "http://www.w3.org/Graphics/SVG/1.1/DTD/svg11.dtd">
<svg width="100%" height="100%" viewBox="0 0 1000 1000" version="1.1" xmlns="http://www.w3.org/2000/svg" xmlns:xlink="http://www.w3.org/1999/xlink" xml:space="preserve" xmlns:serif="http://www.serif.com/" style="fill-rule:evenodd;clip-rule:evenodd;stroke-linejoin:round;stroke-miterlimit:2;">
    <g transform="matrix(1.37848,0,0,1.37848,-278.697,-209.969)">
        <circle cx="564.894" cy="515.036" r="362.718" style="fill:rgb(0,85,254);"/>
    </g>
    <g id="Glasses" transform="matrix(1.17188,0,0,1.17188,200,200)">
        <g>
            <path d="M477.905,309.628L417.08,54.577C412.233,34.218 394.231,20 373.305,20L317,20L317,50L373.305,50C380.281,50 386.281,54.74 387.898,61.531L441.899,287.97C430.975,284.109 419.23,282 407,282C366.752,282 331.728,304.766 314.11,338.092C300.158,321.541 279.291,311 256,311C232.709,311 211.842,321.541 197.89,338.092C180.272,304.766 145.248,282 105,282C93.205,282 81.858,283.956 71.266,287.559L125.103,61.526C126.72,54.74 132.72,50 139.695,50L196,50L196,20L139.695,20C118.768,20 100.766,34.219 95.92,54.576L35.463,308.399C13.728,327.65 0,355.75 0,387C0,444.897 47.103,492 105,492C162.897,492 210,444.897 210,387C210,361.636 230.636,341 256,341C281.364,341 302,361.636 302,387C302,444.897 349.103,492 407,492C464.897,492 512,444.897 512,387C512,356.41 498.848,328.836 477.905,309.628ZM105,462C63.645,462 30,428.355 30,387C30,345.645 63.645,312 105,312C146.355,312 180,345.645 180,387C180,428.355 146.355,462 105,462ZM407,462C365.645,462 332,428.355 332,387C332,345.645 365.645,312 407,312C448.355,312 482,345.645 482,387C482,428.355 448.355,462 407,462Z" style="fill:rgb(155,189,255);fill-rule:nonzero;"/>
        </g>
    </g>
</svg>
