<?xml version="1.0" encoding="UTF-8" standalone="no"?>
<!DOCTYPE svg PUBLIC "-//W3C//DTD SVG 1.1//EN" "http://www.w3.org/Graphics/SVG/1.1/DTD/svg11.dtd">
<svg width="100%" height="100%" viewBox="0 0 1000 1000" version="1.1" xmlns="http://www.w3.org/2000/svg" xmlns:xlink="http://www.w3.org/1999/xlink" xml:space="preserve" xmlns:serif="http://www.serif.com/" style="fill-rule:evenodd;clip-rule:evenodd;stroke-linejoin:round;stroke-miterlimit:2;">
    <g transform="matrix(1.37848,0,0,1.37848,-278.697,-209.969)">
        <circle cx="564.894" cy="515.036" r="362.718" style="fill:rgb(0,85,254);"/>
    </g>
    <g id="Trophy" transform="matrix(1.07422,0,0,1.07422,225,225)">
        <path d="M406,482L391,482L391,436C391,427.715 384.285,421 376,421L136,421C127.715,421 121,427.715 121,436L121,482L106,482C97.711,482 91,488.711 91,497C91,505.289 97.711,512 106,512L406,512C414.289,512 421,505.289 421,497C421,488.711 414.289,482 406,482Z" style="fill:rgb(155,189,255);fill-rule:nonzero;"/>
        <path d="M467,0L45,0C20.188,0 0,20.188 0,45L0,67.852C0,104.867 12.742,141.184 35.859,170.098C55.605,194.781 81.914,213.105 111.914,223.109L127.836,228.422C146.305,258.488 175.234,281.664 210,292.676L210,316C210,324.277 203.262,331 195,331C170.188,331 150,351.188 150,376L150,391L362,391L362,376C362,351.188 341.813,331 317,331C308.738,331 302,324.277 302,316L302,292.676C336.766,281.66 365.695,258.488 384.164,228.422L400.086,223.109C430.086,213.105 456.395,194.781 476.141,170.098C499.258,141.184 512,104.867 512,67.852L512,45C512,20.188 491.813,0 467,0ZM59.297,151.348C40.398,127.734 30,98.086 30,67.852L30,45C30,36.723 36.738,30 45,30L91.57,30L106.848,167.387C107.727,175.305 109.336,183 111.422,190.516C91.129,181.871 73.148,168.672 59.297,151.348ZM326.344,128.438L302.172,151.438L307.855,183.84C308.852,189.434 306.566,195.117 301.996,198.5C297.398,201.871 291.305,202.398 286.234,199.773L256,184.246L225.766,199.773C220.699,202.375 214.582,201.883 210.004,198.5C205.434,195.133 203.148,189.449 204.145,183.84L209.828,151.438L185.66,128.438C181.5,124.469 179.977,118.477 181.703,113C183.461,107.52 188.207,103.52 193.891,102.715L227.613,97.926L242.613,68.234C247.711,58.129 264.293,58.129 269.391,68.234L284.391,97.926L318.109,102.715C323.797,103.523 328.539,107.52 330.301,113C332.023,118.477 330.504,124.469 326.344,128.438ZM482,67.852C482,98.086 471.602,127.734 452.703,151.348C438.852,168.672 420.871,181.871 400.578,190.516C402.664,183 404.273,175.305 405.152,167.387L420.43,30L467,30C475.262,30 482,36.723 482,45L482,67.852Z" style="fill:rgb(155,189,255);fill-rule:nonzero;"/>
        <path d="M261.156,118.445L256,108.254L250.844,118.445C248.617,122.828 244.43,125.844 239.566,126.531L228.785,128.055L236.344,135.246C239.977,138.719 241.645,143.773 240.766,148.711L238.922,159.301L249.145,154.043C253.48,151.844 258.578,151.844 262.855,154.043L273.082,159.301L271.234,148.711C270.355,143.773 272.027,138.719 275.66,135.246L283.219,128.055L272.438,126.531C267.57,125.844 263.383,122.828 261.156,118.445Z" style="fill:rgb(155,189,255);fill-rule:nonzero;"/>
    </g>
</svg>
