<?xml version="1.0" encoding="utf-8"?>
<!-- Generator: Adobe Illustrator 16.0.0, SVG Export Plug-In . SVG Version: 6.00 Build 0)  -->
<!DOCTYPE svg PUBLIC "-//W3C//DTD SVG 1.1//EN" "http://www.w3.org/Graphics/SVG/1.1/DTD/svg11.dtd">
<svg version="1.1" id="Layer_1" xmlns="http://www.w3.org/2000/svg" xmlns:xlink="http://www.w3.org/1999/xlink" x="0px" y="0px"
	 width="600px" height="179.055px" viewBox="0 0 600 179.055" enable-background="new 0 0 600 179.055" xml:space="preserve">
<g>
	<g>
		<path fill="#6B676E" d="M69.785,47.315c-0.737,0-1.459-0.355-1.898-1.017c-2.087-3.126-4.629-4.928-7.774-5.51
			c-6.804-1.266-14.008,3.773-14.072,3.825c-1.03,0.73-2.451,0.485-3.182-0.536c-0.729-1.026-0.49-2.443,0.532-3.174
			c0.356-0.258,8.809-6.205,17.525-4.602c4.369,0.797,7.994,3.311,10.766,7.472c0.699,1.048,0.416,2.46-0.632,3.157
			C70.657,47.188,70.221,47.315,69.785,47.315z"/>
		<path fill="#6B676E" d="M78.9,47.315c0.737,0,1.458-0.355,1.895-1.017c2.089-3.126,4.632-4.928,7.778-5.51
			c6.802-1.266,14.007,3.773,14.072,3.825c1.03,0.73,2.449,0.485,3.18-0.536c0.729-1.026,0.492-2.443-0.53-3.174
			c-0.359-0.258-8.81-6.205-17.526-4.602c-4.369,0.797-7.993,3.311-10.765,7.472c-0.701,1.048-0.416,2.46,0.632,3.157
			C78.024,47.188,78.464,47.315,78.9,47.315z"/>
	</g>
	<path fill="#585661" d="M90.297,56.428c0-7.55-7.147-13.672-15.955-13.672c-8.808,0-15.955,6.123-15.955,13.672"/>
	<path fill="#FFD750" d="M74.34,70.105c16.363,0,29.626,16.321,29.626,36.461c0,20.138-13.263,36.461-29.626,36.461
		c-16.362,0-29.625-16.323-29.625-36.461C44.715,86.426,57.978,70.105,74.34,70.105z"/>
	<g>
		<path fill="#6B676E" d="M48.514,88.731c-1.667,3.649-2.819,7.692-3.381,11.983c4.647,2.114,13.296,4.991,29.209,4.991
			s24.564-2.878,29.21-4.992c-0.562-4.29-1.714-8.334-3.381-11.983c-5.432,1.65-13.59,3.175-25.829,3.175
			C62.104,91.905,53.946,90.38,48.514,88.731z"/>
		<path fill="#6B676E" d="M44.999,111.342c0.676,6.326,2.665,12.128,5.625,17.004c5.138,1.739,12.665,3.287,23.717,3.287
			c11.051,0,18.582-1.548,23.72-3.288c2.958-4.875,4.947-10.677,5.621-17.003c-5.19,2.25-14.108,4.887-29.341,4.887
			C59.107,116.229,50.191,113.592,44.999,111.342z"/>
	</g>
	<path fill="#585661" d="M93.711,68.965c0,8.179-3.917,14.811-19.369,14.811s-19.369-6.632-19.369-14.811
		c0-8.183,3.917-14.814,19.369-14.814S93.711,60.782,93.711,68.965z"/>
	<path fill="#6B676E" d="M94.851,63.268c0,6.29-4.146,11.393-20.509,11.393c-16.363,0-20.512-5.104-20.512-11.393
		c0-6.295,4.148-11.394,20.512-11.394C90.705,51.874,94.851,56.973,94.851,63.268z"/>
	<path fill="#FFEBD2" d="M133.594,90.612C97.413,56.999,90.189,54.861,90.189,54.861c5.315,6.268,3.273,11.313,2.384,15.244
		c-4.559,20.128,3.99,32.471,9.118,36.461c10.972,8.536,43.297,19.088,43.297,11.395C144.988,105.997,140.234,96.782,133.594,90.612
		z"/>
	<path fill="#FFDEB7" d="M137.143,94.517c-1.112-1.402-2.28-2.723-3.549-3.904c-0.734-0.682-1.437-1.326-2.147-1.985
		c-7.388-1.598-17.325-3.743-22.441-4.801C103.247,77.556,96.229,70.511,93.2,67.5c-0.137,0.613-0.286,1.205-0.431,1.777
		c-0.062,0.265-0.139,0.576-0.196,0.828c-0.208,0.917-0.36,1.803-0.515,2.69c8.708,8.743,19.72,20.299,21.267,23.395
		c0.843,1.683,4,11.55,5.62,19.28c0.004,0.001,0.008,0.002,0.013,0.002c1.65,0.63,3.313,1.23,4.958,1.776h0
		c-1.477-8.607-5.458-20.987-6.515-23.096c-0.52-1.044-1.742-2.667-3.362-4.614c8.369,1.766,18.122,3.882,22.919,4.928
		C137.02,94.481,137.08,94.5,137.143,94.517z"/>
	<path fill="#FFEBD2" d="M14.983,90.612c36.181-33.613,43.405-35.751,43.405-35.751c-5.316,6.268-3.273,11.313-2.384,15.244
		c4.56,20.128-3.99,32.471-9.118,36.461c-10.972,8.536-43.297,19.088-43.297,11.396C3.588,105.997,8.342,96.782,14.983,90.612z"/>
	<path fill="#FFDEB7" d="M11.434,94.517c1.112-1.402,2.28-2.723,3.549-3.904c0.734-0.682,1.436-1.326,2.147-1.985
		c7.389-1.598,17.325-3.743,22.442-4.801C45.33,77.556,52.347,70.511,55.376,67.5c0.137,0.613,0.286,1.205,0.432,1.777
		c0.061,0.265,0.138,0.576,0.196,0.828c0.208,0.917,0.36,1.803,0.515,2.69c-8.708,8.743-19.72,20.299-21.267,23.395
		c-0.842,1.683-4,11.55-5.62,19.28c-0.004,0.001-0.008,0.002-0.013,0.002c-1.65,0.63-3.313,1.23-4.958,1.776h0
		c1.477-8.607,5.458-20.987,6.515-23.096c0.52-1.044,1.742-2.667,3.362-4.614c-8.369,1.766-18.122,3.882-22.919,4.928
		C11.557,94.481,11.498,94.5,11.434,94.517z"/>
</g>
<g>
	<path fill="#0055FE" d="M195.25,95.261h-8.377v8.602h-11.975v-8.602h-8.377V83.849h8.377v-8.657h11.975v8.657h8.377V95.261z"/>
</g>
<g>
	<g>
		<path fill="#F0EEEE" d="M224.519,150.528c-0.987,0-1.786-0.798-1.787-1.784l-0.028-15.654
			c-0.018-10.888,8.823-19.759,19.711-19.778l0.003,1.787l-0.003-1.787l25.223-0.042c0.012,0,0.023,0,0.035,0
			c10.871,0,19.726,8.834,19.743,19.709l0.026,15.654c0.002,0.987-0.796,1.788-1.786,1.79l-61.135,0.105H224.519z M267.671,116.843
			c-0.009,0-0.018,0-0.028,0l-25.223,0.042c-4.318,0.008-8.377,1.697-11.426,4.756c-3.049,3.06-4.724,7.124-4.717,11.442
			l0.023,13.867l57.562-0.1l-0.022-13.866C283.827,124.079,276.574,116.843,267.671,116.843z"/>
		<path fill="#F0EEEE" d="M287.416,132.978c-0.019-10.875-8.873-19.709-19.743-19.709c-0.012,0-0.023,0-0.035,0l-25.223,0.042
			c-10.888,0.02-19.729,8.891-19.711,19.778l0.027,15.654c0.002,0.986,0.801,1.784,1.787,1.784c0.001,0,0.002,0,0.003,0
			l61.134-0.105c0.991-0.002,1.788-0.803,1.786-1.79L287.416,132.978z"/>
	</g>
	<path fill="#D9D4D4" d="M287.416,132.978c-0.019-10.875-8.873-19.709-19.743-19.709c-0.012,0-0.023,0-0.035,0l-5.842,0.01
		c10.689,0.211,19.33,8.957,19.347,19.699l0.028,15.654c0.002,0.987-0.797,1.788-1.783,1.79l-55.061,0.095
		c0.063,0.007,0.126,0.011,0.191,0.011c0.001,0,0.002,0,0.003,0l61.135-0.105c0.99-0.002,1.787-0.803,1.785-1.79L287.416,132.978z"
		/>
	<path fill="#696970" d="M284.549,122.777c1.271,2.085,2.159,4.425,2.584,6.922h-64.138c0.43-2.498,1.326-4.837,2.604-6.922H284.549
		z M287.432,143.155l-0.012-6.923h-64.711l0.012,6.923H287.432z"/>
	<g>
		<polygon fill="#484655" points="287.421,136.232 281.15,136.232 281.16,143.155 287.432,143.155 		"/>
		<path fill="#484655" d="M278.275,122.777c1.27,2.085,2.161,4.424,2.585,6.922h6.273l0,0c-0.213-1.248-0.541-2.457-0.973-3.614
			c-0.001-0.002-0.002-0.004-0.003-0.007c-0.107-0.286-0.222-0.569-0.342-0.849c-0.006-0.021-0.016-0.04-0.025-0.062
			c-0.114-0.262-0.232-0.521-0.357-0.776c-0.023-0.041-0.045-0.081-0.065-0.123c-0.245-0.496-0.51-0.982-0.798-1.454
			c-0.007-0.012-0.013-0.025-0.021-0.037H278.275L278.275,122.777z"/>
	</g>
	<path fill="#FA9E3E" d="M265.061,115.426l-0.04-23.173l-20.063,0.034l0.039,23.172c0.01,5.541,4.509,10.025,10.049,10.015l0,0
		C260.587,125.464,265.07,120.966,265.061,115.426z"/>
	<path fill="#484655" d="M261.678,28.528h-13.387c-15.36,0-27.857,12.497-27.857,27.857v3.112c0,0.986,0.8,1.787,1.787,1.787h65.527
		c0.986,0,1.787-0.801,1.787-1.787v-3.112C289.536,41.025,277.039,28.528,261.678,28.528z"/>
	<path fill="#35343F" d="M261.678,28.528h-7.438c15.359,0,27.857,12.497,27.857,27.857v3.112c0,0.986-0.8,1.787-1.788,1.787h7.439
		c0.986,0,1.787-0.801,1.787-1.787v-3.112C289.536,41.025,277.039,28.528,261.678,28.528z"/>
	<polygon fill="#FFB700" points="220.612,56.605 220.672,89.467 289.297,89.349 289.235,56.487 	"/>
	<g>
		<path fill="#FA9E3E" d="M223.957,82.073l11.765-0.021l0.022,13.49l-11.763,0.02c-3.726,0.007-6.751-3.008-6.757-6.732
			S220.233,82.079,223.957,82.073z"/>
		<path fill="#FA9E3E" d="M285.986,81.966l-11.763,0.02l0.022,13.489l11.763-0.02c3.727-0.008,6.741-3.031,6.734-6.757
			C292.737,84.974,289.71,81.959,285.986,81.966z"/>
	</g>
	<path fill="#FFB56B" d="M255.021,110.327L255.021,110.327c-14.754,0.026-26.735-11.915-26.762-26.669l-0.045-27.02l53.43-0.092
		l0.045,27.02C281.716,98.321,269.775,110.302,255.021,110.327z"/>
	<path fill="#EF9245" d="M276.083,56.556l0.052,29.8c0.021,12.767-9.956,23.214-22.546,23.936c0.474,0.023,0.951,0.036,1.433,0.035
		l0,0c14.754-0.024,26.695-12.006,26.668-26.761l-0.045-27.02L276.083,56.556z"/>
	<path fill="#19303F" d="M254.982,101.616c-3.21,0-6.219-1.574-8.053-4.213c-0.563-0.811-0.362-1.924,0.447-2.488
		c0.812-0.563,1.925-0.362,2.487,0.448c1.167,1.678,3.079,2.679,5.118,2.679c0.003,0,0.006,0,0.01,0
		c2.043-0.004,3.956-1.012,5.119-2.696c0.561-0.813,1.673-1.017,2.485-0.456c0.813,0.56,1.018,1.673,0.456,2.486
		c-1.827,2.649-4.839,4.234-8.055,4.24C254.993,101.616,254.987,101.616,254.982,101.616z"/>
	<path fill="#35343F" d="M283.483,68.764h-56.996c-0.987,0-1.787,0.8-1.787,1.787v8.075c0,8.227,6.692,14.919,14.919,14.919h3.589
		c2.809,0,5.607-1.043,7.884-2.938c1.023-0.852,2.406-1.321,3.894-1.321s2.87,0.47,3.894,1.321c2.275,1.895,5.075,2.938,7.884,2.938
		h3.589c8.226,0,14.918-6.692,14.918-14.919v-8.075C285.27,69.565,284.471,68.764,283.483,68.764z"/>
	<g>
		<path fill="#F0EEEE" d="M250.933,80.45c0,2.89-4.096,5.233-9.147,5.233c-5.051,0-7.293-2.344-7.293-5.233
			c0-2.891,2.242-5.233,7.293-5.233C246.837,75.216,250.933,77.559,250.933,80.45z"/>
		<path fill="#F0EEEE" d="M259.037,80.45c0,2.89,4.096,5.233,9.147,5.233c5.051,0,7.293-2.344,7.293-5.233
			c0-2.891-2.242-5.233-7.293-5.233C263.132,75.216,259.037,77.559,259.037,80.45z"/>
	</g>
	<path fill="#595866" d="M288.743,54.345h-68.47c-3.267,0-5.915,2.649-5.915,5.916v5.105c0,3.268,2.648,5.916,5.915,5.916h68.47
		c3.268,0,5.916-2.648,5.916-5.916v-5.105C294.659,56.995,292.01,54.345,288.743,54.345z"/>
	<g>
		<path fill="#484655" d="M288.743,54.345h-5.35c3.268,0,5.917,2.649,5.917,5.916v5.105c0,3.268-2.648,5.916-5.917,5.916h5.35
			c3.268,0,5.916-2.648,5.916-5.916v-5.105C294.659,56.995,292.01,54.345,288.743,54.345z"/>
		<path fill="#484655" d="M233.967,69.497c-0.621,0-1.762-1.568-1.762-4.13v-5.104c0-2.562,1.141-4.13,1.762-4.13
			c0.988,0,1.787-0.799,1.787-1.786l0,0h-5.239c-1.158,1.402-1.884,3.514-1.884,5.916v5.104c0,2.403,0.726,4.514,1.884,5.917h5.239
			C235.754,70.295,234.956,69.497,233.967,69.497z"/>
		<path fill="#484655" d="M273.262,54.346c0,0.987,0.8,1.786,1.787,1.786c0.62,0,1.762,1.568,1.762,4.13v5.104
			c0,2.562-1.141,4.13-1.762,4.13c-0.987,0-1.787,0.799-1.787,1.787h5.24c1.157-1.403,1.883-3.514,1.883-5.917v-5.104
			c0-2.402-0.726-4.514-1.883-5.916H273.262L273.262,54.346z"/>
		<path fill="#484655" d="M260.277,69.858c-0.431,0.325-0.709,0.843-0.709,1.425h3.989c0.22-0.546,0.326-1.081,0.387-1.382
			c0.246-1.229,0.382-2.839,0.382-4.534v-5.105c0-1.694-0.136-3.305-0.382-4.533c-0.06-0.3-0.167-0.835-0.387-1.383h-3.989l0,0
			c0,0.582,0.278,1.1,0.709,1.426c0.19,0.587,0.475,2.125,0.475,4.49v5.105C260.751,67.733,260.467,69.27,260.277,69.858z"/>
		<path fill="#484655" d="M248.74,69.858c-0.19-0.588-0.475-2.125-0.475-4.491v-5.105c0-2.365,0.284-3.903,0.475-4.49
			c0.431-0.326,0.709-0.844,0.709-1.426l0,0h-3.989c-0.22,0.548-0.326,1.083-0.387,1.383c-0.247,1.229-0.382,2.839-0.382,4.533
			v5.105c0,1.695,0.135,3.305,0.382,4.534c0.061,0.301,0.167,0.836,0.387,1.382h3.989C249.449,70.701,249.17,70.183,248.74,69.858z"
			/>
	</g>
</g>
<g>
	<path fill="#0055FE" d="M342.323,88.292v10.289h-26.198V88.292H342.323z"/>
	<path fill="#0055FE" d="M360.819,67.798c1.309-1.181,3.051-1.771,5.228-1.771c2.134,0,3.86,0.59,5.171,1.771
		c1.314,1.18,1.967,2.67,1.967,4.47c0,1.762-0.652,3.225-1.967,4.386c-1.311,1.161-3.037,1.742-5.171,1.742
		c-2.177,0-3.919-0.581-5.228-1.742c-1.315-1.161-1.967-2.624-1.967-4.386C358.852,70.468,359.503,68.978,360.819,67.798z
		 M372.23,80.926v31.707h-12.481V80.926H372.23z"/>
	<path fill="#0055FE" d="M408.266,98.971H388.31c0.108,1.576,0.468,2.653,1.068,3.235c0.599,0.58,1.383,0.871,2.358,0.871
		c1.352,0,2.324-0.618,2.922-1.857h13.217c-0.453,2.249-1.399,4.267-2.844,6.045c-1.44,1.78-3.26,3.186-5.452,4.216
		c-2.191,1.031-4.601,1.547-7.222,1.547c-3.15,0-5.953-0.654-8.405-1.968c-2.458-1.312-4.367-3.195-5.733-5.65
		c-1.369-2.454-2.057-5.332-2.057-8.63c0-3.297,0.688-6.174,2.057-8.63c1.366-2.454,3.275-4.338,5.733-5.65
		c2.452-1.312,5.255-1.967,8.405-1.967c3.146,0,5.948,0.646,8.404,1.938c2.453,1.294,4.362,3.142,5.735,5.538
		c1.366,2.4,2.051,5.229,2.051,8.489C408.548,97.286,408.455,98.111,408.266,98.971z M395.897,93.856
		c0-1.197-0.335-2.089-1.01-2.669c-0.677-0.581-1.517-0.872-2.529-0.872c-2.289,0-3.6,1.18-3.939,3.541H395.897z"/>
	<path fill="#0055FE" d="M429.35,78.565c-0.939,0-1.648,0.179-2.139,0.533c-0.485,0.357-0.825,0.965-1.013,1.828h4.556v10.401
		h-4.665v21.306H413.61V91.328h-3.377V80.926h3.377c0.072-4.124,1.377-7.317,3.906-9.586c2.526-2.268,6.078-3.4,10.65-3.4
		c0.526,0,1.387,0.037,2.588,0.112v10.626C430.082,78.602,429.611,78.565,429.35,78.565z"/>
	<path fill="#0055FE" d="M470.726,99.253h-8.375v8.602h-11.974v-8.602h-8.379V87.84h8.379v-8.656h11.974v8.656h8.375V99.253z"/>
</g>
<g>
	<path fill="#CFDFE8" d="M492.796,34.528h102.407c2.1,0,3.797,1.696,3.797,3.791v102.418c0,2.095-1.697,3.791-3.797,3.791H492.796
		c-2.101,0-3.796-1.696-3.796-3.791V38.319C489,36.224,490.696,34.528,492.796,34.528z"/>
	<path fill="#394D5C" d="M496.583,64.873h94.835v64.48h-94.835V64.873z"/>
	<path fill="#7D8D9C" d="M511.757,45.906c0.006,0.641-0.074,1.278-0.249,1.898c-1.046,4.055-5.179,6.496-9.241,5.446
		c-4.056-1.045-6.492-5.183-5.447-9.242c1.046-4.055,5.188-6.496,9.242-5.446c2.671,0.689,4.762,2.775,5.446,5.446
		C511.683,44.628,511.763,45.266,511.757,45.906z"/>
	<path fill="#7D8D9C" d="M591.417,45.906c0.006,0.641-0.084,1.278-0.25,1.898c-1.045,4.055-5.188,6.496-9.242,5.446
		c-4.054-1.045-6.499-5.183-5.445-9.242c1.045-4.055,5.178-6.496,9.242-5.446c2.671,0.689,4.752,2.775,5.445,5.446
		C591.333,44.628,591.423,45.266,591.417,45.906z"/>
	<path fill="#32B1CC" d="M504.174,99.008h13.272v3.796h-13.272V99.008z"/>
	<path fill="#32B1CC" d="M571.641,99.008h12.185v3.796h-12.185V99.008z"/>
	<path fill="#CFDFE8" d="M585.409,128.302l-7.592-11.379c-0.354-0.526-0.941-0.843-1.574-0.843h-64.485
		c-0.634,0-1.221,0.316-1.575,0.843l-7.59,11.379c-0.578,0.872-0.341,2.05,0.531,2.63c0.311,0.207,0.672,0.319,1.051,0.319h79.651
		c1.052,0,1.902-0.849,1.902-1.898C585.728,128.979,585.618,128.613,585.409,128.302z M532.093,119.873h5.876l-1.263,7.587h-7.146
		L532.093,119.873z M525.567,127.459h-6.949l3.796-7.587h5.677L525.567,127.459z M541.81,119.873h4.38l1.263,7.587h-6.905
		L541.81,119.873z M550.033,119.873h5.876l2.533,7.587h-7.146L550.033,119.873z M559.909,119.873h5.677l3.797,7.587h-6.949
		L559.909,119.873z M512.776,119.873h5.393l-3.786,7.587h-6.663L512.776,119.873z M573.618,127.459l-3.786-7.587h5.392l5.058,7.587
		H573.618z"/>
	<g>
		<path fill="#E97424" d="M530.728,80.047h-3.796c0.059-1.871,1.019-3.593,2.579-4.622c0.914-0.76,1.217-1.068,1.217-1.711
			c0-0.596-0.262-0.912-1.005-1.742c-1.892-1.865-2.905-4.443-2.791-7.1h3.796c-0.106,1.72,0.556,3.399,1.824,4.573
			c1.197,1.1,1.913,2.644,1.963,4.272c-0.06,1.869-1.02,3.589-2.578,4.618C531.022,79.095,530.728,79.403,530.728,80.047z"/>
		<path fill="#E97424" d="M545.893,72.459h-3.786c0.059-1.865,1.019-3.587,2.579-4.622c0.914-0.759,1.207-1.063,1.207-1.706
			c0-0.612-0.235-0.9-1.201-1.71l2.426-2.91c1.554,1.03,2.518,2.754,2.572,4.625c-0.06,1.863-1.02,3.584-2.578,4.617
			C546.197,71.508,545.893,71.819,545.893,72.459L545.893,72.459z"/>
		<path fill="#E97424" d="M564.864,78.149h-3.796c0.092-1.882,0.987-3.634,2.451-4.815c0.95-0.952,1.345-1.41,1.345-2.138
			c0-0.639-0.295-0.946-1.217-1.705c-1.55-1.034-2.515-2.754-2.579-4.618h3.796c0,0.641,0.293,0.946,1.21,1.705
			c1.559,1.034,2.518,2.755,2.578,4.618c-0.094,1.883-0.979,3.638-2.452,4.821C565.249,76.967,564.864,77.422,564.864,78.149z"/>
		<path fill="#E97424" d="M578.136,83.838h-3.786c0.058-1.866,1.019-3.587,2.578-4.622c0.914-0.76,1.208-1.063,1.208-1.706
			s-0.294-0.951-1.21-1.706c-2.557-1.573-3.343-4.916-1.774-7.466c0.445-0.72,1.048-1.327,1.774-1.772
			c0.964-0.806,1.207-1.088,1.207-1.706h3.796c-0.06,1.867-1.028,3.586-2.579,4.616c-0.971,0.806-1.217,1.092-1.217,1.709
			c0,0.64,0.299,0.948,1.217,1.707c2.549,1.569,3.346,4.913,1.768,7.467c-0.437,0.718-1.049,1.326-1.768,1.771
			C578.434,82.892,578.136,83.198,578.136,83.838z"/>
		<path fill="#E97424" d="M515.553,89.528h-3.796c0.068-1.866,1.028-3.588,2.579-4.622c0.924-0.76,1.217-1.063,1.217-1.706
			s-0.293-0.95-1.219-1.706c-2.547-1.573-3.344-4.916-1.766-7.464c0.44-0.722,1.049-1.329,1.766-1.771
			c0.972-0.806,1.217-1.092,1.217-1.71h3.797c-0.069,1.868-1.03,3.588-2.58,4.616c-0.972,0.806-1.217,1.092-1.217,1.71
			c0,0.639,0.293,0.947,1.217,1.706c2.548,1.573,3.336,4.913,1.767,7.467c-0.445,0.718-1.049,1.326-1.767,1.771
			C515.847,88.581,515.553,88.887,515.553,89.528L515.553,89.528z"/>
	</g>
	<path fill="#394D5C" d="M511.757,45.906c0.006,0.641-0.074,1.278-0.249,1.898h-7.334v-3.796h7.334
		C511.683,44.628,511.763,45.266,511.757,45.906z"/>
	<path fill="#394D5C" d="M591.417,45.906c0.006,0.641-0.084,1.278-0.25,1.898h-7.342v-3.796h7.342
		C591.333,44.628,591.423,45.266,591.417,45.906z"/>
	<path fill="#FCF05A" d="M526.932,42.115h34.136v7.586h-34.136V42.115z"/>
	<path fill="#55B56A" d="M517.447,40.217h3.796v3.791h-3.796V40.217z"/>
	<path fill="#55B56A" d="M517.447,47.804h3.796v3.791h-3.796V47.804z"/>
	<path fill="#55B56A" d="M566.757,40.217h3.796v3.791h-3.796V40.217z"/>
	<path fill="#55B56A" d="M566.757,47.804h3.796v3.791h-3.796V47.804z"/>
	<path fill="#7D8D9C" d="M496.583,93.319h7.592v15.175h-7.592V93.319z"/>
	<path fill="#7D8D9C" d="M583.826,93.319h7.592v15.175h-7.592V93.319z"/>
	<path fill="#D3843D" d="M521.243,110.392c0,0-15.562-8.347-1.893-15.175c13.658-6.828,23.503-17.827,36.028-13.277
		c12.528,4.553,10.619,8.154,17.068,11.379c4.555,2.277,2.949,7.903,1.903,9.485c-1.494,2.232-3.797,7.588-7.593,7.588H521.243z"/>
	<path fill="#FFD782" d="M533.961,98.456l-2.686-2.682c0.586-0.592,14.54-14.364,23.344-7.765l-2.278,3.037
		C547.198,87.189,537.329,95.086,533.961,98.456z"/>
	<path fill="#FFD782" d="M556.388,93.139l1.693-3.392l3.794,1.897l-1.703,3.388L556.388,93.139z"/>
	<path fill="#7D8D9C" d="M496.583,129.353h94.835v7.587h-94.835V129.353z"/>
	<path fill="#7D8D9C" d="M496.583,57.285h94.835v7.588h-94.835V57.285z"/>
</g>
</svg>
