<?xml version="1.0" encoding="utf-8"?>
<!-- Generator: Adobe Illustrator 16.0.0, SVG Export Plug-In . SVG Version: 6.00 Build 0)  -->
<!DOCTYPE svg PUBLIC "-//W3C//DTD SVG 1.1//EN" "http://www.w3.org/Graphics/SVG/1.1/DTD/svg11.dtd">
<svg version="1.1" id="Layer_1" xmlns="http://www.w3.org/2000/svg" xmlns:xlink="http://www.w3.org/1999/xlink" x="0px" y="0px"
	 width="674.5px" height="179.055px" viewBox="0 0 674.5 179.055" enable-background="new 0 0 674.5 179.055" xml:space="preserve">
<g enable-background="new    ">
	<path fill="#0055FE" d="M744.604-151.296v8.052h-20.505v-8.052H744.604z"/>
	<path fill="#0055FE" d="M779.143-155.938c1.437-0.863,2.933-1.298,4.487-1.298v10.428h-2.771c-1.849,0-3.205,0.323-4.069,0.97
		c-0.866,0.646-1.298,1.789-1.298,3.432v10.164h-9.769v-24.816h9.769v4.576C776.487-153.921,777.705-155.072,779.143-155.938z"/>
	<path fill="#0055FE" d="M810.317-154.376c1.598,1.907,2.396,4.487,2.396,7.744v14.388h-9.724V-145.4
		c0-1.173-0.316-2.104-0.946-2.794c-0.632-0.688-1.474-1.034-2.53-1.034c-1.086,0-1.936,0.347-2.552,1.034
		c-0.616,0.689-0.925,1.621-0.925,2.794v13.156h-9.769v-32.56h9.769v11.526c0.764-1.173,1.783-2.126,3.059-2.858
		c1.276-0.733,2.794-1.102,4.556-1.102C806.494-157.236,808.717-156.282,810.317-154.376z"/>
	<path fill="#0055FE" d="M853.061-142.716h-6.555v6.73h-9.373v-6.73h-6.556v-8.934h6.556v-6.774h9.373v6.774h6.555V-142.716z"/>
	<path fill="#0055FE" d="M884.301-158.908c-0.732,0-1.291,0.14-1.672,0.418c-0.381,0.279-0.646,0.756-0.792,1.43h3.563v8.142h-3.651
		v16.676h-9.769v-16.676h-2.641v-8.142h2.641c0.059-3.226,1.077-5.727,3.059-7.502c1.98-1.773,4.759-2.662,8.338-2.662
		c0.41,0,1.085,0.03,2.023,0.09v8.314C884.873-158.879,884.506-158.908,884.301-158.908z"/>
	<path fill="#0055FE" d="M901.24-158.908c-0.732,0-1.291,0.14-1.672,0.418c-0.381,0.279-0.646,0.756-0.791,1.43h3.563v8.142h-3.65
		v16.676h-9.77v-16.676h-2.64v-8.142h2.64c0.059-3.226,1.078-5.727,3.058-7.502c1.98-1.773,4.761-2.662,8.339-2.662
		c0.409,0,1.086,0.03,2.023,0.09v8.314C901.813-158.879,901.446-158.908,901.24-158.908z"/>
</g>
<g enable-background="new    ">
	<path fill="#0055FE" d="M253.525,83.343v9.882h-25.164v-9.882H253.525z"/>
	<path fill="#0055FE" d="M295.536,77.106c1.439,0.812,2.538,1.917,3.294,3.321v-4.158h11.934v29.916
		c0,2.844-0.521,5.437-1.564,7.776c-1.045,2.34-2.729,4.212-5.051,5.615c-2.32,1.403-5.3,2.105-8.937,2.105
		c-4.896,0-8.775-1.144-11.637-3.429c-2.862-2.287-4.491-5.393-4.887-9.315h11.772c0.324,1.584,1.62,2.376,3.888,2.376
		c1.404,0,2.502-0.359,3.294-1.08s1.188-2.069,1.188-4.05v-3.618c-0.756,1.404-1.854,2.512-3.294,3.321s-3.15,1.215-5.13,1.215
		c-2.376,0-4.519-0.621-6.426-1.863c-1.908-1.24-3.411-3.04-4.509-5.398c-1.099-2.357-1.647-5.139-1.647-8.343
		s0.548-5.985,1.647-8.345c1.098-2.356,2.601-4.156,4.509-5.398c1.908-1.242,4.05-1.863,6.426-1.863
		C292.386,75.891,294.096,76.296,295.536,77.106z M291.217,87.717c-0.829,0.9-1.242,2.16-1.242,3.78c0,1.619,0.414,2.88,1.242,3.778
		c0.828,0.9,1.89,1.352,3.186,1.352c1.296,0,2.357-0.45,3.186-1.352c0.828-0.898,1.242-2.159,1.242-3.778
		c0-1.62-0.414-2.88-1.242-3.78c-0.829-0.899-1.89-1.351-3.186-1.351C293.106,86.366,292.044,86.818,291.217,87.717z"/>
	<path fill="#0055FE" d="M360.497,93.873h-8.046v8.262h-11.502v-8.262h-8.047V82.91h8.047v-8.315h11.502v8.315h8.046V93.873z"/>
	<path fill="#0055FE" d="M383.663,63.659c1.26-1.135,2.935-1.7,5.022-1.7c2.051,0,3.707,0.565,4.967,1.7s1.891,2.564,1.891,4.293
		c0,1.692-0.631,3.097-1.891,4.213s-2.916,1.674-4.967,1.674c-2.09,0-3.764-0.558-5.022-1.674c-1.261-1.116-1.89-2.521-1.89-4.213
		C381.773,66.225,382.402,64.794,383.663,63.659z M394.625,76.269v30.456h-11.988V76.269H394.625z"/>
	<path fill="#0055FE" d="M444.358,93.873h-8.046v8.262h-11.502v-8.262h-8.047V82.91h8.047v-8.315h11.502v8.315h8.046V93.873z"/>
</g>
<g>
	<path fill="#EAEFF9" d="M190.329,162.028h-62.143c-0.749,0-1.375-0.56-1.452-1.309L111.599,18.638
		c-0.093-0.856,0.583-1.61,1.452-1.61h92.415c0.868,0,1.545,0.754,1.452,1.61L191.78,160.719
		C191.704,161.468,191.078,162.028,190.329,162.028L190.329,162.028z"/>
	<path fill="#DBE0EA" d="M201.94,17.028l-15.448,145h3.838c0.749,0,1.375-0.56,1.451-1.309l15.138-142.081
		c0.093-0.856-0.583-1.61-1.452-1.61H201.94z"/>
	<path fill="#5CE9FF" d="M194.186,138.161l8.719-81.852h-87.293l8.72,81.852c0.634,5.933,5.534,10.434,11.376,10.434h47.103
		C188.651,148.594,193.551,144.093,194.186,138.161z"/>
	<path fill="#00E3F9" d="M197.755,56.311l-8.723,81.852c-0.63,5.933-5.532,10.434-11.372,10.434h5.148
		c5.842,0,10.742-4.501,11.375-10.434l8.72-81.852H197.755z"/>
</g>
<g enable-background="new    ">
	<path fill="#0055FE" d="M31.222,79.238c2.718,2.232,4.437,5.328,5.157,9.288H23.69c-0.468-1.583-1.387-2.376-2.754-2.376
		c-0.972,0-1.737,0.451-2.295,1.352c-0.559,0.899-0.837,2.231-0.837,3.996c0,1.764,0.278,3.096,0.837,3.995
		c0.558,0.899,1.323,1.351,2.295,1.351c1.368,0,2.286-0.792,2.754-2.376h12.69c-0.721,3.96-2.439,7.056-5.157,9.288
		c-2.718,2.231-6.057,3.348-10.017,3.348c-3.024,0-5.715-0.629-8.073-1.89c-2.358-1.26-4.194-3.069-5.508-5.428
		c-1.314-2.357-1.971-5.12-1.971-8.288s0.656-5.933,1.971-8.289c1.314-2.357,3.15-4.167,5.508-5.429
		c2.357-1.26,5.049-1.89,8.073-1.89C25.165,75.89,28.504,77.006,31.222,79.238z"/>
	<path fill="#0055FE" d="M84.493,93.872h-8.046v8.262H64.945v-8.262h-8.046V82.909h8.046v-8.315h11.502v8.315h8.046V93.872z"/>
</g>
<g>
	<path fill="#DDDDDD" d="M595.639,57.284c0-18.093-18.467-32.759-41.248-32.759c-22.784,0-41.257,14.666-41.257,32.759
		c0,16.159,14.738,29.6,34.135,32.271h-0.062c1.017,6.257-0.862,12.895-5.637,17.717c10.244,0,18.71-7.719,19.988-17.717h-0.06
		C580.899,86.884,595.639,73.457,595.639,57.284z"/>
	<g>
		<path fill="#898989" d="M539.845,54.39c1.598,0,2.893,1.295,2.893,2.896c0,1.6-1.295,2.895-2.893,2.895
			c-1.59,0-2.886-1.295-2.886-2.895C536.959,55.685,538.255,54.39,539.845,54.39z"/>
		<path fill="#898989" d="M568.929,54.39c1.595,0,2.89,1.295,2.89,2.896c0,1.6-1.295,2.895-2.89,2.895
			c-1.589,0-2.888-1.295-2.888-2.895C566.041,55.685,567.34,54.39,568.929,54.39z"/>
		<path fill="#898989" d="M554.391,54.39c1.601,0,2.89,1.295,2.89,2.896c0,1.6-1.289,2.895-2.89,2.895
			c-1.597,0-2.893-1.295-2.893-2.895C551.498,55.685,552.794,54.39,554.391,54.39z"/>
	</g>
	<path fill="#F14742" d="M554.505,129.083c-6.243-6.246-12.935-11.502-12.935-11.502l-9.738,9.729l-38.985-38.977l9.743-9.748
		c0,0-5.256-6.69-11.502-12.925c-6.239-6.245-12.931-11.501-12.931-11.501s-11.673,10.74-12.455,19.26
		c-1.053,11.407,11.015,32.132,29.962,51.073c18.948,18.961,39.684,31.021,51.084,29.971c8.519-0.777,19.256-12.457,19.256-12.457
		S560.747,135.31,554.505,129.083z"/>
</g>
<g>
	<path fill="#0055FE" d="M637.869,87.968v10.248h-26.096V87.968H637.869z"/>
	<path fill="#0055FE" d="M667.661,70.776v41.44h-12.433v-41.44H667.661z"/>
</g>
</svg>
