<?xml version="1.0" encoding="utf-8"?>
<!-- Generator: Adobe Illustrator 16.0.0, SVG Export Plug-In . SVG Version: 6.00 Build 0)  -->
<!DOCTYPE svg PUBLIC "-//W3C//DTD SVG 1.1//EN" "http://www.w3.org/Graphics/SVG/1.1/DTD/svg11.dtd">
<svg version="1.1" id="Layer_1" xmlns="http://www.w3.org/2000/svg" xmlns:xlink="http://www.w3.org/1999/xlink" x="0px" y="0px"
	 width="600px" height="179.055px" viewBox="0 0 600 179.055" enable-background="new 0 0 600 179.055" xml:space="preserve">
<g enable-background="new    ">
	<path fill="#0055FE" d="M744.603-151.296v8.052h-20.504v-8.052H744.603z"/>
	<path fill="#0055FE" d="M779.143-155.938c1.436-0.864,2.932-1.298,4.487-1.298v10.428h-2.772c-1.848,0-3.205,0.323-4.069,0.969
		c-0.866,0.646-1.298,1.789-1.298,3.432v10.164h-9.768v-24.816h9.768v4.576C776.487-153.921,777.705-155.072,779.143-155.938z"/>
	<path fill="#0055FE" d="M810.317-154.376c1.598,1.907,2.397,4.488,2.397,7.744v14.388h-9.724V-145.4
		c0-1.173-0.316-2.104-0.946-2.794c-0.632-0.688-1.474-1.034-2.53-1.034c-1.086,0-1.936,0.346-2.552,1.034
		c-0.616,0.689-0.925,1.621-0.925,2.794v13.156h-9.768v-32.56h9.768v11.527c0.764-1.173,1.783-2.126,3.059-2.859
		s2.794-1.101,4.555-1.101C806.494-157.236,808.717-156.282,810.317-154.376z"/>
	<path fill="#0055FE" d="M853.061-142.716h-6.555v6.731h-9.373v-6.731h-6.556v-8.933h6.556v-6.775h9.373v6.775h6.555V-142.716z"/>
	<path fill="#0055FE" d="M884.301-158.908c-0.733,0-1.291,0.14-1.672,0.418c-0.381,0.279-0.646,0.756-0.792,1.43h3.563v8.141h-3.651
		v16.676h-9.769v-16.676h-2.64v-8.141h2.64c0.059-3.226,1.078-5.727,3.059-7.502c1.98-1.774,4.759-2.662,8.338-2.662
		c0.41,0,1.085,0.03,2.023,0.089v8.315C884.873-158.879,884.506-158.908,884.301-158.908z"/>
	<path fill="#0055FE" d="M901.24-158.908c-0.732,0-1.291,0.14-1.672,0.418c-0.381,0.279-0.645,0.756-0.791,1.43h3.563v8.141h-3.651
		v16.676h-9.769v-16.676h-2.64v-8.141h2.64c0.059-3.226,1.078-5.727,3.058-7.502c1.98-1.774,4.76-2.662,8.338-2.662
		c0.41,0,1.086,0.03,2.024,0.089v8.315C901.813-158.879,901.446-158.908,901.24-158.908z"/>
</g>
<g enable-background="new    ">
	<path fill="#0055FE" d="M253.525,83.343v9.882h-25.164v-9.882H253.525z"/>
	<path fill="#0055FE" d="M295.536,77.106c1.439,0.811,2.538,1.917,3.294,3.321v-4.158h11.934v29.916
		c0,2.844-0.521,5.436-1.565,7.776c-1.044,2.34-2.728,4.212-5.05,5.615c-2.321,1.404-5.301,2.106-8.937,2.106
		c-4.896,0-8.775-1.144-11.637-3.429c-2.862-2.287-4.491-5.392-4.887-9.315h11.772c0.324,1.584,1.62,2.376,3.888,2.376
		c1.404,0,2.502-0.36,3.294-1.08c0.792-0.721,1.188-2.07,1.188-4.05v-3.618c-0.756,1.404-1.854,2.511-3.294,3.321
		c-1.44,0.81-3.15,1.215-5.13,1.215c-2.376,0-4.519-0.621-6.426-1.863c-1.908-1.241-3.411-3.041-4.509-5.399
		c-1.099-2.357-1.647-5.139-1.647-8.343s0.548-5.985,1.647-8.344c1.098-2.357,2.601-4.157,4.509-5.399
		c1.908-1.242,4.05-1.863,6.426-1.863C292.386,75.891,294.096,76.296,295.536,77.106z M291.217,87.717
		c-0.829,0.9-1.242,2.16-1.242,3.78c0,1.619,0.414,2.88,1.242,3.779c0.828,0.9,1.89,1.351,3.186,1.351
		c1.296,0,2.357-0.45,3.186-1.351c0.828-0.899,1.242-2.16,1.242-3.779c0-1.62-0.414-2.88-1.242-3.78
		c-0.829-0.899-1.89-1.351-3.186-1.351C293.106,86.366,292.044,86.818,291.217,87.717z"/>
	<path fill="#0055FE" d="M360.497,93.873h-8.046v8.262h-11.502v-8.262h-8.046V82.91h8.046v-8.315h11.502v8.315h8.046V93.873z"/>
	<path fill="#0055FE" d="M383.663,63.659c1.26-1.134,2.934-1.7,5.022-1.7c2.051,0,3.707,0.566,4.967,1.7
		c1.26,1.135,1.891,2.565,1.891,4.293c0,1.693-0.631,3.097-1.891,4.213s-2.916,1.674-4.967,1.674c-2.089,0-3.763-0.558-5.022-1.674
		c-1.261-1.116-1.89-2.52-1.89-4.213C381.774,66.225,382.403,64.794,383.663,63.659z M394.625,76.269v30.456h-11.988V76.269H394.625
		z"/>
	<path fill="#0055FE" d="M444.358,93.873h-8.045v8.262h-11.502v-8.262h-8.047V82.91h8.047v-8.315h11.502v8.315h8.045V93.873z"/>
</g>
<g>
	<path fill="#EAEFF9" d="M190.329,162.028h-62.143c-0.749,0-1.375-0.56-1.452-1.309L111.599,18.638
		c-0.093-0.857,0.583-1.61,1.452-1.61h92.415c0.868,0,1.545,0.753,1.452,1.61l-15.138,142.081
		C191.704,161.468,191.078,162.028,190.329,162.028L190.329,162.028z"/>
	<path fill="#DBE0EA" d="M201.94,17.028l-15.448,145h3.838c0.749,0,1.375-0.56,1.451-1.309l15.138-142.081
		c0.093-0.857-0.583-1.61-1.452-1.61H201.94z"/>
	<path fill="#5CE9FF" d="M194.186,138.161l8.719-81.851h-87.293l8.72,81.851c0.634,5.933,5.534,10.434,11.376,10.434h47.103
		C188.651,148.594,193.551,144.093,194.186,138.161z"/>
	<path fill="#00E3F9" d="M197.755,56.311l-8.723,81.851c-0.63,5.933-5.532,10.434-11.372,10.434h5.148
		c5.842,0,10.742-4.501,11.375-10.434l8.72-81.851H197.755z"/>
</g>
<g enable-background="new    ">
	<path fill="#0055FE" d="M31.222,79.238c2.718,2.232,4.437,5.328,5.157,9.288H23.69c-0.468-1.583-1.387-2.376-2.754-2.376
		c-0.972,0-1.737,0.451-2.295,1.351c-0.559,0.9-0.837,2.232-0.837,3.996s0.278,3.096,0.837,3.995c0.558,0.9,1.323,1.351,2.295,1.351
		c1.368,0,2.286-0.792,2.754-2.376h12.69c-0.721,3.96-2.439,7.056-5.157,9.288c-2.718,2.232-6.057,3.348-10.017,3.348
		c-3.024,0-5.715-0.629-8.073-1.89c-2.358-1.26-4.194-3.069-5.508-5.428c-1.314-2.357-1.971-5.12-1.971-8.288
		s0.656-5.932,1.971-8.289c1.314-2.357,3.15-4.167,5.508-5.428c2.357-1.26,5.049-1.89,8.073-1.89
		C25.165,75.89,28.504,77.006,31.222,79.238z"/>
	<path fill="#0055FE" d="M84.493,93.872h-8.046v8.262H64.945v-8.262h-8.046V82.909h8.046v-8.315h11.502v8.315h8.046V93.872z"/>
</g>
<g>
	<path fill="#DDDDDD" d="M595.639,57.284c0-18.092-18.467-32.758-41.248-32.758c-22.785,0-41.257,14.666-41.257,32.758
		c0,16.16,14.738,29.6,34.135,32.271h-0.062c1.017,6.257-0.862,12.894-5.637,17.717c10.245,0,18.71-7.719,19.989-17.717h-0.06
		C580.899,86.884,595.639,73.457,595.639,57.284z"/>
	<g>
		<path fill="#898989" d="M539.845,54.39c1.597,0,2.892,1.295,2.892,2.896c0,1.6-1.295,2.895-2.892,2.895
			c-1.59,0-2.886-1.295-2.886-2.895C536.959,55.685,538.255,54.39,539.845,54.39z"/>
		<path fill="#898989" d="M568.929,54.39c1.594,0,2.889,1.295,2.889,2.896c0,1.6-1.295,2.895-2.889,2.895
			c-1.589,0-2.888-1.295-2.888-2.895C566.041,55.685,567.34,54.39,568.929,54.39z"/>
		<path fill="#898989" d="M554.391,54.39c1.6,0,2.889,1.295,2.889,2.896c0,1.6-1.289,2.895-2.889,2.895
			c-1.597,0-2.893-1.295-2.893-2.895C551.498,55.685,552.794,54.39,554.391,54.39z"/>
	</g>
	<path fill="#F14742" d="M554.505,129.083c-6.243-6.246-12.935-11.502-12.935-11.502l-9.738,9.729l-38.985-38.977l9.743-9.748
		c0,0-5.256-6.69-11.502-12.925c-6.239-6.245-12.931-11.501-12.931-11.501S466.484,64.9,465.702,73.419
		c-1.053,11.407,11.015,32.132,29.962,51.073c18.948,18.961,39.684,31.021,51.084,29.971c8.519-0.777,19.256-12.457,19.256-12.457
		S560.747,135.31,554.505,129.083z"/>
</g>
</svg>
