<?xml version="1.0" encoding="utf-8"?>
<!-- Generator: Adobe Illustrator 16.0.0, SVG Export Plug-In . SVG Version: 6.00 Build 0)  -->
<!DOCTYPE svg PUBLIC "-//W3C//DTD SVG 1.1//EN" "http://www.w3.org/Graphics/SVG/1.1/DTD/svg11.dtd">
<svg version="1.1" id="Layer_1" xmlns="http://www.w3.org/2000/svg" xmlns:xlink="http://www.w3.org/1999/xlink" x="0px" y="0px"
	 width="690px" height="205.913px" viewBox="-45 -13.428 690 205.913" enable-background="new -45 -13.428 690 205.913"
	 xml:space="preserve">
<g>
	<path d="M-27.186,24.193l-5.967-10.413h-1.521v10.413h-6.669V-3.381h11.388c2.184,0,4.03,0.377,5.538,1.131
		c1.507,0.754,2.639,1.788,3.393,3.101c0.754,1.313,1.131,2.814,1.131,4.504c0,2.002-0.553,3.705-1.658,5.109
		s-2.71,2.366-4.816,2.886l6.552,10.842H-27.186z M-34.674,9.217h4.134c1.326,0,2.301-0.292,2.925-0.877s0.936-1.449,0.936-2.593
		c0-1.092-0.318-1.95-0.956-2.574s-1.605-0.936-2.905-0.936h-4.134V9.217z"/>
	<path d="M5.495,14.521H-9.597c0.078,1.638,0.494,2.814,1.248,3.529c0.753,0.715,1.716,1.073,2.886,1.073
		c0.988,0,1.807-0.247,2.457-0.741c0.65-0.494,1.079-1.131,1.287-1.911H5.34c-0.287,1.535-0.911,2.906-1.872,4.115
		c-0.962,1.209-2.184,2.158-3.666,2.847c-1.482,0.689-3.133,1.034-4.953,1.034c-2.132,0-4.023-0.448-5.674-1.345
		c-1.651-0.897-2.945-2.19-3.88-3.881c-0.936-1.689-1.404-3.666-1.404-5.928c0-2.288,0.461-4.271,1.385-5.948
		c0.922-1.677,2.216-2.964,3.88-3.861c1.664-0.897,3.562-1.346,5.694-1.346c2.158,0,4.056,0.442,5.694,1.326
		C2.18,4.368,3.448,5.609,4.345,7.208c0.897,1.599,1.346,3.438,1.346,5.519C5.691,13.273,5.625,13.871,5.495,14.521z M-2.207,8.495
		C-3,7.781-3.982,7.423-5.152,7.423c-1.222,0-2.236,0.364-3.042,1.092C-9,9.243-9.455,10.309-9.558,11.713h8.502
		C-1.031,10.283-1.414,9.211-2.207,8.495z"/>
	<path d="M23.279,3.289c1.196,0.754,2.08,1.781,2.652,3.081V2.43h6.63v21.762h-6.63v-3.939c-0.572,1.3-1.457,2.327-2.652,3.081
		c-1.196,0.754-2.626,1.131-4.29,1.131c-1.794,0-3.399-0.448-4.816-1.345c-1.417-0.897-2.535-2.19-3.354-3.881
		C10,17.55,9.59,15.573,9.59,13.312c0-2.288,0.41-4.271,1.229-5.948c0.819-1.677,1.937-2.964,3.354-3.861
		c1.417-0.897,3.022-1.346,4.816-1.346C20.653,2.157,22.083,2.535,23.279,3.289z M17.683,9.412c-0.872,0.936-1.307,2.236-1.307,3.9
		c0,1.664,0.435,2.964,1.307,3.9c0.871,0.936,2.021,1.404,3.451,1.404c1.404,0,2.555-0.48,3.452-1.443
		c0.897-0.961,1.346-2.249,1.346-3.861c0-1.638-0.449-2.931-1.346-3.881c-0.897-0.949-2.047-1.423-3.452-1.423
		C19.704,8.008,18.553,8.476,17.683,9.412z"/>
	<path d="M48.61,3.366c1.313-0.78,2.736-1.17,4.271-1.17v7.137h-1.911c-1.768,0-3.139,0.377-4.114,1.131
		c-0.975,0.754-1.462,2.028-1.462,3.822v9.906h-6.669V2.43h6.669v4.095C46.224,5.199,47.297,4.147,48.61,3.366z"/>
	<path d="M67.135,3.366c1.313-0.78,2.736-1.17,4.271-1.17v7.137h-1.911c-1.768,0-3.139,0.377-4.114,1.131
		c-0.975,0.754-1.462,2.028-1.462,3.822v9.906h-6.669V2.43h6.669v4.095C64.749,5.199,65.822,4.147,67.135,3.366z"/>
	<path d="M88.331,3.289c1.196,0.754,2.08,1.781,2.652,3.081V2.43h6.63v21.762h-6.63v-3.939c-0.572,1.3-1.457,2.327-2.652,3.081
		c-1.196,0.754-2.626,1.131-4.29,1.131c-1.794,0-3.399-0.448-4.816-1.345c-1.417-0.897-2.535-2.19-3.354-3.881
		c-0.819-1.689-1.229-3.666-1.229-5.928c0-2.288,0.41-4.271,1.229-5.948c0.819-1.677,1.937-2.964,3.354-3.861
		c1.417-0.897,3.022-1.346,4.816-1.346C85.704,2.157,87.135,2.535,88.331,3.289z M82.735,9.412c-0.872,0.936-1.307,2.236-1.307,3.9
		c0,1.664,0.435,2.964,1.307,3.9c0.871,0.936,2.021,1.404,3.451,1.404c1.404,0,2.555-0.48,3.452-1.443
		c0.897-0.961,1.346-2.249,1.346-3.861c0-1.638-0.449-2.931-1.346-3.881c-0.897-0.949-2.047-1.423-3.452-1.423
		C84.756,8.008,83.605,8.476,82.735,9.412z"/>
	<path d="M123.528,4.693c1.468,1.664,2.203,3.953,2.203,6.864v12.636h-6.669V12.337c0-1.456-0.384-2.594-1.15-3.413
		c-0.767-0.819-1.788-1.229-3.062-1.229c-1.352,0-2.425,0.429-3.217,1.287c-0.793,0.858-1.189,2.081-1.189,3.666v11.544h-6.669V2.43
		h6.669v3.978c0.624-1.3,1.553-2.326,2.788-3.081c1.235-0.753,2.685-1.131,4.349-1.131C120.076,2.197,122.059,3.029,123.528,4.693z"
		/>
	<path d="M144.256,3.289c1.196,0.754,2.08,1.781,2.652,3.081V2.43h6.63v21.645c0,2.028-0.39,3.854-1.17,5.479
		c-0.78,1.625-1.977,2.918-3.588,3.881c-1.612,0.961-3.614,1.443-6.006,1.443c-3.276,0-5.896-0.774-7.858-2.32
		c-1.963-1.547-3.14-3.646-3.53-6.299h6.591c0.208,0.884,0.683,1.573,1.423,2.067c0.741,0.494,1.709,0.741,2.906,0.741
		c1.377,0,2.489-0.396,3.334-1.189c0.844-0.793,1.268-2.061,1.268-3.803v-3.822c-0.572,1.3-1.457,2.327-2.652,3.081
		c-1.196,0.754-2.626,1.131-4.29,1.131c-1.794,0-3.399-0.448-4.816-1.345c-1.417-0.897-2.535-2.19-3.354-3.881
		c-0.819-1.689-1.229-3.666-1.229-5.928c0-2.288,0.41-4.271,1.229-5.948c0.819-1.677,1.937-2.964,3.354-3.861
		c1.417-0.897,3.022-1.346,4.816-1.346C141.63,2.157,143.06,2.535,144.256,3.289z M138.66,9.412c-0.872,0.936-1.307,2.236-1.307,3.9
		c0,1.664,0.435,2.964,1.307,3.9c0.871,0.936,2.021,1.404,3.451,1.404c1.404,0,2.555-0.48,3.452-1.443
		c0.897-0.961,1.346-2.249,1.346-3.861c0-1.638-0.449-2.931-1.346-3.881c-0.897-0.949-2.047-1.423-3.452-1.423
		C140.681,8.008,139.531,8.476,138.66,9.412z"/>
	<path d="M180.175,14.521h-15.093c0.078,1.638,0.494,2.814,1.248,3.529c0.753,0.715,1.716,1.073,2.886,1.073
		c0.988,0,1.807-0.247,2.457-0.741c0.65-0.494,1.079-1.131,1.287-1.911h7.059c-0.287,1.535-0.911,2.906-1.872,4.115
		c-0.962,1.209-2.184,2.158-3.666,2.847c-1.482,0.689-3.133,1.034-4.953,1.034c-2.132,0-4.023-0.448-5.674-1.345
		c-1.651-0.897-2.945-2.19-3.88-3.881c-0.936-1.689-1.404-3.666-1.404-5.928c0-2.288,0.461-4.271,1.385-5.948
		c0.922-1.677,2.216-2.964,3.88-3.861c1.664-0.897,3.562-1.346,5.694-1.346c2.158,0,4.056,0.442,5.694,1.326
		c1.638,0.884,2.905,2.125,3.802,3.725c0.897,1.599,1.346,3.438,1.346,5.519C180.37,13.273,180.305,13.871,180.175,14.521z
		 M172.473,8.495c-0.793-0.715-1.775-1.073-2.945-1.073c-1.222,0-2.236,0.364-3.042,1.092c-0.806,0.729-1.261,1.794-1.365,3.198
		h8.502C173.649,10.283,173.265,9.211,172.473,8.495z"/>
	<path d="M207.085,18.46v5.733h-3.003c-2.548,0-4.531-0.63-5.948-1.892c-1.417-1.261-2.125-3.347-2.125-6.259V8.047h-2.925V2.43
		h2.925v-5.343h6.669V2.43h4.368v5.616h-4.368v8.112c0,0.858,0.176,1.457,0.527,1.794c0.351,0.338,0.942,0.507,1.774,0.507H207.085z
		"/>
	<path d="M232.142,4.693c1.468,1.664,2.203,3.953,2.203,6.864v12.636h-6.669V12.337c0-1.456-0.384-2.594-1.15-3.413
		c-0.767-0.819-1.788-1.229-3.062-1.229c-1.352,0-2.425,0.429-3.217,1.287c-0.793,0.858-1.189,2.081-1.189,3.666v11.544h-6.669
		v-28.86h6.669V6.408c0.624-1.3,1.553-2.326,2.788-3.081c1.235-0.753,2.685-1.131,4.349-1.131
		C228.69,2.197,230.673,3.029,232.142,4.693z"/>
	<path d="M260.787,14.521h-15.093c0.078,1.638,0.494,2.814,1.248,3.529c0.753,0.715,1.716,1.073,2.886,1.073
		c0.988,0,1.807-0.247,2.457-0.741c0.65-0.494,1.079-1.131,1.287-1.911h7.059c-0.287,1.535-0.911,2.906-1.872,4.115
		c-0.962,1.209-2.184,2.158-3.666,2.847c-1.482,0.689-3.133,1.034-4.953,1.034c-2.132,0-4.023-0.448-5.674-1.345
		c-1.651-0.897-2.945-2.19-3.88-3.881c-0.936-1.689-1.404-3.666-1.404-5.928c0-2.288,0.461-4.271,1.385-5.948
		c0.922-1.677,2.216-2.964,3.88-3.861c1.664-0.897,3.562-1.346,5.694-1.346c2.158,0,4.056,0.442,5.694,1.326
		c1.638,0.884,2.905,2.125,3.802,3.725c0.897,1.599,1.346,3.438,1.346,5.519C260.982,13.273,260.917,13.871,260.787,14.521z
		 M253.085,8.495c-0.793-0.715-1.775-1.073-2.945-1.073c-1.222,0-2.236,0.364-3.042,1.092c-0.806,0.729-1.261,1.794-1.365,3.198
		h8.502C254.26,10.283,253.877,9.211,253.085,8.495z"/>
	<path d="M282.041-4.667v28.86h-6.669v-28.86H282.041z"/>
	<path d="M308.678,14.521h-15.093c0.078,1.638,0.494,2.814,1.248,3.529c0.753,0.715,1.716,1.073,2.886,1.073
		c0.988,0,1.807-0.247,2.457-0.741c0.65-0.494,1.079-1.131,1.288-1.911h7.059c-0.287,1.535-0.91,2.906-1.872,4.115
		s-2.185,2.158-3.666,2.847c-1.481,0.689-3.133,1.034-4.953,1.034c-2.132,0-4.023-0.448-5.674-1.345
		c-1.651-0.897-2.945-2.19-3.88-3.881c-0.936-1.689-1.404-3.666-1.404-5.928c0-2.288,0.461-4.271,1.385-5.948
		c0.922-1.677,2.216-2.964,3.88-3.861c1.664-0.897,3.562-1.346,5.694-1.346c2.158,0,4.056,0.442,5.694,1.326
		c1.638,0.884,2.905,2.125,3.803,3.725c0.896,1.599,1.346,3.438,1.346,5.519C308.873,13.273,308.807,13.871,308.678,14.521z
		 M300.975,8.495c-0.793-0.715-1.774-1.073-2.944-1.073c-1.222,0-2.236,0.364-3.042,1.092c-0.806,0.729-1.261,1.794-1.365,3.198
		h8.501C302.151,10.283,301.768,9.211,300.975,8.495z"/>
	<path d="M326.227,18.46v5.733h-3.002c-2.549,0-4.531-0.63-5.948-1.892c-1.417-1.261-2.126-3.347-2.126-6.259V8.047h-2.924V2.43
		h2.924v-5.343h6.67V2.43h4.367v5.616h-4.367v8.112c0,0.858,0.176,1.457,0.526,1.794c0.351,0.338,0.942,0.507,1.774,0.507H326.227z"
		/>
	<path d="M343.855,18.46v5.733h-3.003c-2.549,0-4.531-0.63-5.947-1.892c-1.418-1.261-2.126-3.347-2.126-6.259V8.047h-2.925V2.43
		h2.925v-5.343h6.669V2.43h4.368v5.616h-4.368v8.112c0,0.858,0.176,1.457,0.527,1.794c0.351,0.338,0.941,0.507,1.773,0.507H343.855z
		"/>
	<path d="M369.633,14.521H354.54c0.078,1.638,0.493,2.814,1.248,3.529c0.753,0.715,1.716,1.073,2.886,1.073
		c0.988,0,1.807-0.247,2.457-0.741c0.65-0.494,1.078-1.131,1.287-1.911h7.059c-0.286,1.535-0.91,2.906-1.871,4.115
		c-0.963,1.209-2.185,2.158-3.666,2.847c-1.482,0.689-3.134,1.034-4.953,1.034c-2.133,0-4.023-0.448-5.675-1.345
		c-1.651-0.897-2.944-2.19-3.88-3.881c-0.937-1.689-1.404-3.666-1.404-5.928c0-2.288,0.461-4.271,1.385-5.948
		c0.922-1.677,2.216-2.964,3.88-3.861c1.663-0.897,3.562-1.346,5.694-1.346c2.157,0,4.056,0.442,5.693,1.326
		c1.639,0.884,2.906,2.125,3.803,3.725c0.896,1.599,1.346,3.438,1.346,5.519C369.828,13.273,369.763,13.871,369.633,14.521z
		 M361.931,8.495c-0.794-0.715-1.774-1.073-2.944-1.073c-1.223,0-2.236,0.364-3.043,1.092c-0.806,0.729-1.261,1.794-1.364,3.198
		h8.502C363.107,10.283,362.723,9.211,361.931,8.495z"/>
	<path d="M384.745,3.366c1.313-0.78,2.736-1.17,4.271-1.17v7.137h-1.911c-1.769,0-3.14,0.377-4.114,1.131
		c-0.975,0.754-1.463,2.028-1.463,3.822v9.906h-6.669V2.43h6.669v4.095C382.36,5.199,383.432,4.147,384.745,3.366z"/>
	<path d="M407.91,4.225c1.652,1.378,2.686,3.198,3.102,5.46h-6.24c-0.182-0.884-0.592-1.58-1.229-2.087
		c-0.637-0.507-1.438-0.76-2.398-0.76c-0.754,0-1.326,0.163-1.716,0.487c-0.39,0.326-0.585,0.787-0.585,1.385
		c0,0.676,0.357,1.183,1.072,1.521s1.84,0.676,3.373,1.014c1.664,0.39,3.029,0.787,4.096,1.19c1.066,0.403,1.988,1.06,2.77,1.969
		c0.779,0.911,1.17,2.132,1.17,3.666c0,1.248-0.34,2.354-1.016,3.315c-0.676,0.962-1.65,1.716-2.924,2.262
		c-1.275,0.546-2.783,0.819-4.523,0.819c-2.939,0-5.292-0.649-7.06-1.95c-1.769-1.3-2.847-3.159-3.237-5.577H399
		c0.104,0.936,0.5,1.651,1.189,2.145c0.688,0.494,1.578,0.741,2.672,0.741c0.754,0,1.324-0.175,1.715-0.526s0.586-0.813,0.586-1.384
		c0-0.754-0.357-1.293-1.072-1.619c-0.717-0.325-1.879-0.669-3.491-1.034c-1.612-0.337-2.938-0.702-3.978-1.092
		c-1.041-0.39-1.938-1.02-2.691-1.892c-0.754-0.871-1.131-2.06-1.131-3.568c0-1.95,0.74-3.53,2.223-4.739s3.574-1.813,6.279-1.813
		C404.057,2.157,406.26,2.847,407.91,4.225z"/>
	<path d="M442.835,4.478c1.897,1.547,3.094,3.672,3.588,6.376h-7.06c-0.208-0.936-0.637-1.664-1.287-2.184
		c-0.649-0.52-1.469-0.78-2.457-0.78c-1.17,0-2.132,0.461-2.886,1.384c-0.754,0.923-1.131,2.269-1.131,4.037
		s0.377,3.114,1.131,4.036c0.754,0.923,1.716,1.385,2.886,1.385c0.988,0,1.808-0.26,2.457-0.78c0.65-0.52,1.079-1.248,1.287-2.184
		h7.06c-0.494,2.704-1.69,4.83-3.588,6.376c-1.898,1.547-4.252,2.32-7.06,2.32c-2.132,0-4.023-0.448-5.675-1.345
		c-1.651-0.897-2.944-2.19-3.88-3.881c-0.937-1.689-1.404-3.666-1.404-5.928c0-2.288,0.461-4.271,1.385-5.948
		c0.923-1.677,2.216-2.964,3.88-3.861s3.563-1.346,5.694-1.346C438.583,2.157,440.937,2.931,442.835,4.478z"/>
	<path d="M467.425,3.503c1.702,0.897,3.042,2.19,4.017,3.88c0.976,1.69,1.463,3.666,1.463,5.928c0,2.262-0.487,4.238-1.463,5.928
		c-0.975,1.69-2.314,2.983-4.017,3.881c-1.703,0.897-3.634,1.345-5.791,1.345c-2.159,0-4.096-0.448-5.812-1.345
		c-1.716-0.897-3.062-2.19-4.036-3.881c-0.976-1.689-1.463-3.666-1.463-5.928c0-2.262,0.487-4.238,1.463-5.928
		c0.975-1.69,2.32-2.983,4.036-3.88s3.652-1.346,5.812-1.346C463.791,2.157,465.722,2.606,467.425,3.503z M458.416,9.314
		c-0.872,0.923-1.307,2.256-1.307,3.998c0,1.742,0.435,3.068,1.307,3.978c0.87,0.91,1.943,1.365,3.218,1.365
		c1.273,0,2.34-0.455,3.197-1.365c0.858-0.91,1.287-2.236,1.287-3.978c0-1.742-0.429-3.074-1.287-3.998
		c-0.857-0.923-1.924-1.385-3.197-1.385C460.36,7.929,459.286,8.391,458.416,9.314z"/>
	<path d="M497.689,4.693c1.469,1.664,2.203,3.953,2.203,6.864v12.636h-6.669V12.337c0-1.456-0.384-2.594-1.15-3.413
		c-0.768-0.819-1.788-1.229-3.062-1.229c-1.353,0-2.425,0.429-3.218,1.287s-1.189,2.081-1.189,3.666v11.544h-6.669V2.43h6.669v3.978
		c0.624-1.3,1.554-2.326,2.789-3.081c1.234-0.753,2.684-1.131,4.349-1.131C494.237,2.197,496.219,3.029,497.689,4.693z"/>
	<path d="M518.183,18.46v5.733h-3.003c-2.549,0-4.531-0.63-5.947-1.892c-1.418-1.261-2.126-3.347-2.126-6.259V8.047h-2.925V2.43
		h2.925v-5.343h6.669V2.43h4.368v5.616h-4.368v8.112c0,0.858,0.176,1.457,0.526,1.794c0.352,0.338,0.942,0.507,1.774,0.507H518.183z
		"/>
	<path d="M536.044,3.289c1.195,0.754,2.079,1.781,2.651,3.081V2.43h6.63v21.762h-6.63v-3.939c-0.572,1.3-1.456,2.327-2.651,3.081
		c-1.196,0.754-2.627,1.131-4.29,1.131c-1.794,0-3.4-0.448-4.816-1.345c-1.418-0.897-2.535-2.19-3.354-3.881
		c-0.819-1.689-1.229-3.666-1.229-5.928c0-2.288,0.409-4.271,1.229-5.948c0.819-1.677,1.937-2.964,3.354-3.861
		c1.416-0.897,3.022-1.346,4.816-1.346C533.417,2.157,534.848,2.535,536.044,3.289z M530.448,9.412
		c-0.872,0.936-1.307,2.236-1.307,3.9c0,1.664,0.435,2.964,1.307,3.9c0.87,0.936,2.021,1.404,3.451,1.404
		c1.404,0,2.555-0.48,3.451-1.443c0.897-0.961,1.346-2.249,1.346-3.861c0-1.638-0.448-2.931-1.346-3.881
		c-0.896-0.949-2.047-1.423-3.451-1.423C532.469,8.008,531.318,8.476,530.448,9.412z"/>
	<path d="M551.955-6.208c0.729-0.663,1.69-0.995,2.887-0.995c1.195,0,2.157,0.332,2.886,0.995c0.728,0.663,1.092,1.501,1.092,2.516
		c0,0.988-0.364,1.813-1.092,2.476c-0.729,0.663-1.69,0.995-2.886,0.995c-1.196,0-2.158-0.332-2.887-0.995
		c-0.728-0.663-1.092-1.488-1.092-2.476C550.864-4.706,551.228-5.545,551.955-6.208z M558.156,2.43v21.762h-6.669V2.43H558.156z"/>
	<path d="M584.073,4.693c1.469,1.664,2.203,3.953,2.203,6.864v12.636h-6.669V12.337c0-1.456-0.384-2.594-1.15-3.413
		c-0.768-0.819-1.788-1.229-3.062-1.229c-1.353,0-2.425,0.429-3.218,1.287s-1.189,2.081-1.189,3.666v11.544h-6.669V2.43h6.669v3.978
		c0.624-1.3,1.554-2.326,2.789-3.081c1.234-0.753,2.684-1.131,4.349-1.131C580.62,2.197,582.603,3.029,584.073,4.693z"/>
	<path d="M612.718,14.521h-15.094c0.078,1.638,0.494,2.814,1.248,3.529c0.754,0.715,1.717,1.073,2.887,1.073
		c0.987,0,1.807-0.247,2.457-0.741c0.649-0.494,1.078-1.131,1.286-1.911h7.06c-0.286,1.535-0.91,2.906-1.872,4.115
		s-2.184,2.158-3.666,2.847c-1.482,0.689-3.134,1.034-4.953,1.034c-2.132,0-4.023-0.448-5.675-1.345
		c-1.651-0.897-2.944-2.19-3.88-3.881c-0.937-1.689-1.404-3.666-1.404-5.928c0-2.288,0.461-4.271,1.385-5.948
		c0.923-1.677,2.216-2.964,3.88-3.861s3.563-1.346,5.694-1.346c2.158,0,4.056,0.442,5.694,1.326
		c1.638,0.884,2.905,2.125,3.803,3.725c0.896,1.599,1.345,3.438,1.345,5.519C612.912,13.273,612.848,13.871,612.718,14.521z
		 M605.015,8.495c-0.793-0.715-1.774-1.073-2.944-1.073c-1.223,0-2.236,0.364-3.042,1.092c-0.806,0.729-1.262,1.794-1.365,3.198
		h8.502C606.192,10.283,605.808,9.211,605.015,8.495z"/>
	<path d="M630.501,3.289c1.195,0.754,2.066,1.781,2.612,3.081V-4.667h6.669v28.86h-6.669v-3.939c-0.546,1.3-1.417,2.327-2.612,3.081
		c-1.196,0.754-2.627,1.131-4.29,1.131c-1.794,0-3.4-0.448-4.816-1.345c-1.418-0.897-2.535-2.19-3.354-3.881
		c-0.819-1.689-1.229-3.666-1.229-5.928c0-2.288,0.409-4.271,1.229-5.948c0.819-1.677,1.937-2.964,3.354-3.861
		c1.416-0.897,3.022-1.346,4.816-1.346C627.874,2.157,629.305,2.535,630.501,3.289z M624.905,9.412
		c-0.872,0.936-1.307,2.236-1.307,3.9c0,1.664,0.435,2.964,1.307,3.9c0.87,0.936,2.021,1.404,3.451,1.404
		c1.404,0,2.555-0.48,3.451-1.443c0.897-0.961,1.346-2.249,1.346-3.861c0-1.638-0.448-2.931-1.346-3.881
		c-0.896-0.949-2.047-1.423-3.451-1.423C626.926,8.008,625.775,8.476,624.905,9.412z"/>
	<path d="M-30.774,40.592c0.728-0.663,1.69-0.995,2.886-0.995s2.158,0.332,2.886,0.995c0.728,0.663,1.092,1.501,1.092,2.516
		c0,0.988-0.364,1.813-1.092,2.476c-0.728,0.663-1.69,0.995-2.886,0.995s-2.158-0.332-2.886-0.995
		c-0.728-0.663-1.092-1.488-1.092-2.476C-31.866,42.094-31.502,41.255-30.774,40.592z M-24.573,49.23v21.762h-6.669V49.23H-24.573z"
		/>
	<path d="M1.343,51.492c1.468,1.664,2.203,3.953,2.203,6.864v12.636h-6.669V59.136c0-1.456-0.384-2.594-1.15-3.413
		c-0.767-0.819-1.788-1.229-3.062-1.229c-1.352,0-2.425,0.429-3.217,1.287c-0.793,0.858-1.189,2.081-1.189,3.666v11.544h-6.669
		V49.23h6.669v3.978c0.624-1.3,1.553-2.326,2.788-3.081c1.235-0.753,2.685-1.131,4.349-1.131
		C-2.109,48.996-0.127,49.829,1.343,51.492z"/>
	<path d="M31.197,65.26v5.733h-3.003c-2.548,0-4.531-0.63-5.948-1.892c-1.417-1.261-2.125-3.347-2.125-6.259v-7.995h-2.925V49.23
		h2.925v-5.343h6.669v5.343h4.368v5.616h-4.368v8.112c0,0.858,0.176,1.457,0.527,1.794c0.351,0.338,0.942,0.507,1.774,0.507H31.197z
		"/>
	<path d="M56.254,51.492c1.468,1.664,2.203,3.953,2.203,6.864v12.636h-6.669V59.136c0-1.456-0.384-2.594-1.15-3.413
		c-0.767-0.819-1.788-1.229-3.062-1.229c-1.352,0-2.425,0.429-3.217,1.287c-0.793,0.858-1.189,2.081-1.189,3.666v11.544H36.5v-28.86
		h6.669v11.076c0.624-1.3,1.553-2.326,2.788-3.081c1.235-0.753,2.685-1.131,4.349-1.131C52.802,48.996,54.784,49.829,56.254,51.492z
		"/>
	<path d="M84.899,61.321H69.806c0.078,1.638,0.494,2.814,1.248,3.529c0.753,0.715,1.716,1.073,2.886,1.073
		c0.988,0,1.807-0.247,2.457-0.741c0.65-0.494,1.079-1.131,1.287-1.911h7.059c-0.287,1.535-0.911,2.906-1.872,4.115
		c-0.962,1.209-2.184,2.158-3.666,2.847c-1.482,0.689-3.133,1.034-4.953,1.034c-2.132,0-4.023-0.448-5.674-1.345
		c-1.651-0.897-2.945-2.19-3.88-3.881c-0.936-1.689-1.404-3.666-1.404-5.928c0-2.288,0.461-4.271,1.385-5.948
		c0.922-1.677,2.216-2.964,3.88-3.861c1.664-0.897,3.562-1.346,5.694-1.346c2.158,0,4.056,0.442,5.694,1.326
		c1.638,0.884,2.905,2.125,3.802,3.725c0.897,1.599,1.346,3.438,1.346,5.519C85.094,60.073,85.029,60.671,84.899,61.321z
		 M77.197,55.295c-0.793-0.715-1.775-1.073-2.945-1.073c-1.222,0-2.236,0.364-3.042,1.092c-0.806,0.729-1.261,1.794-1.365,3.198
		h8.502C78.372,57.083,77.989,56.01,77.197,55.295z"/>
	<path d="M104.652,51.025c1.651,1.378,2.684,3.198,3.101,5.46h-6.24c-0.182-0.884-0.592-1.58-1.229-2.087
		c-0.637-0.507-1.437-0.76-2.398-0.76c-0.754,0-1.326,0.163-1.716,0.487c-0.39,0.326-0.585,0.787-0.585,1.385
		c0,0.676,0.357,1.183,1.072,1.521c0.715,0.338,1.839,0.676,3.374,1.014c1.664,0.39,3.028,0.787,4.095,1.19
		c1.066,0.403,1.989,1.06,2.769,1.969c0.78,0.911,1.17,2.132,1.17,3.666c0,1.248-0.338,2.354-1.014,3.315
		c-0.676,0.962-1.651,1.716-2.925,2.262s-2.782,0.819-4.524,0.819c-2.938,0-5.291-0.649-7.059-1.95
		c-1.769-1.3-2.847-3.159-3.237-5.577h6.435c0.104,0.936,0.5,1.651,1.189,2.145c0.688,0.494,1.58,0.741,2.671,0.741
		c0.754,0,1.326-0.175,1.716-0.526c0.39-0.351,0.585-0.813,0.585-1.384c0-0.754-0.358-1.293-1.073-1.619
		c-0.715-0.325-1.878-0.669-3.49-1.034c-1.612-0.337-2.938-0.702-3.978-1.092c-1.041-0.39-1.938-1.02-2.691-1.892
		c-0.754-0.871-1.131-2.06-1.131-3.568c0-1.95,0.741-3.53,2.223-4.739s3.575-1.813,6.279-1.813
		C100.797,48.957,103.001,49.647,104.652,51.025z"/>
	<path d="M133.804,61.321h-15.093c0.078,1.638,0.494,2.814,1.248,3.529c0.753,0.715,1.716,1.073,2.886,1.073
		c0.988,0,1.807-0.247,2.457-0.741c0.65-0.494,1.079-1.131,1.287-1.911h7.059c-0.287,1.535-0.911,2.906-1.872,4.115
		c-0.962,1.209-2.184,2.158-3.666,2.847c-1.482,0.689-3.133,1.034-4.953,1.034c-2.132,0-4.023-0.448-5.674-1.345
		c-1.651-0.897-2.945-2.19-3.88-3.881c-0.936-1.689-1.404-3.666-1.404-5.928c0-2.288,0.461-4.271,1.385-5.948
		c0.922-1.677,2.216-2.964,3.88-3.861c1.664-0.897,3.562-1.346,5.694-1.346c2.158,0,4.056,0.442,5.694,1.326
		c1.638,0.884,2.905,2.125,3.802,3.725c0.897,1.599,1.346,3.438,1.346,5.519C133.999,60.073,133.934,60.671,133.804,61.321z
		 M126.102,55.295c-0.793-0.715-1.775-1.073-2.945-1.073c-1.222,0-2.236,0.364-3.042,1.092c-0.806,0.729-1.261,1.794-1.365,3.198
		h8.502C127.278,57.083,126.894,56.01,126.102,55.295z"/>
	<path d="M165.276,51.278c1.897,1.547,3.094,3.672,3.588,6.376h-7.059c-0.208-0.936-0.637-1.664-1.287-2.184
		c-0.65-0.52-1.469-0.78-2.457-0.78c-1.17,0-2.132,0.461-2.886,1.384c-0.754,0.923-1.131,2.269-1.131,4.037s0.376,3.114,1.131,4.036
		c0.754,0.923,1.716,1.385,2.886,1.385c0.988,0,1.807-0.26,2.457-0.78c0.649-0.52,1.079-1.248,1.287-2.184h7.059
		c-0.494,2.704-1.69,4.83-3.588,6.376c-1.898,1.547-4.251,2.32-7.059,2.32c-2.132,0-4.023-0.448-5.674-1.345
		c-1.651-0.897-2.945-2.19-3.88-3.881c-0.936-1.689-1.404-3.666-1.404-5.928c0-2.288,0.461-4.271,1.385-5.948
		c0.922-1.677,2.216-2.964,3.88-3.861c1.664-0.897,3.562-1.346,5.694-1.346C161.025,48.957,163.378,49.731,165.276,51.278z"/>
	<path d="M194.37,61.321h-15.093c0.078,1.638,0.494,2.814,1.248,3.529c0.753,0.715,1.716,1.073,2.886,1.073
		c0.988,0,1.807-0.247,2.457-0.741c0.65-0.494,1.079-1.131,1.287-1.911h7.059c-0.287,1.535-0.911,2.906-1.872,4.115
		c-0.962,1.209-2.184,2.158-3.666,2.847c-1.482,0.689-3.133,1.034-4.953,1.034c-2.132,0-4.023-0.448-5.674-1.345
		c-1.651-0.897-2.945-2.19-3.88-3.881c-0.936-1.689-1.404-3.666-1.404-5.928c0-2.288,0.461-4.271,1.385-5.948
		c0.922-1.677,2.216-2.964,3.88-3.861c1.664-0.897,3.562-1.346,5.694-1.346c2.158,0,4.056,0.442,5.694,1.326
		c1.638,0.884,2.905,2.125,3.802,3.725c0.897,1.599,1.346,3.438,1.346,5.519C194.566,60.073,194.5,60.671,194.37,61.321z
		 M186.668,55.295c-0.793-0.715-1.775-1.073-2.945-1.073c-1.222,0-2.236,0.364-3.042,1.092c-0.806,0.729-1.261,1.794-1.365,3.198
		h8.502C187.844,57.083,187.461,56.01,186.668,55.295z"/>
	<path d="M206.265,42.133v28.86h-6.669v-28.86H206.265z"/>
	<path d="M232.901,61.321h-15.093c0.078,1.638,0.494,2.814,1.248,3.529c0.753,0.715,1.716,1.073,2.886,1.073
		c0.988,0,1.807-0.247,2.457-0.741c0.65-0.494,1.079-1.131,1.287-1.911h7.059c-0.287,1.535-0.911,2.906-1.872,4.115
		c-0.962,1.209-2.184,2.158-3.666,2.847c-1.482,0.689-3.133,1.034-4.953,1.034c-2.132,0-4.023-0.448-5.674-1.345
		c-1.651-0.897-2.945-2.19-3.88-3.881c-0.936-1.689-1.404-3.666-1.404-5.928c0-2.288,0.461-4.271,1.385-5.948
		c0.922-1.677,2.216-2.964,3.88-3.861c1.664-0.897,3.562-1.346,5.694-1.346c2.158,0,4.056,0.442,5.694,1.326
		c1.638,0.884,2.905,2.125,3.802,3.725c0.897,1.599,1.346,3.438,1.346,5.519C233.096,60.073,233.031,60.671,232.901,61.321z
		 M225.199,55.295c-0.793-0.715-1.775-1.073-2.945-1.073c-1.222,0-2.236,0.364-3.042,1.092c-0.806,0.729-1.261,1.794-1.365,3.198
		h8.502C226.375,57.083,225.991,56.01,225.199,55.295z"/>
	<path d="M256.515,50.303c1.417,0.897,2.535,2.184,3.354,3.861c0.819,1.677,1.229,3.66,1.229,5.948c0,2.262-0.41,4.238-1.229,5.928
		c-0.819,1.69-1.937,2.983-3.354,3.881c-1.417,0.897-3.022,1.345-4.816,1.345c-1.664,0-3.094-0.376-4.29-1.131
		c-1.196-0.754-2.067-1.781-2.613-3.081v3.939h-6.669v-28.86h6.669v11.037c0.546-1.299,1.417-2.326,2.613-3.081
		c1.196-0.754,2.626-1.131,4.29-1.131C253.493,48.957,255.098,49.406,256.515,50.303z M246.102,56.231
		c-0.897,0.95-1.345,2.243-1.345,3.881c0,1.612,0.448,2.899,1.345,3.861c0.897,0.962,2.048,1.443,3.452,1.443
		c1.43,0,2.58-0.468,3.452-1.404c0.871-0.936,1.306-2.236,1.306-3.9c0-1.664-0.436-2.964-1.306-3.9
		c-0.872-0.936-2.022-1.404-3.452-1.404C248.15,54.807,246.999,55.282,246.102,56.231z"/>
	<path d="M276.015,50.166c1.313-0.78,2.736-1.17,4.271-1.17v7.137h-1.911c-1.768,0-3.139,0.377-4.114,1.131
		c-0.975,0.754-1.462,2.028-1.462,3.822v9.906h-6.669V49.23h6.669v4.095C273.629,51.999,274.702,50.947,276.015,50.166z"/>
	<path d="M285.121,40.592c0.728-0.663,1.69-0.995,2.886-0.995s2.158,0.332,2.886,0.995c0.728,0.663,1.092,1.501,1.092,2.516
		c0,0.988-0.364,1.813-1.092,2.476c-0.728,0.663-1.69,0.995-2.886,0.995s-2.158-0.332-2.886-0.995
		c-0.728-0.663-1.092-1.488-1.092-2.476C284.029,42.094,284.393,41.255,285.121,40.592z M291.323,49.23v21.762h-6.669V49.23H291.323
		z"/>
	<path d="M309.808,65.26v5.733h-3.003c-2.549,0-4.531-0.63-5.947-1.892c-1.417-1.261-2.126-3.347-2.126-6.259v-7.995h-2.925V49.23
		h2.925v-5.343h6.669v5.343h4.368v5.616h-4.368v8.112c0,0.858,0.176,1.457,0.527,1.794c0.351,0.338,0.941,0.507,1.773,0.507H309.808
		z"/>
	<path d="M315.579,40.592c0.728-0.663,1.69-0.995,2.886-0.995s2.158,0.332,2.887,0.995c0.727,0.663,1.092,1.501,1.092,2.516
		c0,0.988-0.365,1.813-1.092,2.476c-0.729,0.663-1.691,0.995-2.887,0.995s-2.158-0.332-2.886-0.995
		c-0.728-0.663-1.093-1.488-1.093-2.476C314.487,42.094,314.852,41.255,315.579,40.592z M321.781,49.23v21.762h-6.669V49.23H321.781
		z"/>
	<path d="M348.416,61.321h-15.092c0.078,1.638,0.493,2.814,1.248,3.529c0.753,0.715,1.715,1.073,2.885,1.073
		c0.988,0,1.808-0.247,2.457-0.741c0.65-0.494,1.079-1.131,1.287-1.911h7.06c-0.286,1.535-0.911,2.906-1.872,4.115
		c-0.963,1.209-2.184,2.158-3.666,2.847c-1.482,0.689-3.133,1.034-4.953,1.034c-2.133,0-4.023-0.448-5.674-1.345
		c-1.652-0.897-2.945-2.19-3.881-3.881c-0.936-1.689-1.404-3.666-1.404-5.928c0-2.288,0.461-4.271,1.385-5.948
		c0.922-1.677,2.217-2.964,3.881-3.861c1.663-0.897,3.561-1.346,5.693-1.346c2.158,0,4.057,0.442,5.694,1.326
		c1.638,0.884,2.905,2.125,3.802,3.725c0.897,1.599,1.346,3.438,1.346,5.519C348.612,60.073,348.547,60.671,348.416,61.321z
		 M340.715,55.295c-0.794-0.715-1.775-1.073-2.945-1.073c-1.223,0-2.236,0.364-3.042,1.092c-0.806,0.729-1.261,1.794-1.364,3.198
		h8.502C341.891,57.083,341.507,56.01,340.715,55.295z"/>
	<path d="M368.17,51.025c1.65,1.378,2.684,3.198,3.101,5.46h-6.24c-0.183-0.884-0.592-1.58-1.229-2.087
		c-0.638-0.507-1.437-0.76-2.398-0.76c-0.755,0-1.326,0.163-1.716,0.487c-0.391,0.326-0.585,0.787-0.585,1.385
		c0,0.676,0.356,1.183,1.072,1.521c0.715,0.338,1.839,0.676,3.374,1.014c1.663,0.39,3.027,0.787,4.094,1.19
		c1.066,0.403,1.99,1.06,2.77,1.969c0.78,0.911,1.17,2.132,1.17,3.666c0,1.248-0.338,2.354-1.014,3.315
		c-0.676,0.962-1.651,1.716-2.926,2.262c-1.273,0.546-2.781,0.819-4.523,0.819c-2.938,0-5.291-0.649-7.059-1.95
		c-1.769-1.3-2.848-3.159-3.237-5.577h6.435c0.104,0.936,0.501,1.651,1.189,2.145c0.689,0.494,1.58,0.741,2.672,0.741
		c0.754,0,1.326-0.175,1.717-0.526c0.389-0.351,0.584-0.813,0.584-1.384c0-0.754-0.357-1.293-1.072-1.619
		c-0.715-0.325-1.879-0.669-3.49-1.034c-1.612-0.337-2.938-0.702-3.979-1.092s-1.938-1.02-2.69-1.892
		c-0.755-0.871-1.132-2.06-1.132-3.568c0-1.95,0.742-3.53,2.224-4.739s3.575-1.813,6.278-1.813
		C364.315,48.957,366.519,49.647,368.17,51.025z"/>
	<path d="M382.19,42.757c0,1.794-0.461,3.231-1.385,4.31c-0.922,1.079-2.268,1.618-4.035,1.618v-2.496
		c1.352,0,2.027-0.871,2.027-2.613v-0.624h-2.457v-4.797h5.109C381.943,39.636,382.19,41.171,382.19,42.757z"/>
	<path d="M403.834,42.133v28.86h-6.668v-28.86H403.834z"/>
	<path d="M422.555,50.089c1.195,0.754,2.079,1.781,2.651,3.081V49.23h6.63v21.762h-6.63v-3.939c-0.572,1.3-1.456,2.327-2.651,3.081
		c-1.196,0.754-2.627,1.131-4.29,1.131c-1.794,0-3.4-0.448-4.816-1.345c-1.418-0.897-2.535-2.19-3.354-3.881
		c-0.819-1.689-1.229-3.666-1.229-5.928c0-2.288,0.409-4.271,1.229-5.948c0.819-1.677,1.937-2.964,3.354-3.861
		c1.416-0.897,3.022-1.346,4.816-1.346C419.928,48.957,421.359,49.335,422.555,50.089z M416.958,56.212
		c-0.872,0.936-1.307,2.236-1.307,3.9c0,1.664,0.435,2.964,1.307,3.9c0.87,0.936,2.021,1.404,3.451,1.404
		c1.404,0,2.555-0.48,3.451-1.443c0.897-0.961,1.346-2.249,1.346-3.861c0-1.638-0.448-2.931-1.346-3.881
		c-0.896-0.949-2.047-1.423-3.451-1.423C418.98,54.807,417.828,55.276,416.958,56.212z"/>
	<path d="M452.526,51.025c1.651,1.378,2.685,3.198,3.101,5.46h-6.239c-0.183-0.884-0.592-1.58-1.229-2.087
		c-0.638-0.507-1.438-0.76-2.399-0.76c-0.754,0-1.325,0.163-1.716,0.487c-0.39,0.326-0.585,0.787-0.585,1.385
		c0,0.676,0.357,1.183,1.073,1.521c0.714,0.338,1.839,0.676,3.373,1.014c1.663,0.39,3.028,0.787,4.095,1.19
		c1.066,0.403,1.989,1.06,2.77,1.969c0.779,0.911,1.17,2.132,1.17,3.666c0,1.248-0.339,2.354-1.015,3.315
		c-0.676,0.962-1.651,1.716-2.925,2.262c-1.274,0.546-2.782,0.819-4.523,0.819c-2.938,0-5.292-0.649-7.06-1.95
		c-1.769-1.3-2.847-3.159-3.236-5.577h6.435c0.104,0.936,0.5,1.651,1.189,2.145c0.688,0.494,1.579,0.741,2.672,0.741
		c0.754,0,1.325-0.175,1.716-0.526c0.39-0.351,0.585-0.813,0.585-1.384c0-0.754-0.357-1.293-1.072-1.619
		c-0.716-0.325-1.879-0.669-3.491-1.034c-1.612-0.337-2.938-0.702-3.978-1.092c-1.04-0.39-1.938-1.02-2.691-1.892
		c-0.754-0.871-1.131-2.06-1.131-3.568c0-1.95,0.741-3.53,2.224-4.739c1.481-1.209,3.574-1.813,6.278-1.813
		C448.671,48.957,450.874,49.647,452.526,51.025z"/>
	<path d="M473.527,65.26v5.733h-3.003c-2.549,0-4.531-0.63-5.947-1.892c-1.418-1.261-2.126-3.347-2.126-6.259v-7.995h-2.925V49.23
		h2.925v-5.343h6.669v5.343h4.368v5.616h-4.368v8.112c0,0.858,0.176,1.457,0.526,1.794c0.352,0.338,0.942,0.507,1.774,0.507H473.527
		z"/>
	<path d="M507.944,51.492c1.469,1.664,2.203,3.953,2.203,6.864v12.636h-6.669V59.136c0-1.456-0.384-2.594-1.15-3.413
		c-0.768-0.819-1.788-1.229-3.062-1.229c-1.353,0-2.425,0.429-3.218,1.287s-1.189,2.081-1.189,3.666v11.544h-6.669V49.23h6.669
		v3.978c0.624-1.3,1.554-2.326,2.789-3.081c1.234-0.753,2.684-1.131,4.349-1.131C504.491,48.996,506.474,49.829,507.944,51.492z"/>
	<path d="M528.672,50.089c1.195,0.754,2.079,1.781,2.651,3.081V49.23h6.63v21.762h-6.63v-3.939c-0.572,1.3-1.456,2.327-2.651,3.081
		c-1.196,0.754-2.627,1.131-4.29,1.131c-1.794,0-3.4-0.448-4.816-1.345c-1.418-0.897-2.535-2.19-3.354-3.881
		c-0.819-1.689-1.229-3.666-1.229-5.928c0-2.288,0.409-4.271,1.229-5.948c0.819-1.677,1.937-2.964,3.354-3.861
		c1.416-0.897,3.022-1.346,4.816-1.346C526.045,48.957,527.476,49.335,528.672,50.089z M523.075,56.212
		c-0.872,0.936-1.307,2.236-1.307,3.9c0,1.664,0.435,2.964,1.307,3.9c0.87,0.936,2.021,1.404,3.451,1.404
		c1.404,0,2.555-0.48,3.451-1.443c0.897-0.961,1.346-2.249,1.346-3.861c0-1.638-0.448-2.931-1.346-3.881
		c-0.896-0.949-2.047-1.423-3.451-1.423C525.097,54.807,523.946,55.276,523.075,56.212z"/>
	<path d="M578.631,51.473c1.533,1.651,2.301,3.946,2.301,6.883v12.636h-6.63V59.136c0-1.378-0.371-2.45-1.111-3.218
		c-0.741-0.767-1.749-1.15-3.023-1.15c-1.325,0-2.372,0.41-3.139,1.229c-0.768,0.819-1.15,1.97-1.15,3.452v11.544h-6.67V59.136
		c0-1.378-0.364-2.45-1.092-3.218c-0.728-0.767-1.729-1.15-3.003-1.15c-1.326,0-2.379,0.403-3.159,1.209
		c-0.779,0.806-1.17,1.963-1.17,3.471v11.544h-6.669V49.23h6.669v3.705c0.572-1.222,1.449-2.184,2.633-2.886
		c1.183-0.702,2.567-1.053,4.153-1.053c1.664,0,3.133,0.384,4.407,1.15c1.273,0.768,2.235,1.866,2.886,3.296
		c0.754-1.352,1.787-2.431,3.101-3.237c1.313-0.806,2.763-1.209,4.349-1.209C574.99,48.996,577.096,49.822,578.631,51.473z"/>
	<path d="M607.413,61.321H592.32c0.078,1.638,0.494,2.814,1.248,3.529c0.754,0.715,1.717,1.073,2.887,1.073
		c0.987,0,1.807-0.247,2.457-0.741c0.649-0.494,1.078-1.131,1.286-1.911h7.06c-0.286,1.535-0.91,2.906-1.872,4.115
		s-2.184,2.158-3.666,2.847c-1.482,0.689-3.134,1.034-4.953,1.034c-2.132,0-4.023-0.448-5.675-1.345
		c-1.651-0.897-2.944-2.19-3.88-3.881c-0.937-1.689-1.404-3.666-1.404-5.928c0-2.288,0.461-4.271,1.385-5.948
		c0.923-1.677,2.216-2.964,3.88-3.861s3.563-1.346,5.694-1.346c2.158,0,4.056,0.442,5.694,1.326
		c1.638,0.884,2.905,2.125,3.803,3.725c0.896,1.599,1.345,3.438,1.345,5.519C607.608,60.073,607.543,60.671,607.413,61.321z
		 M599.71,55.295c-0.793-0.715-1.774-1.073-2.944-1.073c-1.223,0-2.236,0.364-3.042,1.092c-0.806,0.729-1.262,1.794-1.365,3.198
		h8.502C600.887,57.083,600.503,56.01,599.71,55.295z"/>
	<path d="M627.165,51.025c1.651,1.378,2.685,3.198,3.101,5.46h-6.239c-0.183-0.884-0.592-1.58-1.229-2.087
		c-0.638-0.507-1.438-0.76-2.399-0.76c-0.754,0-1.325,0.163-1.716,0.487c-0.39,0.326-0.585,0.787-0.585,1.385
		c0,0.676,0.357,1.183,1.073,1.521c0.714,0.338,1.839,0.676,3.373,1.014c1.663,0.39,3.028,0.787,4.095,1.19
		c1.066,0.403,1.989,1.06,2.77,1.969c0.779,0.911,1.17,2.132,1.17,3.666c0,1.248-0.339,2.354-1.015,3.315
		c-0.676,0.962-1.651,1.716-2.925,2.262c-1.274,0.546-2.782,0.819-4.523,0.819c-2.938,0-5.292-0.649-7.06-1.95
		c-1.769-1.3-2.847-3.159-3.236-5.577h6.435c0.104,0.936,0.5,1.651,1.189,2.145c0.688,0.494,1.579,0.741,2.672,0.741
		c0.754,0,1.325-0.175,1.716-0.526c0.39-0.351,0.585-0.813,0.585-1.384c0-0.754-0.357-1.293-1.072-1.619
		c-0.716-0.325-1.879-0.669-3.491-1.034c-1.612-0.337-2.938-0.702-3.978-1.092c-1.04-0.39-1.938-1.02-2.691-1.892
		c-0.754-0.871-1.131-2.06-1.131-3.568c0-1.95,0.741-3.53,2.224-4.739c1.481-1.209,3.574-1.813,6.278-1.813
		C623.311,48.957,625.514,49.647,627.165,51.025z"/>
	<path fill="#0055FE" d="M117.306,113.619h-9.204l-1.365,4.174H97.65l10.101-27.612h9.984l10.062,27.612h-9.126L117.306,113.619z
		 M115.2,107.107l-2.496-7.683l-2.496,7.683H115.2z"/>
	<path fill="#0055FE" d="M145.191,117.793l-5.226-9.906v9.906h-8.658V90.181h12.87c2.236,0,4.147,0.396,5.733,1.189
		c1.585,0.794,2.775,1.872,3.568,3.237c0.792,1.365,1.189,2.905,1.189,4.621c0,1.846-0.514,3.484-1.541,4.914
		c-1.027,1.43-2.503,2.457-4.426,3.081l6.006,10.569H145.191z M139.965,102.115h3.432c0.832,0,1.456-0.188,1.872-0.565
		c0.416-0.377,0.624-0.969,0.624-1.774c0-0.728-0.215-1.3-0.644-1.716c-0.429-0.416-1.047-0.624-1.853-0.624h-3.432V102.115z"/>
	<path fill="#0055FE" d="M192.186,90.181v27.612h-8.619v-13.768l-4.251,13.768h-7.41l-4.251-13.768v13.768h-8.658V90.181h10.608
		l6.084,16.575l5.928-16.575H192.186z"/>
	<path fill="#0055FE" d="M215.351,113.619h-9.204l-1.365,4.174h-9.087l10.101-27.612h9.984l10.062,27.612h-9.126L215.351,113.619z
		 M213.245,107.107l-2.496-7.683l-2.496,7.683H213.245z"/>
	<path fill="#0055FE" d="M255.833,117.793h-8.658l-9.165-13.885v13.885h-8.658V90.181h8.658l9.165,14.118V90.181h8.658V117.793z"/>
	<path fill="#0055FE" d="M269.951,90.181v27.612h-8.658V90.181H269.951z"/>
	<path fill="#0055FE" d="M316.789,90.181v27.612h-8.619v-13.768l-4.25,13.768h-7.411l-4.251-13.768v13.768h-8.658V90.181h10.608
		l6.084,16.575l5.928-16.575H316.789z"/>
	<path fill="#0055FE" d="M330.712,90.181v15.562c0,1.273,0.278,2.281,0.839,3.021c0.559,0.741,1.462,1.111,2.71,1.111
		s2.171-0.37,2.769-1.111c0.598-0.74,0.897-1.748,0.897-3.021V90.181h8.619v15.562c0,2.625-0.546,4.868-1.638,6.727
		c-1.092,1.859-2.588,3.257-4.485,4.193c-1.898,0.936-4.017,1.403-6.356,1.403c-2.341,0-4.414-0.468-6.221-1.403
		c-1.808-0.937-3.218-2.327-4.232-4.174c-1.014-1.846-1.521-4.095-1.521-6.746V90.181H330.712z"/>
	<path fill="#0055FE" d="M365.734,117.793l-5.226-9.906v9.906h-8.658V90.181h12.869c2.236,0,4.147,0.396,5.734,1.189
		c1.585,0.794,2.774,1.872,3.568,3.237c0.792,1.365,1.189,2.905,1.189,4.621c0,1.846-0.514,3.484-1.541,4.914
		s-2.503,2.457-4.426,3.081l6.006,10.569H365.734z M360.508,102.115h3.432c0.832,0,1.455-0.188,1.872-0.565
		c0.415-0.377,0.624-0.969,0.624-1.774c0-0.728-0.215-1.3-0.644-1.716s-1.047-0.624-1.853-0.624h-3.432V102.115z"/>
	<path fill="#0055FE" d="M403.641,111.006c-1.17,2.106-2.84,3.764-5.011,4.973s-4.7,1.814-7.585,1.814h-11.506V90.181h11.506
		c2.885,0,5.414,0.585,7.585,1.755s3.841,2.795,5.011,4.875s1.756,4.445,1.756,7.098
		C405.397,106.535,404.811,108.901,403.641,111.006z M394.906,108.472c1.144-1.065,1.716-2.587,1.716-4.563
		c0-1.975-0.572-3.496-1.716-4.563c-1.145-1.066-2.69-1.6-4.642-1.6h-2.066v12.324h2.066
		C392.215,110.071,393.761,109.538,394.906,108.472z"/>
	<path fill="#0055FE" d="M430.668,91.526c2.158,1.209,3.867,2.893,5.129,5.051c1.261,2.158,1.891,4.59,1.891,7.293
		c0,2.705-0.63,5.136-1.891,7.293c-1.262,2.158-2.978,3.849-5.148,5.07c-2.171,1.223-4.544,1.833-7.117,1.833
		c-2.601,0-4.986-0.61-7.157-1.833c-2.171-1.222-3.894-2.912-5.167-5.07c-1.274-2.157-1.911-4.588-1.911-7.293
		c0-2.703,0.637-5.135,1.911-7.293c1.273-2.158,2.996-3.842,5.167-5.051s4.557-1.813,7.157-1.813
		C426.131,89.713,428.51,90.317,430.668,91.526z M419.514,99.365c-0.936,1.105-1.403,2.606-1.403,4.504
		c0,1.873,0.468,3.361,1.403,4.466c0.937,1.105,2.275,1.657,4.018,1.657c1.716,0,3.042-0.552,3.978-1.657
		c0.937-1.104,1.404-2.593,1.404-4.466c0-1.897-0.468-3.398-1.404-4.504c-0.936-1.105-2.262-1.658-3.978-1.658
		C421.789,97.707,420.45,98.26,419.514,99.365z"/>
	<path fill="#0055FE" d="M461.654,91.253c1.885,0.897,3.419,2.165,4.603,3.803c1.183,1.638,1.969,3.549,2.359,5.733h-9.126
		c-0.416-0.91-1.008-1.619-1.774-2.126c-0.768-0.507-1.646-0.761-2.633-0.761c-1.456,0-2.607,0.546-3.451,1.639
		c-0.846,1.092-1.268,2.561-1.268,4.406c0,1.847,0.422,3.315,1.268,4.407c0.844,1.092,1.995,1.638,3.451,1.638
		c0.987,0,1.865-0.254,2.633-0.76c0.767-0.508,1.358-1.215,1.774-2.126h9.126c-0.391,2.185-1.177,4.095-2.359,5.733
		c-1.184,1.638-2.718,2.905-4.603,3.803c-1.886,0.896-4.023,1.345-6.415,1.345c-2.783,0-5.201-0.591-7.254-1.774
		c-2.055-1.183-3.634-2.84-4.739-4.973c-1.105-2.131-1.657-4.563-1.657-7.293s0.552-5.16,1.657-7.293
		c1.105-2.131,2.685-3.789,4.739-4.973c2.053-1.183,4.471-1.774,7.254-1.774C457.63,89.908,459.768,90.356,461.654,91.253z"/>
	<path fill="#0055FE" d="M498.84,90.181v27.612h-8.658v-10.765h-8.229v10.765h-8.658V90.181h8.658v9.944h8.229v-9.944H498.84z"/>
	<path d="M-27.537,158.86v5.732h-3.003c-2.548,0-4.531-0.629-5.948-1.891s-2.125-3.348-2.125-6.26v-7.995h-2.925v-5.616h2.925
		v-5.343h6.669v5.343h4.368v5.616h-4.368v8.112c0,0.857,0.176,1.456,0.527,1.793c0.351,0.339,0.942,0.508,1.774,0.508H-27.537z"/>
	<path d="M-6.263,143.903c1.703,0.897,3.042,2.191,4.017,3.881c0.975,1.69,1.462,3.666,1.462,5.928s-0.487,4.238-1.462,5.928
		c-0.975,1.691-2.314,2.984-4.017,3.881c-1.703,0.897-3.634,1.346-5.792,1.346c-2.158,0-4.095-0.448-5.811-1.346
		c-1.716-0.896-3.062-2.189-4.037-3.881c-0.975-1.689-1.462-3.666-1.462-5.928s0.488-4.237,1.462-5.928
		c0.975-1.689,2.321-2.983,4.037-3.881c1.716-0.896,3.653-1.346,5.811-1.346C-9.897,142.557-7.967,143.006-6.263,143.903z
		 M-15.272,149.714c-0.872,0.923-1.307,2.256-1.307,3.997c0,1.742,0.435,3.068,1.307,3.979c0.871,0.91,1.943,1.365,3.217,1.365
		c1.273,0,2.34-0.455,3.198-1.365c0.858-0.91,1.287-2.236,1.287-3.979c0-1.741-0.429-3.074-1.287-3.997
		c-0.858-0.923-1.925-1.385-3.198-1.385C-13.329,148.329-14.402,148.791-15.272,149.714z"/>
	<path d="M24.293,139.866c-1.092,0-1.885,0.233-2.379,0.702c-0.494,0.468-0.767,1.223-0.819,2.262h3.939v5.616h-3.939v16.146h-6.669
		v-16.146h-2.613v-5.616h2.613v-0.234c0-2.703,0.786-4.789,2.359-6.259c1.573-1.469,3.854-2.204,6.845-2.204
		c0.624,0,1.092,0.014,1.404,0.039v5.733L24.293,139.866z"/>
	<path d="M29.987,134.192c0.728-0.662,1.69-0.994,2.886-0.994s2.158,0.332,2.886,0.994c0.728,0.664,1.092,1.502,1.092,2.516
		c0,0.988-0.364,1.814-1.092,2.477c-0.728,0.663-1.69,0.994-2.886,0.994s-2.158-0.331-2.886-0.994
		c-0.728-0.662-1.092-1.488-1.092-2.477C28.894,135.694,29.259,134.856,29.987,134.192z M36.188,142.83v21.762h-6.669V142.83H36.188
		z"/>
	<path d="M62.103,145.092c1.468,1.664,2.203,3.953,2.203,6.864v12.636h-6.669v-11.855c0-1.456-0.384-2.594-1.15-3.412
		c-0.767-0.819-1.788-1.229-3.062-1.229c-1.352,0-2.425,0.429-3.217,1.287c-0.793,0.857-1.189,2.08-1.189,3.666v11.543h-6.669
		V142.83h6.669v3.979c0.624-1.301,1.553-2.326,2.788-3.082c1.235-0.753,2.685-1.131,4.349-1.131
		C58.651,142.596,60.634,143.429,62.103,145.092z"/>
	<path d="M82.831,143.689c1.196,0.755,2.067,1.781,2.613,3.081v-11.037h6.669v28.859h-6.669v-3.938
		c-0.546,1.3-1.417,2.327-2.613,3.081c-1.196,0.754-2.626,1.131-4.29,1.131c-1.794,0-3.399-0.448-4.816-1.346
		c-1.417-0.896-2.535-2.189-3.354-3.881c-0.819-1.689-1.229-3.666-1.229-5.928c0-2.287,0.41-4.27,1.229-5.947
		c0.819-1.677,1.937-2.964,3.354-3.861c1.417-0.896,3.022-1.346,4.816-1.346C80.204,142.557,81.635,142.935,82.831,143.689z
		 M77.235,149.812c-0.872,0.936-1.307,2.236-1.307,3.899c0,1.664,0.435,2.965,1.307,3.9c0.871,0.936,2.021,1.404,3.451,1.404
		c1.404,0,2.555-0.48,3.452-1.443c0.897-0.961,1.346-2.248,1.346-3.861c0-1.638-0.449-2.931-1.346-3.881
		c-0.897-0.948-2.047-1.423-3.452-1.423C79.256,148.407,78.105,148.875,77.235,149.812z"/>
	<path d="M119.958,158.86v5.732h-3.003c-2.548,0-4.531-0.629-5.948-1.891s-2.125-3.348-2.125-6.26v-7.995h-2.925v-5.616h2.925
		v-5.343h6.669v5.343h4.368v5.616h-4.368v8.112c0,0.857,0.176,1.456,0.527,1.793c0.351,0.339,0.942,0.508,1.774,0.508H119.958z"/>
	<path d="M157.086,142.83l-5.577,21.762h-7.449l-3.939-14.586l-3.978,14.586h-7.449l-5.577-21.762h6.669l2.886,15.678l4.056-15.678
		h7.098l4.173,15.717l2.886-15.717H157.086z"/>
	<path d="M177.034,143.903c1.703,0.897,3.042,2.191,4.017,3.881c0.975,1.69,1.462,3.666,1.462,5.928s-0.487,4.238-1.462,5.928
		c-0.975,1.691-2.314,2.984-4.017,3.881c-1.703,0.897-3.634,1.346-5.792,1.346c-2.158,0-4.095-0.448-5.811-1.346
		c-1.716-0.896-3.062-2.189-4.037-3.881c-0.975-1.689-1.462-3.666-1.462-5.928s0.488-4.237,1.462-5.928
		c0.975-1.689,2.321-2.983,4.037-3.881c1.716-0.896,3.653-1.346,5.811-1.346C173.4,142.557,175.331,143.006,177.034,143.903z
		 M168.025,149.714c-0.872,0.923-1.307,2.256-1.307,3.997c0,1.742,0.435,3.068,1.307,3.979c0.871,0.91,1.943,1.365,3.217,1.365
		c1.273,0,2.34-0.455,3.198-1.365c0.858-0.91,1.287-2.236,1.287-3.979c0-1.741-0.429-3.074-1.287-3.997
		c-0.858-0.923-1.925-1.385-3.198-1.385C169.968,148.329,168.896,148.791,168.025,149.714z"/>
	<path d="M231.419,145.073c1.534,1.652,2.301,3.946,2.301,6.884v12.636h-6.63v-11.855c0-1.378-0.37-2.45-1.111-3.218
		c-0.741-0.767-1.749-1.15-3.022-1.15c-1.326,0-2.373,0.409-3.14,1.229c-0.767,0.819-1.15,1.97-1.15,3.452v11.543h-6.669v-11.855
		c0-1.378-0.364-2.45-1.092-3.218c-0.728-0.767-1.729-1.15-3.003-1.15c-1.326,0-2.379,0.403-3.159,1.209
		c-0.78,0.806-1.17,1.964-1.17,3.472v11.543h-6.669V142.83h6.669v3.705c0.571-1.222,1.449-2.184,2.632-2.886
		c1.183-0.702,2.567-1.054,4.153-1.054c1.664,0,3.133,0.385,4.407,1.15c1.273,0.768,2.236,1.867,2.886,3.297
		c0.754-1.352,1.788-2.432,3.101-3.238c1.313-0.805,2.762-1.209,4.349-1.209C227.779,142.596,229.885,143.422,231.419,145.073z"/>
	<path d="M261.371,142.83v21.762h-6.708v-3.938c-0.624,1.274-1.554,2.288-2.788,3.042c-1.235,0.754-2.672,1.131-4.31,1.131
		c-2.496,0-4.479-0.832-5.948-2.496c-1.469-1.664-2.204-3.951-2.204-6.863V142.83h6.63v11.817c0,1.481,0.383,2.632,1.15,3.451
		c0.767,0.819,1.8,1.229,3.101,1.229c1.352,0,2.418-0.429,3.198-1.286c0.78-0.859,1.17-2.08,1.17-3.666V142.83H261.371z"/>
	<path d="M282.06,144.625c1.651,1.378,2.684,3.197,3.101,5.459h-6.24c-0.182-0.883-0.592-1.579-1.229-2.086
		c-0.637-0.508-1.437-0.761-2.398-0.761c-0.754,0-1.326,0.163-1.716,0.487c-0.39,0.326-0.585,0.787-0.585,1.385
		c0,0.676,0.357,1.184,1.072,1.521c0.715,0.338,1.839,0.676,3.374,1.014c1.664,0.39,3.028,0.787,4.095,1.189
		c1.066,0.403,1.989,1.06,2.769,1.969c0.78,0.911,1.17,2.133,1.17,3.666c0,1.248-0.338,2.354-1.014,3.315
		c-0.676,0.962-1.651,1.716-2.925,2.263c-1.274,0.545-2.782,0.818-4.524,0.818c-2.938,0-5.291-0.649-7.059-1.949
		c-1.769-1.301-2.847-3.16-3.237-5.578h6.435c0.104,0.937,0.5,1.652,1.189,2.146c0.688,0.494,1.58,0.741,2.671,0.741
		c0.754,0,1.326-0.176,1.716-0.527c0.39-0.351,0.585-0.813,0.585-1.384c0-0.754-0.358-1.294-1.073-1.618
		c-0.715-0.325-1.878-0.67-3.49-1.034c-1.612-0.337-2.938-0.702-3.978-1.092c-1.041-0.39-1.938-1.021-2.691-1.892
		c-0.754-0.871-1.131-2.061-1.131-3.568c0-1.95,0.741-3.529,2.223-4.738s3.575-1.814,6.279-1.814
		C278.205,142.557,280.409,143.246,282.06,144.625z"/>
	<path d="M291.205,134.192c0.728-0.662,1.69-0.994,2.886-0.994s2.158,0.332,2.886,0.994c0.728,0.664,1.092,1.502,1.092,2.516
		c0,0.988-0.364,1.814-1.092,2.477c-0.728,0.663-1.69,0.994-2.886,0.994s-2.158-0.331-2.886-0.994
		c-0.728-0.662-1.092-1.488-1.092-2.477C290.113,135.694,290.477,134.856,291.205,134.192z M297.406,142.83v21.762h-6.669V142.83
		H297.406z"/>
	<path d="M320.455,144.878c1.896,1.547,3.094,3.673,3.588,6.376h-7.06c-0.208-0.936-0.638-1.663-1.286-2.184
		c-0.65-0.52-1.47-0.779-2.457-0.779c-1.17,0-2.133,0.461-2.887,1.384s-1.131,2.269-1.131,4.036c0,1.769,0.377,3.114,1.131,4.037
		s1.717,1.385,2.887,1.385c0.987,0,1.807-0.26,2.457-0.781c0.648-0.52,1.078-1.247,1.286-2.184h7.06
		c-0.494,2.705-1.691,4.83-3.588,6.377c-1.898,1.547-4.252,2.32-7.06,2.32c-2.132,0-4.023-0.448-5.675-1.346
		c-1.65-0.896-2.944-2.189-3.88-3.881c-0.937-1.689-1.404-3.666-1.404-5.928c0-2.287,0.462-4.27,1.385-5.947
		c0.923-1.677,2.216-2.964,3.88-3.861c1.664-0.896,3.563-1.346,5.694-1.346C316.203,142.557,318.557,143.331,320.455,144.878z"/>
	<path d="M341.631,143.689c1.196,0.755,2.08,1.781,2.652,3.081v-3.939h6.631v21.762h-6.631v-3.938
		c-0.572,1.3-1.456,2.327-2.652,3.081c-1.195,0.754-2.626,1.131-4.289,1.131c-1.795,0-3.4-0.448-4.816-1.346
		c-1.418-0.896-2.535-2.189-3.354-3.881c-0.819-1.689-1.229-3.666-1.229-5.928c0-2.287,0.409-4.27,1.229-5.947
		c0.819-1.677,1.937-2.964,3.354-3.861c1.416-0.896,3.021-1.346,4.816-1.346C339.005,142.557,340.436,142.935,341.631,143.689z
		 M336.035,149.812c-0.871,0.936-1.307,2.236-1.307,3.899c0,1.664,0.436,2.965,1.307,3.9s2.021,1.404,3.451,1.404
		c1.404,0,2.555-0.48,3.451-1.443c0.897-0.961,1.346-2.248,1.346-3.861c0-1.638-0.448-2.931-1.346-3.881
		c-0.896-0.948-2.047-1.423-3.451-1.423C338.057,148.407,336.906,148.875,336.035,149.812z"/>
	<path d="M363.744,135.733v28.859h-6.669v-28.859H363.744z"/>
	<path d="M379.735,134.192c0.727-0.662,1.689-0.994,2.885-0.994c1.196,0,2.158,0.332,2.887,0.994
		c0.728,0.664,1.092,1.502,1.092,2.516c0,0.988-0.364,1.814-1.092,2.477c-0.729,0.663-1.69,0.994-2.887,0.994
		c-1.195,0-2.158-0.331-2.885-0.994c-0.729-0.662-1.093-1.488-1.093-2.477C378.642,135.694,379.006,134.856,379.735,134.192z
		 M385.936,142.83v21.762h-6.67V142.83H385.936z"/>
	<path d="M411.85,145.092c1.469,1.664,2.203,3.953,2.203,6.864v12.636h-6.669v-11.855c0-1.456-0.384-2.594-1.15-3.412
		c-0.768-0.819-1.788-1.229-3.062-1.229c-1.353,0-2.425,0.429-3.217,1.287c-0.794,0.857-1.189,2.08-1.189,3.666v11.543h-6.67V142.83
		h6.67v3.979c0.623-1.301,1.553-2.326,2.788-3.082c1.234-0.753,2.684-1.131,4.349-1.131
		C408.398,142.596,410.38,143.429,411.85,145.092z"/>
	<path d="M434.547,144.625c1.651,1.378,2.685,3.197,3.101,5.459h-6.239c-0.183-0.883-0.592-1.579-1.229-2.086
		c-0.638-0.508-1.438-0.761-2.399-0.761c-0.754,0-1.325,0.163-1.716,0.487c-0.39,0.326-0.585,0.787-0.585,1.385
		c0,0.676,0.357,1.184,1.073,1.521c0.714,0.338,1.839,0.676,3.373,1.014c1.663,0.39,3.028,0.787,4.095,1.189
		c1.066,0.403,1.989,1.06,2.77,1.969c0.779,0.911,1.17,2.133,1.17,3.666c0,1.248-0.339,2.354-1.015,3.315s-1.651,1.716-2.925,2.263
		c-1.274,0.545-2.782,0.818-4.523,0.818c-2.938,0-5.292-0.649-7.06-1.949c-1.769-1.301-2.847-3.16-3.236-5.578h6.435
		c0.104,0.937,0.5,1.652,1.189,2.146c0.688,0.494,1.579,0.741,2.672,0.741c0.754,0,1.325-0.176,1.716-0.527
		c0.39-0.351,0.585-0.813,0.585-1.384c0-0.754-0.357-1.294-1.072-1.618c-0.716-0.325-1.879-0.67-3.491-1.034
		c-1.612-0.337-2.938-0.702-3.978-1.092c-1.04-0.39-1.938-1.021-2.691-1.892s-1.131-2.061-1.131-3.568
		c0-1.95,0.741-3.529,2.224-4.738c1.481-1.209,3.574-1.814,6.278-1.814C430.693,142.557,432.896,143.246,434.547,144.625z"/>
	<path d="M455.549,158.86v5.732h-3.003c-2.549,0-4.531-0.629-5.947-1.891c-1.418-1.262-2.126-3.348-2.126-6.26v-7.995h-2.925v-5.616
		h2.925v-5.343h6.669v5.343h4.368v5.616h-4.368v8.112c0,0.857,0.176,1.456,0.526,1.793c0.352,0.339,0.942,0.508,1.774,0.508H455.549
		z"/>
	<path d="M470.739,143.766c1.313-0.779,2.736-1.17,4.271-1.17v7.138h-1.911c-1.769,0-3.14,0.377-4.114,1.131
		c-0.976,0.755-1.463,2.028-1.463,3.822v9.905h-6.669V142.83h6.669v4.096C468.353,145.6,469.425,144.547,470.739,143.766z"/>
	<path d="M501.023,142.83v21.762h-6.708v-3.938c-0.624,1.274-1.554,2.288-2.789,3.042s-2.671,1.131-4.31,1.131
		c-2.496,0-4.479-0.832-5.947-2.496s-2.203-3.951-2.203-6.863V142.83h6.63v11.817c0,1.481,0.383,2.632,1.15,3.451
		c0.767,0.819,1.8,1.229,3.101,1.229c1.352,0,2.418-0.429,3.198-1.286c0.779-0.859,1.17-2.08,1.17-3.666V142.83H501.023z"/>
	<path d="M541.699,145.073c1.533,1.652,2.301,3.946,2.301,6.884v12.636h-6.63v-11.855c0-1.378-0.371-2.45-1.111-3.218
		c-0.741-0.767-1.749-1.15-3.023-1.15c-1.325,0-2.372,0.409-3.139,1.229c-0.768,0.819-1.15,1.97-1.15,3.452v11.543h-6.67v-11.855
		c0-1.378-0.364-2.45-1.092-3.218c-0.728-0.767-1.729-1.15-3.003-1.15c-1.326,0-2.379,0.403-3.159,1.209
		c-0.779,0.806-1.17,1.964-1.17,3.472v11.543h-6.669V142.83h6.669v3.705c0.572-1.222,1.449-2.184,2.633-2.886
		c1.183-0.702,2.567-1.054,4.153-1.054c1.664,0,3.133,0.385,4.407,1.15c1.273,0.768,2.235,1.867,2.886,3.297
		c0.754-1.352,1.787-2.432,3.101-3.238c1.313-0.805,2.763-1.209,4.349-1.209C538.059,142.596,540.164,143.422,541.699,145.073z"/>
	<path d="M570.481,154.92h-15.094c0.078,1.639,0.494,2.814,1.248,3.529c0.754,0.716,1.717,1.073,2.887,1.073
		c0.987,0,1.807-0.247,2.457-0.741c0.649-0.494,1.078-1.131,1.286-1.911h7.06c-0.286,1.534-0.91,2.905-1.872,4.114
		s-2.184,2.158-3.666,2.848s-3.134,1.033-4.953,1.033c-2.132,0-4.023-0.448-5.675-1.346c-1.651-0.896-2.944-2.189-3.88-3.881
		c-0.937-1.689-1.404-3.666-1.404-5.928c0-2.287,0.461-4.27,1.385-5.947c0.923-1.677,2.216-2.964,3.88-3.861
		c1.664-0.896,3.563-1.346,5.694-1.346c2.158,0,4.056,0.443,5.694,1.326c1.638,0.885,2.905,2.126,3.803,3.725
		c0.896,1.6,1.345,3.439,1.345,5.52C570.675,153.672,570.611,154.271,570.481,154.92z M562.778,148.895
		c-0.793-0.715-1.774-1.072-2.944-1.072c-1.223,0-2.236,0.364-3.042,1.092c-0.806,0.729-1.262,1.795-1.365,3.198h8.502
		C563.954,150.683,563.571,149.611,562.778,148.895z"/>
	<path d="M595.46,145.092c1.469,1.664,2.203,3.953,2.203,6.864v12.636h-6.669v-11.855c0-1.456-0.384-2.594-1.15-3.412
		c-0.768-0.819-1.788-1.229-3.062-1.229c-1.353,0-2.425,0.429-3.218,1.287c-0.793,0.857-1.189,2.08-1.189,3.666v11.543h-6.669
		V142.83h6.669v3.979c0.624-1.301,1.554-2.326,2.789-3.082c1.234-0.753,2.684-1.131,4.349-1.131
		C592.008,142.596,593.99,143.429,595.46,145.092z"/>
	<path d="M615.954,158.86v5.732h-3.003c-2.549,0-4.531-0.629-5.947-1.891c-1.418-1.262-2.126-3.348-2.126-6.26v-7.995h-2.925v-5.616
		h2.925v-5.343h6.669v5.343h4.368v5.616h-4.368v8.112c0,0.857,0.176,1.456,0.526,1.793c0.352,0.339,0.942,0.508,1.774,0.508H615.954
		z"/>
	<path d="M635.784,144.625c1.651,1.378,2.685,3.197,3.101,5.459h-6.239c-0.183-0.883-0.592-1.579-1.229-2.086
		c-0.638-0.508-1.438-0.761-2.399-0.761c-0.754,0-1.325,0.163-1.716,0.487c-0.39,0.326-0.585,0.787-0.585,1.385
		c0,0.676,0.357,1.184,1.073,1.521c0.714,0.338,1.839,0.676,3.373,1.014c1.663,0.39,3.028,0.787,4.095,1.189
		c1.066,0.403,1.989,1.06,2.77,1.969c0.779,0.911,1.17,2.133,1.17,3.666c0,1.248-0.339,2.354-1.015,3.315s-1.651,1.716-2.925,2.263
		c-1.274,0.545-2.782,0.818-4.523,0.818c-2.938,0-5.292-0.649-7.06-1.949c-1.769-1.301-2.847-3.16-3.236-5.578h6.435
		c0.104,0.937,0.5,1.652,1.189,2.146c0.688,0.494,1.579,0.741,2.672,0.741c0.754,0,1.325-0.176,1.716-0.527
		c0.39-0.351,0.585-0.813,0.585-1.384c0-0.754-0.357-1.294-1.072-1.618c-0.716-0.325-1.879-0.67-3.491-1.034
		c-1.612-0.337-2.938-0.702-3.978-1.092c-1.04-0.39-1.938-1.021-2.691-1.892s-1.131-2.061-1.131-3.568
		c0-1.95,0.741-3.529,2.224-4.738c1.481-1.209,3.574-1.814,6.278-1.814C631.93,142.557,634.133,143.246,635.784,144.625z"/>
</g>
</svg>
