<?xml version="1.0" encoding="utf-8"?>
<!-- Generator: Adobe Illustrator 16.0.0, SVG Export Plug-In . SVG Version: 6.00 Build 0)  -->
<!DOCTYPE svg PUBLIC "-//W3C//DTD SVG 1.1//EN" "http://www.w3.org/Graphics/SVG/1.1/DTD/svg11.dtd">
<svg version="1.1" id="Layer_1" xmlns="http://www.w3.org/2000/svg" xmlns:xlink="http://www.w3.org/1999/xlink" x="0px" y="0px"
	 width="600px" height="120px" viewBox="0 -3.972 600 120" enable-background="new 0 -3.972 600 120" xml:space="preserve">
<g enable-background="new    ">
	<path fill="#0055FE" d="M722.764-193.792v9.516h-24.232v-9.516H722.764z"/>
	<path fill="#0055FE" d="M763.194-199.799c1.369,0.78,2.418,1.847,3.146,3.198v-13.156h11.544v38.48h-11.544v-4.004
		c-0.728,1.352-1.776,2.418-3.146,3.198c-1.37,0.779-3.008,1.17-4.914,1.17c-2.288,0-4.352-0.599-6.188-1.794
		c-1.838-1.196-3.284-2.93-4.342-5.2s-1.586-4.948-1.586-8.034c0-3.085,0.528-5.763,1.586-8.034c1.058-2.27,2.504-4.004,4.342-5.2
		c1.837-1.195,3.9-1.794,6.188-1.794C760.186-200.969,761.823-200.578,763.194-199.799z M759.059-189.58
		c-0.797,0.866-1.195,2.08-1.195,3.64c0,1.561,0.398,2.774,1.195,3.64c0.797,0.867,1.82,1.301,3.068,1.301s2.27-0.434,3.068-1.301
		c0.797-0.865,1.195-2.079,1.195-3.64c0-1.56-0.398-2.773-1.195-3.64c-0.799-0.866-1.82-1.3-3.068-1.3
		S759.856-190.446,759.059-189.58z"/>
	<path fill="#0055FE" d="M784.071-212.746c1.213-1.092,2.825-1.639,4.836-1.639c1.977,0,3.57,0.547,4.784,1.639
		c1.213,1.092,1.819,2.47,1.819,4.134c0,1.63-0.606,2.981-1.819,4.056c-1.214,1.075-2.808,1.612-4.784,1.612
		c-2.011,0-3.623-0.537-4.836-1.612c-1.214-1.074-1.82-2.426-1.82-4.056C782.25-210.276,782.857-211.654,784.071-212.746z
		 M794.627-200.604v29.328h-11.545v-29.328H794.627z"/>
	<path fill="#0055FE" d="M842.518-183.652h-7.748v7.956h-11.076v-7.956h-7.748v-10.556h7.748v-8.009h11.076v8.009h7.748V-183.652z"
		/>
</g>
<g enable-background="new    ">
	<path fill="#0055FE" d="M47.054,20.944v24.78h-7.77v-9.66h-7.385v9.66h-7.77v-24.78h7.77v8.925h7.385v-8.925H47.054z"/>
	<path fill="#0055FE" d="M65.289,26.964c1.586,0.816,2.829,1.989,3.728,3.518c0.898,1.528,1.348,3.319,1.348,5.372
		c0,2.054-0.45,3.845-1.348,5.373c-0.898,1.528-2.141,2.7-3.728,3.517c-1.587,0.817-3.372,1.226-5.355,1.226
		c-1.983,0-3.769-0.408-5.355-1.226c-1.587-0.816-2.83-1.988-3.728-3.517c-0.898-1.528-1.347-3.319-1.347-5.373
		c0-2.053,0.449-3.844,1.347-5.372c0.898-1.528,2.141-2.701,3.728-3.518c1.586-0.816,3.372-1.226,5.355-1.226
		C61.917,25.739,63.702,26.148,65.289,26.964z M58.114,33.317c-0.49,0.571-0.735,1.417-0.735,2.537s0.239,1.966,0.717,2.538
		c0.478,0.571,1.09,0.857,1.837,0.857c0.723,0,1.33-0.286,1.82-0.857c0.49-0.572,0.735-1.418,0.735-2.538s-0.245-1.966-0.735-2.537
		c-0.49-0.571-1.097-0.857-1.82-0.857C59.21,32.459,58.604,32.745,58.114,33.317z"/>
	<path fill="#0055FE" d="M102.773,25.984l-4.69,19.74h-8.75l-2.38-11.13l-2.52,11.13h-8.75l-4.655-19.74h7.7l1.645,12.005
		l2.555-12.005h8.295l2.695,12.146l1.68-12.146H102.773z"/>
	<path fill="#0055FE" d="M120.781,26.527c0.921,0.524,1.627,1.242,2.117,2.152v-8.855h7.77v25.9h-7.77v-2.695
		c-0.49,0.91-1.196,1.628-2.117,2.152c-0.922,0.525-2.024,0.788-3.308,0.788c-1.54,0-2.929-0.402-4.165-1.208
		c-1.237-0.805-2.211-1.971-2.922-3.5c-0.712-1.527-1.067-3.33-1.067-5.407c0-2.076,0.355-3.879,1.067-5.407
		c0.711-1.528,1.686-2.695,2.922-3.5c1.236-0.805,2.625-1.208,4.165-1.208C118.757,25.739,119.859,26.001,120.781,26.527z
		 M117.998,33.404c-0.537,0.584-0.805,1.4-0.805,2.45s0.268,1.867,0.805,2.45c0.537,0.583,1.225,0.875,2.065,0.875
		c0.84,0,1.528-0.292,2.065-0.875s0.805-1.4,0.805-2.45s-0.269-1.866-0.805-2.45c-0.537-0.583-1.225-0.875-2.065-0.875
		C119.223,32.529,118.535,32.821,117.998,33.404z"/>
	<path fill="#0055FE" d="M148.903,26.964c1.586,0.816,2.829,1.989,3.728,3.518c0.898,1.528,1.348,3.319,1.348,5.372
		c0,2.054-0.45,3.845-1.348,5.373c-0.898,1.528-2.141,2.7-3.728,3.517c-1.587,0.817-3.372,1.226-5.355,1.226
		c-1.983,0-3.769-0.408-5.355-1.226c-1.587-0.816-2.83-1.988-3.728-3.517c-0.898-1.528-1.347-3.319-1.347-5.373
		c0-2.053,0.449-3.844,1.347-5.372c0.898-1.528,2.141-2.701,3.728-3.518c1.586-0.816,3.372-1.226,5.355-1.226
		C145.531,25.739,147.316,26.148,148.903,26.964z M141.728,33.317c-0.49,0.571-0.735,1.417-0.735,2.537s0.239,1.966,0.717,2.538
		c0.478,0.571,1.09,0.857,1.837,0.857c0.723,0,1.33-0.286,1.82-0.857c0.49-0.572,0.735-1.418,0.735-2.538s-0.245-1.966-0.735-2.537
		c-0.49-0.571-1.097-0.857-1.82-0.857C142.824,32.459,142.218,32.745,141.728,33.317z"/>
	<path fill="#0055FE" d="M168.922,25.984l3.71,10.01l3.465-10.01h8.575l-12.635,29.19h-8.505l4.97-10.431l-8.225-18.76H168.922z"/>
	<path fill="#0055FE" d="M200.807,26.964c1.586,0.816,2.829,1.989,3.728,3.518c0.898,1.528,1.348,3.319,1.348,5.372
		c0,2.054-0.45,3.845-1.348,5.373c-0.898,1.528-2.141,2.7-3.728,3.517c-1.587,0.817-3.372,1.226-5.355,1.226
		c-1.983,0-3.769-0.408-5.355-1.226c-1.587-0.816-2.83-1.988-3.728-3.517c-0.898-1.528-1.347-3.319-1.347-5.373
		c0-2.053,0.449-3.844,1.347-5.372c0.898-1.528,2.141-2.701,3.728-3.518c1.586-0.816,3.372-1.226,5.355-1.226
		C197.435,25.739,199.22,26.148,200.807,26.964z M193.632,33.317c-0.49,0.571-0.735,1.417-0.735,2.537s0.239,1.966,0.717,2.538
		c0.478,0.571,1.09,0.857,1.837,0.857c0.723,0,1.33-0.286,1.82-0.857c0.49-0.572,0.735-1.418,0.735-2.538s-0.245-1.966-0.735-2.537
		c-0.49-0.571-1.097-0.857-1.82-0.857C194.728,32.459,194.122,32.745,193.632,33.317z"/>
	<path fill="#0055FE" d="M229.226,25.984v19.74h-7.77v-3.01c-0.607,0.934-1.417,1.691-2.433,2.274
		c-1.015,0.584-2.222,0.875-3.623,0.875c-2.263,0-4.031-0.758-5.302-2.274c-1.272-1.517-1.908-3.57-1.908-6.16V25.984h7.735v10.465
		c0,0.934,0.25,1.675,0.752,2.223c0.501,0.549,1.172,0.822,2.012,0.822c0.863,0,1.54-0.273,2.03-0.822
		c0.49-0.548,0.735-1.289,0.735-2.223V25.984H229.226z"/>
	<path fill="#0055FE" d="M249.106,26.527c0.933,0.524,1.645,1.242,2.135,2.152v-2.695h7.735v19.391c0,1.843-0.338,3.522-1.015,5.04
		c-0.677,1.516-1.768,2.729-3.272,3.64c-1.505,0.91-3.436,1.365-5.792,1.365c-3.174,0-5.688-0.741-7.542-2.223
		c-1.855-1.482-2.911-3.495-3.168-6.038h7.63c0.21,1.027,1.05,1.54,2.52,1.54c0.91,0,1.621-0.233,2.135-0.699
		c0.513-0.468,0.77-1.343,0.77-2.625v-2.346c-0.49,0.91-1.202,1.628-2.135,2.152c-0.934,0.525-2.042,0.788-3.325,0.788
		c-1.54,0-2.929-0.402-4.165-1.208c-1.237-0.805-2.211-1.971-2.922-3.5c-0.712-1.527-1.067-3.33-1.067-5.407
		c0-2.076,0.355-3.879,1.067-5.407c0.711-1.528,1.686-2.695,2.922-3.5c1.236-0.805,2.625-1.208,4.165-1.208
		C247.064,25.739,248.173,26.001,249.106,26.527z M246.306,33.404c-0.537,0.584-0.805,1.4-0.805,2.45s0.268,1.867,0.805,2.45
		c0.537,0.583,1.225,0.875,2.065,0.875c0.84,0,1.528-0.292,2.065-0.875s0.805-1.4,0.805-2.45s-0.269-1.866-0.805-2.45
		c-0.537-0.583-1.225-0.875-2.065-0.875C247.531,32.529,246.843,32.821,246.306,33.404z"/>
	<path fill="#0055FE" d="M281.411,37.219h-12.425c0.07,0.979,0.292,1.651,0.665,2.013c0.373,0.361,0.863,0.542,1.47,0.542
		c0.84,0,1.446-0.385,1.82-1.155h8.225c-0.28,1.4-0.87,2.655-1.768,3.763c-0.898,1.108-2.03,1.983-3.395,2.625
		c-1.365,0.643-2.864,0.963-4.498,0.963c-1.96,0-3.704-0.408-5.232-1.226c-1.528-0.816-2.718-1.988-3.57-3.517
		c-0.852-1.528-1.277-3.319-1.277-5.373c0-2.053,0.425-3.844,1.277-5.372c0.852-1.528,2.042-2.701,3.57-3.518
		s3.272-1.226,5.232-1.226c1.96,0,3.704,0.403,5.233,1.208c1.528,0.805,2.718,1.954,3.57,3.447c0.852,1.493,1.277,3.255,1.277,5.285
		C281.586,36.169,281.527,36.683,281.411,37.219z M273.711,34.033c0-0.746-0.21-1.3-0.63-1.662c-0.42-0.361-0.945-0.542-1.575-0.542
		c-1.423,0-2.24,0.734-2.45,2.204H273.711z"/>
	<path fill="#0055FE" d="M296.321,39.109v6.615h-2.94c-5.414,0-8.12-2.695-8.12-8.085v-5.18h-2.45v-6.476h2.45v-4.76h7.77v4.76h3.22
		v6.476h-3.22v5.319c0,0.468,0.11,0.806,0.333,1.016c0.221,0.21,0.589,0.314,1.103,0.314H296.321z"/>
	<path fill="#0055FE" d="M319.981,26.964c1.586,0.816,2.828,1.989,3.727,3.518s1.348,3.319,1.348,5.372
		c0,2.054-0.449,3.845-1.348,5.373s-2.141,2.7-3.727,3.517c-1.588,0.817-3.373,1.226-5.355,1.226c-1.983,0-3.769-0.408-5.355-1.226
		c-1.586-0.816-2.829-1.988-3.727-3.517c-0.898-1.528-1.348-3.319-1.348-5.373c0-2.053,0.449-3.844,1.348-5.372
		c0.897-1.528,2.141-2.701,3.727-3.518c1.587-0.816,3.372-1.226,5.355-1.226C316.608,25.739,318.393,26.148,319.981,26.964z
		 M312.805,33.317c-0.49,0.571-0.734,1.417-0.734,2.537s0.238,1.966,0.717,2.538c0.479,0.571,1.091,0.857,1.838,0.857
		c0.723,0,1.33-0.286,1.82-0.857c0.49-0.572,0.734-1.418,0.734-2.538s-0.244-1.966-0.734-2.537s-1.098-0.857-1.82-0.857
		C313.902,32.459,313.295,32.745,312.805,33.317z"/>
	<path fill="#0055FE" d="M348.401,25.984v19.74h-7.771v-3.01c-0.606,0.934-1.417,1.691-2.433,2.274
		c-1.015,0.584-2.223,0.875-3.623,0.875c-2.263,0-4.03-0.758-5.302-2.274c-1.272-1.517-1.907-3.57-1.907-6.16V25.984h7.734v10.465
		c0,0.934,0.251,1.675,0.753,2.223c0.501,0.549,1.173,0.822,2.013,0.822c0.863,0,1.539-0.273,2.029-0.822
		c0.49-0.548,0.735-1.289,0.735-2.223V25.984H348.401z"/>
	<path fill="#0055FE" d="M364.185,39.109v6.615h-2.94c-5.413,0-8.119-2.695-8.119-8.085v-5.18h-2.451v-6.476h2.451v-4.76h7.77v4.76
		h3.22v6.476h-3.22v5.319c0,0.468,0.11,0.806,0.332,1.016s0.59,0.314,1.104,0.314H364.185z"/>
	<path fill="#0055FE" d="M387.844,26.964c1.586,0.816,2.829,1.989,3.728,3.518c0.897,1.528,1.348,3.319,1.348,5.372
		c0,2.054-0.45,3.845-1.348,5.373c-0.898,1.528-2.142,2.7-3.728,3.517c-1.587,0.817-3.372,1.226-5.355,1.226
		c-1.982,0-3.768-0.408-5.354-1.226c-1.587-0.816-2.829-1.988-3.728-3.517s-1.348-3.319-1.348-5.373
		c0-2.053,0.449-3.844,1.348-5.372s2.141-2.701,3.728-3.518s3.372-1.226,5.354-1.226C384.472,25.739,386.257,26.148,387.844,26.964z
		 M380.669,33.317c-0.49,0.571-0.735,1.417-0.735,2.537s0.239,1.966,0.718,2.538c0.478,0.571,1.091,0.857,1.837,0.857
		c0.724,0,1.33-0.286,1.82-0.857c0.49-0.572,0.735-1.418,0.735-2.538s-0.245-1.966-0.735-2.537s-1.097-0.857-1.82-0.857
		C381.766,32.459,381.158,32.745,380.669,33.317z"/>
	<path fill="#0055FE" d="M405.868,24.514c-0.583,0-1.026,0.111-1.33,0.332c-0.304,0.223-0.514,0.602-0.63,1.138h2.835v6.476h-2.905
		v13.265h-7.77V32.459h-2.1v-6.476h2.1c0.047-2.566,0.857-4.556,2.432-5.967c1.576-1.412,3.786-2.118,6.633-2.118
		c0.326,0,0.863,0.023,1.61,0.07v6.615C406.323,24.537,406.031,24.514,405.868,24.514z"/>
	<path fill="#0055FE" d="M425.223,26.527c0.934,0.524,1.646,1.242,2.135,2.152v-2.695h7.735v19.74h-7.735v-2.695
		c-0.489,0.91-1.201,1.628-2.135,2.152c-0.934,0.525-2.041,0.788-3.324,0.788c-1.541,0-2.93-0.402-4.166-1.208
		c-1.236-0.805-2.211-1.971-2.922-3.5c-0.712-1.527-1.067-3.33-1.067-5.407c0-2.076,0.355-3.879,1.067-5.407
		c0.711-1.528,1.686-2.695,2.922-3.5s2.625-1.208,4.166-1.208C423.182,25.739,424.289,26.001,425.223,26.527z M422.423,33.404
		c-0.537,0.584-0.805,1.4-0.805,2.45s0.268,1.867,0.805,2.45c0.536,0.583,1.226,0.875,2.065,0.875s1.527-0.292,2.064-0.875
		s0.805-1.4,0.805-2.45s-0.268-1.866-0.805-2.45c-0.537-0.583-1.225-0.875-2.064-0.875S422.959,32.821,422.423,33.404z"/>
	<path fill="#0055FE" d="M452.313,19.823v25.9h-7.77v-25.9H452.313z"/>
	<path fill="#0055FE" d="M470.547,26.964c1.587,0.816,2.83,1.989,3.729,3.518c0.897,1.528,1.348,3.319,1.348,5.372
		c0,2.054-0.45,3.845-1.348,5.373c-0.898,1.528-2.142,2.7-3.729,3.517c-1.586,0.817-3.371,1.226-5.354,1.226
		s-3.769-0.408-5.354-1.226c-1.588-0.816-2.83-1.988-3.729-3.517s-1.347-3.319-1.347-5.373c0-2.053,0.448-3.844,1.347-5.372
		s2.141-2.701,3.729-3.518c1.586-0.816,3.371-1.226,5.354-1.226S468.961,26.148,470.547,26.964z M463.373,33.317
		c-0.49,0.571-0.735,1.417-0.735,2.537s0.239,1.966,0.718,2.538c0.478,0.571,1.09,0.857,1.837,0.857c0.724,0,1.33-0.286,1.82-0.857
		c0.489-0.572,0.735-1.418,0.735-2.538s-0.246-1.966-0.735-2.537c-0.49-0.571-1.097-0.857-1.82-0.857S463.863,32.745,463.373,33.317
		z"/>
	<path fill="#0055FE" d="M493.594,27.908c1.762,1.447,2.876,3.454,3.344,6.021h-8.226c-0.304-1.026-0.898-1.54-1.785-1.54
		c-0.63,0-1.126,0.292-1.487,0.875c-0.362,0.583-0.543,1.447-0.543,2.59c0,1.144,0.181,2.007,0.543,2.59
		c0.361,0.584,0.857,0.875,1.487,0.875c0.887,0,1.481-0.513,1.785-1.54h8.226c-0.468,2.567-1.582,4.574-3.344,6.021
		c-1.762,1.447-3.926,2.17-6.492,2.17c-1.96,0-3.704-0.408-5.232-1.226c-1.528-0.816-2.719-1.988-3.57-3.517
		s-1.277-3.319-1.277-5.373c0-2.053,0.426-3.844,1.277-5.372s2.042-2.701,3.57-3.518s3.272-1.226,5.232-1.226
		C489.668,25.739,491.832,26.462,493.594,27.908z"/>
	<path fill="#0055FE" d="M512.022,45.724l-4.865-7.875v7.875h-7.77v-25.9h7.77v13.545l4.936-7.385h9.029l-7.385,9.94l7.561,9.8
		H512.022z"/>
	<path fill="#0055FE" d="M541.982,37.219h-12.425c0.07,0.979,0.291,1.651,0.664,2.013s0.863,0.542,1.471,0.542
		c0.84,0,1.446-0.385,1.82-1.155h8.225c-0.279,1.4-0.869,2.655-1.768,3.763c-0.898,1.108-2.029,1.983-3.395,2.625
		c-1.365,0.643-2.865,0.963-4.498,0.963c-1.96,0-3.704-0.408-5.232-1.226c-1.528-0.816-2.719-1.988-3.57-3.517
		s-1.277-3.319-1.277-5.373c0-2.053,0.426-3.844,1.277-5.372s2.042-2.701,3.57-3.518s3.272-1.226,5.232-1.226
		c1.961,0,3.704,0.403,5.232,1.208s2.719,1.954,3.57,3.447s1.277,3.255,1.277,5.285C542.156,36.169,542.098,36.683,541.982,37.219z
		 M534.281,34.033c0-0.746-0.21-1.3-0.63-1.662c-0.42-0.361-0.944-0.542-1.575-0.542c-1.424,0-2.24,0.734-2.449,2.204H534.281z"/>
	<path fill="#0055FE" d="M555.02,26.527c0.921,0.524,1.627,1.242,2.117,2.152v-8.855h7.77v25.9h-7.77v-2.695
		c-0.49,0.91-1.196,1.628-2.117,2.152c-0.923,0.525-2.025,0.788-3.309,0.788c-1.539,0-2.928-0.402-4.164-1.208
		c-1.237-0.805-2.211-1.971-2.923-3.5c-0.712-1.527-1.067-3.33-1.067-5.407c0-2.076,0.355-3.879,1.067-5.407s1.686-2.695,2.923-3.5
		c1.236-0.805,2.625-1.208,4.164-1.208C552.994,25.739,554.097,26.001,555.02,26.527z M552.237,33.404
		c-0.537,0.584-0.805,1.4-0.805,2.45s0.268,1.867,0.805,2.45s1.225,0.875,2.064,0.875c0.841,0,1.529-0.292,2.065-0.875
		s0.806-1.4,0.806-2.45s-0.27-1.866-0.806-2.45c-0.536-0.583-1.225-0.875-2.065-0.875C553.461,32.529,552.774,32.821,552.237,33.404
		z"/>
	<path fill="#0055FE" d="M71.816,68.876c1.143-0.688,2.333-1.032,3.57-1.032v8.295h-2.205c-1.47,0-2.55,0.257-3.237,0.77
		c-0.689,0.514-1.033,1.424-1.033,2.73v8.085h-7.77v-19.74h7.77v3.641C69.704,70.481,70.673,69.565,71.816,68.876z"/>
	<path fill="#0055FE" d="M92.221,68.964c1.586,0.816,2.829,1.989,3.728,3.518c0.898,1.528,1.348,3.319,1.348,5.372
		c0,2.054-0.45,3.845-1.348,5.373c-0.898,1.528-2.141,2.7-3.728,3.517c-1.587,0.817-3.372,1.226-5.355,1.226
		c-1.983,0-3.769-0.408-5.355-1.226c-1.587-0.816-2.83-1.988-3.728-3.517c-0.898-1.528-1.347-3.319-1.347-5.373
		c0-2.053,0.449-3.844,1.347-5.372c0.898-1.528,2.141-2.701,3.728-3.518c1.586-0.816,3.372-1.226,5.355-1.226
		C88.849,67.739,90.634,68.148,92.221,68.964z M85.046,75.317c-0.49,0.571-0.735,1.417-0.735,2.537s0.239,1.966,0.717,2.538
		c0.478,0.571,1.09,0.857,1.837,0.857c0.723,0,1.33-0.286,1.82-0.857c0.49-0.572,0.735-1.418,0.735-2.538s-0.245-1.966-0.735-2.537
		c-0.49-0.571-1.097-0.857-1.82-0.857C86.142,74.459,85.536,74.745,85.046,75.317z"/>
	<path fill="#0055FE" d="M114.481,68.964c1.586,0.816,2.829,1.989,3.728,3.518c0.898,1.528,1.348,3.319,1.348,5.372
		c0,2.054-0.45,3.845-1.348,5.373c-0.898,1.528-2.141,2.7-3.728,3.517c-1.587,0.817-3.372,1.226-5.355,1.226
		c-1.983,0-3.769-0.408-5.355-1.226c-1.587-0.816-2.83-1.988-3.728-3.517c-0.898-1.528-1.347-3.319-1.347-5.373
		c0-2.053,0.449-3.844,1.347-5.372c0.898-1.528,2.141-2.701,3.728-3.518c1.586-0.816,3.372-1.226,5.355-1.226
		C111.109,67.739,112.894,68.148,114.481,68.964z M107.306,75.317c-0.49,0.571-0.735,1.417-0.735,2.537s0.239,1.966,0.717,2.538
		c0.478,0.571,1.09,0.857,1.837,0.857c0.723,0,1.33-0.286,1.82-0.857c0.49-0.572,0.735-1.418,0.735-2.538s-0.245-1.966-0.735-2.537
		c-0.49-0.571-1.097-0.857-1.82-0.857C108.402,74.459,107.796,74.745,107.306,75.317z"/>
	<path fill="#0055FE" d="M154.222,70.118c1.388,1.518,2.083,3.57,2.083,6.16v11.445h-7.735V77.259c0-0.84-0.251-1.499-0.752-1.978
		c-0.502-0.479-1.172-0.718-2.013-0.718c-0.863,0-1.54,0.239-2.03,0.718c-0.49,0.479-0.735,1.138-0.735,1.978v10.465h-7.735V77.259
		c0-0.84-0.251-1.499-0.752-1.978c-0.502-0.479-1.172-0.718-2.012-0.718c-0.864,0-1.54,0.239-2.03,0.718
		c-0.49,0.479-0.735,1.138-0.735,1.978v10.465h-7.77v-19.74h7.77v2.66c0.56-0.84,1.324-1.517,2.292-2.03
		c0.968-0.513,2.105-0.77,3.413-0.77c1.423,0,2.683,0.31,3.78,0.928s1.972,1.487,2.625,2.607c0.723-1.026,1.645-1.873,2.765-2.538
		s2.356-0.997,3.71-0.997C150.88,67.844,152.834,68.603,154.222,70.118z"/>
	<path fill="#0055FE" d="M166.28,59.812c0.816-0.735,1.901-1.103,3.255-1.103c1.33,0,2.403,0.367,3.22,1.103
		c0.816,0.734,1.225,1.662,1.225,2.782c0,1.097-0.409,2.007-1.225,2.729c-0.817,0.724-1.89,1.085-3.22,1.085
		c-1.354,0-2.438-0.361-3.255-1.085c-0.817-0.723-1.225-1.633-1.225-2.729C165.055,61.474,165.463,60.546,166.28,59.812z
		 M173.385,67.984v19.74h-7.77v-19.74H173.385z"/>
	<path fill="#0055FE" d="M187.385,66.514c-0.583,0-1.027,0.111-1.33,0.332c-0.303,0.223-0.514,0.602-0.63,1.138h2.835v6.476h-2.905
		v13.265h-7.77V74.459h-2.1v-6.476h2.1c0.046-2.566,0.857-4.556,2.432-5.967c1.575-1.412,3.786-2.118,6.633-2.118
		c0.326,0,0.863,0.023,1.61,0.07v6.615C187.84,66.537,187.548,66.514,187.385,66.514z"/>
	<path fill="#0055FE" d="M196.974,59.812c0.816-0.735,1.901-1.103,3.255-1.103c1.33,0,2.403,0.367,3.22,1.103
		c0.816,0.734,1.225,1.662,1.225,2.782c0,1.097-0.409,2.007-1.225,2.729c-0.817,0.724-1.89,1.085-3.22,1.085
		c-1.354,0-2.438-0.361-3.255-1.085c-0.817-0.723-1.225-1.633-1.225-2.729C195.749,61.474,196.157,60.546,196.974,59.812z
		 M204.079,67.984v19.74h-7.77v-19.74H204.079z"/>
	<path fill="#0055FE" d="M219.864,81.109v6.615h-2.94c-5.414,0-8.12-2.695-8.12-8.085v-5.18h-2.45v-6.476h2.45v-4.76h7.77v4.76h3.22
		v6.476h-3.22v5.319c0,0.468,0.11,0.806,0.333,1.016c0.221,0.21,0.589,0.314,1.103,0.314H219.864z"/>
	<path fill="#0055FE" d="M247.916,70.118c1.271,1.518,1.908,3.57,1.908,6.16v11.445h-7.735V77.259c0-0.934-0.251-1.674-0.752-2.223
		c-0.502-0.548-1.172-0.822-2.012-0.822c-0.864,0-1.54,0.274-2.03,0.822c-0.49,0.549-0.735,1.289-0.735,2.223v10.465h-7.77v-25.9
		h7.77v9.17c0.606-0.933,1.417-1.691,2.433-2.274c1.015-0.583,2.222-0.875,3.623-0.875
		C244.876,67.844,246.644,68.603,247.916,70.118z"/>
	<path fill="#0055FE" d="M263.614,68.527c0.933,0.524,1.645,1.242,2.135,2.152v-2.695h7.735v19.74h-7.735v-2.695
		c-0.49,0.91-1.202,1.628-2.135,2.152c-0.934,0.525-2.042,0.788-3.325,0.788c-1.54,0-2.929-0.402-4.165-1.208
		c-1.237-0.805-2.211-1.971-2.922-3.5c-0.712-1.527-1.067-3.33-1.067-5.407c0-2.076,0.355-3.879,1.067-5.407
		c0.711-1.528,1.686-2.695,2.922-3.5c1.236-0.805,2.625-1.208,4.165-1.208C261.572,67.739,262.68,68.001,263.614,68.527z
		 M260.813,75.404c-0.537,0.584-0.805,1.4-0.805,2.45s0.268,1.867,0.805,2.45c0.537,0.583,1.225,0.875,2.065,0.875
		c0.84,0,1.528-0.292,2.065-0.875s0.805-1.4,0.805-2.45s-0.269-1.866-0.805-2.45c-0.537-0.583-1.225-0.875-2.065-0.875
		C262.038,74.529,261.35,74.821,260.813,75.404z"/>
	<path fill="#0055FE" d="M291.175,69.681c1.598,1.296,2.607,3.005,3.028,5.128h-7.245c-0.304-1.12-1.097-1.68-2.38-1.68
		c-0.724,0-1.085,0.279-1.085,0.84c0,0.396,0.263,0.7,0.788,0.91s1.359,0.432,2.502,0.665c1.493,0.279,2.771,0.612,3.833,0.997
		c1.062,0.385,1.978,1.01,2.748,1.873s1.155,2.042,1.155,3.534c0,1.167-0.327,2.205-0.98,3.115c-0.654,0.91-1.61,1.622-2.87,2.135
		c-1.26,0.514-2.742,0.771-4.445,0.771c-2.847,0-5.11-0.606-6.79-1.82c-1.68-1.213-2.719-2.963-3.115-5.25h7.455
		c0.14,1.144,0.945,1.715,2.415,1.715c0.793,0,1.19-0.279,1.19-0.84c0-0.442-0.269-0.77-0.805-0.979c-0.537-0.21-1.4-0.42-2.59-0.63
		c-1.517-0.304-2.771-0.631-3.763-0.98s-1.861-0.945-2.607-1.785c-0.747-0.84-1.12-1.995-1.12-3.465c0-1.19,0.315-2.251,0.945-3.185
		s1.563-1.668,2.8-2.205s2.742-0.806,4.515-0.806C287.436,67.739,289.576,68.386,291.175,69.681z"/>
	<path fill="#0055FE" d="M313.627,68.527c0.934,0.524,1.646,1.242,2.135,2.152v-2.695h7.735v19.74h-7.735v-2.695
		c-0.489,0.91-1.201,1.628-2.135,2.152c-0.934,0.525-2.041,0.788-3.324,0.788c-1.541,0-2.93-0.402-4.166-1.208
		c-1.236-0.805-2.211-1.971-2.922-3.5c-0.712-1.527-1.067-3.33-1.067-5.407c0-2.076,0.355-3.879,1.067-5.407
		c0.711-1.528,1.686-2.695,2.922-3.5s2.625-1.208,4.166-1.208C311.586,67.739,312.694,68.001,313.627,68.527z M310.827,75.404
		c-0.537,0.584-0.805,1.4-0.805,2.45s0.268,1.867,0.805,2.45c0.536,0.583,1.226,0.875,2.065,0.875s1.527-0.292,2.064-0.875
		s0.805-1.4,0.805-2.45s-0.268-1.866-0.805-2.45c-0.537-0.583-1.225-0.875-2.064-0.875S311.364,74.821,310.827,75.404z"/>
	<path fill="#0055FE" d="M350.307,68.947c1.237,0.805,2.211,1.972,2.924,3.5c0.711,1.528,1.066,3.331,1.066,5.407
		c0,2.077-0.355,3.88-1.066,5.407c-0.713,1.529-1.687,2.695-2.924,3.5c-1.236,0.806-2.625,1.208-4.164,1.208
		c-1.283,0-2.387-0.263-3.308-0.788c-0.923-0.524-1.628-1.242-2.118-2.152v12.146h-7.77v-29.19h7.77v2.695
		c0.49-0.91,1.195-1.628,2.118-2.152c0.921-0.525,2.024-0.788,3.308-0.788C347.682,67.739,349.071,68.142,350.307,68.947z
		 M341.488,75.404c-0.537,0.584-0.806,1.4-0.806,2.45s0.269,1.867,0.806,2.45c0.536,0.583,1.226,0.875,2.065,0.875
		s1.527-0.292,2.064-0.875s0.805-1.4,0.805-2.45s-0.268-1.866-0.805-2.45c-0.537-0.583-1.225-0.875-2.064-0.875
		S342.024,74.821,341.488,75.404z"/>
	<path fill="#0055FE" d="M357.412,59.812c0.816-0.735,1.901-1.103,3.255-1.103c1.33,0,2.403,0.367,3.22,1.103
		c0.816,0.734,1.226,1.662,1.226,2.782c0,1.097-0.409,2.007-1.226,2.729c-0.816,0.724-1.89,1.085-3.22,1.085
		c-1.354,0-2.438-0.361-3.255-1.085c-0.816-0.723-1.225-1.633-1.225-2.729C356.188,61.474,356.596,60.546,357.412,59.812z
		 M364.518,67.984v19.74h-7.771v-19.74H364.518z"/>
	<path fill="#0055FE" d="M378.448,68.527c0.932,0.524,1.645,1.242,2.135,2.152v-2.695h7.734v19.74h-7.734v-2.695
		c-0.49,0.91-1.203,1.628-2.135,2.152c-0.934,0.525-2.043,0.788-3.326,0.788c-1.539,0-2.928-0.402-4.164-1.208
		c-1.237-0.805-2.211-1.971-2.923-3.5c-0.712-1.527-1.067-3.33-1.067-5.407c0-2.076,0.355-3.879,1.067-5.407s1.686-2.695,2.923-3.5
		c1.236-0.805,2.625-1.208,4.164-1.208C376.405,67.739,377.514,68.001,378.448,68.527z M375.647,75.404
		c-0.537,0.584-0.805,1.4-0.805,2.45s0.268,1.867,0.805,2.45s1.225,0.875,2.064,0.875c0.841,0,1.529-0.292,2.065-0.875
		s0.806-1.4,0.806-2.45s-0.27-1.866-0.806-2.45c-0.536-0.583-1.225-0.875-2.065-0.875C376.871,74.529,376.184,74.821,375.647,75.404
		z"/>
	<path fill="#0055FE" d="M410.944,70.118c1.271,1.518,1.908,3.57,1.908,6.16v11.445h-7.735V77.259c0-0.934-0.251-1.674-0.753-2.223
		c-0.502-0.548-1.172-0.822-2.012-0.822c-0.863,0-1.54,0.274-2.03,0.822c-0.489,0.549-0.735,1.289-0.735,2.223v10.465h-7.77v-19.74
		h7.77v3.01c0.607-0.933,1.418-1.691,2.434-2.274c1.014-0.583,2.222-0.875,3.622-0.875
		C407.905,67.844,409.672,68.603,410.944,70.118z"/>
	<path fill="#0055FE" d="M430.946,68.964c1.587,0.816,2.83,1.989,3.729,3.518c0.897,1.528,1.348,3.319,1.348,5.372
		c0,2.054-0.45,3.845-1.348,5.373c-0.898,1.528-2.142,2.7-3.729,3.517c-1.586,0.817-3.371,1.226-5.354,1.226
		s-3.769-0.408-5.354-1.226c-1.588-0.816-2.83-1.988-3.729-3.517s-1.347-3.319-1.347-5.373c0-2.053,0.448-3.844,1.347-5.372
		s2.141-2.701,3.729-3.518c1.586-0.816,3.371-1.226,5.354-1.226S429.36,68.148,430.946,68.964z M423.772,75.317
		c-0.49,0.571-0.735,1.417-0.735,2.537s0.239,1.966,0.718,2.538c0.478,0.571,1.09,0.857,1.837,0.857c0.724,0,1.33-0.286,1.82-0.857
		c0.489-0.572,0.735-1.418,0.735-2.538s-0.246-1.966-0.735-2.537c-0.49-0.571-1.097-0.857-1.82-0.857S424.261,74.745,423.772,75.317
		z"/>
	<path fill="#0055FE" d="M445.086,59.812c0.816-0.735,1.9-1.103,3.254-1.103c1.33,0,2.403,0.367,3.221,1.103
		c0.816,0.734,1.225,1.662,1.225,2.782c0,1.097-0.408,2.007-1.225,2.729c-0.817,0.724-1.891,1.085-3.221,1.085
		c-1.354,0-2.438-0.361-3.254-1.085c-0.817-0.723-1.226-1.633-1.226-2.729C443.861,61.474,444.269,60.546,445.086,59.812z
		 M452.191,67.984v19.74h-7.771v-19.74H452.191z"/>
	<path fill="#0055FE" d="M474.818,70.118c1.271,1.518,1.907,3.57,1.907,6.16v11.445h-7.734V77.259c0-0.934-0.252-1.674-0.753-2.223
		c-0.502-0.548-1.173-0.822-2.013-0.822c-0.863,0-1.539,0.274-2.029,0.822c-0.49,0.549-0.735,1.289-0.735,2.223v10.465h-7.771
		v-19.74h7.771v3.01c0.606-0.933,1.417-1.691,2.433-2.274c1.015-0.583,2.223-0.875,3.623-0.875
		C471.778,67.844,473.545,68.603,474.818,70.118z"/>
	<path fill="#0055FE" d="M486.699,59.812c0.816-0.735,1.902-1.103,3.256-1.103c1.33,0,2.402,0.367,3.22,1.103
		c0.816,0.734,1.226,1.662,1.226,2.782c0,1.097-0.409,2.007-1.226,2.729c-0.817,0.724-1.89,1.085-3.22,1.085
		c-1.354,0-2.439-0.361-3.256-1.085c-0.816-0.723-1.225-1.633-1.225-2.729C485.475,61.474,485.883,60.546,486.699,59.812z
		 M493.805,67.984v19.74h-7.77v-19.74H493.805z"/>
	<path fill="#0055FE" d="M509.59,81.109v6.615h-2.94c-5.413,0-8.12-2.695-8.12-8.085v-5.18h-2.45v-6.476h2.45v-4.76h7.77v4.76h3.221
		v6.476h-3.221v5.319c0,0.468,0.111,0.806,0.333,1.016s0.589,0.314,1.103,0.314H509.59z"/>
	<path fill="#0055FE" d="M526.634,62.576c1.54,1.272,2.31,3.156,2.31,5.652c0,1.377-0.314,2.585-0.944,3.623
		s-1.517,1.854-2.66,2.449c-1.144,0.596-2.45,0.905-3.92,0.928v2.485h-7.28v-7.42h2.94c1.399,0,2.462-0.158,3.185-0.473
		c0.723-0.315,1.086-0.834,1.086-1.558c0-0.396-0.111-0.712-0.333-0.945c-0.222-0.232-0.508-0.35-0.857-0.35
		c-0.444,0-0.776,0.146-0.997,0.438c-0.223,0.292-0.333,0.671-0.333,1.138h-7.315c-0.07-1.423,0.216-2.735,0.857-3.938
		c0.643-1.202,1.646-2.158,3.01-2.87c1.365-0.712,3.051-1.067,5.059-1.067C523.03,60.669,525.094,61.305,526.634,62.576z
		 M521.664,80.304v7.42h-7.7v-7.42H521.664z"/>
</g>
</svg>
