<?xml version="1.0" encoding="utf-8"?>
<!-- Generator: Adobe Illustrator 16.0.0, SVG Export Plug-In . SVG Version: 6.00 Build 0)  -->
<!DOCTYPE svg PUBLIC "-//W3C//DTD SVG 1.1//EN" "http://www.w3.org/Graphics/SVG/1.1/DTD/svg11.dtd">
<svg version="1.1" id="Layer_1" xmlns="http://www.w3.org/2000/svg" xmlns:xlink="http://www.w3.org/1999/xlink" x="0px" y="0px"
	 width="600px" height="354.513px" viewBox="0 0 600 354.513" enable-background="new 0 0 600 354.513" xml:space="preserve">
<g>
	<path fill="#0055FE" d="M18.277,28.929v7.584h-6.304V13.857h9.408c2.73,0,4.815,0.688,6.256,2.064
		c1.439,1.376,2.159,3.216,2.159,5.52c0,1.429-0.319,2.709-0.96,3.84c-0.64,1.131-1.595,2.021-2.863,2.672
		c-1.27,0.651-2.8,0.976-4.592,0.976H18.277z M23.429,21.441c0-1.664-0.918-2.496-2.752-2.496h-2.4v5.024h2.4
		C22.511,23.969,23.429,23.126,23.429,21.441z"/>
	<path fill="#0055FE" d="M42.197,19.153c0.928,0.544,1.615,1.296,2.063,2.256v-2.848h6.272v17.952H44.26v-2.848
		c-0.448,0.96-1.136,1.712-2.063,2.256c-0.929,0.544-2.021,0.816-3.28,0.816c-1.43,0-2.72-0.368-3.872-1.104
		c-1.152-0.736-2.059-1.803-2.72-3.2c-0.662-1.397-0.992-3.034-0.992-4.912c0-1.877,0.33-3.509,0.992-4.896
		c0.661-1.386,1.567-2.448,2.72-3.184c1.152-0.736,2.442-1.104,3.872-1.104C40.175,18.337,41.268,18.609,42.197,19.153z
		 M38.613,24.817c-0.608,0.651-0.912,1.552-0.912,2.704c0,1.174,0.304,2.085,0.912,2.736c0.607,0.651,1.402,0.976,2.384,0.976
		c0.938,0,1.717-0.331,2.336-0.992c0.618-0.661,0.928-1.568,0.928-2.72c0-1.13-0.31-2.026-0.928-2.688
		c-0.619-0.661-1.397-0.992-2.336-0.992C40.015,23.841,39.22,24.167,38.613,24.817z"/>
	<path fill="#0055FE" d="M72.42,18.561v17.952h-6.272v-3.008c-0.512,0.96-1.259,1.728-2.24,2.304
		c-0.981,0.576-2.133,0.864-3.456,0.864c-2.069,0-3.695-0.688-4.88-2.064c-1.184-1.376-1.775-3.259-1.775-5.648v-10.4h6.271v9.632
		c0,1.024,0.272,1.829,0.816,2.416s1.274,0.88,2.191,0.88c0.938,0,1.686-0.298,2.24-0.896c0.555-0.597,0.832-1.44,0.832-2.528
		v-9.504H72.42z"/>
	<path fill="#0055FE" d="M82.212,12.833v23.68h-6.305v-23.68H82.212z"/>
	<path fill="#0055FE" d="M90.659,34.833c0.192,0.779,0.288,1.563,0.288,2.352c0,1.6-0.427,2.928-1.28,3.984
		c-0.854,1.056-2.187,1.584-4,1.584v-2.272c0.598,0,1.035-0.128,1.313-0.384s0.416-0.757,0.416-1.504v-0.352h-2.561v-5.536h4.992
		C90.19,33.345,90.468,34.055,90.659,34.833z"/>
	<path fill="#0055FE" d="M106.148,31.745h7.071v4.768H99.843V13.857h6.305V31.745z"/>
	<path fill="#0055FE" d="M125.523,19.153c0.928,0.544,1.616,1.296,2.064,2.256v-2.848h6.271v17.952h-6.271v-2.848
		c-0.448,0.96-1.137,1.712-2.064,2.256c-0.928,0.544-2.021,0.816-3.28,0.816c-1.429,0-2.72-0.368-3.871-1.104
		c-1.152-0.736-2.06-1.803-2.721-3.2c-0.661-1.397-0.992-3.034-0.992-4.912c0-1.877,0.331-3.509,0.992-4.896
		c0.661-1.386,1.568-2.448,2.721-3.184c1.151-0.736,2.442-1.104,3.871-1.104C123.501,18.337,124.595,18.609,125.523,19.153z
		 M121.939,24.817c-0.607,0.651-0.912,1.552-0.912,2.704c0,1.174,0.305,2.085,0.912,2.736c0.608,0.651,1.402,0.976,2.384,0.976
		c0.938,0,1.718-0.331,2.336-0.992c0.619-0.661,0.929-1.568,0.929-2.72c0-1.13-0.31-2.026-0.929-2.688
		c-0.618-0.661-1.397-0.992-2.336-0.992C123.341,23.841,122.547,24.167,121.939,24.817z"/>
	<path fill="#0055FE" d="M155.746,18.561v17.952h-6.271v-3.008c-0.513,0.96-1.26,1.728-2.24,2.304
		c-0.981,0.576-2.134,0.864-3.456,0.864c-2.069,0-3.696-0.688-4.88-2.064c-1.185-1.376-1.776-3.259-1.776-5.648v-10.4h6.272v9.632
		c0,1.024,0.271,1.829,0.815,2.416s1.274,0.88,2.192,0.88c0.938,0,1.685-0.298,2.24-0.896c0.554-0.597,0.832-1.44,0.832-2.528
		v-9.504H155.746z"/>
	<path fill="#0055FE" d="M168.195,19.361c1.066-0.64,2.196-0.96,3.392-0.96v6.72h-1.824c-1.407,0-2.464,0.272-3.168,0.816
		s-1.056,1.488-1.056,2.832v7.744h-6.304V18.561h6.304v3.36C166.242,20.854,167.127,20.001,168.195,19.361z"/>
	<path fill="#0055FE" d="M183.602,19.153c0.928,0.544,1.616,1.296,2.064,2.256v-2.848h6.271v17.952h-6.271v-2.848
		c-0.448,0.96-1.137,1.712-2.064,2.256c-0.928,0.544-2.021,0.816-3.28,0.816c-1.429,0-2.72-0.368-3.871-1.104
		c-1.152-0.736-2.06-1.803-2.721-3.2c-0.661-1.397-0.992-3.034-0.992-4.912c0-1.877,0.331-3.509,0.992-4.896
		c0.661-1.386,1.568-2.448,2.721-3.184c1.151-0.736,2.442-1.104,3.871-1.104C181.58,18.337,182.674,18.609,183.602,19.153z
		 M180.018,24.817c-0.607,0.651-0.912,1.552-0.912,2.704c0,1.174,0.305,2.085,0.912,2.736c0.608,0.651,1.402,0.976,2.384,0.976
		c0.938,0,1.718-0.331,2.336-0.992c0.619-0.661,0.929-1.568,0.929-2.72c0-1.13-0.31-2.026-0.929-2.688
		c-0.618-0.661-1.397-0.992-2.336-0.992C181.42,23.841,180.626,24.167,180.018,24.817z"/>
	<path fill="#0055FE" d="M211.249,19.153c0.928,0.544,1.616,1.296,2.064,2.256v-2.848h6.271v17.952h-6.271v-2.848
		c-0.448,0.96-1.137,1.712-2.064,2.256c-0.928,0.544-2.021,0.816-3.28,0.816c-1.429,0-2.72-0.368-3.871-1.104
		c-1.152-0.736-2.06-1.803-2.721-3.2c-0.661-1.397-0.992-3.034-0.992-4.912c0-1.877,0.331-3.509,0.992-4.896
		c0.661-1.386,1.568-2.448,2.721-3.184c1.151-0.736,2.442-1.104,3.871-1.104C209.228,18.337,210.322,18.609,211.249,19.153z
		 M207.665,24.817c-0.607,0.651-0.912,1.552-0.912,2.704c0,1.174,0.305,2.085,0.912,2.736c0.608,0.651,1.402,0.976,2.384,0.976
		c0.938,0,1.718-0.331,2.336-0.992c0.619-0.661,0.929-1.568,0.929-2.72c0-1.13-0.31-2.026-0.929-2.688
		c-0.618-0.661-1.397-0.992-2.336-0.992C209.068,23.841,208.274,24.167,207.665,24.817z"/>
	<path fill="#0055FE" d="M239.905,20.465c1.174,1.376,1.761,3.248,1.761,5.616v10.432h-6.24v-9.632c0-1.045-0.272-1.861-0.816-2.448
		c-0.544-0.586-1.274-0.88-2.191-0.88c-0.939,0-1.686,0.304-2.24,0.912s-0.832,1.445-0.832,2.512v9.536h-6.304V18.561h6.304v3.008
		c0.512-0.96,1.259-1.728,2.24-2.304c0.98-0.576,2.133-0.864,3.456-0.864C237.11,18.401,238.732,19.089,239.905,20.465z"/>
	<path fill="#0055FE" d="M254.945,19.153c0.917,0.544,1.601,1.296,2.048,2.256v-8.576h6.305v23.68h-6.305v-2.848
		c-0.447,0.96-1.131,1.712-2.048,2.256c-0.917,0.544-2.005,0.816-3.264,0.816c-1.43,0-2.72-0.368-3.872-1.104
		c-1.152-0.736-2.059-1.803-2.72-3.2c-0.662-1.397-0.992-3.034-0.992-4.912c0-1.877,0.33-3.509,0.992-4.896
		c0.661-1.386,1.567-2.448,2.72-3.184c1.152-0.736,2.442-1.104,3.872-1.104C252.94,18.337,254.028,18.609,254.945,19.153z
		 M251.377,24.817c-0.608,0.651-0.912,1.552-0.912,2.704c0,1.174,0.304,2.085,0.912,2.736c0.607,0.651,1.402,0.976,2.384,0.976
		c0.938,0,1.717-0.331,2.336-0.992c0.618-0.661,0.928-1.568,0.928-2.72c0-1.13-0.31-2.026-0.928-2.688
		c-0.619-0.661-1.397-0.992-2.336-0.992C252.78,23.841,251.985,24.167,251.377,24.817z"/>
	<path fill="#0055FE" d="M287.552,13.857v15.04c0,2.56-0.672,4.507-2.016,5.84c-1.344,1.333-3.232,2-5.664,2
		c-2.624,0-4.699-0.725-6.224-2.176c-1.525-1.45-2.288-3.563-2.288-6.336h6.208c0,1.899,0.672,2.848,2.016,2.848
		c1.131,0,1.696-0.725,1.696-2.176v-15.04H287.552z"/>
	<path fill="#0055FE" d="M300.848,19.153c0.928,0.544,1.615,1.296,2.064,2.256v-2.848h6.271v17.952h-6.271v-2.848
		c-0.449,0.96-1.137,1.712-2.064,2.256c-0.928,0.544-2.021,0.816-3.28,0.816c-1.429,0-2.72-0.368-3.871-1.104
		c-1.152-0.736-2.06-1.803-2.721-3.2c-0.661-1.397-0.992-3.034-0.992-4.912c0-1.877,0.331-3.509,0.992-4.896
		c0.661-1.386,1.568-2.448,2.721-3.184c1.151-0.736,2.442-1.104,3.871-1.104C298.826,18.337,299.92,18.609,300.848,19.153z
		 M297.264,24.817c-0.607,0.651-0.912,1.552-0.912,2.704c0,1.174,0.305,2.085,0.912,2.736c0.608,0.651,1.402,0.976,2.384,0.976
		c0.938,0,1.718-0.331,2.336-0.992c0.618-0.661,0.929-1.568,0.929-2.72c0-1.13-0.311-2.026-0.929-2.688
		c-0.618-0.661-1.397-0.992-2.336-0.992C298.666,23.841,297.872,24.167,297.264,24.817z"/>
	<path fill="#0055FE" d="M329.503,20.465c1.173,1.376,1.761,3.248,1.761,5.616v10.432h-6.24v-9.632c0-1.045-0.272-1.861-0.816-2.448
		c-0.544-0.586-1.275-0.88-2.191-0.88c-0.939,0-1.686,0.304-2.24,0.912s-0.832,1.445-0.832,2.512v9.536h-6.305V18.561h6.305v3.008
		c0.512-0.96,1.258-1.728,2.24-2.304c0.98-0.576,2.133-0.864,3.455-0.864C326.708,18.401,328.33,19.089,329.503,20.465z"/>
	<path fill="#0055FE" d="M351.711,28.673h-11.872c0.106,2.027,0.992,3.04,2.656,3.04c0.618,0,1.13-0.149,1.536-0.448
		c0.404-0.298,0.682-0.693,0.832-1.184h6.656c-0.235,1.259-0.758,2.395-1.568,3.408s-1.835,1.808-3.072,2.384
		c-1.237,0.576-2.592,0.864-4.064,0.864c-1.791,0-3.375-0.368-4.752-1.104c-1.375-0.736-2.447-1.803-3.215-3.2
		c-0.769-1.397-1.152-3.034-1.152-4.912c0-1.877,0.384-3.509,1.152-4.896c0.768-1.386,1.844-2.448,3.231-3.184
		c1.386-0.736,2.965-1.104,4.735-1.104c1.793,0,3.371,0.363,4.736,1.088c1.365,0.726,2.427,1.76,3.184,3.104
		c0.758,1.344,1.137,2.901,1.137,4.672C351.871,27.649,351.818,28.14,351.711,28.673z M344.735,23.969
		c-0.512-0.469-1.151-0.704-1.92-0.704c-0.832,0-1.509,0.235-2.031,0.704c-0.523,0.469-0.827,1.163-0.912,2.08h5.6
		C345.492,25.132,345.247,24.438,344.735,23.969z"/>
	<path fill="#0055FE" d="M370.255,19.153c0.928,0.544,1.616,1.296,2.063,2.256v-2.848h6.272v17.952h-6.272v-2.848
		c-0.447,0.96-1.136,1.712-2.063,2.256c-0.929,0.544-2.021,0.816-3.28,0.816c-1.43,0-2.72-0.368-3.871-1.104
		c-1.152-0.736-2.06-1.803-2.721-3.2c-0.662-1.397-0.992-3.034-0.992-4.912c0-1.877,0.33-3.509,0.992-4.896
		c0.661-1.386,1.568-2.448,2.721-3.184c1.151-0.736,2.441-1.104,3.871-1.104C368.234,18.337,369.326,18.609,370.255,19.153z
		 M366.671,24.817c-0.608,0.651-0.912,1.552-0.912,2.704c0,1.174,0.304,2.085,0.912,2.736s1.402,0.976,2.384,0.976
		c0.938,0,1.717-0.331,2.336-0.992c0.619-0.661,0.928-1.568,0.928-2.72c0-1.13-0.309-2.026-0.928-2.688
		c-0.619-0.661-1.397-0.992-2.336-0.992C368.073,23.841,367.28,24.167,366.671,24.817z"/>
	<path fill="#0055FE" d="M391.006,19.361c1.066-0.64,2.197-0.96,3.393-0.96v6.72h-1.824c-1.408,0-2.464,0.272-3.168,0.816
		s-1.056,1.488-1.056,2.832v7.744h-6.304V18.561h6.304v3.36C389.055,20.854,389.94,20.001,391.006,19.361z"/>
	<path fill="#0055FE" d="M413.567,28.673h-11.873c0.107,2.027,0.992,3.04,2.656,3.04c0.619,0,1.131-0.149,1.537-0.448
		c0.404-0.298,0.682-0.693,0.831-1.184h6.656c-0.235,1.259-0.757,2.395-1.567,3.408c-0.812,1.013-1.836,1.808-3.072,2.384
		c-1.238,0.576-2.592,0.864-4.064,0.864c-1.792,0-3.376-0.368-4.752-1.104c-1.376-0.736-2.447-1.803-3.216-3.2
		c-0.769-1.397-1.152-3.034-1.152-4.912c0-1.877,0.384-3.509,1.152-4.896c0.769-1.386,1.845-2.448,3.231-3.184
		c1.387-0.736,2.965-1.104,4.736-1.104c1.792,0,3.371,0.363,4.736,1.088c1.365,0.726,2.426,1.76,3.184,3.104
		c0.758,1.344,1.137,2.901,1.137,4.672C413.727,27.649,413.672,28.14,413.567,28.673z M406.59,23.969
		c-0.512-0.469-1.152-0.704-1.92-0.704c-0.832,0-1.51,0.235-2.031,0.704c-0.523,0.469-0.828,1.163-0.912,2.08h5.6
		C407.348,25.132,407.102,24.438,406.59,23.969z"/>
	<path fill="#0055FE" d="M434.319,13.585c1.162,0.566,2.042,1.333,2.64,2.304c0.597,0.971,0.896,2.064,0.896,3.28
		c0,1.472-0.363,2.651-1.088,3.536c-0.725,0.886-1.59,1.446-2.592,1.68v0.128c2.73,0.981,4.096,2.795,4.096,5.44
		c0,1.344-0.309,2.528-0.928,3.552c-0.619,1.024-1.51,1.819-2.672,2.384c-1.163,0.565-2.555,0.848-4.176,0.848
		c-2.688,0-4.806-0.65-6.353-1.952c-1.547-1.301-2.362-3.317-2.448-6.048h6.145c-0.043,1.856,0.757,2.784,2.4,2.784
		c0.576,0,1.039-0.187,1.392-0.56s0.528-0.859,0.528-1.456c0-0.768-0.262-1.344-0.784-1.728c-0.523-0.384-1.36-0.576-2.513-0.576
		h-1.119v-5.088h1.088c0.832,0,1.525-0.144,2.08-0.432s0.832-0.869,0.832-1.744c0-0.661-0.16-1.157-0.48-1.488
		c-0.32-0.331-0.747-0.496-1.279-0.496c-0.598,0-1.052,0.229-1.361,0.688c-0.309,0.459-0.484,1.04-0.527,1.744h-6.111
		c0.084-2.475,0.826-4.368,2.223-5.68c1.398-1.312,3.365-1.968,5.904-1.968C431.752,12.737,433.155,13.02,434.319,13.585z"/>
	<path fill="#0055FE" d="M463.102,19.441c1.152,0.736,2.059,1.797,2.72,3.184c0.661,1.387,0.992,3.019,0.992,4.896
		c0,1.878-0.331,3.515-0.992,4.912c-0.661,1.397-1.567,2.464-2.72,3.2c-1.152,0.736-2.443,1.104-3.872,1.104
		c-1.259,0-2.347-0.272-3.265-0.816c-0.917-0.544-1.6-1.296-2.047-2.256v11.424h-6.305V18.561h6.305v2.848
		c0.447-0.96,1.13-1.712,2.047-2.256c0.918-0.544,2.006-0.816,3.265-0.816C460.658,18.337,461.949,18.705,463.102,19.441z
		 M454.814,24.833c-0.619,0.662-0.929,1.558-0.929,2.688c0,1.152,0.31,2.059,0.929,2.72c0.618,0.662,1.397,0.992,2.336,0.992
		c0.981,0,1.776-0.325,2.384-0.976s0.912-1.563,0.912-2.736c0-1.152-0.305-2.053-0.912-2.704s-1.402-0.976-2.384-0.976
		C456.211,23.841,455.432,24.172,454.814,24.833z"/>
	<path fill="#0055FE" d="M469.854,11.281c0.682-0.608,1.578-0.912,2.688-0.912s1.994,0.304,2.656,0.912
		c0.66,0.608,0.992,1.381,0.992,2.32c0,0.896-0.336,1.643-1.009,2.24c-0.672,0.597-1.552,0.896-2.64,0.896
		c-1.109,0-2.006-0.299-2.688-0.896c-0.684-0.597-1.025-1.344-1.025-2.24C468.828,12.663,469.17,11.889,469.854,11.281z
		 M475.645,18.561v17.952h-6.304V18.561H475.645z"/>
	<path fill="#0055FE" d="M489.069,19.153c0.928,0.544,1.616,1.296,2.064,2.256v-2.848h6.271v17.952h-6.271v-2.848
		c-0.448,0.96-1.137,1.712-2.064,2.256c-0.928,0.544-2.021,0.816-3.279,0.816c-1.43,0-2.721-0.368-3.872-1.104
		c-1.152-0.736-2.06-1.803-2.72-3.2c-0.662-1.397-0.992-3.034-0.992-4.912c0-1.877,0.33-3.509,0.992-4.896
		c0.66-1.386,1.567-2.448,2.72-3.184c1.151-0.736,2.442-1.104,3.872-1.104C487.047,18.337,488.141,18.609,489.069,19.153z
		 M485.485,24.817c-0.607,0.651-0.912,1.552-0.912,2.704c0,1.174,0.305,2.085,0.912,2.736c0.608,0.651,1.402,0.976,2.385,0.976
		c0.938,0,1.717-0.331,2.336-0.992c0.618-0.661,0.928-1.568,0.928-2.72c0-1.13-0.31-2.026-0.928-2.688
		c-0.619-0.661-1.398-0.992-2.336-0.992C486.887,23.841,486.093,24.167,485.485,24.817z"/>
	<path fill="#0055FE" d="M517.725,20.465c1.173,1.376,1.76,3.248,1.76,5.616v10.432h-6.24v-9.632c0-1.045-0.271-1.861-0.816-2.448
		c-0.543-0.586-1.274-0.88-2.191-0.88c-0.939,0-1.686,0.304-2.24,0.912s-0.832,1.445-0.832,2.512v9.536h-6.304V18.561h6.304v3.008
		c0.512-0.96,1.259-1.728,2.24-2.304c0.98-0.576,2.133-0.864,3.456-0.864C514.93,18.401,516.551,19.089,517.725,20.465z"/>
	<path fill="#0055FE" d="M523.357,11.281c0.683-0.608,1.578-0.912,2.688-0.912c1.108,0,1.994,0.304,2.655,0.912
		s0.992,1.381,0.992,2.32c0,0.896-0.336,1.643-1.009,2.24c-0.672,0.597-1.551,0.896-2.639,0.896c-1.11,0-2.006-0.299-2.688-0.896
		s-1.024-1.344-1.024-2.24C522.332,12.663,522.674,11.889,523.357,11.281z M529.149,18.561v17.952h-6.305V18.561H529.149z"/>
	<path fill="#0055FE" d="M545.116,20.065c1.408,1.152,2.293,2.678,2.655,4.576h-5.887c-0.15-0.64-0.454-1.12-0.912-1.44
		c-0.459-0.32-1.02-0.48-1.681-0.48c-0.47,0-0.827,0.102-1.071,0.304c-0.246,0.203-0.369,0.485-0.369,0.848
		c0,0.448,0.262,0.784,0.785,1.008c0.521,0.224,1.381,0.475,2.576,0.752c1.386,0.299,2.532,0.619,3.439,0.96
		c0.906,0.341,1.695,0.896,2.367,1.664c0.673,0.768,1.009,1.803,1.009,3.104c0,1.045-0.288,1.973-0.864,2.784
		c-0.576,0.811-1.414,1.446-2.512,1.904c-1.1,0.459-2.395,0.688-3.889,0.688c-2.518,0-4.522-0.544-6.016-1.632
		c-1.493-1.088-2.4-2.645-2.72-4.672h6.048c0.085,0.662,0.368,1.152,0.848,1.472c0.48,0.32,1.083,0.48,1.809,0.48
		c0.49,0,0.863-0.106,1.119-0.32c0.257-0.213,0.385-0.49,0.385-0.832c0-0.512-0.271-0.885-0.816-1.12
		c-0.544-0.234-1.413-0.469-2.607-0.704c-1.365-0.277-2.486-0.581-3.36-0.912c-0.875-0.331-1.638-0.864-2.288-1.6
		c-0.65-0.736-0.977-1.754-0.977-3.056c0-1.621,0.63-2.944,1.889-3.968c1.258-1.024,3.051-1.536,5.376-1.536
		C541.821,18.337,543.708,18.913,545.116,20.065z"/>
	<path fill="#0055FE" d="M561.468,31.137v5.376h-2.592c-2.198,0-3.915-0.544-5.152-1.632c-1.237-1.088-1.856-2.891-1.856-5.408
		v-5.664h-2.303v-5.248h2.303v-4.352h6.305v4.352h3.232v5.248h-3.232v5.792c0,0.555,0.123,0.95,0.367,1.184
		c0.246,0.235,0.656,0.352,1.232,0.352H561.468z"/>
	<path fill="#0055FE" d="M576.828,20.065c1.408,1.152,2.293,2.678,2.655,4.576h-5.888c-0.149-0.64-0.453-1.12-0.912-1.44
		s-1.02-0.48-1.68-0.48c-0.47,0-0.827,0.102-1.072,0.304c-0.246,0.203-0.368,0.485-0.368,0.848c0,0.448,0.261,0.784,0.784,1.008
		c0.522,0.224,1.381,0.475,2.576,0.752c1.387,0.299,2.533,0.619,3.439,0.96s1.696,0.896,2.368,1.664
		c0.673,0.768,1.009,1.803,1.009,3.104c0,1.045-0.289,1.973-0.865,2.784c-0.575,0.811-1.413,1.446-2.512,1.904
		c-1.099,0.459-2.395,0.688-3.888,0.688c-2.518,0-4.522-0.544-6.017-1.632c-1.492-1.088-2.399-2.645-2.719-4.672h6.047
		c0.086,0.662,0.369,1.152,0.849,1.472c0.479,0.32,1.083,0.48,1.808,0.48c0.49,0,0.864-0.106,1.12-0.32
		c0.257-0.213,0.384-0.49,0.384-0.832c0-0.512-0.271-0.885-0.815-1.12c-0.544-0.234-1.413-0.469-2.608-0.704
		c-1.365-0.277-2.485-0.581-3.359-0.912c-0.875-0.331-1.638-0.864-2.289-1.6c-0.65-0.736-0.976-1.754-0.976-3.056
		c0-1.621,0.63-2.944,1.888-3.968c1.259-1.024,3.051-1.536,5.377-1.536C573.531,18.337,575.42,18.913,576.828,20.065z"/>
	<path fill="#0055FE" d="M588.028,30.369v6.144h-6.368v-6.144H588.028z"/>
	<path fill="#0055FE" d="M51.874,52.257v22.656h-6.304V52.257H51.874z"/>
	<path fill="#0055FE" d="M64.611,55.073c-0.747,0-1.291,0.144-1.632,0.432c-0.342,0.288-0.545,0.774-0.608,1.456h2.912v5.248h-2.944
		v12.704h-6.304V62.209h-2.048v-5.248h2.048c0-2.304,0.683-4.09,2.048-5.36c1.365-1.269,3.328-1.904,5.888-1.904
		c0.277,0,0.715,0.021,1.313,0.064v5.344C65.133,55.084,64.908,55.073,64.611,55.073z"/>
	<path fill="#0055FE" d="M84.034,69.537v5.376h-2.592c-2.198,0-3.915-0.544-5.152-1.632c-1.237-1.088-1.856-2.891-1.856-5.408
		v-5.664H72.13v-5.248h2.304v-4.352h6.305v4.352h3.231v5.248h-3.231v5.792c0,0.555,0.122,0.95,0.367,1.184
		c0.245,0.235,0.656,0.352,1.232,0.352H84.034z"/>
	<path fill="#0055FE" d="M103.778,58.865c1.174,1.376,1.761,3.248,1.761,5.616v10.432h-6.24v-9.632c0-1.045-0.272-1.861-0.816-2.448
		c-0.544-0.586-1.274-0.88-2.191-0.88c-0.939,0-1.686,0.304-2.24,0.912s-0.832,1.445-0.832,2.512v9.536h-6.304v-23.68h6.304v8.736
		c0.512-0.96,1.259-1.728,2.24-2.304c0.98-0.576,2.133-0.864,3.456-0.864C100.983,56.801,102.605,57.489,103.778,58.865z"/>
	<path fill="#0055FE" d="M125.986,67.073h-11.872c0.106,2.027,0.992,3.04,2.656,3.04c0.618,0,1.131-0.149,1.536-0.448
		c0.405-0.298,0.683-0.693,0.832-1.184h6.656c-0.235,1.259-0.758,2.395-1.568,3.408s-1.835,1.808-3.072,2.384
		c-1.237,0.576-2.592,0.864-4.063,0.864c-1.792,0-3.376-0.368-4.752-1.104c-1.376-0.736-2.448-1.803-3.216-3.2
		c-0.769-1.397-1.152-3.034-1.152-4.912c0-1.877,0.384-3.509,1.152-4.896c0.768-1.386,1.845-2.448,3.231-3.184
		c1.387-0.736,2.965-1.104,4.736-1.104c1.792,0,3.37,0.363,4.735,1.088c1.365,0.726,2.427,1.76,3.185,3.104
		c0.757,1.344,1.136,2.901,1.136,4.672C126.146,66.049,126.092,66.54,125.986,67.073z M119.01,62.369
		c-0.512-0.469-1.152-0.704-1.92-0.704c-0.832,0-1.51,0.235-2.032,0.704s-0.827,1.163-0.912,2.08h5.601
		C119.767,63.532,119.522,62.838,119.01,62.369z"/>
	<path fill="#0055FE" d="M143.842,55.073c-0.747,0-1.291,0.144-1.632,0.432c-0.342,0.288-0.545,0.774-0.608,1.456h2.912v5.248
		h-2.944v12.704h-6.304V62.209h-2.048v-5.248h2.048c0-2.304,0.683-4.09,2.048-5.36c1.365-1.269,3.328-1.904,5.888-1.904
		c0.277,0,0.715,0.021,1.313,0.064v5.344C144.365,55.084,144.14,55.073,143.842,55.073z"/>
	<path fill="#0055FE" d="M159.953,57.841c1.419,0.736,2.533,1.803,3.345,3.2c0.811,1.397,1.216,3.024,1.216,4.88
		c0,1.878-0.405,3.51-1.216,4.896c-0.812,1.387-1.926,2.454-3.345,3.2c-1.419,0.747-3.023,1.12-4.815,1.12s-3.403-0.373-4.832-1.12
		c-1.43-0.747-2.55-1.813-3.36-3.2c-0.811-1.386-1.216-3.018-1.216-4.896c0-1.877,0.405-3.509,1.216-4.896
		c0.811-1.386,1.931-2.448,3.36-3.184c1.429-0.736,3.04-1.104,4.832-1.104S158.534,57.105,159.953,57.841z M152.962,63.137
		c-0.576,0.64-0.864,1.568-0.864,2.784c0,1.238,0.288,2.176,0.864,2.816c0.575,0.64,1.301,0.96,2.176,0.96
		c0.853,0,1.567-0.325,2.144-0.976c0.576-0.65,0.864-1.584,0.864-2.8c0-1.216-0.288-2.144-0.864-2.784
		c-0.576-0.64-1.291-0.96-2.144-0.96C154.263,62.177,153.537,62.497,152.962,63.137z"/>
	<path fill="#0055FE" d="M173.346,51.233v23.68h-6.305v-23.68H173.346z"/>
	<path fill="#0055FE" d="M183.138,51.233v23.68h-6.305v-23.68H183.138z"/>
	<path fill="#0055FE" d="M199.921,57.841c1.419,0.736,2.533,1.803,3.345,3.2c0.811,1.397,1.216,3.024,1.216,4.88
		c0,1.878-0.405,3.51-1.216,4.896c-0.812,1.387-1.926,2.454-3.345,3.2c-1.419,0.747-3.023,1.12-4.815,1.12s-3.403-0.373-4.832-1.12
		c-1.43-0.747-2.55-1.813-3.36-3.2c-0.811-1.386-1.216-3.018-1.216-4.896c0-1.877,0.405-3.509,1.216-4.896
		c0.811-1.386,1.931-2.448,3.36-3.184c1.429-0.736,3.04-1.104,4.832-1.104S198.502,57.105,199.921,57.841z M192.93,63.137
		c-0.576,0.64-0.864,1.568-0.864,2.784c0,1.238,0.288,2.176,0.864,2.816c0.575,0.64,1.301,0.96,2.176,0.96
		c0.853,0,1.567-0.325,2.144-0.976c0.576-0.65,0.864-1.584,0.864-2.8c0-1.216-0.288-2.144-0.864-2.784
		c-0.576-0.64-1.291-0.96-2.144-0.96C194.231,62.177,193.505,62.497,192.93,63.137z"/>
	<path fill="#0055FE" d="M233.793,56.961l-4.448,17.952h-7.04l-2.72-11.168l-2.784,11.168h-7.071l-4.385-17.952h6.24l1.952,12
		l2.815-12h6.688l2.944,12.096l1.983-12.096H233.793z"/>
	<path fill="#0055FE" d="M236.033,49.681c0.682-0.608,1.578-0.912,2.688-0.912s1.994,0.304,2.656,0.912
		c0.661,0.608,0.992,1.381,0.992,2.32c0,0.896-0.336,1.643-1.009,2.24c-0.672,0.597-1.552,0.896-2.64,0.896
		c-1.109,0-2.006-0.299-2.688-0.896c-0.684-0.597-1.024-1.344-1.024-2.24C235.009,51.063,235.35,50.289,236.033,49.681z
		 M241.825,56.961v17.952h-6.305V56.961H241.825z"/>
	<path fill="#0055FE" d="M262.177,58.865c1.173,1.376,1.76,3.248,1.76,5.616v10.432h-6.24v-9.632c0-1.045-0.271-1.861-0.815-2.448
		c-0.544-0.586-1.275-0.88-2.192-0.88c-0.938,0-1.686,0.304-2.24,0.912s-0.831,1.445-0.831,2.512v9.536h-6.305V56.961h6.305v3.008
		c0.512-0.96,1.258-1.728,2.239-2.304s2.133-0.864,3.456-0.864C259.382,56.801,261.003,57.489,262.177,58.865z"/>
	<path fill="#0055FE" d="M277.233,57.553c0.928,0.544,1.616,1.296,2.064,2.256v-2.848h6.271v17.76c0,1.664-0.319,3.173-0.96,4.528
		c-0.64,1.354-1.632,2.437-2.976,3.248c-1.344,0.811-3.04,1.216-5.088,1.216c-2.795,0-5.02-0.651-6.672-1.952
		c-1.654-1.302-2.619-3.083-2.896-5.344h6.176c0.149,0.597,0.47,1.056,0.96,1.376c0.491,0.32,1.152,0.48,1.984,0.48
		c2.133,0,3.2-1.184,3.2-3.552v-2.656c-0.448,0.96-1.137,1.712-2.064,2.256c-0.928,0.544-2.021,0.816-3.28,0.816
		c-1.429,0-2.72-0.368-3.871-1.104c-1.152-0.736-2.06-1.803-2.721-3.2c-0.661-1.397-0.992-3.034-0.992-4.912
		c0-1.877,0.331-3.509,0.992-4.896c0.661-1.386,1.568-2.448,2.721-3.184c1.151-0.736,2.442-1.104,3.871-1.104
		C275.211,56.737,276.305,57.009,277.233,57.553z M273.649,63.217c-0.607,0.651-0.912,1.552-0.912,2.704
		c0,1.174,0.305,2.085,0.912,2.736c0.608,0.651,1.402,0.976,2.384,0.976c0.938,0,1.718-0.331,2.336-0.992
		c0.619-0.661,0.929-1.568,0.929-2.72c0-1.13-0.31-2.026-0.929-2.688c-0.618-0.661-1.397-0.992-2.336-0.992
		C275.051,62.241,274.257,62.566,273.649,63.217z"/>
	<path fill="#0055FE" d="M307.424,58.465c1.408,1.152,2.293,2.678,2.656,4.576h-5.889c-0.148-0.64-0.453-1.12-0.912-1.44
		s-1.019-0.48-1.68-0.48c-0.469,0-0.826,0.102-1.072,0.304c-0.245,0.203-0.367,0.485-0.367,0.848c0,0.448,0.261,0.784,0.783,1.008
		c0.523,0.224,1.381,0.475,2.576,0.752c1.387,0.299,2.533,0.619,3.44,0.96c0.906,0.341,1.696,0.896,2.368,1.664
		s1.008,1.803,1.008,3.104c0,1.045-0.288,1.973-0.864,2.784c-0.575,0.811-1.413,1.446-2.512,1.904
		c-1.099,0.459-2.396,0.688-3.888,0.688c-2.518,0-4.523-0.544-6.017-1.632c-1.493-1.088-2.399-2.645-2.72-4.672h6.048
		c0.085,0.662,0.368,1.152,0.849,1.472c0.479,0.32,1.082,0.48,1.808,0.48c0.49,0,0.864-0.106,1.12-0.32
		c0.256-0.213,0.384-0.49,0.384-0.832c0-0.512-0.272-0.885-0.815-1.12c-0.545-0.234-1.414-0.469-2.609-0.704
		c-1.365-0.277-2.484-0.581-3.359-0.912c-0.875-0.331-1.637-0.864-2.288-1.6c-0.65-0.736-0.976-1.754-0.976-3.056
		c0-1.621,0.629-2.944,1.888-3.968s3.051-1.536,5.376-1.536C304.128,56.737,306.016,57.313,307.424,58.465z"/>
	<path fill="#0055FE" d="M323.776,69.537v5.376h-2.592c-2.197,0-3.915-0.544-5.152-1.632c-1.237-1.088-1.855-2.891-1.855-5.408
		v-5.664h-2.305v-5.248h2.305v-4.352h6.304v4.352h3.231v5.248h-3.231v5.792c0,0.555,0.122,0.95,0.368,1.184
		c0.244,0.235,0.656,0.352,1.232,0.352H323.776z"/>
	<path fill="#0055FE" d="M336.592,57.553c0.928,0.544,1.615,1.296,2.063,2.256v-2.848h6.272v17.952h-6.272v-2.848
		c-0.448,0.96-1.136,1.712-2.063,2.256c-0.929,0.544-2.021,0.816-3.281,0.816c-1.429,0-2.719-0.368-3.871-1.104
		c-1.152-0.736-2.059-1.803-2.721-3.2c-0.661-1.397-0.992-3.034-0.992-4.912c0-1.877,0.331-3.509,0.992-4.896
		c0.662-1.386,1.568-2.448,2.721-3.184c1.152-0.736,2.442-1.104,3.871-1.104C334.571,56.737,335.663,57.009,336.592,57.553z
		 M333.008,63.217c-0.608,0.651-0.912,1.552-0.912,2.704c0,1.174,0.304,2.085,0.912,2.736c0.607,0.651,1.402,0.976,2.383,0.976
		c0.939,0,1.718-0.331,2.336-0.992c0.619-0.661,0.929-1.568,0.929-2.72c0-1.13-0.31-2.026-0.929-2.688
		c-0.618-0.661-1.396-0.992-2.336-0.992C334.41,62.241,333.615,62.566,333.008,63.217z"/>
	<path fill="#0055FE" d="M359.071,69.537v5.376h-2.592c-2.197,0-3.914-0.544-5.152-1.632c-1.236-1.088-1.855-2.891-1.855-5.408
		v-5.664h-2.304v-5.248h2.304v-4.352h6.305v4.352h3.231v5.248h-3.231v5.792c0,0.555,0.122,0.95,0.367,1.184
		c0.245,0.235,0.656,0.352,1.232,0.352H359.071z"/>
	<path fill="#0055FE" d="M379.039,67.073h-11.873c0.107,2.027,0.992,3.04,2.656,3.04c0.619,0,1.131-0.149,1.537-0.448
		c0.404-0.298,0.682-0.693,0.831-1.184h6.656c-0.235,1.259-0.757,2.395-1.567,3.408c-0.812,1.013-1.836,1.808-3.072,2.384
		c-1.238,0.576-2.592,0.864-4.064,0.864c-1.792,0-3.376-0.368-4.752-1.104c-1.376-0.736-2.447-1.803-3.216-3.2
		c-0.769-1.397-1.152-3.034-1.152-4.912c0-1.877,0.384-3.509,1.152-4.896c0.769-1.386,1.845-2.448,3.231-3.184
		c1.387-0.736,2.965-1.104,4.736-1.104c1.792,0,3.371,0.363,4.736,1.088c1.365,0.726,2.426,1.76,3.184,3.104
		c0.758,1.344,1.137,2.901,1.137,4.672C379.199,66.049,379.145,66.54,379.039,67.073z M372.063,62.369
		c-0.512-0.469-1.152-0.704-1.92-0.704c-0.832,0-1.51,0.235-2.031,0.704c-0.523,0.469-0.828,1.163-0.912,2.08h5.6
		C372.821,63.532,372.574,62.838,372.063,62.369z"/>
	<path fill="#0055FE" d="M410.639,58.849c1.27,1.365,1.904,3.243,1.904,5.632v10.432h-6.272v-9.632c0-0.96-0.267-1.707-0.8-2.24
		c-0.533-0.533-1.248-0.8-2.145-0.8c-0.938,0-1.68,0.272-2.224,0.816s-0.815,1.317-0.815,2.32v9.536h-6.272v-9.632
		c0-0.96-0.267-1.707-0.8-2.24c-0.533-0.533-1.248-0.8-2.145-0.8c-0.939,0-1.68,0.272-2.224,0.816s-0.815,1.317-0.815,2.32v9.536
		h-6.305V56.961h6.305v2.752c0.512-0.896,1.226-1.605,2.143-2.128c0.918-0.522,1.995-0.784,3.232-0.784
		c1.344,0,2.528,0.299,3.553,0.896c1.023,0.597,1.824,1.451,2.399,2.56c0.618-1.045,1.45-1.883,2.496-2.512
		c1.045-0.629,2.208-0.944,3.488-0.944C407.604,56.801,409.369,57.484,410.639,58.849z"/>
	<path fill="#0055FE" d="M432.958,67.073h-11.872c0.106,2.027,0.992,3.04,2.656,3.04c0.618,0,1.131-0.149,1.536-0.448
		c0.405-0.298,0.683-0.693,0.831-1.184h6.656c-0.234,1.259-0.757,2.395-1.567,3.408c-0.812,1.013-1.835,1.808-3.072,2.384
		c-1.237,0.576-2.592,0.864-4.063,0.864c-1.793,0-3.377-0.368-4.752-1.104c-1.377-0.736-2.448-1.803-3.217-3.2
		c-0.768-1.397-1.152-3.034-1.152-4.912c0-1.877,0.385-3.509,1.152-4.896c0.769-1.386,1.846-2.448,3.232-3.184
		c1.387-0.736,2.965-1.104,4.736-1.104c1.791,0,3.37,0.363,4.735,1.088c1.365,0.726,2.427,1.76,3.185,3.104
		c0.757,1.344,1.136,2.901,1.136,4.672C433.118,66.049,433.065,66.54,432.958,67.073z M425.983,62.369
		c-0.512-0.469-1.152-0.704-1.92-0.704c-0.832,0-1.51,0.235-2.032,0.704s-0.827,1.163-0.912,2.08h5.601
		C426.74,63.532,426.494,62.838,425.983,62.369z"/>
	<path fill="#0055FE" d="M452.51,58.865c1.174,1.376,1.76,3.248,1.76,5.616v10.432h-6.24v-9.632c0-1.045-0.271-1.861-0.815-2.448
		c-0.544-0.586-1.274-0.88-2.192-0.88c-0.938,0-1.686,0.304-2.24,0.912s-0.831,1.445-0.831,2.512v9.536h-6.304V56.961h6.304v3.008
		c0.512-0.96,1.259-1.728,2.239-2.304c0.981-0.576,2.133-0.864,3.457-0.864C449.715,56.801,451.336,57.489,452.51,58.865z"/>
	<path fill="#0055FE" d="M468.319,69.537v5.376h-2.592c-2.198,0-3.916-0.544-5.152-1.632c-1.238-1.088-1.856-2.891-1.856-5.408
		v-5.664h-2.304v-5.248h2.304v-4.352h6.304v4.352h3.232v5.248h-3.232v5.792c0,0.555,0.123,0.95,0.368,1.184
		c0.245,0.235,0.656,0.352,1.232,0.352H468.319z"/>
	<path fill="#0055FE" d="M483.678,58.465c1.408,1.152,2.293,2.678,2.656,4.576h-5.889c-0.148-0.64-0.453-1.12-0.912-1.44
		s-1.019-0.48-1.68-0.48c-0.469,0-0.826,0.102-1.072,0.304c-0.245,0.203-0.367,0.485-0.367,0.848c0,0.448,0.261,0.784,0.783,1.008
		c0.523,0.224,1.381,0.475,2.576,0.752c1.387,0.299,2.533,0.619,3.44,0.96c0.906,0.341,1.696,0.896,2.368,1.664
		s1.008,1.803,1.008,3.104c0,1.045-0.288,1.973-0.864,2.784c-0.575,0.811-1.413,1.446-2.512,1.904
		c-1.099,0.459-2.396,0.688-3.888,0.688c-2.518,0-4.523-0.544-6.017-1.632c-1.493-1.088-2.399-2.645-2.72-4.672h6.048
		c0.085,0.662,0.368,1.152,0.849,1.472c0.479,0.32,1.082,0.48,1.808,0.48c0.49,0,0.864-0.106,1.12-0.32
		c0.256-0.213,0.384-0.49,0.384-0.832c0-0.512-0.272-0.885-0.815-1.12c-0.545-0.234-1.414-0.469-2.609-0.704
		c-1.365-0.277-2.484-0.581-3.359-0.912c-0.875-0.331-1.637-0.864-2.288-1.6c-0.651-0.736-0.976-1.754-0.976-3.056
		c0-1.621,0.629-2.944,1.888-3.968s3.05-1.536,5.376-1.536C480.382,56.737,482.27,57.313,483.678,58.465z"/>
	<path fill="#0055FE" d="M505.198,57.553c0.928,0.544,1.615,1.296,2.064,2.256v-2.848h6.271v17.952h-6.271v-2.848
		c-0.449,0.96-1.137,1.712-2.064,2.256c-0.928,0.544-2.021,0.816-3.28,0.816c-1.429,0-2.72-0.368-3.872-1.104
		c-1.152-0.736-2.059-1.803-2.72-3.2c-0.661-1.397-0.992-3.034-0.992-4.912c0-1.877,0.331-3.509,0.992-4.896
		c0.661-1.386,1.567-2.448,2.72-3.184c1.152-0.736,2.443-1.104,3.872-1.104C503.176,56.737,504.27,57.009,505.198,57.553z
		 M501.614,63.217c-0.607,0.651-0.912,1.552-0.912,2.704c0,1.174,0.305,2.085,0.912,2.736s1.402,0.976,2.384,0.976
		c0.938,0,1.718-0.331,2.336-0.992c0.618-0.661,0.929-1.568,0.929-2.72c0-1.13-0.311-2.026-0.929-2.688
		c-0.618-0.661-1.397-0.992-2.336-0.992C503.016,62.241,502.221,62.566,501.614,63.217z"/>
	<path fill="#0055FE" d="M525.949,57.761c1.066-0.64,2.196-0.96,3.392-0.96v6.72h-1.824c-1.407,0-2.464,0.272-3.168,0.816
		s-1.056,1.488-1.056,2.832v7.744h-6.305V56.961h6.305v3.36C523.996,59.254,524.882,58.401,525.949,57.761z"/>
	<path fill="#0055FE" d="M548.508,67.073h-11.871c0.105,2.027,0.992,3.04,2.656,3.04c0.617,0,1.13-0.149,1.535-0.448
		c0.405-0.298,0.683-0.693,0.832-1.184h6.656c-0.234,1.259-0.758,2.395-1.568,3.408s-1.834,1.808-3.072,2.384
		c-1.236,0.576-2.592,0.864-4.063,0.864c-1.792,0-3.376-0.368-4.752-1.104c-1.376-0.736-2.448-1.803-3.216-3.2
		c-0.768-1.397-1.152-3.034-1.152-4.912c0-1.877,0.385-3.509,1.152-4.896c0.768-1.386,1.845-2.448,3.232-3.184
		c1.386-0.736,2.965-1.104,4.735-1.104c1.792,0,3.37,0.363,4.735,1.088c1.365,0.726,2.428,1.76,3.185,3.104
		c0.757,1.344,1.136,2.901,1.136,4.672C548.668,66.049,548.615,66.54,548.508,67.073z M541.532,62.369
		c-0.512-0.469-1.151-0.704-1.92-0.704c-0.832,0-1.509,0.235-2.032,0.704c-0.522,0.469-0.826,1.163-0.912,2.08h5.601
		C542.289,63.532,542.045,62.838,541.532,62.369z"/>
	<path fill="#0055FE" d="M38.866,95.953c0.928,0.544,1.616,1.296,2.064,2.256v-2.848h6.271v17.952h-6.271v-2.848
		c-0.448,0.96-1.137,1.712-2.064,2.256c-0.928,0.544-2.021,0.816-3.28,0.816c-1.429,0-2.72-0.368-3.871-1.104
		c-1.152-0.736-2.06-1.803-2.721-3.2c-0.661-1.397-0.992-3.034-0.992-4.912c0-1.877,0.331-3.509,0.992-4.896
		c0.661-1.386,1.568-2.448,2.721-3.184c1.151-0.736,2.442-1.104,3.871-1.104C36.845,95.137,37.939,95.409,38.866,95.953z
		 M35.282,101.617c-0.607,0.651-0.912,1.552-0.912,2.704c0,1.174,0.305,2.085,0.912,2.736c0.608,0.651,1.402,0.976,2.384,0.976
		c0.938,0,1.718-0.331,2.336-0.992c0.619-0.661,0.929-1.568,0.929-2.72c0-1.13-0.31-2.026-0.929-2.688
		c-0.618-0.661-1.397-0.992-2.336-0.992C36.685,100.641,35.891,100.966,35.282,101.617z"/>
	<path fill="#0055FE" d="M56.962,89.633v23.68h-6.304v-23.68H56.962z"/>
	<path fill="#0055FE" d="M66.754,89.633v23.68H60.45v-23.68H66.754z"/>
	<path fill="#0055FE" d="M86.85,107.937v5.376h-2.592c-2.197,0-3.915-0.544-5.152-1.632c-1.237-1.088-1.855-2.891-1.855-5.408
		v-5.664h-2.304v-5.248h2.304v-4.352h6.304v4.352h3.232v5.248h-3.232v5.792c0,0.555,0.123,0.95,0.368,1.184
		c0.245,0.235,0.656,0.352,1.232,0.352H86.85z"/>
	<path fill="#0055FE" d="M98.69,96.161c1.066-0.64,2.197-0.96,3.393-0.96v6.72h-1.824c-1.408,0-2.464,0.272-3.168,0.816
		s-1.056,1.488-1.056,2.832v7.744H89.73V95.361h6.305v3.36C96.738,97.654,97.623,96.801,98.69,96.161z"/>
	<path fill="#0055FE" d="M122.594,95.361v17.952h-6.272v-3.008c-0.512,0.96-1.259,1.728-2.24,2.304
		c-0.981,0.576-2.133,0.864-3.456,0.864c-2.069,0-3.695-0.688-4.88-2.064c-1.184-1.376-1.775-3.259-1.775-5.648v-10.4h6.271v9.632
		c0,1.024,0.272,1.829,0.816,2.416s1.274,0.88,2.191,0.88c0.938,0,1.686-0.298,2.24-0.896c0.555-0.597,0.832-1.44,0.832-2.528
		v-9.504H122.594z"/>
	<path fill="#0055FE" d="M143.169,105.473h-11.872c0.106,2.027,0.992,3.04,2.656,3.04c0.618,0,1.131-0.149,1.536-0.448
		c0.405-0.298,0.683-0.693,0.832-1.184h6.656c-0.235,1.259-0.758,2.395-1.568,3.408s-1.835,1.808-3.072,2.384
		c-1.237,0.576-2.592,0.864-4.063,0.864c-1.792,0-3.376-0.368-4.752-1.104c-1.376-0.736-2.448-1.803-3.216-3.2
		c-0.769-1.397-1.152-3.034-1.152-4.912c0-1.877,0.384-3.509,1.152-4.896c0.768-1.386,1.845-2.448,3.231-3.184
		c1.387-0.736,2.965-1.104,4.736-1.104c1.792,0,3.37,0.363,4.735,1.088c1.365,0.726,2.427,1.76,3.185,3.104
		c0.757,1.344,1.136,2.901,1.136,4.672C143.329,104.449,143.276,104.94,143.169,105.473z M136.194,100.769
		c-0.512-0.469-1.152-0.704-1.92-0.704c-0.832,0-1.51,0.235-2.032,0.704s-0.827,1.163-0.912,2.08h5.601
		C136.95,101.932,136.705,101.238,136.194,100.769z"/>
	<path fill="#0055FE" d="M150.818,111.633c0.191,0.779,0.288,1.563,0.288,2.352c0,1.6-0.428,2.928-1.28,3.984
		c-0.854,1.056-2.188,1.584-4,1.584v-2.272c0.597,0,1.034-0.128,1.312-0.384s0.416-0.757,0.416-1.504v-0.352h-2.56v-5.536h4.992
		C150.348,110.145,150.625,110.854,150.818,111.633z"/>
	<path fill="#0055FE" d="M186.785,95.361l-4.448,17.952h-7.04l-2.72-11.168l-2.784,11.168h-7.072l-4.384-17.952h6.24l1.951,12
		l2.816-12h6.688l2.944,12.096l1.984-12.096H186.785z"/>
	<path fill="#0055FE" d="M205.376,97.265c1.174,1.376,1.761,3.248,1.761,5.616v10.432h-6.24v-9.632c0-1.045-0.272-1.861-0.816-2.448
		c-0.544-0.586-1.274-0.88-2.191-0.88c-0.939,0-1.686,0.304-2.24,0.912s-0.832,1.445-0.832,2.512v9.536h-6.304v-23.68h6.304v8.736
		c0.512-0.96,1.259-1.728,2.24-2.304c0.98-0.576,2.133-0.864,3.456-0.864C202.581,95.201,204.203,95.889,205.376,97.265z"/>
	<path fill="#0055FE" d="M211.009,88.081c0.682-0.608,1.578-0.912,2.688-0.912s1.994,0.304,2.656,0.912
		c0.661,0.608,0.992,1.381,0.992,2.32c0,0.896-0.336,1.643-1.009,2.24c-0.672,0.597-1.552,0.896-2.64,0.896
		c-1.109,0-2.006-0.299-2.688-0.896c-0.684-0.597-1.024-1.344-1.024-2.24C209.985,89.462,210.325,88.689,211.009,88.081z
		 M216.801,95.361v17.952h-6.305V95.361H216.801z"/>
	<path fill="#0055FE" d="M234.336,97.073c1.579,1.291,2.571,3.078,2.977,5.36h-6.656c-0.149-0.619-0.422-1.093-0.816-1.424
		c-0.395-0.33-0.901-0.496-1.52-0.496c-0.768,0-1.392,0.325-1.872,0.976c-0.479,0.651-0.72,1.595-0.72,2.832
		c0,1.259,0.24,2.208,0.72,2.848c0.48,0.64,1.104,0.96,1.872,0.96c0.618,0,1.125-0.165,1.52-0.496
		c0.395-0.331,0.667-0.805,0.816-1.424h6.656c-0.405,2.283-1.397,4.075-2.977,5.376c-1.579,1.302-3.53,1.952-5.855,1.952
		c-1.792,0-3.376-0.368-4.752-1.104c-1.376-0.736-2.448-1.803-3.216-3.2c-0.769-1.397-1.152-3.034-1.152-4.912
		c0-1.877,0.384-3.509,1.152-4.896c0.768-1.386,1.845-2.448,3.231-3.184c1.387-0.736,2.965-1.104,4.736-1.104
		C230.806,95.137,232.757,95.783,234.336,97.073z"/>
	<path fill="#0055FE" d="M256.704,97.265c1.173,1.376,1.76,3.248,1.76,5.616v10.432h-6.24v-9.632c0-1.045-0.271-1.861-0.815-2.448
		c-0.544-0.586-1.275-0.88-2.192-0.88c-0.938,0-1.686,0.304-2.24,0.912s-0.831,1.445-0.831,2.512v9.536h-6.305v-23.68h6.305v8.736
		c0.512-0.96,1.258-1.728,2.239-2.304s2.133-0.864,3.456-0.864C253.909,95.201,255.531,95.889,256.704,97.265z"/>
	<path fill="#0055FE" d="M281.04,96.241c1.418,0.736,2.533,1.803,3.344,3.2c0.811,1.397,1.216,3.024,1.216,4.88
		c0,1.878-0.405,3.51-1.216,4.896c-0.811,1.387-1.926,2.454-3.344,3.2c-1.419,0.747-3.024,1.12-4.816,1.12s-3.402-0.373-4.832-1.12
		c-1.43-0.747-2.549-1.813-3.359-3.2c-0.812-1.386-1.217-3.018-1.217-4.896c0-1.877,0.405-3.509,1.217-4.896
		c0.811-1.386,1.93-2.448,3.359-3.184c1.43-0.736,3.04-1.104,4.832-1.104S279.621,95.505,281.04,96.241z M274.048,101.537
		c-0.576,0.64-0.864,1.568-0.864,2.784c0,1.238,0.288,2.176,0.864,2.816c0.576,0.64,1.301,0.96,2.176,0.96
		c0.854,0,1.568-0.325,2.145-0.976c0.576-0.65,0.863-1.584,0.863-2.8c0-1.216-0.287-2.144-0.863-2.784
		c-0.576-0.64-1.291-0.96-2.145-0.96C275.349,100.577,274.624,100.897,274.048,101.537z"/>
	<path fill="#0055FE" d="M297.376,93.473c-0.747,0-1.291,0.144-1.632,0.432c-0.342,0.288-0.545,0.774-0.608,1.456h2.912v5.248
		h-2.944v12.704H288.8v-12.704h-2.048v-5.248h2.048c0-2.304,0.683-4.09,2.048-5.36c1.365-1.269,3.328-1.904,5.888-1.904
		c0.277,0,0.715,0.021,1.313,0.064v5.344C297.899,93.484,297.674,93.473,297.376,93.473z"/>
	<path fill="#0055FE" d="M316.799,107.937v5.376h-2.592c-2.197,0-3.914-0.544-5.152-1.632c-1.236-1.088-1.855-2.891-1.855-5.408
		v-5.664h-2.304v-5.248h2.304v-4.352h6.305v4.352h3.231v5.248h-3.231v5.792c0,0.555,0.122,0.95,0.367,1.184
		c0.245,0.235,0.656,0.352,1.232,0.352H316.799z"/>
	<path fill="#0055FE" d="M336.543,97.265c1.174,1.376,1.76,3.248,1.76,5.616v10.432h-6.24v-9.632c0-1.045-0.271-1.861-0.815-2.448
		c-0.544-0.586-1.274-0.88-2.192-0.88c-0.938,0-1.686,0.304-2.24,0.912s-0.831,1.445-0.831,2.512v9.536h-6.304v-23.68h6.304v8.736
		c0.512-0.96,1.259-1.728,2.239-2.304c0.981-0.576,2.133-0.864,3.457-0.864C333.748,95.201,335.369,95.889,336.543,97.265z"/>
	<path fill="#0055FE" d="M358.751,105.473h-11.872c0.106,2.027,0.992,3.04,2.656,3.04c0.618,0,1.131-0.149,1.536-0.448
		c0.405-0.298,0.683-0.693,0.831-1.184h6.656c-0.234,1.259-0.757,2.395-1.567,3.408c-0.812,1.013-1.835,1.808-3.072,2.384
		c-1.237,0.576-2.592,0.864-4.063,0.864c-1.793,0-3.377-0.368-4.752-1.104c-1.377-0.736-2.448-1.803-3.217-3.2
		c-0.768-1.397-1.152-3.034-1.152-4.912c0-1.877,0.385-3.509,1.152-4.896c0.769-1.386,1.846-2.448,3.232-3.184
		c1.387-0.736,2.965-1.104,4.736-1.104c1.791,0,3.37,0.363,4.735,1.088c1.365,0.726,2.427,1.76,3.185,3.104
		c0.757,1.344,1.136,2.901,1.136,4.672C358.911,104.449,358.858,104.94,358.751,105.473z M351.776,100.769
		c-0.512-0.469-1.152-0.704-1.92-0.704c-0.832,0-1.51,0.235-2.032,0.704s-0.827,1.163-0.912,2.08h5.601
		C352.532,101.932,352.287,101.238,351.776,100.769z"/>
	<path fill="#0055FE" d="M390.352,97.249c1.269,1.365,1.903,3.243,1.903,5.632v10.432h-6.272v-9.632c0-0.96-0.267-1.707-0.799-2.24
		c-0.534-0.533-1.248-0.8-2.145-0.8c-0.939,0-1.68,0.272-2.225,0.816c-0.543,0.544-0.815,1.317-0.815,2.32v9.536h-6.272v-9.632
		c0-0.96-0.267-1.707-0.8-2.24c-0.533-0.533-1.248-0.8-2.144-0.8c-0.939,0-1.68,0.272-2.225,0.816
		c-0.543,0.544-0.815,1.317-0.815,2.32v9.536h-6.304V95.361h6.304v2.752c0.512-0.896,1.226-1.605,2.144-2.128
		c0.917-0.522,1.994-0.784,3.232-0.784c1.344,0,2.527,0.299,3.552,0.896s1.824,1.451,2.399,2.56
		c0.619-1.045,1.451-1.883,2.496-2.512c1.045-0.629,2.209-0.944,3.488-0.944C387.317,95.201,389.082,95.884,390.352,97.249z"/>
	<path fill="#0055FE" d="M416.99,96.241c1.152,0.736,2.059,1.797,2.721,3.184c0.66,1.387,0.992,3.019,0.992,4.896
		c0,1.878-0.332,3.515-0.992,4.912c-0.662,1.397-1.568,2.464-2.721,3.2c-1.152,0.736-2.443,1.104-3.871,1.104
		c-1.26,0-2.348-0.272-3.265-0.816c-0.917-0.544-1.601-1.296-2.048-2.256v11.424h-6.305V95.361h6.305v2.848
		c0.447-0.96,1.131-1.712,2.048-2.256s2.005-0.816,3.265-0.816C414.547,95.137,415.838,95.505,416.99,96.241z M408.703,101.633
		c-0.619,0.662-0.929,1.558-0.929,2.688c0,1.152,0.31,2.059,0.929,2.72c0.617,0.662,1.396,0.992,2.336,0.992
		c0.98,0,1.775-0.325,2.383-0.976c0.608-0.651,0.912-1.563,0.912-2.736c0-1.152-0.304-2.053-0.912-2.704
		c-0.607-0.651-1.402-0.976-2.383-0.976C410.1,100.641,409.321,100.972,408.703,101.633z"/>
	<path fill="#0055FE" d="M429.534,89.633v23.68h-6.304v-23.68H429.534z"/>
	<path fill="#0055FE" d="M442.958,95.953c0.928,0.544,1.616,1.296,2.063,2.256v-2.848h6.272v17.952h-6.272v-2.848
		c-0.447,0.96-1.136,1.712-2.063,2.256c-0.929,0.544-2.021,0.816-3.28,0.816c-1.43,0-2.72-0.368-3.871-1.104
		c-1.152-0.736-2.06-1.803-2.721-3.2c-0.662-1.397-0.992-3.034-0.992-4.912c0-1.877,0.33-3.509,0.992-4.896
		c0.661-1.386,1.568-2.448,2.721-3.184c1.151-0.736,2.441-1.104,3.871-1.104C440.937,95.137,442.03,95.409,442.958,95.953z
		 M439.374,101.617c-0.608,0.651-0.912,1.552-0.912,2.704c0,1.174,0.304,2.085,0.912,2.736s1.402,0.976,2.384,0.976
		c0.938,0,1.717-0.331,2.336-0.992c0.619-0.661,0.928-1.568,0.928-2.72c0-1.13-0.309-2.026-0.928-2.688
		c-0.619-0.661-1.397-0.992-2.336-0.992C440.777,100.641,439.983,100.966,439.374,101.617z"/>
	<path fill="#0055FE" d="M459.838,95.361l3.84,10.048l3.552-10.048h6.976l-11.359,26.528h-6.912l4.384-9.344l-7.487-17.184H459.838z
		"/>
	<path fill="#0055FE" d="M488.19,96.865c1.408,1.152,2.293,2.678,2.656,4.576h-5.889c-0.148-0.64-0.453-1.12-0.912-1.44
		s-1.019-0.48-1.68-0.48c-0.469,0-0.826,0.102-1.072,0.304c-0.245,0.203-0.367,0.485-0.367,0.848c0,0.448,0.261,0.784,0.783,1.008
		c0.523,0.224,1.381,0.475,2.576,0.752c1.387,0.299,2.533,0.619,3.44,0.96c0.906,0.341,1.696,0.896,2.368,1.664
		s1.008,1.803,1.008,3.104c0,1.045-0.288,1.973-0.864,2.784c-0.575,0.811-1.413,1.446-2.512,1.904
		c-1.099,0.459-2.396,0.688-3.888,0.688c-2.518,0-4.523-0.544-6.017-1.632c-1.493-1.088-2.399-2.645-2.72-4.672h6.048
		c0.085,0.662,0.368,1.152,0.849,1.472c0.479,0.32,1.082,0.48,1.808,0.48c0.49,0,0.864-0.106,1.12-0.32
		c0.256-0.213,0.384-0.49,0.384-0.832c0-0.512-0.272-0.885-0.815-1.12c-0.545-0.234-1.414-0.469-2.609-0.704
		c-1.365-0.277-2.484-0.581-3.359-0.912c-0.875-0.331-1.637-0.864-2.288-1.6c-0.651-0.736-0.976-1.754-0.976-3.056
		c0-1.621,0.629-2.944,1.888-3.968s3.05-1.536,5.376-1.536C484.894,95.137,486.781,95.713,488.19,96.865z"/>
	<path fill="#0055FE" d="M508.701,93.473c-0.641,0-1.109,0.144-1.408,0.432c-0.299,0.288-0.47,0.774-0.512,1.456h10.783v17.952
		h-6.304v-12.704h-4.512v12.704h-6.304v-12.704h-2.017v-5.248h2.017c0-2.325,0.66-4.117,1.983-5.376
		c1.323-1.258,3.211-1.888,5.664-1.888c0.235,0,0.629,0.021,1.185,0.064v5.344C509.149,93.484,508.957,93.473,508.701,93.473z
		 M511.757,93.265c-0.672-0.565-1.008-1.296-1.008-2.192s0.336-1.632,1.008-2.208c0.672-0.576,1.563-0.864,2.672-0.864
		s2,0.288,2.673,0.864c0.672,0.576,1.008,1.312,1.008,2.208s-0.336,1.627-1.008,2.192c-0.673,0.565-1.563,0.848-2.673,0.848
		S512.429,93.831,511.757,93.265z"/>
	<path fill="#0055FE" d="M530.653,96.161c1.066-0.64,2.197-0.96,3.393-0.96v6.72h-1.824c-1.408,0-2.464,0.272-3.168,0.816
		s-1.056,1.488-1.056,2.832v7.744h-6.304V95.361h6.304v3.36C528.701,97.654,529.586,96.801,530.653,96.161z"/>
	<path fill="#0055FE" d="M548.605,96.865c1.408,1.152,2.293,2.678,2.655,4.576h-5.887c-0.15-0.64-0.454-1.12-0.912-1.44
		c-0.459-0.32-1.02-0.48-1.681-0.48c-0.47,0-0.827,0.102-1.071,0.304c-0.246,0.203-0.369,0.485-0.369,0.848
		c0,0.448,0.262,0.784,0.785,1.008c0.521,0.224,1.381,0.475,2.576,0.752c1.386,0.299,2.532,0.619,3.439,0.96
		c0.906,0.341,1.695,0.896,2.367,1.664c0.673,0.768,1.009,1.803,1.009,3.104c0,1.045-0.288,1.973-0.864,2.784
		c-0.576,0.811-1.414,1.446-2.512,1.904c-1.1,0.459-2.395,0.688-3.889,0.688c-2.518,0-4.522-0.544-6.016-1.632
		c-1.493-1.088-2.4-2.645-2.72-4.672h6.048c0.085,0.662,0.368,1.152,0.848,1.472c0.48,0.32,1.083,0.48,1.809,0.48
		c0.49,0,0.863-0.106,1.119-0.32c0.257-0.213,0.385-0.49,0.385-0.832c0-0.512-0.271-0.885-0.816-1.12
		c-0.544-0.234-1.413-0.469-2.607-0.704c-1.365-0.277-2.486-0.581-3.36-0.912c-0.875-0.331-1.638-0.864-2.288-1.6
		c-0.65-0.736-0.977-1.754-0.977-3.056c0-1.621,0.63-2.944,1.889-3.968c1.258-1.024,3.051-1.536,5.376-1.536
		C545.309,95.137,547.197,95.713,548.605,96.865z"/>
	<path fill="#0055FE" d="M564.956,107.937v5.376h-2.592c-2.198,0-3.915-0.544-5.152-1.632c-1.237-1.088-1.856-2.891-1.856-5.408
		v-5.664h-2.303v-5.248h2.303v-4.352h6.305v4.352h3.232v5.248h-3.232v5.792c0,0.555,0.123,0.95,0.367,1.184
		c0.246,0.235,0.656,0.352,1.232,0.352H564.956z"/>
	<path fill="#0055FE" d="M197.233,134.354c0.928,0.544,1.616,1.296,2.064,2.256v-2.848h6.271v17.952h-6.271v-2.848
		c-0.448,0.96-1.137,1.712-2.064,2.256c-0.928,0.544-2.021,0.816-3.28,0.816c-1.429,0-2.72-0.368-3.871-1.104
		c-1.152-0.736-2.06-1.803-2.721-3.2c-0.661-1.397-0.992-3.034-0.992-4.912c0-1.877,0.331-3.509,0.992-4.896
		c0.661-1.386,1.568-2.448,2.721-3.184c1.151-0.736,2.442-1.104,3.871-1.104C195.211,133.538,196.305,133.81,197.233,134.354z
		 M193.649,140.018c-0.607,0.651-0.912,1.552-0.912,2.704c0,1.174,0.305,2.085,0.912,2.736c0.608,0.651,1.402,0.976,2.384,0.976
		c0.938,0,1.718-0.331,2.336-0.992c0.619-0.661,0.929-1.568,0.929-2.72c0-1.13-0.31-2.026-0.929-2.688
		c-0.618-0.661-1.397-0.992-2.336-0.992C195.051,139.042,194.257,139.367,193.649,140.018z"/>
	<path fill="#0055FE" d="M219.712,146.337v5.376h-2.592c-2.197,0-3.915-0.544-5.152-1.632c-1.237-1.088-1.855-2.891-1.855-5.408
		v-5.664h-2.304v-5.248h2.304v-4.352h6.304v4.352h3.232v5.248h-3.232v5.792c0,0.555,0.123,0.95,0.368,1.184
		c0.245,0.235,0.656,0.352,1.232,0.352H219.712z"/>
	<path fill="#0055FE" d="M239.2,146.337v5.376h-2.592c-2.198,0-3.915-0.544-5.152-1.632c-1.237-1.088-1.856-2.891-1.856-5.408
		v-5.664h-2.304v-5.248h2.304v-4.352h6.305v4.352h3.231v5.248h-3.231v5.792c0,0.555,0.122,0.95,0.367,1.184
		c0.245,0.235,0.656,0.352,1.232,0.352H239.2z"/>
	<path fill="#0055FE" d="M258.944,135.666c1.174,1.376,1.761,3.248,1.761,5.616v10.432h-6.24v-9.632
		c0-1.045-0.272-1.861-0.816-2.448c-0.544-0.586-1.274-0.88-2.191-0.88c-0.939,0-1.686,0.304-2.24,0.912s-0.832,1.445-0.832,2.512
		v9.536h-6.304v-23.68h6.304v8.736c0.512-0.96,1.259-1.728,2.24-2.304c0.98-0.576,2.133-0.864,3.456-0.864
		C256.149,133.602,257.771,134.29,258.944,135.666z"/>
	<path fill="#0055FE" d="M281.152,143.874H269.28c0.106,2.027,0.992,3.04,2.656,3.04c0.618,0,1.131-0.149,1.536-0.448
		c0.405-0.298,0.683-0.693,0.832-1.184h6.656c-0.235,1.259-0.758,2.395-1.568,3.408s-1.835,1.808-3.072,2.384
		c-1.237,0.576-2.592,0.864-4.063,0.864c-1.792,0-3.376-0.368-4.752-1.104c-1.376-0.736-2.448-1.803-3.216-3.2
		c-0.769-1.397-1.152-3.034-1.152-4.912c0-1.877,0.384-3.509,1.152-4.896c0.768-1.386,1.845-2.448,3.231-3.184
		c1.387-0.736,2.965-1.104,4.736-1.104c1.792,0,3.37,0.363,4.735,1.088c1.365,0.726,2.427,1.76,3.185,3.104
		c0.757,1.344,1.136,2.901,1.136,4.672C281.312,142.85,281.258,143.34,281.152,143.874z M274.176,139.169
		c-0.512-0.469-1.152-0.704-1.92-0.704c-0.832,0-1.51,0.235-2.032,0.704s-0.827,1.163-0.912,2.08h5.601
		C274.933,140.333,274.688,139.639,274.176,139.169z"/>
	<path fill="#0055FE" d="M298.72,134.562c1.065-0.64,2.196-0.96,3.392-0.96v6.72h-1.824c-1.407,0-2.464,0.272-3.168,0.816
		s-1.056,1.488-1.056,2.832v7.744h-6.304v-17.952h6.304v3.36C296.768,136.055,297.653,135.201,298.72,134.562z"/>
	<path fill="#0055FE" d="M321.28,143.874h-11.873c0.107,2.027,0.992,3.04,2.656,3.04c0.619,0,1.131-0.149,1.537-0.448
		c0.404-0.298,0.682-0.693,0.831-1.184h6.656c-0.235,1.259-0.757,2.395-1.567,3.408c-0.812,1.013-1.836,1.808-3.072,2.384
		c-1.238,0.576-2.592,0.864-4.064,0.864c-1.792,0-3.376-0.368-4.752-1.104c-1.376-0.736-2.447-1.803-3.216-3.2
		c-0.769-1.397-1.152-3.034-1.152-4.912c0-1.877,0.384-3.509,1.152-4.896c0.769-1.386,1.845-2.448,3.231-3.184
		c1.387-0.736,2.965-1.104,4.736-1.104c1.792,0,3.371,0.363,4.736,1.088c1.365,0.726,2.426,1.76,3.184,3.104
		c0.758,1.344,1.137,2.901,1.137,4.672C321.44,142.85,321.385,143.34,321.28,143.874z M314.303,139.169
		c-0.512-0.469-1.152-0.704-1.92-0.704c-0.832,0-1.51,0.235-2.031,0.704c-0.523,0.469-0.828,1.163-0.912,2.08h5.6
		C315.061,140.333,314.815,139.639,314.303,139.169z"/>
	<path fill="#0055FE" d="M338.015,135.473c1.579,1.291,2.571,3.078,2.976,5.36h-6.655c-0.149-0.619-0.422-1.093-0.816-1.424
		c-0.396-0.33-0.901-0.496-1.521-0.496c-0.768,0-1.391,0.325-1.871,0.976c-0.48,0.651-0.721,1.595-0.721,2.832
		c0,1.259,0.24,2.208,0.721,2.848s1.104,0.96,1.871,0.96c0.619,0,1.125-0.165,1.521-0.496c0.395-0.331,0.667-0.805,0.816-1.424
		h6.655c-0.404,2.283-1.396,4.075-2.976,5.376c-1.579,1.302-3.53,1.952-5.856,1.952c-1.791,0-3.375-0.368-4.752-1.104
		c-1.375-0.736-2.447-1.803-3.215-3.2c-0.769-1.397-1.152-3.034-1.152-4.912c0-1.877,0.384-3.509,1.152-4.896
		c0.768-1.386,1.844-2.448,3.231-3.184c1.386-0.736,2.965-1.104,4.735-1.104C334.485,133.538,336.436,134.183,338.015,135.473z"/>
	<path fill="#0055FE" d="M344.031,126.481c0.682-0.608,1.578-0.912,2.688-0.912s1.994,0.304,2.656,0.912
		c0.66,0.608,0.992,1.381,0.992,2.32c0,0.896-0.336,1.643-1.009,2.24c-0.672,0.597-1.552,0.896-2.64,0.896
		c-1.109,0-2.006-0.299-2.688-0.896c-0.684-0.597-1.025-1.344-1.025-2.24C343.006,127.863,343.348,127.089,344.031,126.481z
		 M349.823,133.761v17.952h-6.304v-17.952H349.823z"/>
	<path fill="#0055FE" d="M363.998,146.337v5.376h-2.592c-2.197,0-3.914-0.544-5.152-1.632c-1.236-1.088-1.855-2.891-1.855-5.408
		v-5.664h-2.304v-5.248h2.304v-4.352h6.305v4.352h3.231v5.248h-3.231v5.792c0,0.555,0.122,0.95,0.367,1.184
		c0.245,0.235,0.656,0.352,1.232,0.352H363.998z"/>
	<path fill="#0055FE" d="M376.815,134.354c0.928,0.544,1.615,1.296,2.064,2.256v-2.848h6.271v17.952h-6.271v-2.848
		c-0.449,0.96-1.137,1.712-2.064,2.256c-0.928,0.544-2.021,0.816-3.28,0.816c-1.429,0-2.72-0.368-3.872-1.104
		c-1.152-0.736-2.059-1.803-2.72-3.2c-0.661-1.397-0.992-3.034-0.992-4.912c0-1.877,0.331-3.509,0.992-4.896
		c0.661-1.386,1.567-2.448,2.72-3.184c1.152-0.736,2.443-1.104,3.872-1.104C374.793,133.538,375.887,133.81,376.815,134.354z
		 M373.231,140.018c-0.607,0.651-0.912,1.552-0.912,2.704c0,1.174,0.305,2.085,0.912,2.736s1.402,0.976,2.384,0.976
		c0.938,0,1.718-0.331,2.336-0.992c0.618-0.661,0.929-1.568,0.929-2.72c0-1.13-0.311-2.026-0.929-2.688
		c-0.618-0.661-1.397-0.992-2.336-0.992C374.633,139.042,373.838,139.367,373.231,140.018z"/>
	<path fill="#0055FE" d="M394.91,128.033v23.68h-6.305v-23.68H394.91z"/>
	<path fill="#0055FE" d="M410.878,128.978c1.387,1.163,2.08,2.854,2.08,5.072c0,1.963-0.651,3.52-1.952,4.672
		c-1.301,1.152-3.008,1.75-5.12,1.792v2.592h-5.92v-6.592h2.433c1.408,0,2.49-0.181,3.248-0.544
		c0.756-0.362,1.135-0.992,1.135-1.888c0-0.555-0.154-0.987-0.463-1.296c-0.311-0.309-0.71-0.464-1.2-0.464
		c-0.576,0-1.024,0.182-1.345,0.544c-0.319,0.363-0.479,0.832-0.479,1.408h-5.952c-0.043-1.301,0.229-2.485,0.816-3.552
		c0.586-1.066,1.488-1.915,2.703-2.544c1.217-0.629,2.709-0.944,4.48-0.944C407.647,127.233,409.49,127.815,410.878,128.978z
		 M406.143,145.569v6.144h-6.369v-6.144H406.143z"/>
</g>
<g>
	<path fill="#0055FE" d="M127.346,210.777v-5.92h9.984v22.656h-6.592v-16.736H127.346z"/>
	<path fill="#0055FE" d="M149.522,225.593c-1.621,3.264-3.743,5.909-6.367,7.936h-6.08v-0.576c2.965-2.475,5.178-5.221,6.64-8.239
		c1.461-3.019,2.192-6.373,2.192-10.064s-0.731-7.045-2.192-10.064c-1.462-3.018-3.675-5.765-6.64-8.24v-0.576h6.08
		c2.624,2.027,4.746,4.667,6.367,7.92c1.621,3.254,2.433,6.896,2.433,10.928C151.954,218.671,151.143,222.329,149.522,225.593z"/>
	<path fill="#0055FE" d="M166.546,219.929v7.584h-6.305v-22.656h9.408c2.73,0,4.816,0.688,6.256,2.064
		c1.44,1.376,2.16,3.216,2.16,5.52c0,1.429-0.32,2.709-0.96,3.84c-0.64,1.131-1.595,2.021-2.864,2.672
		c-1.27,0.651-2.8,0.976-4.592,0.976H166.546z M171.698,212.441c0-1.664-0.917-2.496-2.752-2.496h-2.399v5.024h2.399
		C170.781,214.969,171.698,214.126,171.698,212.441z"/>
	<path fill="#0055FE" d="M190.465,210.153c0.928,0.544,1.616,1.296,2.064,2.256v-2.848h6.271v17.952h-6.271v-2.848
		c-0.448,0.96-1.137,1.712-2.064,2.256c-0.928,0.544-2.021,0.816-3.28,0.816c-1.429,0-2.72-0.368-3.871-1.104
		c-1.152-0.736-2.06-1.803-2.721-3.2c-0.661-1.397-0.992-3.034-0.992-4.912c0-1.877,0.331-3.509,0.992-4.896
		c0.661-1.386,1.568-2.448,2.721-3.184c1.151-0.736,2.442-1.104,3.871-1.104C188.444,209.337,189.537,209.609,190.465,210.153z
		 M186.881,215.817c-0.607,0.651-0.912,1.552-0.912,2.704c0,1.174,0.305,2.085,0.912,2.736c0.608,0.651,1.402,0.976,2.384,0.976
		c0.938,0,1.718-0.331,2.336-0.992c0.619-0.661,0.929-1.568,0.929-2.72c0-1.13-0.31-2.026-0.929-2.688
		c-0.618-0.661-1.397-0.992-2.336-0.992C188.283,214.841,187.49,215.167,186.881,215.817z"/>
	<path fill="#0055FE" d="M220.689,209.561v17.952h-6.271v-3.008c-0.513,0.96-1.26,1.728-2.24,2.304
		c-0.981,0.576-2.134,0.864-3.456,0.864c-2.069,0-3.696-0.688-4.88-2.064c-1.185-1.376-1.776-3.259-1.776-5.648v-10.4h6.272v9.632
		c0,1.024,0.271,1.829,0.815,2.416s1.274,0.88,2.192,0.88c0.938,0,1.685-0.298,2.24-0.896c0.554-0.597,0.832-1.44,0.832-2.528
		v-9.504H220.689z"/>
	<path fill="#0055FE" d="M230.481,203.833v23.68h-6.304v-23.68H230.481z"/>
	<path fill="#0055FE" d="M240.401,202.281c0.683-0.608,1.578-0.912,2.688-0.912c1.108,0,1.994,0.304,2.655,0.912
		s0.992,1.381,0.992,2.32c0,0.896-0.336,1.643-1.008,2.24s-1.552,0.896-2.64,0.896c-1.11,0-2.006-0.299-2.688-0.896
		s-1.024-1.344-1.024-2.24C239.376,203.663,239.718,202.889,240.401,202.281z M246.193,209.561v17.952h-6.304v-17.952H246.193z"/>
	<path fill="#0055FE" d="M262.16,211.065c1.408,1.152,2.293,2.678,2.656,4.576h-5.888c-0.149-0.64-0.454-1.12-0.912-1.44
		c-0.459-0.32-1.02-0.48-1.681-0.48c-0.469,0-0.826,0.102-1.071,0.304c-0.246,0.203-0.368,0.485-0.368,0.848
		c0,0.448,0.261,0.784,0.784,1.008c0.522,0.224,1.381,0.475,2.576,0.752c1.386,0.299,2.532,0.619,3.439,0.96
		c0.906,0.341,1.696,0.896,2.368,1.664s1.008,1.803,1.008,3.104c0,1.045-0.288,1.973-0.864,2.784
		c-0.575,0.811-1.413,1.446-2.512,1.904c-1.099,0.459-2.395,0.688-3.888,0.688c-2.518,0-4.523-0.544-6.017-1.632
		c-1.493-1.088-2.399-2.645-2.72-4.672h6.048c0.085,0.662,0.368,1.152,0.849,1.472c0.479,0.32,1.082,0.48,1.808,0.48
		c0.49,0,0.864-0.106,1.12-0.32c0.256-0.213,0.384-0.49,0.384-0.832c0-0.512-0.271-0.885-0.815-1.12
		c-0.545-0.234-1.414-0.469-2.608-0.704c-1.365-0.277-2.485-0.581-3.36-0.912c-0.875-0.331-1.637-0.864-2.288-1.6
		c-0.65-0.736-0.976-1.754-0.976-3.056c0-1.621,0.629-2.944,1.888-3.968s3.051-1.536,5.376-1.536
		C258.865,209.337,260.752,209.913,262.16,211.065z"/>
	<path fill="#0055FE" d="M290.608,211.465c1.174,1.376,1.761,3.248,1.761,5.616v10.432h-6.24v-9.632
		c0-1.045-0.272-1.861-0.816-2.448c-0.544-0.586-1.274-0.88-2.191-0.88c-0.939,0-1.686,0.304-2.24,0.912s-0.832,1.445-0.832,2.512
		v9.536h-6.304v-17.952h6.304v3.008c0.512-0.96,1.259-1.728,2.24-2.304c0.98-0.576,2.133-0.864,3.456-0.864
		C287.813,209.401,289.435,210.089,290.608,211.465z"/>
	<path fill="#0055FE" d="M309.024,210.441c1.419,0.736,2.533,1.803,3.345,3.2c0.811,1.397,1.216,3.024,1.216,4.88
		c0,1.878-0.405,3.51-1.216,4.896c-0.812,1.387-1.926,2.454-3.345,3.2c-1.418,0.747-3.023,1.12-4.815,1.12s-3.403-0.373-4.832-1.12
		c-1.43-0.747-2.55-1.813-3.36-3.2c-0.811-1.386-1.216-3.018-1.216-4.896c0-1.877,0.405-3.509,1.216-4.896
		c0.811-1.386,1.931-2.448,3.36-3.184c1.429-0.736,3.04-1.104,4.832-1.104S307.606,209.705,309.024,210.441z M302.032,215.737
		c-0.576,0.64-0.864,1.568-0.864,2.784c0,1.238,0.288,2.176,0.864,2.816c0.575,0.64,1.301,0.96,2.176,0.96
		c0.853,0,1.567-0.325,2.144-0.976c0.576-0.65,0.864-1.584,0.864-2.8c0-1.216-0.288-2.144-0.864-2.784
		c-0.576-0.64-1.291-0.96-2.144-0.96C303.333,214.777,302.608,215.097,302.032,215.737z"/>
	<path fill="#0055FE" d="M326.8,222.137v5.376h-2.592c-2.198,0-3.915-0.544-5.152-1.632c-1.237-1.088-1.856-2.891-1.856-5.408
		v-5.664h-2.303v-5.248h2.303v-4.352h6.305v4.352h3.232v5.248h-3.232v5.792c0,0.555,0.123,0.95,0.367,1.184
		c0.246,0.235,0.656,0.352,1.232,0.352H326.8z"/>
	<path fill="#0055FE" d="M346.287,222.137v5.376h-2.592c-2.197,0-3.914-0.544-5.152-1.632c-1.236-1.088-1.855-2.891-1.855-5.408
		v-5.664h-2.304v-5.248h2.304v-4.352h6.305v4.352h3.231v5.248h-3.231v5.792c0,0.555,0.122,0.95,0.367,1.184
		c0.245,0.235,0.656,0.352,1.232,0.352H346.287z"/>
	<path fill="#0055FE" d="M366.031,211.465c1.174,1.376,1.76,3.248,1.76,5.616v10.432h-6.24v-9.632c0-1.045-0.271-1.861-0.815-2.448
		c-0.544-0.586-1.274-0.88-2.192-0.88c-0.938,0-1.686,0.304-2.24,0.912s-0.831,1.445-0.831,2.512v9.536h-6.304v-23.68h6.304v8.736
		c0.512-0.96,1.259-1.728,2.239-2.304c0.981-0.576,2.133-0.864,3.457-0.864C363.237,209.401,364.858,210.089,366.031,211.465z"/>
	<path fill="#0055FE" d="M388.24,219.673h-11.872c0.106,2.027,0.992,3.04,2.656,3.04c0.618,0,1.131-0.149,1.536-0.448
		c0.405-0.298,0.683-0.693,0.831-1.184h6.656c-0.234,1.259-0.757,2.395-1.567,3.408c-0.812,1.013-1.835,1.808-3.072,2.384
		c-1.237,0.576-2.592,0.864-4.063,0.864c-1.793,0-3.377-0.368-4.752-1.104c-1.377-0.736-2.448-1.803-3.217-3.2
		c-0.768-1.397-1.152-3.034-1.152-4.912c0-1.877,0.385-3.509,1.152-4.896c0.769-1.386,1.846-2.448,3.232-3.184
		c1.387-0.736,2.965-1.104,4.736-1.104c1.791,0,3.37,0.363,4.735,1.088c1.365,0.726,2.427,1.76,3.185,3.104
		c0.757,1.344,1.136,2.901,1.136,4.672C388.4,218.649,388.346,219.14,388.24,219.673z M381.264,214.969
		c-0.512-0.469-1.152-0.704-1.92-0.704c-0.832,0-1.51,0.235-2.032,0.704s-0.827,1.163-0.912,2.08H382
		C382.021,216.132,381.776,215.438,381.264,214.969z"/>
	<path fill="#0055FE" d="M405.776,207.673c-0.641,0-1.109,0.144-1.408,0.432c-0.299,0.288-0.47,0.774-0.512,1.456h10.783v17.952
		h-6.304v-12.704h-4.512v12.704h-6.304v-12.704h-2.017v-5.248h2.017c0-2.325,0.66-4.117,1.983-5.376
		c1.323-1.258,3.211-1.888,5.664-1.888c0.235,0,0.629,0.021,1.185,0.064v5.344C406.223,207.684,406.031,207.673,405.776,207.673z
		 M408.831,207.465c-0.672-0.565-1.008-1.296-1.008-2.192s0.336-1.632,1.008-2.208c0.672-0.576,1.563-0.864,2.672-0.864
		s2,0.288,2.673,0.864c0.672,0.576,1.008,1.312,1.008,2.208s-0.336,1.627-1.008,2.192c-0.673,0.565-1.563,0.848-2.673,0.848
		S409.503,208.031,408.831,207.465z"/>
	<path fill="#0055FE" d="M427.727,210.361c1.066-0.64,2.197-0.96,3.393-0.96v6.72h-1.824c-1.408,0-2.464,0.272-3.168,0.816
		s-1.056,1.488-1.056,2.832v7.744h-6.304v-17.952h6.304v3.36C425.776,211.854,426.66,211.001,427.727,210.361z"/>
	<path fill="#0055FE" d="M445.679,211.065c1.408,1.152,2.293,2.678,2.655,4.576h-5.887c-0.15-0.64-0.454-1.12-0.912-1.44
		c-0.459-0.32-1.02-0.48-1.681-0.48c-0.47,0-0.827,0.102-1.071,0.304c-0.246,0.203-0.369,0.485-0.369,0.848
		c0,0.448,0.262,0.784,0.785,1.008c0.521,0.224,1.381,0.475,2.576,0.752c1.386,0.299,2.532,0.619,3.439,0.96
		c0.906,0.341,1.695,0.896,2.367,1.664c0.673,0.768,1.009,1.803,1.009,3.104c0,1.045-0.288,1.973-0.864,2.784
		c-0.576,0.811-1.414,1.446-2.512,1.904c-1.1,0.459-2.395,0.688-3.889,0.688c-2.518,0-4.522-0.544-6.016-1.632
		c-1.493-1.088-2.4-2.645-2.72-4.672h6.048c0.085,0.662,0.368,1.152,0.848,1.472c0.48,0.32,1.083,0.48,1.809,0.48
		c0.49,0,0.863-0.106,1.119-0.32c0.257-0.213,0.385-0.49,0.385-0.832c0-0.512-0.271-0.885-0.816-1.12
		c-0.544-0.234-1.413-0.469-2.607-0.704c-1.365-0.277-2.486-0.581-3.36-0.912c-0.875-0.331-1.638-0.864-2.288-1.6
		c-0.65-0.736-0.977-1.754-0.977-3.056c0-1.621,0.63-2.944,1.889-3.968c1.258-1.024,3.051-1.536,5.376-1.536
		C442.383,209.337,444.271,209.913,445.679,211.065z"/>
	<path fill="#0055FE" d="M462.031,222.137v5.376h-2.592c-2.198,0-3.915-0.544-5.152-1.632c-1.237-1.088-1.856-2.891-1.856-5.408
		v-5.664h-2.303v-5.248h2.303v-4.352h6.305v4.352h3.232v5.248h-3.232v5.792c0,0.555,0.123,0.95,0.367,1.184
		c0.246,0.235,0.656,0.352,1.232,0.352H462.031z"/>
	<path fill="#0055FE" d="M134.994,271.985c1.749-1.802,2.624-3.429,2.624-4.88c0-1.408-0.565-2.111-1.696-2.111
		c-0.64,0-1.104,0.245-1.392,0.735c-0.288,0.491-0.443,1.302-0.465,2.433h-6.111c0.128-2.838,0.98-4.955,2.56-6.353
		s3.552-2.097,5.92-2.097c2.581,0,4.491,0.641,5.729,1.921c1.236,1.28,1.855,2.901,1.855,4.864c0,2.111-0.752,4.139-2.256,6.08
		s-3.354,3.594-5.552,4.959h8.128v5.088h-16.352v-4.703C130.908,275.767,133.244,273.789,134.994,271.985z"/>
	<path fill="#0055FE" d="M155.57,280.994c-1.621,3.264-3.743,5.908-6.367,7.936h-6.08v-0.576c2.965-2.475,5.178-5.222,6.64-8.24
		c1.461-3.018,2.192-6.373,2.192-10.063s-0.731-7.046-2.192-10.064c-1.462-3.019-3.675-5.765-6.64-8.239v-0.576h6.08
		c2.624,2.027,4.746,4.666,6.367,7.92s2.433,6.896,2.433,10.928C158.002,274.071,157.191,277.729,155.57,280.994z"/>
	<path fill="#0055FE" d="M172.594,278.145h7.071v4.769h-13.376v-22.656h6.305V278.145z"/>
	<path fill="#0055FE" d="M191.969,265.553c0.928,0.544,1.616,1.296,2.064,2.256v-2.849h6.271v17.953h-6.271v-2.849
		c-0.448,0.96-1.137,1.712-2.064,2.257c-0.928,0.543-2.021,0.815-3.28,0.815c-1.429,0-2.72-0.368-3.871-1.104
		c-1.152-0.736-2.06-1.803-2.721-3.199c-0.661-1.397-0.992-3.035-0.992-4.912s0.331-3.51,0.992-4.896s1.568-2.447,2.721-3.184
		c1.151-0.736,2.442-1.104,3.871-1.104C189.948,264.738,191.041,265.009,191.969,265.553z M188.385,271.217
		c-0.607,0.651-0.912,1.552-0.912,2.704c0,1.174,0.305,2.085,0.912,2.736c0.608,0.65,1.402,0.976,2.384,0.976
		c0.938,0,1.718-0.331,2.336-0.992c0.619-0.661,0.929-1.567,0.929-2.72c0-1.131-0.31-2.027-0.929-2.688
		c-0.618-0.661-1.397-0.991-2.336-0.991C189.787,270.242,188.993,270.566,188.385,271.217z"/>
	<path fill="#0055FE" d="M222.193,264.96v17.953h-6.271v-3.008c-0.513,0.959-1.26,1.728-2.24,2.303
		c-0.981,0.576-2.134,0.865-3.456,0.865c-2.069,0-3.696-0.688-4.88-2.064c-1.185-1.376-1.776-3.259-1.776-5.648v-10.4h6.272v9.633
		c0,1.023,0.271,1.829,0.815,2.416s1.274,0.88,2.192,0.88c0.938,0,1.685-0.298,2.24-0.896c0.554-0.598,0.832-1.44,0.832-2.529
		v-9.504H222.193z"/>
	<path fill="#0055FE" d="M234.641,265.761c1.066-0.641,2.196-0.96,3.392-0.96v6.72h-1.824c-1.407,0-2.464,0.271-3.168,0.816
		c-0.704,0.543-1.056,1.488-1.056,2.832v7.744h-6.304V264.96h6.304v3.361C232.689,267.254,233.573,266.401,234.641,265.761z"/>
	<path fill="#0055FE" d="M250.048,265.553c0.928,0.544,1.616,1.296,2.064,2.256v-2.849h6.271v17.953h-6.271v-2.849
		c-0.448,0.96-1.137,1.712-2.064,2.257c-0.928,0.543-2.021,0.815-3.28,0.815c-1.429,0-2.72-0.368-3.871-1.104
		c-1.152-0.736-2.06-1.803-2.721-3.199c-0.661-1.397-0.992-3.035-0.992-4.912s0.331-3.51,0.992-4.896s1.568-2.447,2.721-3.184
		c1.151-0.736,2.442-1.104,3.871-1.104C248.027,264.738,249.12,265.009,250.048,265.553z M246.464,271.217
		c-0.607,0.651-0.912,1.552-0.912,2.704c0,1.174,0.305,2.085,0.912,2.736c0.608,0.65,1.402,0.976,2.384,0.976
		c0.938,0,1.718-0.331,2.336-0.992c0.619-0.661,0.929-1.567,0.929-2.72c0-1.131-0.31-2.027-0.929-2.688
		c-0.618-0.661-1.397-0.991-2.336-0.991C247.866,270.242,247.073,270.566,246.464,271.217z"/>
	<path fill="#0055FE" d="M268.272,257.681c0.683-0.607,1.578-0.912,2.688-0.912c1.108,0,1.994,0.305,2.655,0.912
		s0.992,1.381,0.992,2.32c0,0.896-0.336,1.643-1.008,2.24c-0.672,0.597-1.552,0.896-2.64,0.896c-1.11,0-2.006-0.299-2.688-0.896
		c-0.683-0.598-1.024-1.345-1.024-2.24C267.247,259.062,267.589,258.289,268.272,257.681z M274.064,264.96v17.953h-6.304V264.96
		H274.064z"/>
	<path fill="#0055FE" d="M290.031,266.464c1.408,1.152,2.293,2.678,2.656,4.576H286.8c-0.149-0.64-0.454-1.119-0.912-1.439
		c-0.459-0.32-1.02-0.48-1.681-0.48c-0.469,0-0.826,0.102-1.071,0.305c-0.246,0.203-0.368,0.485-0.368,0.848
		c0,0.448,0.261,0.784,0.784,1.008c0.522,0.225,1.381,0.475,2.576,0.752c1.386,0.299,2.532,0.619,3.439,0.961
		c0.906,0.341,1.696,0.896,2.368,1.664c0.672,0.768,1.008,1.803,1.008,3.104c0,1.045-0.288,1.973-0.864,2.783
		c-0.575,0.812-1.413,1.446-2.512,1.904c-1.099,0.459-2.395,0.688-3.888,0.688c-2.518,0-4.523-0.544-6.017-1.632
		s-2.399-2.646-2.72-4.672h6.048c0.085,0.661,0.368,1.151,0.849,1.472c0.479,0.319,1.082,0.479,1.808,0.479
		c0.49,0,0.864-0.105,1.12-0.32c0.256-0.213,0.384-0.49,0.384-0.831c0-0.513-0.271-0.886-0.815-1.12
		c-0.545-0.234-1.414-0.469-2.608-0.704c-1.365-0.276-2.485-0.581-3.36-0.912s-1.637-0.864-2.288-1.601
		c-0.65-0.735-0.976-1.754-0.976-3.055c0-1.621,0.629-2.945,1.888-3.969s3.051-1.535,5.376-1.535
		C286.736,264.738,288.623,265.313,290.031,266.464z"/>
	<path fill="#0055FE" d="M312.303,277.537v5.377h-2.592c-2.197,0-3.914-0.545-5.152-1.633c-1.236-1.088-1.855-2.891-1.855-5.408
		v-5.664H300.4v-5.248h2.304v-4.352h6.305v4.352h3.231v5.248h-3.231v5.793c0,0.555,0.122,0.949,0.367,1.184s0.656,0.352,1.232,0.352
		H312.303z"/>
	<path fill="#0055FE" d="M332.047,266.865c1.174,1.377,1.76,3.248,1.76,5.616v10.433h-6.24v-9.633c0-1.045-0.271-1.861-0.815-2.447
		c-0.544-0.587-1.274-0.881-2.192-0.881c-0.938,0-1.686,0.305-2.24,0.912c-0.555,0.608-0.831,1.445-0.831,2.512v9.537h-6.304
		v-23.681h6.304v8.736c0.512-0.96,1.259-1.728,2.239-2.304c0.981-0.576,2.133-0.864,3.457-0.864
		C329.252,264.801,330.873,265.49,332.047,266.865z"/>
	<path fill="#0055FE" d="M354.255,275.074h-11.872c0.106,2.026,0.992,3.039,2.656,3.039c0.618,0,1.131-0.148,1.536-0.447
		s0.683-0.693,0.831-1.185h6.656c-0.234,1.259-0.757,2.396-1.567,3.408c-0.812,1.013-1.835,1.808-3.072,2.384
		s-2.592,0.864-4.063,0.864c-1.793,0-3.377-0.368-4.752-1.104c-1.377-0.736-2.448-1.803-3.217-3.199
		c-0.768-1.397-1.152-3.035-1.152-4.912s0.385-3.51,1.152-4.896c0.769-1.387,1.846-2.447,3.232-3.184s2.965-1.104,4.736-1.104
		c1.791,0,3.37,0.362,4.735,1.088c1.365,0.725,2.427,1.76,3.185,3.104c0.757,1.344,1.136,2.901,1.136,4.672
		C354.415,274.049,354.362,274.541,354.255,275.074z M347.28,270.369c-0.512-0.469-1.152-0.703-1.92-0.703
		c-0.832,0-1.51,0.234-2.032,0.703c-0.522,0.47-0.827,1.164-0.912,2.08h5.601C348.036,271.533,347.791,270.838,347.28,270.369z"/>
	<path fill="#0055FE" d="M369.167,259.233v23.681h-6.304v-23.681H369.167z"/>
	<path fill="#0055FE" d="M382.591,265.553c0.928,0.544,1.616,1.296,2.063,2.256v-2.849h6.272v17.953h-6.272v-2.849
		c-0.447,0.96-1.136,1.712-2.063,2.257c-0.929,0.543-2.021,0.815-3.28,0.815c-1.43,0-2.72-0.368-3.871-1.104
		c-1.152-0.736-2.06-1.803-2.721-3.199c-0.662-1.397-0.992-3.035-0.992-4.912s0.33-3.51,0.992-4.896
		c0.661-1.387,1.568-2.447,2.721-3.184c1.151-0.736,2.441-1.104,3.871-1.104C380.57,264.738,381.662,265.009,382.591,265.553z
		 M379.007,271.217c-0.608,0.651-0.912,1.552-0.912,2.704c0,1.174,0.304,2.085,0.912,2.736c0.608,0.65,1.402,0.976,2.384,0.976
		c0.938,0,1.717-0.331,2.336-0.992s0.928-1.567,0.928-2.72c0-1.131-0.309-2.027-0.928-2.688s-1.397-0.991-2.336-0.991
		C380.409,270.242,379.615,270.566,379.007,271.217z"/>
	<path fill="#0055FE" d="M406.863,266.464c1.408,1.152,2.293,2.678,2.655,4.576h-5.887c-0.15-0.64-0.454-1.119-0.912-1.439
		c-0.459-0.32-1.02-0.48-1.681-0.48c-0.47,0-0.827,0.102-1.071,0.305c-0.246,0.203-0.369,0.485-0.369,0.848
		c0,0.448,0.262,0.784,0.785,1.008c0.521,0.225,1.381,0.475,2.576,0.752c1.386,0.299,2.532,0.619,3.439,0.961
		c0.906,0.341,1.695,0.896,2.367,1.664c0.673,0.768,1.009,1.803,1.009,3.104c0,1.045-0.288,1.973-0.864,2.783
		c-0.576,0.812-1.414,1.446-2.512,1.904c-1.1,0.459-2.395,0.688-3.889,0.688c-2.518,0-4.522-0.544-6.016-1.632
		s-2.4-2.646-2.72-4.672h6.048c0.085,0.661,0.368,1.151,0.848,1.472c0.48,0.319,1.083,0.479,1.809,0.479
		c0.49,0,0.863-0.105,1.119-0.32c0.257-0.213,0.385-0.49,0.385-0.831c0-0.513-0.271-0.886-0.816-1.12
		c-0.544-0.234-1.413-0.469-2.607-0.704c-1.365-0.276-2.486-0.581-3.36-0.912c-0.875-0.331-1.638-0.864-2.288-1.601
		c-0.65-0.735-0.977-1.754-0.977-3.055c0-1.621,0.63-2.945,1.889-3.969c1.258-1.023,3.051-1.535,5.376-1.535
		C403.567,264.738,405.454,265.313,406.863,266.464z"/>
	<path fill="#0055FE" d="M423.214,277.537v5.377h-2.592c-2.198,0-3.915-0.545-5.152-1.633s-1.856-2.891-1.856-5.408v-5.664h-2.303
		v-5.248h2.303v-4.352h6.305v4.352h3.232v5.248h-3.232v5.793c0,0.555,0.123,0.949,0.367,1.184c0.246,0.234,0.656,0.352,1.232,0.352
		H423.214z"/>
	<path fill="#0055FE" d="M140.866,315.384c1.162,0.566,2.042,1.334,2.64,2.305c0.597,0.971,0.896,2.064,0.896,3.279
		c0,1.473-0.363,2.652-1.089,3.537c-0.725,0.885-1.589,1.445-2.592,1.68v0.128c2.73,0.981,4.097,2.795,4.097,5.44
		c0,1.344-0.31,2.527-0.929,3.552s-1.509,1.819-2.672,2.384c-1.163,0.565-2.555,0.848-4.176,0.848c-2.688,0-4.806-0.65-6.353-1.951
		s-2.362-3.317-2.447-6.049h6.144c-0.043,1.856,0.757,2.784,2.4,2.784c0.576,0,1.04-0.187,1.392-0.56
		c0.353-0.373,0.528-0.859,0.528-1.456c0-0.769-0.262-1.345-0.784-1.728c-0.523-0.385-1.36-0.576-2.512-0.576h-1.12v-5.088h1.088
		c0.832,0,1.525-0.145,2.08-0.433s0.832-0.869,0.832-1.744c0-0.661-0.16-1.157-0.48-1.487c-0.319-0.331-0.747-0.496-1.279-0.496
		c-0.598,0-1.052,0.229-1.36,0.688c-0.31,0.459-0.485,1.04-0.528,1.744h-6.111c0.085-2.475,0.826-4.368,2.224-5.68
		c1.397-1.313,3.365-1.969,5.904-1.969C138.301,314.537,139.703,314.82,140.866,315.384z"/>
	<path fill="#0055FE" d="M156.978,336.393c-1.622,3.265-3.744,5.909-6.368,7.937h-6.08v-0.576c2.965-2.476,5.179-5.223,6.64-8.24
		c1.462-3.019,2.192-6.373,2.192-10.064c0-3.69-0.73-7.045-2.192-10.064c-1.461-3.018-3.675-5.764-6.64-8.239v-0.576h6.08
		c2.624,2.027,4.746,4.667,6.368,7.92c1.621,3.254,2.432,6.896,2.432,10.929C159.409,329.47,158.599,333.128,156.978,336.393z"/>
	<path fill="#0055FE" d="M182.577,315.658v15.039c0,2.561-0.672,4.508-2.017,5.84c-1.344,1.334-3.231,2-5.663,2
		c-2.624,0-4.699-0.725-6.225-2.176c-1.525-1.45-2.288-3.563-2.288-6.336h6.208c0,1.898,0.672,2.848,2.017,2.848
		c1.13,0,1.695-0.725,1.695-2.176v-15.039H182.577z"/>
	<path fill="#0055FE" d="M195.873,320.953c0.928,0.545,1.615,1.297,2.063,2.256v-2.848h6.272v17.952h-6.272v-2.849
		c-0.448,0.961-1.136,1.713-2.063,2.257c-0.929,0.544-2.021,0.815-3.28,0.815c-1.43,0-2.72-0.367-3.872-1.104s-2.059-1.803-2.72-3.2
		c-0.662-1.397-0.992-3.034-0.992-4.912c0-1.877,0.33-3.509,0.992-4.896c0.661-1.387,1.567-2.448,2.72-3.184
		c1.152-0.736,2.442-1.104,3.872-1.104C193.852,320.137,194.945,320.41,195.873,320.953z M192.289,326.617
		c-0.608,0.651-0.912,1.553-0.912,2.704c0,1.174,0.304,2.085,0.912,2.736c0.607,0.651,1.402,0.976,2.384,0.976
		c0.938,0,1.717-0.33,2.336-0.992c0.618-0.66,0.928-1.567,0.928-2.72c0-1.13-0.31-2.026-0.928-2.688
		c-0.619-0.66-1.397-0.991-2.336-0.991C193.692,325.641,192.897,325.966,192.289,326.617z"/>
	<path fill="#0055FE" d="M224.529,322.265c1.173,1.376,1.76,3.248,1.76,5.615v10.433h-6.24v-9.632c0-1.045-0.271-1.861-0.815-2.448
		s-1.275-0.88-2.192-0.88c-0.938,0-1.686,0.305-2.24,0.912s-0.831,1.445-0.831,2.512v9.536h-6.305v-17.952h6.305v3.008
		c0.512-0.959,1.258-1.728,2.239-2.304s2.133-0.864,3.456-0.864C221.734,320.201,223.355,320.889,224.529,322.265z"/>
	<path fill="#0055FE" d="M246.737,330.473h-11.872c0.106,2.026,0.992,3.04,2.656,3.04c0.618,0,1.13-0.149,1.536-0.448
		c0.404-0.298,0.682-0.692,0.831-1.185h6.656c-0.234,1.26-0.757,2.396-1.567,3.408c-0.812,1.014-1.835,1.809-3.072,2.385
		s-2.592,0.863-4.064,0.863c-1.792,0-3.376-0.367-4.752-1.104s-2.447-1.803-3.216-3.2c-0.768-1.397-1.152-3.034-1.152-4.912
		c0-1.877,0.385-3.509,1.152-4.896c0.769-1.387,1.845-2.448,3.232-3.184c1.386-0.736,2.965-1.104,4.735-1.104
		c1.792,0,3.371,0.362,4.736,1.088s2.427,1.76,3.184,3.104c0.758,1.344,1.137,2.9,1.137,4.672
		C246.897,329.449,246.843,329.94,246.737,330.473z M239.76,325.769c-0.512-0.469-1.151-0.704-1.92-0.704
		c-0.832,0-1.509,0.235-2.031,0.704c-0.523,0.469-0.827,1.163-0.912,2.08h5.6C240.518,326.932,240.273,326.238,239.76,325.769z"/>
	<path fill="#0055FE" d="M255.857,313.082c0.682-0.608,1.578-0.912,2.688-0.912s1.994,0.304,2.656,0.912
		c0.661,0.607,0.992,1.381,0.992,2.319c0,0.896-0.336,1.644-1.009,2.24c-0.672,0.597-1.552,0.896-2.64,0.896
		c-1.109,0-2.006-0.299-2.688-0.896c-0.684-0.597-1.024-1.345-1.024-2.24C254.832,314.462,255.173,313.689,255.857,313.082z
		 M261.649,320.361v17.952h-6.305v-17.952H261.649z"/>
	<path fill="#0055FE" d="M277.616,321.865c1.408,1.152,2.293,2.678,2.655,4.576h-5.888c-0.149-0.641-0.453-1.12-0.912-1.439
		c-0.459-0.32-1.019-0.48-1.68-0.48c-0.47,0-0.827,0.102-1.072,0.305c-0.245,0.202-0.368,0.484-0.368,0.848
		c0,0.447,0.262,0.783,0.784,1.008c0.522,0.224,1.381,0.475,2.576,0.752c1.387,0.299,2.533,0.619,3.44,0.96
		c0.906,0.341,1.695,0.896,2.367,1.664c0.673,0.769,1.009,1.803,1.009,3.104c0,1.045-0.288,1.973-0.864,2.783
		s-1.414,1.445-2.512,1.904c-1.1,0.459-2.396,0.688-3.889,0.688c-2.518,0-4.522-0.543-6.016-1.632
		c-1.493-1.088-2.4-2.646-2.72-4.672h6.048c0.085,0.661,0.368,1.151,0.848,1.472c0.48,0.32,1.083,0.48,1.809,0.48
		c0.49,0,0.863-0.106,1.119-0.32c0.257-0.213,0.385-0.49,0.385-0.832c0-0.512-0.272-0.885-0.816-1.119s-1.413-0.47-2.608-0.705
		c-1.365-0.276-2.485-0.58-3.359-0.912c-0.875-0.33-1.638-0.863-2.288-1.6c-0.651-0.736-0.977-1.754-0.977-3.056
		c0-1.621,0.63-2.944,1.889-3.968c1.258-1.024,3.05-1.536,5.376-1.536C274.321,320.137,276.208,320.712,277.616,321.865z"/>
	<path fill="#0055FE" d="M306.064,322.265c1.173,1.376,1.761,3.248,1.761,5.615v10.433h-6.241v-9.632
		c0-1.045-0.271-1.861-0.815-2.448s-1.275-0.88-2.192-0.88c-0.938,0-1.686,0.305-2.24,0.912s-0.831,1.445-0.831,2.512v9.536h-6.305
		v-17.952h6.305v3.008c0.512-0.959,1.258-1.728,2.239-2.304s2.133-0.864,3.456-0.864
		C303.269,320.201,304.891,320.889,306.064,322.265z"/>
	<path fill="#0055FE" d="M324.48,321.242c1.419,0.735,2.533,1.803,3.345,3.199c0.811,1.397,1.215,3.023,1.215,4.88
		c0,1.878-0.404,3.51-1.215,4.896c-0.812,1.388-1.926,2.454-3.345,3.201c-1.419,0.746-3.024,1.119-4.815,1.119
		c-1.793,0-3.403-0.373-4.832-1.119c-1.43-0.747-2.55-1.813-3.36-3.201c-0.812-1.386-1.216-3.018-1.216-4.896
		c0-1.877,0.404-3.509,1.216-4.896c0.811-1.387,1.931-2.448,3.36-3.184c1.429-0.736,3.039-1.104,4.832-1.104
		C321.455,320.137,323.061,320.505,324.48,321.242z M317.489,326.537c-0.576,0.641-0.865,1.568-0.865,2.784
		c0,1.237,0.289,2.177,0.865,2.816c0.575,0.64,1.301,0.96,2.176,0.96c0.853,0,1.567-0.325,2.144-0.977
		c0.576-0.65,0.864-1.584,0.864-2.8s-0.288-2.144-0.864-2.784c-0.576-0.64-1.291-0.959-2.144-0.959
		C318.789,325.578,318.064,325.897,317.489,326.537z"/>
	<path fill="#0055FE" d="M342.256,332.937v5.376h-2.592c-2.198,0-3.916-0.544-5.152-1.632c-1.238-1.088-1.856-2.891-1.856-5.408
		v-5.664h-2.304v-5.248h2.304v-4.352h6.304v4.352h3.232v5.248h-3.232v5.792c0,0.556,0.123,0.95,0.368,1.185s0.656,0.352,1.232,0.352
		H342.256z"/>
	<path fill="#0055FE" d="M361.743,332.937v5.376h-2.592c-2.198,0-3.915-0.544-5.152-1.632s-1.856-2.891-1.856-5.408v-5.664h-2.303
		v-5.248h2.303v-4.352h6.305v4.352h3.232v5.248h-3.232v5.792c0,0.556,0.123,0.95,0.367,1.185c0.246,0.234,0.656,0.352,1.232,0.352
		H361.743z"/>
	<path fill="#0055FE" d="M381.487,322.265c1.174,1.376,1.761,3.248,1.761,5.615v10.433h-6.24v-9.632
		c0-1.045-0.272-1.861-0.815-2.448c-0.545-0.587-1.275-0.88-2.192-0.88c-0.938,0-1.686,0.305-2.24,0.912s-0.831,1.445-0.831,2.512
		v9.536h-6.305v-23.681h6.305v8.736c0.512-0.959,1.258-1.728,2.239-2.304s2.133-0.864,3.456-0.864
		C378.692,320.201,380.314,320.889,381.487,322.265z"/>
	<path fill="#0055FE" d="M403.696,330.473h-11.873c0.107,2.026,0.992,3.04,2.656,3.04c0.619,0,1.131-0.149,1.537-0.448
		c0.404-0.298,0.682-0.692,0.831-1.185h6.656c-0.235,1.26-0.757,2.396-1.567,3.408c-0.812,1.014-1.836,1.809-3.072,2.385
		c-1.238,0.576-2.592,0.863-4.064,0.863c-1.792,0-3.376-0.367-4.752-1.104s-2.447-1.803-3.216-3.2s-1.152-3.034-1.152-4.912
		c0-1.877,0.384-3.509,1.152-4.896s1.845-2.448,3.231-3.184c1.387-0.736,2.965-1.104,4.736-1.104c1.792,0,3.371,0.362,4.736,1.088
		s2.426,1.76,3.184,3.104c0.758,1.344,1.137,2.9,1.137,4.672C403.856,329.449,403.801,329.94,403.696,330.473z M396.719,325.769
		c-0.512-0.469-1.152-0.704-1.92-0.704c-0.832,0-1.51,0.235-2.031,0.704c-0.523,0.469-0.828,1.163-0.912,2.08h5.6
		C397.477,326.932,397.231,326.238,396.719,325.769z"/>
	<path fill="#0055FE" d="M418.608,314.632v23.681h-6.305v-23.681H418.608z"/>
	<path fill="#0055FE" d="M432.031,320.953c0.928,0.545,1.615,1.297,2.063,2.256v-2.848h6.272v17.952h-6.272v-2.849
		c-0.448,0.961-1.136,1.713-2.063,2.257c-0.929,0.544-2.021,0.815-3.281,0.815c-1.429,0-2.719-0.367-3.871-1.104
		s-2.059-1.803-2.721-3.2c-0.661-1.397-0.992-3.034-0.992-4.912c0-1.877,0.331-3.509,0.992-4.896
		c0.662-1.387,1.568-2.448,2.721-3.184c1.152-0.736,2.442-1.104,3.871-1.104C430.01,320.137,431.103,320.41,432.031,320.953z
		 M428.448,326.617c-0.608,0.651-0.912,1.553-0.912,2.704c0,1.174,0.304,2.085,0.912,2.736c0.607,0.651,1.402,0.976,2.383,0.976
		c0.939,0,1.718-0.33,2.336-0.992c0.619-0.66,0.929-1.567,0.929-2.72c0-1.13-0.31-2.026-0.929-2.688
		c-0.618-0.66-1.396-0.991-2.336-0.991C429.85,325.641,429.055,325.966,428.448,326.617z"/>
	<path fill="#0055FE" d="M456.303,321.865c1.408,1.152,2.293,2.678,2.655,4.576h-5.888c-0.149-0.641-0.453-1.12-0.912-1.439
		c-0.459-0.32-1.02-0.48-1.68-0.48c-0.47,0-0.827,0.102-1.072,0.305c-0.246,0.202-0.368,0.484-0.368,0.848
		c0,0.447,0.261,0.783,0.784,1.008c0.522,0.224,1.381,0.475,2.576,0.752c1.387,0.299,2.533,0.619,3.439,0.96
		s1.696,0.896,2.368,1.664c0.673,0.769,1.009,1.803,1.009,3.104c0,1.045-0.289,1.973-0.865,2.783
		c-0.575,0.811-1.413,1.445-2.512,1.904s-2.395,0.688-3.888,0.688c-2.518,0-4.522-0.543-6.017-1.632
		c-1.492-1.088-2.399-2.646-2.719-4.672h6.047c0.086,0.661,0.369,1.151,0.849,1.472s1.083,0.48,1.808,0.48
		c0.49,0,0.864-0.106,1.12-0.32c0.257-0.213,0.384-0.49,0.384-0.832c0-0.512-0.271-0.885-0.815-1.119s-1.413-0.47-2.608-0.705
		c-1.365-0.276-2.485-0.58-3.359-0.912c-0.875-0.33-1.638-0.863-2.289-1.6c-0.65-0.736-0.976-1.754-0.976-3.056
		c0-1.621,0.63-2.944,1.888-3.968c1.259-1.024,3.051-1.536,5.377-1.536C453.006,320.137,454.895,320.712,456.303,321.865z"/>
	<path fill="#0055FE" d="M472.655,332.937v5.376h-2.592c-2.198,0-3.916-0.544-5.152-1.632c-1.238-1.088-1.856-2.891-1.856-5.408
		v-5.664h-2.304v-5.248h2.304v-4.352h6.304v4.352h3.232v5.248h-3.232v5.792c0,0.556,0.123,0.95,0.368,1.185s0.656,0.352,1.232,0.352
		H472.655z"/>
</g>
</svg>
