<?xml version="1.0" encoding="utf-8"?>
<!-- Generator: Adobe Illustrator 16.0.0, SVG Export Plug-In . SVG Version: 6.00 Build 0)  -->
<!DOCTYPE svg PUBLIC "-//W3C//DTD SVG 1.1//EN" "http://www.w3.org/Graphics/SVG/1.1/DTD/svg11.dtd">
<svg version="1.1" id="Layer_1" xmlns="http://www.w3.org/2000/svg" xmlns:xlink="http://www.w3.org/1999/xlink" x="0px" y="0px"
	 width="600px" height="179.055px" viewBox="0 0 600 179.055" enable-background="new 0 0 600 179.055" xml:space="preserve">
<g>
	<path fill="#0055FE" d="M73.132,70.85c2.615,1.699,4.67,4.167,6.18,7.395c1.503,3.234,2.255,7.044,2.255,11.432
		c0,4.393-0.752,8.204-2.255,11.432c-1.509,3.229-3.564,5.696-6.18,7.4c-2.616,1.699-5.551,2.549-8.806,2.549
		c-2.713,0-5.042-0.552-6.993-1.664c-1.947-1.107-3.439-2.626-4.475-4.552v25.676H36.435V68.811h16.423v5.7
		c1.035-1.925,2.528-3.44,4.475-4.552c1.951-1.107,4.28-1.664,6.993-1.664C67.581,68.295,70.516,69.145,73.132,70.85z
		 M54.485,84.497c-1.134,1.236-1.699,2.961-1.699,5.18c0,2.22,0.565,3.946,1.699,5.181c1.138,1.231,2.59,1.849,4.367,1.849
		c1.777,0,3.229-0.618,4.367-1.849c1.133-1.235,1.7-2.961,1.7-5.181c0-2.219-0.566-3.944-1.7-5.18
		c-1.138-1.231-2.59-1.849-4.367-1.849C57.076,82.647,55.623,83.266,54.485,84.497z"/>
	<path fill="#0055FE" d="M109.313,70.7c2.415-1.457,4.929-2.184,7.544-2.184v17.535h-4.661c-3.106,0-5.388,0.542-6.844,1.628
		c-1.458,1.086-2.183,3.007-2.183,5.772v17.092H86.747V68.811h16.423v7.698C104.848,74.09,106.893,72.153,109.313,70.7z"/>
	<path fill="#0055FE" d="M182.042,92.932h-11.025v11.324h-15.758V92.932h-11.025V77.915h11.025V66.519h15.758v11.396h11.025V92.932z
		"/>
</g>
<g>
	<path fill="#4D5961" d="M207,155.528v-8.05V23.528c0,9.607,132,9.607,132,0v123.95v8.05"/>
	<path fill="#5E6B75" d="M273,62.232c19.127,0,34.641,15.518,34.641,34.646c0,19.129-15.514,34.641-34.641,34.641
		c-19.128,0-34.642-15.512-34.642-34.641C238.358,77.75,253.872,62.232,273,62.232z"/>
	<path fill="#F1D333" d="M216.687,125.284h111.789v23.886H216.429L216.687,125.284z"/>
	<path fill="#E7A52E" d="M216.687,131.456h111.789v19.785H216.429L216.687,131.456z"/>
	<path fill="#DA4A54" d="M330.353,98.805l-9.805,51.857l15.347,4.049l3.105,0.816v-132l-2.705,0.599l-30.341,6.666
		c0,0-1.983,7.141-2.191,17.08C303.441,63.467,307.477,85.994,330.353,98.805z"/>
	<path fill="#C32430" d="M339,23.528v132l-3.105-0.816l-6.323-6.321l5.485-47.594l0.23-1.991c-0.309-0.587-0.587-1.253-0.853-1.99
		c-5.476-15.169-3.853-59.833-3.853-59.833l5.713-12.855L339,23.528z"/>
	<path fill="#C32430" d="M303.763,47.873C324.72,43.273,339,34.094,339,23.528l-33.046,7.265
		C305.955,30.792,303.971,37.933,303.763,47.873z"/>
	<path fill="#B9A0D3" d="M339,96.815v3.981h-11.307c-1.102,0-1.992-0.888-1.992-1.991c0-1.103,0.891-1.99,1.992-1.99H339L339,96.815
		z"/>
	<path fill="#C32430" d="M327.692,91.973c-0.455,0-0.902-0.157-1.278-0.471c-7.734-6.482-12.638-16.96-14.177-30.302
		c-1.145-9.933-0.06-17.89-0.014-18.227c0.154-1.088,1.164-1.84,2.25-1.689c1.096,0.15,1.851,1.16,1.692,2.25
		c-0.043,0.364-4.046,30.773,12.814,44.923c0.835,0.709,0.951,1.961,0.245,2.801C328.829,91.731,328.266,91.973,327.692,91.973z"/>
	<path fill="#C32430" d="M326.887,80.55c-0.815,0-1.586-0.508-1.877-1.316c-5.335-14.946-0.272-34.613-0.049-35.442
		c0.281-1.068,1.371-1.705,2.434-1.418c1.068,0.271,1.703,1.36,1.418,2.428c-0.05,0.193-4.97,19.313-0.05,33.093
		c0.371,1.031-0.169,2.172-1.202,2.542C327.338,80.515,327.107,80.55,326.887,80.55L326.887,80.55z"/>
	<path fill="#DA4A54" d="M215.648,98.805l9.805,51.857l-15.348,4.049L207,155.528v-132l2.704,0.599l30.342,6.666
		c0,0,1.984,7.141,2.191,17.08C242.56,63.467,238.522,85.994,215.648,98.805z"/>
	<path fill="#C32430" d="M216.429,148.39l-6.324,6.321L207,155.528v-132l2.704,0.599l5.712,12.855c0,0,1.624,44.664-3.851,59.833
		c-0.269,0.737-0.544,1.403-0.853,1.99l0.231,1.991L216.429,148.39z"/>
	<path fill="#C32430" d="M242.238,47.873C221.279,43.273,207,34.094,207,23.528l33.046,7.265
		C240.046,30.792,242.031,37.933,242.238,47.873L242.238,47.873z"/>
	<path fill="#DA4A54" d="M339,23.528c0,9.607-29.553,17.392-66,17.392c-36.447,0-66-7.784-66-17.392H339z"/>
	<path fill="#BE694F" d="M239.818,136.292h-21.635c-6.181,0-11.183,5.014-11.183,11.186v8.05h43.996v-8.05
		C250.997,141.306,245.991,136.292,239.818,136.292z"/>
	<path fill="#934D36" d="M224.937,136.291c-6.178,0-11.192,5.015-11.192,11.188v8.046H207v-8.046
		c0-6.173,5.002-11.188,11.182-11.188H224.937z"/>
	<path fill="#BE694F" d="M283.818,136.292h-21.635c-6.173,0-11.187,5.014-11.187,11.186v8.05h44.008v-8.05
		C295.004,141.306,289.991,136.292,283.818,136.292z"/>
	<path fill="#934D36" d="M268.931,136.291c-6.174,0-11.18,5.015-11.18,11.188v8.046h-6.754v-8.046
		c0-6.173,5.014-11.188,11.187-11.188H268.931z"/>
	<path fill="#BE694F" d="M327.82,136.292h-21.637c-6.173,0-11.179,5.014-11.179,11.186v8.05H339v-8.05
		C339,141.306,333.999,136.292,327.82,136.292z"/>
	<path fill="#934D36" d="M312.928,136.291c-6.176,0-11.178,5.015-11.178,11.188v8.046h-6.746v-8.046
		c0-6.173,5.004-11.188,11.176-11.188H312.928z"/>
	<path fill="#C32430" d="M232.763,23.528c4.204,4.832,20.618,8.438,40.237,8.438c19.62,0,36.034-3.606,40.237-8.438"/>
	<path fill="#B9A0D3" d="M220.297,98.805c0,1.104-0.889,1.991-1.991,1.991H207v-3.981h11.306
		C219.409,96.815,220.297,97.703,220.297,98.805z"/>
	<g>
		<path fill="#C32430" d="M218.31,91.973c-0.577,0-1.138-0.243-1.537-0.715c-0.703-0.84-0.586-2.092,0.25-2.801
			c16.9-14.18,12.848-44.616,12.81-44.923c-0.155-1.09,0.597-2.1,1.693-2.25c1.092-0.15,2.098,0.602,2.254,1.689
			c0.043,0.337,1.126,8.294-0.019,18.227c-1.539,13.342-6.439,23.819-14.174,30.302C219.214,91.816,218.763,91.973,218.31,91.973z"
			/>
		<path fill="#C32430" d="M219.114,80.55c-0.221,0-0.451-0.035-0.673-0.114c-1.032-0.37-1.575-1.511-1.204-2.542
			c4.92-13.779-0.001-32.899-0.049-33.093c-0.285-1.067,0.351-2.156,1.418-2.428c1.061-0.287,2.155,0.351,2.433,1.418
			c0.222,0.829,5.287,20.496-0.048,35.442C220.698,80.042,219.927,80.55,219.114,80.55z"/>
	</g>
</g>
<g>
	<path fill="#73E5E5" d="M548.244,141.334l-17.434,5.237l-18.229,5.479c-1.061,0.318-2.142,0.477-3.216,0.477
		c-1.816,0-3.616-0.451-5.261-1.335c-2.617-1.408-4.53-3.753-5.385-6.599l-10.715-35.665c-1.767-5.876,1.579-12.097,7.455-13.86
		l18.162-5.457l17.502-5.261c2.847-0.853,5.856-0.55,8.477,0.858c2.617,1.408,4.53,3.753,5.385,6.601l10.717,35.663
		C557.466,133.349,554.121,139.57,548.244,141.334z"/>
	<path fill="#50CEE2" d="M548.244,141.334l-17.434,5.237l-17.188-56.96l17.502-5.261c2.847-0.853,5.856-0.55,8.477,0.858
		c2.617,1.408,4.53,3.753,5.385,6.601l10.717,35.663C557.466,133.349,554.121,139.57,548.244,141.334z"/>
	<path fill="#D7FBFF" d="M513.999,91.975l-18.633,0.863l-18.563,0.859c-0.177,0.009-0.35,0.012-0.522,0.012
		c-5.902,0-10.837-4.657-11.111-10.615l-1.725-37.2c-0.137-2.968,0.89-5.815,2.894-8.012c2.001-2.195,4.74-3.48,7.709-3.618
		l18.628-0.863l18.571-0.861c2.969-0.137,5.816,0.89,8.013,2.894c2.198,2,3.483,4.74,3.621,7.71l1.724,37.198
		C524.886,86.472,520.129,91.689,513.999,91.975z"/>
	<path fill="#D7FBFF" d="M488.929,98.982l-3.862,37.039c-0.312,2.956-1.752,5.616-4.062,7.488c-2.002,1.624-4.448,2.487-6.989,2.487
		c-0.39,0-0.781-0.021-1.176-0.062l-18.274-1.907l-18.763-1.957c-2.959-0.309-5.617-1.749-7.49-4.06
		c-1.872-2.309-2.735-5.209-2.425-8.165l3.862-37.039c0.312-2.955,1.753-5.616,4.06-7.488c2.31-1.874,5.209-2.733,8.168-2.427
		l18.484,1.931l18.552,1.936c2.956,0.308,5.617,1.749,7.49,4.058C488.376,93.125,489.237,96.026,488.929,98.982z"/>
	<path fill="#A2F0F4" d="M488.929,98.982l-3.862,37.039c-0.312,2.956-1.752,5.616-4.062,7.488c-2.002,1.624-4.448,2.487-6.989,2.487
		c-0.39,0-0.781-0.021-1.176-0.062l-18.274-1.907l5.896-59.205l18.552,1.936c2.956,0.308,5.617,1.749,7.49,4.058
		C488.376,93.125,489.237,96.026,488.929,98.982z"/>
	<path fill="#A2F0F4" d="M513.999,91.975l-18.633,0.863l-2.691-59.438l18.571-0.861c2.969-0.137,5.816,0.89,8.013,2.894
		c2.198,2,3.483,4.74,3.621,7.71l1.724,37.198C524.886,86.472,520.129,91.689,513.999,91.975z"/>
	<path fill="#FFFFFF" d="M493.533,52.327c-0.334,0.116-0.69,0.186-1.063,0.203l-9.023,0.434l0.428,8.901
		c0.103,2.108-1.524,3.898-3.633,3.996c-0.062,0.003-0.122,0.005-0.186,0.005c-2.025,0-3.713-1.591-3.813-3.636l-0.531-11.121
		c-0.069-1.445,0.427-2.831,1.399-3.9c0.976-1.072,2.308-1.698,3.75-1.77l11.242-0.537c0.377-0.018,0.746,0.018,1.095,0.102
		c1.604,0.392,2.821,1.8,2.902,3.529C496.186,50.269,495.096,51.789,493.533,52.327z"/>
	<path fill="#FFFFFF" d="M461.703,100.753c-0.178,1.753-1.513,3.104-3.164,3.382c-0.331,0.057-0.673,0.068-1.021,0.033l-8.986-0.914
		l-0.903,8.865c-0.198,1.966-1.859,3.433-3.793,3.433c-0.131,0-0.261-0.008-0.393-0.021c-2.098-0.214-3.626-2.088-3.412-4.186
		l1.129-11.078c0.145-1.438,0.842-2.735,1.965-3.649c1.12-0.914,2.533-1.336,3.97-1.189l11.197,1.139
		c0.345,0.036,0.671,0.114,0.978,0.234C460.842,97.401,461.881,99,461.703,100.753z"/>
	<path fill="#FFFFFF" d="M519.302,108.438c-0.272,0.168-0.573,0.306-0.896,0.403l-8.646,2.609l2.573,8.532
		c0.612,2.019-0.531,4.149-2.551,4.759c-0.369,0.112-0.74,0.165-1.104,0.165c-1.643,0-3.157-1.066-3.656-2.716l-3.217-10.662
		c-0.862-2.859,0.763-5.886,3.621-6.749l10.773-3.252c0.323-0.097,0.649-0.15,0.97-0.162c1.69-0.062,3.276,1.019,3.791,2.714
		C521.471,105.778,520.746,107.555,519.302,108.438z"/>
	<g>
		<path fill="#D7FBFF" d="M461.703,100.753c-0.178,1.753-1.513,3.104-3.164,3.382l0.729-7.333
			C460.842,97.401,461.881,99,461.703,100.753z"/>
		<path fill="#D7FBFF" d="M493.533,52.327l-0.334-7.323c1.604,0.392,2.821,1.8,2.902,3.529
			C496.186,50.269,495.096,51.789,493.533,52.327z"/>
		<path fill="#D7FBFF" d="M519.302,108.438l-2.134-7.072c1.69-0.062,3.276,1.019,3.791,2.714
			C521.471,105.778,520.746,107.555,519.302,108.438z"/>
	</g>
</g>
<g>
	<path fill="#0055FE" d="M402.334,92.932h-11.021v11.324h-15.758V92.932h-11.03V77.915h11.03V66.519h15.758v11.396h11.021V92.932z"
		/>
</g>
</svg>
