<?xml version="1.0" encoding="utf-8"?>
<!-- Generator: Adobe Illustrator 16.0.0, SVG Export Plug-In . SVG Version: 6.00 Build 0)  -->
<!DOCTYPE svg PUBLIC "-//W3C//DTD SVG 1.1//EN" "http://www.w3.org/Graphics/SVG/1.1/DTD/svg11.dtd">
<svg version="1.1" id="Layer_1" xmlns="http://www.w3.org/2000/svg" xmlns:xlink="http://www.w3.org/1999/xlink" x="0px" y="0px"
	 width="600px" height="179.055px" viewBox="0 0 600 179.055" enable-background="new 0 0 600 179.055" xml:space="preserve">
<g>
	<path fill="#0055FE" d="M102.989,7.021l-5.93,25.916H86.957l-3.002-14.715l-3.001,14.715H70.851l-5.93-25.916h8.748l2.343,16.325
		l3.514-16.325h8.858l3.514,16.325l2.342-16.325H102.989z"/>
	<path fill="#0055FE" d="M125.921,14.525c1.33,1.586,1.995,3.733,1.995,6.442v11.969h-8.089V21.993c0-0.976-0.263-1.751-0.787-2.325
		c-0.525-0.573-1.226-0.86-2.104-0.86c-0.903,0-1.611,0.287-2.123,0.86c-0.513,0.574-0.769,1.349-0.769,2.325v10.944h-8.126V5.85
		h8.126v9.59c0.634-0.976,1.482-1.769,2.544-2.379c1.062-0.609,2.325-0.915,3.789-0.915
		C122.742,12.146,124.591,12.939,125.921,14.525z"/>
	<path fill="#0055FE" d="M132.125,3.746c0.854-0.769,1.988-1.153,3.404-1.153c1.391,0,2.513,0.384,3.368,1.153
		c0.854,0.769,1.281,1.739,1.281,2.91c0,1.147-0.427,2.099-1.281,2.855c-0.854,0.756-1.977,1.135-3.368,1.135
		c-1.416,0-2.55-0.378-3.404-1.135c-0.854-0.756-1.281-1.708-1.281-2.855C130.844,5.484,131.271,4.514,132.125,3.746z
		 M139.556,12.292v20.645h-8.126V12.292H139.556z"/>
	<path fill="#0055FE" d="M159.45,14.306c1.842,1.513,3.007,3.612,3.496,6.296h-8.602c-0.317-1.074-0.939-1.61-1.867-1.61
		c-0.659,0-1.178,0.305-1.556,0.915c-0.378,0.61-0.567,1.513-0.567,2.708c0,1.196,0.189,2.099,0.567,2.708
		c0.378,0.61,0.897,0.916,1.556,0.916c0.927,0,1.549-0.537,1.867-1.611h8.602c-0.488,2.685-1.653,4.783-3.496,6.296
		c-1.843,1.513-4.106,2.27-6.79,2.27c-2.05,0-3.874-0.427-5.472-1.281c-1.599-0.854-2.843-2.08-3.734-3.679
		c-0.891-1.598-1.336-3.471-1.336-5.619c0-2.147,0.445-4.02,1.336-5.619c0.891-1.598,2.135-2.824,3.734-3.679
		c1.598-0.854,3.422-1.281,5.472-1.281C155.344,12.036,157.607,12.793,159.45,14.306z"/>
	<path fill="#0055FE" d="M185.511,14.525c1.33,1.586,1.995,3.733,1.995,6.442v11.969h-8.089V21.993c0-0.976-0.263-1.751-0.787-2.325
		c-0.525-0.573-1.226-0.86-2.104-0.86c-0.903,0-1.611,0.287-2.123,0.86c-0.513,0.574-0.769,1.349-0.769,2.325v10.944h-8.126V5.85
		h8.126v9.59c0.634-0.976,1.482-1.769,2.544-2.379c1.062-0.609,2.325-0.915,3.789-0.915
		C182.332,12.146,184.181,12.939,185.511,14.525z"/>
	<path fill="#0055FE" d="M217.045,24.042h-12.994c0.073,1.025,0.305,1.727,0.695,2.104c0.39,0.379,0.902,0.567,1.537,0.567
		c0.879,0,1.513-0.403,1.904-1.208h8.602c-0.292,1.464-0.909,2.776-1.848,3.935c-0.94,1.159-2.123,2.074-3.551,2.745
		c-1.428,0.671-2.996,1.007-4.704,1.007c-2.05,0-3.874-0.427-5.472-1.281c-1.599-0.854-2.843-2.08-3.734-3.679
		c-0.891-1.598-1.336-3.471-1.336-5.619c0-2.147,0.445-4.02,1.336-5.619c0.891-1.598,2.135-2.824,3.734-3.679
		c1.598-0.854,3.422-1.281,5.472-1.281s3.874,0.421,5.472,1.263c1.598,0.842,2.843,2.044,3.734,3.605
		c0.89,1.562,1.336,3.404,1.336,5.527C217.228,22.944,217.167,23.481,217.045,24.042z M208.992,20.711
		c0-0.781-0.22-1.36-0.659-1.739c-0.439-0.378-0.988-0.567-1.647-0.567c-1.489,0-2.343,0.769-2.562,2.306H208.992z"/>
	<path fill="#0055FE" d="M220.486,3.746c0.854-0.769,1.988-1.153,3.404-1.153c1.391,0,2.513,0.384,3.368,1.153
		c0.854,0.769,1.281,1.739,1.281,2.91c0,1.147-0.427,2.099-1.281,2.855c-0.854,0.756-1.977,1.135-3.368,1.135
		c-1.416,0-2.55-0.378-3.404-1.135c-0.854-0.756-1.281-1.708-1.281-2.855C219.205,5.484,219.631,4.514,220.486,3.746z
		 M227.916,12.292v20.645h-8.126V12.292H227.916z"/>
	<path fill="#0055FE" d="M242.484,12.86c0.976,0.549,1.72,1.299,2.232,2.251v-2.818h8.09v20.278c0,1.928-0.354,3.685-1.062,5.271
		c-0.708,1.586-1.849,2.855-3.423,3.807c-1.574,0.952-3.593,1.427-6.058,1.427c-3.319,0-5.948-0.775-7.888-2.324
		c-1.94-1.55-3.044-3.655-3.313-6.314h7.979c0.22,1.073,1.098,1.61,2.635,1.61c0.952,0,1.696-0.244,2.233-0.732
		c0.537-0.489,0.805-1.404,0.805-2.746v-2.452c-0.512,0.952-1.257,1.702-2.232,2.251c-0.977,0.549-2.136,0.824-3.478,0.824
		c-1.61,0-3.063-0.421-4.356-1.263c-1.293-0.842-2.312-2.062-3.056-3.66c-0.745-1.598-1.117-3.483-1.117-5.655
		c0-2.171,0.372-4.057,1.117-5.655c0.744-1.598,1.763-2.818,3.056-3.66c1.293-0.842,2.746-1.263,4.356-1.263
		C240.348,12.036,241.507,12.311,242.484,12.86z M239.555,20.053c-0.562,0.61-0.842,1.464-0.842,2.562s0.28,1.953,0.842,2.563
		s1.281,0.915,2.16,0.915c0.879,0,1.598-0.305,2.16-0.915c0.561-0.61,0.842-1.464,0.842-2.563s-0.281-1.952-0.842-2.562
		c-0.562-0.61-1.281-0.916-2.16-0.916C240.836,19.137,240.117,19.443,239.555,20.053z"/>
	<path fill="#0055FE" d="M276.47,14.525c1.33,1.586,1.995,3.733,1.995,6.442v11.969h-8.089V21.993c0-0.976-0.263-1.751-0.787-2.325
		c-0.525-0.573-1.226-0.86-2.104-0.86c-0.903,0-1.611,0.287-2.123,0.86c-0.513,0.574-0.769,1.349-0.769,2.325v10.944h-8.126V5.85
		h8.126v9.59c0.634-0.976,1.482-1.769,2.544-2.379c1.062-0.609,2.325-0.915,3.789-0.915C273.292,12.146,275.14,12.939,276.47,14.525
		z"/>
	<path fill="#0055FE" d="M294.827,26.019v6.918h-3.075c-5.662,0-8.492-2.818-8.492-8.456v-5.417h-2.563v-6.771h2.563V7.314h8.126
		v4.978h3.368v6.771h-3.368v5.564c0,0.488,0.116,0.842,0.348,1.062s0.616,0.33,1.153,0.33H294.827z"/>
	<path fill="#0055FE" d="M312.286,5.85v27.087h-8.125V5.85H312.286z"/>
	<path fill="#0055FE" d="M335.749,24.042h-12.994c0.073,1.025,0.305,1.727,0.695,2.104c0.39,0.379,0.902,0.567,1.537,0.567
		c0.879,0,1.513-0.403,1.903-1.208h8.603c-0.293,1.464-0.91,2.776-1.849,3.935c-0.939,1.159-2.123,2.074-3.551,2.745
		c-1.428,0.671-2.996,1.007-4.703,1.007c-2.05,0-3.875-0.427-5.473-1.281c-1.599-0.854-2.843-2.08-3.733-3.679
		c-0.892-1.598-1.336-3.471-1.336-5.619c0-2.147,0.444-4.02,1.336-5.619c0.891-1.598,2.135-2.824,3.733-3.679
		c1.598-0.854,3.423-1.281,5.473-1.281s3.873,0.421,5.472,1.263c1.598,0.842,2.843,2.044,3.733,3.605s1.336,3.404,1.336,5.527
		C335.931,22.944,335.871,23.481,335.749,24.042z M327.696,20.711c0-0.781-0.22-1.36-0.659-1.739
		c-0.439-0.378-0.988-0.567-1.646-0.567c-1.489,0-2.343,0.769-2.563,2.306H327.696z"/>
	<path fill="#0055FE" d="M351.341,26.019v6.918h-3.074c-5.662,0-8.492-2.818-8.492-8.456v-5.417h-2.563v-6.771h2.563V7.314h8.126
		v4.978h3.367v6.771h-3.367v5.564c0,0.488,0.115,0.842,0.348,1.062c0.231,0.22,0.616,0.33,1.153,0.33H351.341z"/>
	<path fill="#0055FE" d="M367.3,26.019v6.918h-3.074c-5.662,0-8.492-2.818-8.492-8.456v-5.417h-2.563v-6.771h2.563V7.314h8.126
		v4.978h3.367v6.771h-3.367v5.564c0,0.488,0.115,0.842,0.348,1.062c0.231,0.22,0.616,0.33,1.153,0.33H367.3z"/>
	<path fill="#0055FE" d="M390.214,24.042H377.22c0.073,1.025,0.305,1.727,0.695,2.104c0.39,0.379,0.902,0.567,1.537,0.567
		c0.879,0,1.513-0.403,1.903-1.208h8.603c-0.293,1.464-0.91,2.776-1.849,3.935c-0.939,1.159-2.123,2.074-3.551,2.745
		c-1.428,0.671-2.996,1.007-4.703,1.007c-2.05,0-3.875-0.427-5.473-1.281c-1.599-0.854-2.843-2.08-3.733-3.679
		c-0.892-1.598-1.336-3.471-1.336-5.619c0-2.147,0.444-4.02,1.336-5.619c0.891-1.598,2.135-2.824,3.733-3.679
		c1.598-0.854,3.423-1.281,5.473-1.281s3.873,0.421,5.472,1.263c1.598,0.842,2.843,2.044,3.733,3.605s1.336,3.404,1.336,5.527
		C390.397,22.944,390.336,23.481,390.214,24.042z M382.162,20.711c0-0.781-0.22-1.36-0.659-1.739
		c-0.439-0.378-0.988-0.567-1.646-0.567c-1.489,0-2.343,0.769-2.563,2.306H382.162z"/>
	<path fill="#0055FE" d="M404.124,13.226c1.195-0.72,2.44-1.08,3.733-1.08v8.675h-2.306c-1.537,0-2.666,0.269-3.386,0.805
		c-0.72,0.537-1.08,1.489-1.08,2.855v8.456h-8.126V12.292h8.126v3.807C401.915,14.904,402.928,13.946,404.124,13.226z"/>
	<path fill="#0055FE" d="M424.896,14.068c1.671,1.354,2.728,3.142,3.166,5.362h-7.576c-0.318-1.171-1.147-1.757-2.489-1.757
		c-0.757,0-1.135,0.293-1.135,0.878c0,0.415,0.274,0.732,0.823,0.952s1.422,0.452,2.617,0.695c1.562,0.293,2.897,0.641,4.008,1.043
		c1.11,0.402,2.068,1.056,2.874,1.958c0.805,0.903,1.208,2.136,1.208,3.697c0,1.22-0.343,2.306-1.025,3.258
		c-0.684,0.952-1.684,1.696-3.001,2.233c-1.318,0.537-2.868,0.805-4.649,0.805c-2.978,0-5.344-0.634-7.101-1.903
		c-1.757-1.269-2.843-3.099-3.258-5.491h7.797c0.146,1.196,0.988,1.793,2.525,1.793c0.829,0,1.244-0.293,1.244-0.878
		c0-0.463-0.28-0.805-0.842-1.025s-1.464-0.439-2.708-0.659c-1.587-0.317-2.898-0.659-3.936-1.025
		c-1.037-0.366-1.946-0.988-2.727-1.867c-0.781-0.879-1.172-2.086-1.172-3.624c0-1.245,0.33-2.354,0.988-3.331
		c0.659-0.976,1.635-1.744,2.929-2.306c1.293-0.562,2.867-0.842,4.722-0.842C420.985,12.036,423.224,12.713,424.896,14.068z"/>
	<path fill="#0055FE" d="M468.802,12.292l-4.905,20.645h-9.15l-2.489-11.64l-2.636,11.64h-9.15l-4.868-20.645h8.053l1.72,12.555
		l2.672-12.555h8.676l2.818,12.702l1.757-12.702H468.802z"/>
	<path fill="#0055FE" d="M485.932,13.317c1.659,0.854,2.959,2.081,3.898,3.679c0.939,1.599,1.409,3.472,1.409,5.619
		c0,2.147-0.47,4.021-1.409,5.619c-0.939,1.599-2.239,2.825-3.898,3.679c-1.659,0.854-3.526,1.281-5.601,1.281
		s-3.94-0.427-5.6-1.281c-1.66-0.854-2.96-2.08-3.898-3.679c-0.94-1.598-1.409-3.471-1.409-5.619c0-2.147,0.469-4.02,1.409-5.619
		c0.938-1.598,2.238-2.824,3.898-3.679c1.659-0.854,3.525-1.281,5.6-1.281S484.273,12.463,485.932,13.317z M478.428,19.961
		c-0.512,0.598-0.769,1.482-0.769,2.654s0.25,2.056,0.751,2.654c0.499,0.598,1.14,0.897,1.921,0.897
		c0.757,0,1.392-0.299,1.903-0.897c0.513-0.598,0.77-1.482,0.77-2.654s-0.257-2.056-0.77-2.654
		c-0.512-0.598-1.146-0.897-1.903-0.897C479.576,19.064,478.941,19.363,478.428,19.961z"/>
	<path fill="#0055FE" d="M504.965,13.226c1.195-0.72,2.44-1.08,3.733-1.08v8.675h-2.306c-1.537,0-2.666,0.269-3.386,0.805
		c-0.72,0.537-1.08,1.489-1.08,2.855v8.456h-8.126V12.292h8.126v3.807C502.756,14.904,503.77,13.946,504.965,13.226z"/>
	<path fill="#0055FE" d="M521.785,12.86c0.964,0.549,1.702,1.299,2.215,2.251V5.85h8.126v27.087H524v-2.818
		c-0.513,0.952-1.251,1.702-2.215,2.251c-0.964,0.549-2.117,0.824-3.459,0.824c-1.61,0-3.063-0.421-4.355-1.263
		c-1.294-0.842-2.313-2.062-3.057-3.66c-0.745-1.598-1.116-3.483-1.116-5.655c0-2.171,0.371-4.057,1.116-5.655
		c0.744-1.598,1.763-2.818,3.057-3.66c1.293-0.842,2.745-1.263,4.355-1.263C519.667,12.036,520.821,12.311,521.785,12.86z
		 M518.875,20.053c-0.562,0.61-0.842,1.464-0.842,2.562s0.28,1.953,0.842,2.563s1.281,0.915,2.16,0.915
		c0.878,0,1.598-0.305,2.159-0.915s0.842-1.464,0.842-2.563s-0.28-1.952-0.842-2.562s-1.281-0.916-2.159-0.916
		C520.156,19.137,519.436,19.443,518.875,20.053z"/>
	<path fill="#0055FE" d="M44.441,61.218c1.195-0.72,2.44-1.08,3.734-1.08v8.675h-2.306c-1.538,0-2.667,0.269-3.386,0.805
		c-0.72,0.537-1.08,1.489-1.08,2.855v8.456h-8.126V60.284h8.126v3.807C42.233,62.896,43.246,61.938,44.441,61.218z"/>
	<path fill="#0055FE" d="M70.174,72.034H57.18c0.073,1.025,0.305,1.727,0.695,2.104c0.39,0.379,0.902,0.567,1.537,0.567
		c0.879,0,1.513-0.403,1.904-1.208h8.602c-0.292,1.464-0.909,2.776-1.848,3.935c-0.94,1.159-2.123,2.074-3.551,2.745
		c-1.428,0.671-2.996,1.007-4.704,1.007c-2.05,0-3.874-0.427-5.472-1.281c-1.599-0.854-2.843-2.08-3.734-3.679
		c-0.891-1.598-1.336-3.471-1.336-5.619c0-2.147,0.445-4.02,1.336-5.619c0.891-1.598,2.135-2.824,3.734-3.679
		c1.598-0.854,3.422-1.281,5.472-1.281s3.874,0.421,5.472,1.263c1.598,0.842,2.843,2.044,3.734,3.605
		c0.89,1.562,1.336,3.404,1.336,5.527C70.357,70.936,70.295,71.473,70.174,72.034z M62.121,68.703c0-0.781-0.22-1.36-0.659-1.739
		c-0.439-0.378-0.988-0.567-1.647-0.567c-1.489,0-2.343,0.769-2.562,2.306H62.121z"/>
	<path fill="#0055FE" d="M91.075,61.291c1.293,0.842,2.312,2.062,3.056,3.66c0.744,1.599,1.117,3.484,1.117,5.655
		c0,2.172-0.373,4.057-1.117,5.655c-0.745,1.599-1.763,2.818-3.056,3.66c-1.294,0.842-2.746,1.263-4.356,1.263
		c-1.342,0-2.496-0.274-3.459-0.824c-0.964-0.549-1.702-1.299-2.215-2.251v12.701h-8.126V60.284h8.126v2.818
		c0.513-0.952,1.25-1.702,2.215-2.251c0.963-0.549,2.117-0.824,3.459-0.824C88.329,60.028,89.781,60.449,91.075,61.291z
		 M81.851,68.044c-0.562,0.61-0.842,1.464-0.842,2.562s0.28,1.953,0.842,2.563c0.561,0.61,1.281,0.915,2.159,0.915
		c0.879,0,1.598-0.305,2.16-0.915c0.561-0.61,0.842-1.464,0.842-2.563s-0.281-1.952-0.842-2.562c-0.562-0.61-1.281-0.916-2.16-0.916
		C83.131,67.129,82.412,67.435,81.851,68.044z"/>
	<path fill="#0055FE" d="M108.973,61.218c1.195-0.72,2.44-1.08,3.734-1.08v8.675h-2.306c-1.538,0-2.667,0.269-3.386,0.805
		c-0.72,0.537-1.08,1.489-1.08,2.855v8.456h-8.126V60.284h8.126v3.807C106.765,62.896,107.777,61.938,108.973,61.218z"/>
	<path fill="#0055FE" d="M134.706,72.034h-12.994c0.073,1.025,0.305,1.727,0.695,2.104c0.39,0.379,0.902,0.567,1.537,0.567
		c0.879,0,1.513-0.403,1.904-1.208h8.602c-0.292,1.464-0.909,2.776-1.848,3.935c-0.94,1.159-2.123,2.074-3.551,2.745
		c-1.428,0.671-2.996,1.007-4.704,1.007c-2.05,0-3.874-0.427-5.472-1.281c-1.599-0.854-2.843-2.08-3.734-3.679
		c-0.891-1.598-1.336-3.471-1.336-5.619c0-2.147,0.445-4.02,1.336-5.619c0.891-1.598,2.135-2.824,3.734-3.679
		c1.598-0.854,3.422-1.281,5.472-1.281s3.874,0.421,5.472,1.263c1.598,0.842,2.843,2.044,3.734,3.605
		c0.89,1.562,1.336,3.404,1.336,5.527C134.889,70.936,134.827,71.473,134.706,72.034z M126.653,68.703
		c0-0.781-0.22-1.36-0.659-1.739c-0.439-0.378-0.988-0.567-1.647-0.567c-1.489,0-2.343,0.769-2.562,2.306H126.653z"/>
	<path fill="#0055FE" d="M152.293,62.06c1.671,1.354,2.727,3.142,3.167,5.362h-7.577c-0.317-1.171-1.147-1.757-2.489-1.757
		c-0.756,0-1.134,0.293-1.134,0.878c0,0.415,0.274,0.732,0.823,0.952c0.549,0.22,1.421,0.452,2.617,0.695
		c1.562,0.293,2.897,0.641,4.008,1.043c1.11,0.402,2.068,1.056,2.874,1.958c0.805,0.903,1.208,2.136,1.208,3.697
		c0,1.22-0.342,2.306-1.025,3.258s-1.684,1.696-3.001,2.233c-1.317,0.537-2.868,0.805-4.648,0.805c-2.978,0-5.344-0.634-7.101-1.903
		c-1.757-1.269-2.843-3.099-3.258-5.491h7.796c0.146,1.196,0.988,1.793,2.526,1.793c0.829,0,1.245-0.293,1.245-0.878
		c0-0.463-0.281-0.805-0.842-1.025s-1.464-0.439-2.708-0.659c-1.586-0.317-2.898-0.659-3.935-1.025
		c-1.037-0.366-1.946-0.988-2.727-1.867c-0.781-0.879-1.171-2.086-1.171-3.624c0-1.245,0.329-2.354,0.988-3.331
		c0.659-0.976,1.634-1.744,2.928-2.306c1.293-0.562,2.867-0.842,4.722-0.842C148.383,60.028,150.622,60.705,152.293,62.06z"/>
	<path fill="#0055FE" d="M178.447,72.034h-12.994c0.073,1.025,0.305,1.727,0.695,2.104c0.39,0.379,0.902,0.567,1.537,0.567
		c0.879,0,1.513-0.403,1.904-1.208h8.602c-0.292,1.464-0.909,2.776-1.848,3.935c-0.94,1.159-2.123,2.074-3.551,2.745
		c-1.428,0.671-2.996,1.007-4.704,1.007c-2.05,0-3.874-0.427-5.472-1.281c-1.599-0.854-2.843-2.08-3.734-3.679
		c-0.891-1.598-1.336-3.471-1.336-5.619c0-2.147,0.445-4.02,1.336-5.619c0.891-1.598,2.135-2.824,3.734-3.679
		c1.598-0.854,3.422-1.281,5.472-1.281s3.874,0.421,5.472,1.263c1.598,0.842,2.843,2.044,3.734,3.605
		c0.89,1.562,1.336,3.404,1.336,5.527C178.63,70.936,178.568,71.473,178.447,72.034z M170.394,68.703c0-0.781-0.22-1.36-0.659-1.739
		c-0.439-0.378-0.988-0.567-1.647-0.567c-1.489,0-2.343,0.769-2.562,2.306H170.394z"/>
	<path fill="#0055FE" d="M201.196,62.517c1.33,1.586,1.995,3.733,1.995,6.442v11.969h-8.089V69.984c0-0.976-0.263-1.751-0.787-2.325
		c-0.525-0.573-1.226-0.86-2.104-0.86c-0.903,0-1.611,0.287-2.123,0.86c-0.513,0.574-0.769,1.349-0.769,2.325v10.944h-8.126V60.284
		h8.126v3.148c0.634-0.976,1.482-1.769,2.544-2.379c1.062-0.609,2.325-0.915,3.789-0.915
		C198.017,60.138,199.866,60.931,201.196,62.517z"/>
	<path fill="#0055FE" d="M219.552,74.011v6.918h-3.075c-5.662,0-8.492-2.818-8.492-8.456v-5.417h-2.563v-6.771h2.563v-4.978h8.126
		v4.978h3.368v6.771h-3.368v5.564c0,0.488,0.116,0.842,0.348,1.062s0.616,0.33,1.153,0.33H219.552z"/>
	<path fill="#0055FE" d="M223.359,51.737c0.854-0.769,1.988-1.153,3.404-1.153c1.391,0,2.513,0.384,3.368,1.153
		c0.854,0.769,1.281,1.739,1.281,2.91c0,1.147-0.427,2.099-1.281,2.855c-0.854,0.756-1.977,1.135-3.368,1.135
		c-1.416,0-2.55-0.378-3.404-1.135c-0.854-0.756-1.281-1.708-1.281-2.855C222.078,53.476,222.504,52.506,223.359,51.737z
		 M230.789,60.284v20.645h-8.126V60.284H230.789z"/>
	<path fill="#0055FE" d="M254.453,62.517c1.33,1.586,1.995,3.733,1.995,6.442v11.969h-8.089V69.984c0-0.976-0.263-1.751-0.787-2.325
		c-0.525-0.573-1.226-0.86-2.104-0.86c-0.903,0-1.611,0.287-2.123,0.86c-0.513,0.574-0.769,1.349-0.769,2.325v10.944h-8.126V60.284
		h8.126v3.148c0.634-0.976,1.482-1.769,2.544-2.379c1.062-0.609,2.325-0.915,3.789-0.915
		C251.274,60.138,253.123,60.931,254.453,62.517z"/>
	<path fill="#0055FE" d="M270.87,60.852c0.976,0.549,1.72,1.299,2.232,2.251v-2.818h8.09v20.278c0,1.928-0.354,3.685-1.062,5.271
		c-0.708,1.586-1.849,2.855-3.423,3.807c-1.574,0.952-3.593,1.427-6.058,1.427c-3.319,0-5.948-0.775-7.888-2.324
		c-1.94-1.55-3.044-3.655-3.313-6.314h7.979c0.22,1.073,1.098,1.61,2.635,1.61c0.952,0,1.696-0.244,2.233-0.732
		c0.537-0.489,0.805-1.404,0.805-2.746V78.11c-0.512,0.952-1.257,1.702-2.232,2.251c-0.977,0.549-2.136,0.824-3.478,0.824
		c-1.61,0-3.063-0.421-4.356-1.263c-1.293-0.842-2.312-2.062-3.056-3.66c-0.745-1.598-1.117-3.483-1.117-5.655
		c0-2.171,0.372-4.057,1.117-5.655c0.744-1.598,1.763-2.818,3.056-3.66c1.293-0.842,2.746-1.263,4.356-1.263
		C268.734,60.028,269.893,60.303,270.87,60.852z M267.941,68.044c-0.562,0.61-0.842,1.464-0.842,2.562s0.28,1.953,0.842,2.563
		s1.281,0.915,2.16,0.915c0.879,0,1.598-0.305,2.16-0.915c0.561-0.61,0.842-1.464,0.842-2.563s-0.281-1.952-0.842-2.562
		c-0.562-0.61-1.281-0.916-2.16-0.916C269.222,67.129,268.502,67.435,267.941,68.044z"/>
	<path fill="#0055FE" d="M301.983,60.852c0.976,0.549,1.721,1.299,2.232,2.251v-2.818h8.09v20.645h-8.09V78.11
		c-0.512,0.952-1.257,1.702-2.232,2.251c-0.977,0.549-2.136,0.824-3.478,0.824c-1.61,0-3.063-0.421-4.356-1.263
		c-1.293-0.842-2.312-2.062-3.056-3.66c-0.745-1.598-1.117-3.483-1.117-5.655c0-2.171,0.372-4.057,1.117-5.655
		c0.744-1.598,1.763-2.818,3.056-3.66c1.293-0.842,2.746-1.263,4.356-1.263C299.847,60.028,301.006,60.303,301.983,60.852z
		 M299.054,68.044c-0.562,0.61-0.842,1.464-0.842,2.562s0.28,1.953,0.842,2.563s1.281,0.915,2.16,0.915s1.598-0.305,2.16-0.915
		c0.561-0.61,0.842-1.464,0.842-2.563s-0.281-1.952-0.842-2.562c-0.562-0.61-1.281-0.916-2.16-0.916S299.616,67.435,299.054,68.044z
		"/>
	<path fill="#0055FE" d="M335.968,62.517c1.33,1.586,1.995,3.733,1.995,6.442v11.969h-8.09V69.984c0-0.976-0.262-1.751-0.787-2.325
		c-0.524-0.573-1.226-0.86-2.104-0.86c-0.903,0-1.61,0.287-2.123,0.86c-0.512,0.574-0.769,1.349-0.769,2.325v10.944h-8.126V60.284
		h8.126v3.148c0.635-0.976,1.482-1.769,2.544-2.379c1.062-0.609,2.324-0.915,3.789-0.915
		C332.79,60.138,334.638,60.931,335.968,62.517z"/>
	<path fill="#0055FE" d="M348.395,51.737c0.854-0.769,1.989-1.153,3.404-1.153c1.391,0,2.514,0.384,3.367,1.153
		c0.854,0.769,1.281,1.739,1.281,2.91c0,1.147-0.427,2.099-1.281,2.855c-0.854,0.756-1.977,1.135-3.367,1.135
		c-1.415,0-2.55-0.378-3.404-1.135s-1.281-1.708-1.281-2.855C347.114,53.476,347.541,52.506,348.395,51.737z M355.826,60.284v20.645
		H347.7V60.284H355.826z"/>
	<path fill="#0055FE" d="M379.49,62.517c1.33,1.586,1.995,3.733,1.995,6.442v11.969h-8.09V69.984c0-0.976-0.262-1.751-0.787-2.325
		c-0.524-0.573-1.226-0.86-2.104-0.86c-0.903,0-1.61,0.287-2.123,0.86c-0.512,0.574-0.769,1.349-0.769,2.325v10.944h-8.126V60.284
		h8.126v3.148c0.635-0.976,1.482-1.769,2.544-2.379c1.062-0.609,2.324-0.915,3.789-0.915
		C376.311,60.138,378.16,60.931,379.49,62.517z"/>
	<path fill="#0055FE" d="M399.841,62.06c1.671,1.354,2.728,3.142,3.166,5.362h-7.576c-0.318-1.171-1.147-1.757-2.489-1.757
		c-0.757,0-1.135,0.293-1.135,0.878c0,0.415,0.274,0.732,0.823,0.952s1.422,0.452,2.617,0.695c1.562,0.293,2.897,0.641,4.008,1.043
		c1.11,0.402,2.068,1.056,2.874,1.958c0.805,0.903,1.208,2.136,1.208,3.697c0,1.22-0.343,2.306-1.025,3.258
		c-0.684,0.952-1.684,1.696-3.001,2.233c-1.318,0.537-2.868,0.805-4.649,0.805c-2.978,0-5.344-0.634-7.101-1.903
		c-1.757-1.269-2.843-3.099-3.258-5.491h7.797c0.146,1.196,0.988,1.793,2.525,1.793c0.829,0,1.244-0.293,1.244-0.878
		c0-0.463-0.28-0.805-0.842-1.025s-1.464-0.439-2.708-0.659c-1.587-0.317-2.898-0.659-3.936-1.025
		c-1.037-0.366-1.946-0.988-2.727-1.867c-0.781-0.879-1.172-2.086-1.172-3.624c0-1.245,0.33-2.354,0.988-3.331
		c0.659-0.976,1.635-1.744,2.929-2.306c1.293-0.562,2.867-0.842,4.722-0.842C395.93,60.028,398.169,60.705,399.841,62.06z"/>
	<path fill="#0055FE" d="M419.04,74.011v6.918h-3.074c-5.662,0-8.492-2.818-8.492-8.456v-5.417h-2.563v-6.771h2.563v-4.978h8.126
		v4.978h3.367v6.771h-3.367v5.564c0,0.488,0.115,0.842,0.348,1.062c0.231,0.22,0.616,0.33,1.153,0.33H419.04z"/>
	<path fill="#0055FE" d="M433.315,61.218c1.195-0.72,2.44-1.08,3.733-1.08v8.675h-2.306c-1.537,0-2.666,0.269-3.386,0.805
		c-0.72,0.537-1.08,1.489-1.08,2.855v8.456h-8.126V60.284h8.126v3.807C431.106,62.896,432.12,61.938,433.315,61.218z"/>
	<path fill="#0055FE" d="M461.097,60.284v20.645h-8.126v-3.148c-0.635,0.977-1.482,1.77-2.544,2.379
		c-1.062,0.61-2.324,0.915-3.788,0.915c-2.368,0-4.216-0.793-5.546-2.379c-1.33-1.586-1.995-3.733-1.995-6.442V60.284h8.09v10.944
		c0,0.977,0.262,1.751,0.787,2.325c0.524,0.574,1.226,0.86,2.104,0.86c0.902,0,1.61-0.286,2.123-0.86
		c0.513-0.573,0.769-1.348,0.769-2.325V60.284H461.097z"/>
	<path fill="#0055FE" d="M498.45,62.517c1.452,1.586,2.179,3.733,2.179,6.442v11.969h-8.09V69.984c0-0.879-0.263-1.568-0.787-2.068
		c-0.524-0.5-1.226-0.75-2.104-0.75c-0.903,0-1.61,0.25-2.123,0.75c-0.513,0.5-0.769,1.189-0.769,2.068v10.944h-8.09V69.984
		c0-0.879-0.262-1.568-0.787-2.068c-0.524-0.5-1.226-0.75-2.104-0.75c-0.903,0-1.61,0.25-2.123,0.75
		c-0.512,0.5-0.769,1.189-0.769,2.068v10.944h-8.126V60.284h8.126v2.782c0.586-0.878,1.385-1.586,2.397-2.123
		c1.013-0.536,2.202-0.805,3.569-0.805c1.488,0,2.806,0.324,3.953,0.97c1.146,0.647,2.062,1.556,2.745,2.727
		c0.756-1.074,1.721-1.958,2.892-2.654c1.172-0.696,2.465-1.043,3.88-1.043C494.955,60.138,496.998,60.931,498.45,62.517z"/>
	<path fill="#0055FE" d="M523.945,72.034h-12.994c0.073,1.025,0.305,1.727,0.695,2.104c0.39,0.379,0.902,0.567,1.537,0.567
		c0.879,0,1.513-0.403,1.903-1.208h8.603c-0.293,1.464-0.91,2.776-1.849,3.935c-0.939,1.159-2.123,2.074-3.551,2.745
		c-1.428,0.671-2.996,1.007-4.703,1.007c-2.05,0-3.875-0.427-5.473-1.281c-1.599-0.854-2.843-2.08-3.733-3.679
		c-0.892-1.598-1.336-3.471-1.336-5.619c0-2.147,0.444-4.02,1.336-5.619c0.891-1.598,2.135-2.824,3.733-3.679
		c1.598-0.854,3.423-1.281,5.473-1.281s3.873,0.421,5.472,1.263c1.598,0.842,2.843,2.044,3.733,3.605s1.336,3.404,1.336,5.527
		C524.127,70.936,524.067,71.473,523.945,72.034z M515.892,68.703c0-0.781-0.22-1.36-0.659-1.739
		c-0.439-0.378-0.988-0.567-1.646-0.567c-1.489,0-2.343,0.769-2.563,2.306H515.892z"/>
	<path fill="#0055FE" d="M546.694,62.517c1.33,1.586,1.995,3.733,1.995,6.442v11.969h-8.09V69.984c0-0.976-0.262-1.751-0.787-2.325
		c-0.524-0.573-1.226-0.86-2.104-0.86c-0.903,0-1.61,0.287-2.123,0.86c-0.512,0.574-0.769,1.349-0.769,2.325v10.944h-8.126V60.284
		h8.126v3.148c0.635-0.976,1.482-1.769,2.544-2.379c1.062-0.609,2.324-0.915,3.789-0.915
		C543.515,60.138,545.364,60.931,546.694,62.517z"/>
	<path fill="#0055FE" d="M565.049,74.011v6.918h-3.074c-5.662,0-8.492-2.818-8.492-8.456v-5.417h-2.563v-6.771h2.563v-4.978h8.126
		v4.978h3.367v6.771h-3.367v5.564c0,0.488,0.115,0.842,0.348,1.062c0.231,0.22,0.616,0.33,1.153,0.33H565.049z"/>
	<path fill="#0055FE" d="M4.526,99.729c0.854-0.769,1.988-1.153,3.404-1.153c1.391,0,2.513,0.384,3.368,1.153
		c0.854,0.769,1.281,1.739,1.281,2.91c0,1.147-0.427,2.099-1.281,2.855c-0.854,0.756-1.977,1.135-3.368,1.135
		c-1.416,0-2.55-0.378-3.404-1.135c-0.854-0.756-1.281-1.708-1.281-2.855C3.245,101.467,3.672,100.497,4.526,99.729z
		 M11.957,108.275v20.645H3.831v-20.645H11.957z"/>
	<path fill="#0055FE" d="M30.459,110.051c1.671,1.354,2.727,3.142,3.167,5.362h-7.577c-0.317-1.171-1.147-1.757-2.489-1.757
		c-0.756,0-1.134,0.293-1.134,0.878c0,0.415,0.274,0.732,0.823,0.952c0.549,0.22,1.421,0.452,2.617,0.695
		c1.562,0.293,2.897,0.641,4.008,1.043c1.11,0.402,2.068,1.056,2.874,1.958c0.805,0.903,1.208,2.136,1.208,3.697
		c0,1.22-0.342,2.306-1.025,3.258s-1.684,1.696-3.001,2.233c-1.317,0.537-2.868,0.805-4.648,0.805c-2.978,0-5.344-0.634-7.101-1.903
		c-1.757-1.269-2.843-3.099-3.258-5.491h7.796c0.146,1.196,0.988,1.793,2.526,1.793c0.829,0,1.245-0.293,1.245-0.878
		c0-0.463-0.281-0.805-0.842-1.025s-1.464-0.439-2.708-0.659c-1.586-0.317-2.898-0.659-3.935-1.025
		c-1.037-0.366-1.946-0.988-2.727-1.867c-0.781-0.879-1.171-2.086-1.171-3.624c0-1.245,0.329-2.354,0.988-3.331
		c0.659-0.976,1.634-1.744,2.928-2.306c1.293-0.562,2.867-0.842,4.722-0.842C26.549,108.019,28.788,108.696,30.459,110.051z"/>
	<path fill="#0055FE" d="M51.159,101.833v27.087h-8.126v-27.087H51.159z"/>
	<path fill="#0055FE" d="M74.622,120.025H61.627c0.073,1.025,0.305,1.727,0.695,2.104c0.39,0.379,0.902,0.567,1.537,0.567
		c0.879,0,1.513-0.403,1.904-1.208h8.602c-0.292,1.464-0.909,2.776-1.848,3.935c-0.94,1.159-2.123,2.074-3.551,2.745
		c-1.428,0.671-2.996,1.007-4.704,1.007c-2.05,0-3.874-0.427-5.472-1.281c-1.599-0.854-2.843-2.08-3.734-3.679
		c-0.891-1.598-1.336-3.471-1.336-5.619c0-2.147,0.445-4.02,1.336-5.619c0.891-1.598,2.135-2.824,3.734-3.679
		c1.598-0.854,3.422-1.281,5.472-1.281s3.874,0.421,5.472,1.263c1.598,0.842,2.843,2.044,3.734,3.605
		c0.89,1.562,1.336,3.404,1.336,5.527C74.805,118.927,74.743,119.464,74.622,120.025z M66.569,116.694
		c0-0.781-0.22-1.36-0.659-1.739c-0.439-0.378-0.988-0.567-1.647-0.567c-1.489,0-2.343,0.769-2.562,2.306H66.569z"/>
	<path fill="#0055FE" d="M88.348,106.738c-0.61,0-1.074,0.116-1.391,0.348c-0.317,0.232-0.537,0.628-0.659,1.189h2.965v6.771h-3.038
		v13.873h-8.126v-13.873h-2.196v-6.771h2.196c0.048-2.684,0.896-4.764,2.544-6.241c1.647-1.477,3.958-2.215,6.936-2.215
		c0.342,0,0.903,0.025,1.684,0.073v6.918C88.823,106.763,88.518,106.738,88.348,106.738z"/>
	<path fill="#0055FE" d="M104.307,122.002v6.918h-3.075c-5.662,0-8.492-2.818-8.492-8.456v-5.417h-2.563v-6.771h2.563v-4.978h8.126
		v4.978h3.368v6.771h-3.368v5.564c0,0.488,0.116,0.842,0.348,1.062s0.616,0.33,1.153,0.33H104.307z"/>
	<path fill="#0055FE" d="M144.973,108.275l-4.905,20.645h-9.151l-2.489-11.64l-2.636,11.64h-9.151l-4.868-20.645h8.053l1.721,12.555
		l2.672-12.555h8.675l2.818,12.702l1.757-12.702H144.973z"/>
	<path fill="#0055FE" d="M147.389,99.729c0.854-0.769,1.988-1.153,3.404-1.153c1.391,0,2.513,0.384,3.368,1.153
		c0.854,0.769,1.281,1.739,1.281,2.91c0,1.147-0.427,2.099-1.281,2.855c-0.854,0.756-1.977,1.135-3.368,1.135
		c-1.416,0-2.55-0.378-3.404-1.135c-0.854-0.756-1.281-1.708-1.281-2.855C146.108,101.467,146.535,100.497,147.389,99.729z
		 M154.819,108.275v20.645h-8.126v-20.645H154.819z"/>
	<path fill="#0055FE" d="M171.328,122.002v6.918h-3.075c-5.662,0-8.492-2.818-8.492-8.456v-5.417h-2.563v-6.771h2.563v-4.978h8.126
		v4.978h3.368v6.771h-3.368v5.564c0,0.488,0.116,0.842,0.348,1.062s0.616,0.33,1.153,0.33H171.328z"/>
	<path fill="#0055FE" d="M194.442,110.508c1.33,1.586,1.995,3.733,1.995,6.442v11.969h-8.089v-10.944
		c0-0.976-0.263-1.751-0.787-2.325c-0.525-0.573-1.226-0.86-2.104-0.86c-0.903,0-1.611,0.287-2.123,0.86
		c-0.513,0.574-0.769,1.349-0.769,2.325v10.944h-8.126v-27.087h8.126v9.59c0.634-0.976,1.482-1.769,2.544-2.379
		c1.062-0.609,2.325-0.915,3.789-0.915C191.263,108.129,193.112,108.922,194.442,110.508z"/>
	<path fill="#0055FE" d="M221.583,109.3c1.659,0.854,2.958,2.081,3.898,3.679c0.939,1.599,1.409,3.472,1.409,5.619
		c0,2.147-0.47,4.021-1.409,5.619c-0.94,1.599-2.239,2.825-3.898,3.679c-1.66,0.854-3.526,1.281-5.6,1.281
		c-2.075,0-3.941-0.427-5.601-1.281c-1.66-0.854-2.959-2.08-3.898-3.679c-0.939-1.598-1.409-3.471-1.409-5.619
		c0-2.147,0.47-4.02,1.409-5.619c0.939-1.598,2.239-2.824,3.898-3.679c1.659-0.854,3.526-1.281,5.601-1.281
		C218.057,108.019,219.924,108.446,221.583,109.3z M214.08,115.944c-0.513,0.598-0.769,1.482-0.769,2.654s0.25,2.056,0.75,2.654
		c0.5,0.598,1.141,0.897,1.922,0.897c0.756,0,1.391-0.299,1.903-0.897c0.512-0.598,0.769-1.482,0.769-2.654
		s-0.256-2.056-0.769-2.654c-0.513-0.598-1.147-0.897-1.903-0.897C215.227,115.047,214.592,115.346,214.08,115.944z"/>
	<path fill="#0055FE" d="M249.457,110.508c1.33,1.586,1.995,3.733,1.995,6.442v11.969h-8.089v-10.944
		c0-0.976-0.263-1.751-0.787-2.325c-0.525-0.573-1.226-0.86-2.104-0.86c-0.903,0-1.611,0.287-2.123,0.86
		c-0.513,0.574-0.769,1.349-0.769,2.325v10.944h-8.126v-20.645h8.126v3.148c0.634-0.976,1.482-1.769,2.544-2.379
		c1.062-0.609,2.325-0.915,3.789-0.915C246.278,108.129,248.126,108.922,249.457,110.508z"/>
	<path fill="#0055FE" d="M274.768,120.025h-12.994c0.073,1.025,0.305,1.727,0.695,2.104c0.39,0.379,0.902,0.567,1.537,0.567
		c0.879,0,1.513-0.403,1.904-1.208h8.602c-0.292,1.464-0.909,2.776-1.848,3.935c-0.94,1.159-2.123,2.074-3.551,2.745
		c-1.428,0.671-2.996,1.007-4.704,1.007c-2.05,0-3.874-0.427-5.472-1.281c-1.599-0.854-2.843-2.08-3.734-3.679
		c-0.891-1.598-1.336-3.471-1.336-5.619c0-2.147,0.445-4.02,1.336-5.619c0.891-1.598,2.135-2.824,3.734-3.679
		c1.598-0.854,3.422-1.281,5.472-1.281s3.874,0.421,5.472,1.263c1.598,0.842,2.843,2.044,3.734,3.605
		c0.89,1.562,1.336,3.404,1.336,5.527C274.951,118.927,274.889,119.464,274.768,120.025z M266.715,116.694
		c0-0.781-0.22-1.36-0.659-1.739c-0.439-0.378-0.988-0.567-1.647-0.567c-1.489,0-2.343,0.769-2.562,2.306H266.715z"/>
	<path fill="#0055FE" d="M284.431,99.729c0.854-0.769,1.988-1.153,3.404-1.153c1.391,0,2.513,0.384,3.368,1.153
		c0.854,0.769,1.281,1.739,1.281,2.91c0,1.147-0.427,2.099-1.281,2.855c-0.854,0.756-1.977,1.135-3.368,1.135
		c-1.416,0-2.55-0.378-3.404-1.135c-0.854-0.756-1.281-1.708-1.281-2.855C283.15,101.467,283.577,100.497,284.431,99.729z
		 M291.861,108.275v20.645h-8.126v-20.645H291.861z"/>
	<path fill="#0055FE" d="M306.502,106.738c-0.609,0-1.074,0.116-1.391,0.348c-0.318,0.232-0.537,0.628-0.658,1.189h2.965v6.771
		h-3.039v13.873h-8.125v-13.873h-2.196v-6.771h2.196c0.048-2.684,0.896-4.764,2.544-6.241c1.647-1.477,3.958-2.215,6.937-2.215
		c0.34,0,0.902,0.025,1.684,0.073v6.918C306.979,106.763,306.672,106.738,306.502,106.738z"/>
	<path fill="#0055FE" d="M322.681,108.275l3.88,10.469l3.624-10.469h8.968l-13.214,30.527h-8.895l5.197-10.908l-8.602-19.62H322.681
		z"/>
	<path fill="#0055FE" d="M356.027,109.3c1.659,0.854,2.959,2.081,3.898,3.679c0.939,1.599,1.409,3.472,1.409,5.619
		c0,2.147-0.47,4.021-1.409,5.619c-0.939,1.599-2.239,2.825-3.898,3.679c-1.659,0.854-3.526,1.281-5.601,1.281
		s-3.94-0.427-5.6-1.281c-1.66-0.854-2.96-2.08-3.898-3.679c-0.94-1.598-1.409-3.471-1.409-5.619c0-2.147,0.469-4.02,1.409-5.619
		c0.938-1.598,2.238-2.824,3.898-3.679c1.659-0.854,3.525-1.281,5.6-1.281S354.368,108.446,356.027,109.3z M348.523,115.944
		c-0.512,0.598-0.769,1.482-0.769,2.654s0.25,2.056,0.751,2.654c0.499,0.598,1.14,0.897,1.921,0.897
		c0.757,0,1.392-0.299,1.903-0.897c0.513-0.598,0.77-1.482,0.77-2.654s-0.257-2.056-0.77-2.654
		c-0.512-0.598-1.146-0.897-1.903-0.897C349.67,115.047,349.036,115.346,348.523,115.944z"/>
	<path fill="#0055FE" d="M385.749,108.275v20.645h-8.126v-3.148c-0.635,0.977-1.482,1.77-2.544,2.379
		c-1.062,0.61-2.324,0.915-3.788,0.915c-2.368,0-4.216-0.793-5.546-2.379c-1.33-1.586-1.995-3.733-1.995-6.442v-11.969h8.09v10.944
		c0,0.977,0.262,1.751,0.787,2.325c0.524,0.574,1.226,0.86,2.104,0.86c0.902,0,1.61-0.286,2.123-0.86
		c0.513-0.573,0.769-1.348,0.769-2.325v-10.944H385.749z"/>
	<path fill="#0055FE" d="M408.479,122.002v6.918h-3.074c-5.662,0-8.492-2.818-8.492-8.456v-5.417h-2.563v-6.771h2.563v-4.978h8.126
		v4.978h3.367v6.771h-3.367v5.564c0,0.488,0.115,0.842,0.348,1.062c0.231,0.22,0.616,0.33,1.153,0.33H408.479z"/>
	<path fill="#0055FE" d="M422.498,108.843c0.976,0.549,1.72,1.299,2.232,2.251v-2.818h8.09v20.645h-8.09v-2.818
		c-0.513,0.952-1.257,1.702-2.232,2.251c-0.977,0.549-2.136,0.824-3.478,0.824c-1.61,0-3.063-0.421-4.355-1.263
		c-1.294-0.842-2.313-2.062-3.057-3.66c-0.745-1.598-1.116-3.483-1.116-5.655c0-2.171,0.371-4.057,1.116-5.655
		c0.744-1.598,1.763-2.818,3.057-3.66c1.293-0.842,2.745-1.263,4.355-1.263C420.362,108.019,421.521,108.294,422.498,108.843z
		 M419.569,116.036c-0.562,0.61-0.842,1.464-0.842,2.562s0.28,1.953,0.842,2.563s1.281,0.915,2.16,0.915
		c0.878,0,1.598-0.305,2.159-0.915s0.842-1.464,0.842-2.563s-0.28-1.952-0.842-2.562s-1.281-0.916-2.159-0.916
		C420.85,115.12,420.13,115.426,419.569,116.036z"/>
	<path fill="#0055FE" d="M449.694,128.92l-5.088-8.236v8.236h-8.126v-27.087h8.126v14.166l5.161-7.724h9.444l-7.724,10.396
		l7.906,10.249H449.694z"/>
	<path fill="#0055FE" d="M481.027,120.025h-12.994c0.073,1.025,0.305,1.727,0.695,2.104c0.39,0.379,0.902,0.567,1.537,0.567
		c0.879,0,1.513-0.403,1.903-1.208h8.603c-0.293,1.464-0.91,2.776-1.849,3.935c-0.939,1.159-2.123,2.074-3.551,2.745
		c-1.428,0.671-2.996,1.007-4.703,1.007c-2.05,0-3.875-0.427-5.473-1.281c-1.599-0.854-2.843-2.08-3.733-3.679
		c-0.892-1.598-1.336-3.471-1.336-5.619c0-2.147,0.444-4.02,1.336-5.619c0.891-1.598,2.135-2.824,3.733-3.679
		c1.598-0.854,3.423-1.281,5.473-1.281s3.873,0.421,5.472,1.263c1.598,0.842,2.843,2.044,3.733,3.605s1.336,3.404,1.336,5.527
		C481.209,118.927,481.149,119.464,481.027,120.025z M472.974,116.694c0-0.781-0.22-1.36-0.659-1.739
		c-0.439-0.378-0.988-0.567-1.646-0.567c-1.489,0-2.343,0.769-2.563,2.306H472.974z"/>
	<path fill="#0055FE" d="M500.903,108.843c0.976,0.549,1.72,1.299,2.232,2.251v-2.818h8.09v20.645h-8.09v-2.818
		c-0.513,0.952-1.257,1.702-2.232,2.251c-0.977,0.549-2.136,0.824-3.478,0.824c-1.61,0-3.063-0.421-4.355-1.263
		c-1.294-0.842-2.313-2.062-3.057-3.66c-0.745-1.598-1.116-3.483-1.116-5.655c0-2.171,0.371-4.057,1.116-5.655
		c0.744-1.598,1.763-2.818,3.057-3.66c1.293-0.842,2.745-1.263,4.355-1.263C498.767,108.019,499.926,108.294,500.903,108.843z
		 M497.974,116.036c-0.562,0.61-0.842,1.464-0.842,2.562s0.28,1.953,0.842,2.563s1.281,0.915,2.16,0.915
		c0.878,0,1.598-0.305,2.159-0.915s0.842-1.464,0.842-2.563s-0.28-1.952-0.842-2.562s-1.281-0.916-2.159-0.916
		C499.255,115.12,498.536,115.426,497.974,116.036z"/>
	<path fill="#0055FE" d="M546.217,108.275l-4.905,20.645h-9.15l-2.489-11.64l-2.636,11.64h-9.15l-4.868-20.645h8.053l1.72,12.555
		l2.672-12.555h8.676l2.818,12.702l1.757-12.702H546.217z"/>
	<path fill="#0055FE" d="M558.846,108.843c0.976,0.549,1.72,1.299,2.232,2.251v-2.818h8.09v20.645h-8.09v-2.818
		c-0.513,0.952-1.257,1.702-2.232,2.251c-0.977,0.549-2.136,0.824-3.478,0.824c-1.61,0-3.063-0.421-4.355-1.263
		c-1.294-0.842-2.313-2.062-3.057-3.66c-0.745-1.598-1.116-3.483-1.116-5.655c0-2.171,0.371-4.057,1.116-5.655
		c0.744-1.598,1.763-2.818,3.057-3.66c1.293-0.842,2.745-1.263,4.355-1.263C556.71,108.019,557.87,108.294,558.846,108.843z
		 M555.917,116.036c-0.562,0.61-0.842,1.464-0.842,2.562s0.28,1.953,0.842,2.563s1.281,0.915,2.16,0.915
		c0.878,0,1.598-0.305,2.159-0.915s0.842-1.464,0.842-2.563s-0.28-1.952-0.842-2.562s-1.281-0.916-2.159-0.916
		C557.199,115.12,556.479,115.426,555.917,116.036z"/>
	<path fill="#0055FE" d="M579.672,108.275l3.88,10.469l3.624-10.469h8.968l-13.214,30.527h-8.895l5.197-10.908l-8.602-19.62H579.672
		z"/>
	<path fill="#0055FE" d="M201.47,154.767c-0.562,0-0.983,0.116-1.263,0.348c-0.281,0.232-0.458,0.616-0.531,1.153h12.555v20.645
		h-8.126v-13.873h-4.502v13.873h-8.126v-13.873h-2.196v-6.771h2.196c0.024-2.684,0.835-4.764,2.434-6.241
		c1.598-1.477,3.825-2.215,6.68-2.215c0.292,0,0.805,0.025,1.537,0.073v6.918C201.958,154.779,201.738,154.767,201.47,154.767z
		 M204.782,154.291c-0.842-0.708-1.263-1.635-1.263-2.782c0-1.122,0.427-2.043,1.281-2.764c0.854-0.72,1.988-1.08,3.404-1.08
		c1.415,0,2.544,0.36,3.386,1.08c0.842,0.72,1.263,1.642,1.263,2.764c0,1.147-0.421,2.074-1.263,2.782
		c-0.842,0.708-1.971,1.062-3.386,1.062C206.765,155.352,205.624,154.999,204.782,154.291z"/>
	<path fill="#0055FE" d="M227.275,169.188l3.294-12.921h8.638l-6.881,20.645h-10.139l-6.881-20.645h8.638L227.275,169.188z"/>
	<path fill="#0055FE" d="M261.169,168.017h-12.994c0.073,1.025,0.305,1.727,0.695,2.104c0.39,0.379,0.902,0.567,1.537,0.567
		c0.879,0,1.513-0.403,1.904-1.208h8.602c-0.292,1.464-0.909,2.776-1.848,3.935c-0.94,1.159-2.123,2.074-3.551,2.745
		c-1.428,0.671-2.996,1.007-4.704,1.007c-2.05,0-3.874-0.427-5.472-1.281c-1.599-0.854-2.843-2.08-3.734-3.679
		c-0.891-1.598-1.336-3.471-1.336-5.619c0-2.147,0.445-4.02,1.336-5.619c0.891-1.598,2.135-2.824,3.734-3.679
		c1.598-0.854,3.422-1.281,5.472-1.281s3.874,0.421,5.472,1.263c1.598,0.842,2.843,2.044,3.734,3.605
		c0.89,1.562,1.336,3.404,1.336,5.527C261.353,166.919,261.291,167.456,261.169,168.017z M253.117,164.686
		c0-0.781-0.22-1.36-0.659-1.739c-0.439-0.378-0.988-0.567-1.647-0.567c-1.489,0-2.343,0.769-2.562,2.306H253.117z"/>
	<path fill="#0055FE" d="M278.263,149.825v27.087h-8.126v-27.087H278.263z"/>
	<path fill="#0055FE" d="M301.726,168.017h-12.994c0.073,1.025,0.305,1.727,0.695,2.104c0.39,0.379,0.902,0.567,1.537,0.567
		c0.879,0,1.513-0.403,1.904-1.208h8.601c-0.292,1.464-0.909,2.776-1.848,3.935c-0.94,1.159-2.123,2.074-3.551,2.745
		c-1.428,0.671-2.996,1.007-4.704,1.007c-2.05,0-3.874-0.427-5.472-1.281c-1.599-0.854-2.843-2.08-3.734-3.679
		c-0.891-1.598-1.336-3.471-1.336-5.619c0-2.147,0.445-4.02,1.336-5.619c0.891-1.598,2.135-2.824,3.734-3.679
		c1.598-0.854,3.422-1.281,5.472-1.281s3.874,0.421,5.472,1.263c1.598,0.842,2.843,2.044,3.734,3.605
		c0.89,1.562,1.335,3.404,1.335,5.527C301.909,166.919,301.848,167.456,301.726,168.017z M293.673,164.686
		c0-0.781-0.22-1.36-0.659-1.739c-0.439-0.378-0.988-0.567-1.647-0.567c-1.489,0-2.343,0.769-2.562,2.306H293.673z"/>
	<path fill="#0055FE" d="M317.319,169.994v6.918h-3.074c-5.662,0-8.492-2.818-8.492-8.456v-5.417h-2.563v-6.771h2.563v-4.978h8.126
		v4.978h3.367v6.771h-3.367v5.564c0,0.488,0.115,0.842,0.348,1.062c0.231,0.22,0.616,0.33,1.153,0.33H317.319z"/>
	<path fill="#0055FE" d="M333.278,169.994v6.918h-3.074c-5.662,0-8.492-2.818-8.492-8.456v-5.417h-2.563v-6.771h2.563v-4.978h8.126
		v4.978h3.367v6.771h-3.367v5.564c0,0.488,0.115,0.842,0.348,1.062c0.231,0.22,0.616,0.33,1.153,0.33H333.278z"/>
	<path fill="#0055FE" d="M356.192,168.017h-12.994c0.073,1.025,0.305,1.727,0.695,2.104c0.39,0.379,0.902,0.567,1.537,0.567
		c0.879,0,1.513-0.403,1.903-1.208h8.603c-0.293,1.464-0.91,2.776-1.849,3.935c-0.939,1.159-2.123,2.074-3.551,2.745
		c-1.428,0.671-2.996,1.007-4.703,1.007c-2.05,0-3.875-0.427-5.473-1.281c-1.599-0.854-2.843-2.08-3.733-3.679
		c-0.892-1.598-1.336-3.471-1.336-5.619c0-2.147,0.444-4.02,1.336-5.619c0.891-1.598,2.135-2.824,3.733-3.679
		c1.598-0.854,3.423-1.281,5.473-1.281s3.873,0.421,5.472,1.263c1.598,0.842,2.843,2.044,3.733,3.605s1.336,3.404,1.336,5.527
		C356.375,166.919,356.314,167.456,356.192,168.017z M348.139,164.686c0-0.781-0.22-1.36-0.659-1.739
		c-0.439-0.378-0.988-0.567-1.646-0.567c-1.489,0-2.343,0.769-2.563,2.306H348.139z"/>
	<path fill="#0055FE" d="M370.1,157.201c1.195-0.72,2.44-1.08,3.733-1.08v8.675h-2.306c-1.537,0-2.666,0.269-3.386,0.805
		c-0.72,0.537-1.08,1.489-1.08,2.855v8.456h-8.126v-20.645h8.126v3.807C367.891,158.878,368.905,157.92,370.1,157.201z"/>
	<path fill="#0055FE" d="M390.873,158.042c1.671,1.354,2.728,3.142,3.166,5.362h-7.576c-0.318-1.171-1.147-1.757-2.489-1.757
		c-0.757,0-1.135,0.293-1.135,0.878c0,0.415,0.274,0.732,0.823,0.952s1.422,0.452,2.617,0.695c1.562,0.293,2.897,0.641,4.008,1.043
		c1.11,0.402,2.068,1.056,2.874,1.958c0.805,0.903,1.208,2.136,1.208,3.697c0,1.22-0.343,2.306-1.025,3.258
		c-0.684,0.952-1.684,1.696-3.001,2.233c-1.318,0.537-2.868,0.805-4.649,0.805c-2.978,0-5.344-0.634-7.101-1.903
		c-1.757-1.269-2.843-3.099-3.258-5.491h7.797c0.146,1.196,0.988,1.793,2.525,1.793c0.829,0,1.244-0.293,1.244-0.878
		c0-0.463-0.28-0.805-0.842-1.025s-1.464-0.439-2.708-0.659c-1.587-0.317-2.898-0.659-3.936-1.025
		c-1.037-0.366-1.946-0.988-2.727-1.867c-0.781-0.879-1.172-2.086-1.172-3.624c0-1.245,0.33-2.354,0.988-3.331
		c0.659-0.976,1.635-1.744,2.929-2.306c1.293-0.562,2.867-0.842,4.722-0.842C386.961,156.011,389.201,156.688,390.873,158.042z"/>
	<path fill="#0055FE" d="M411.938,150.612c1.61,1.331,2.416,3.301,2.416,5.912c0,1.44-0.33,2.703-0.988,3.789
		c-0.659,1.086-1.587,1.94-2.782,2.562c-1.195,0.623-2.563,0.946-4.1,0.97v2.599h-7.613v-7.76h3.074
		c1.465,0,2.574-0.165,3.331-0.494c0.756-0.33,1.135-0.873,1.135-1.629c0-0.415-0.116-0.744-0.348-0.988
		c-0.232-0.244-0.53-0.366-0.896-0.366c-0.464,0-0.812,0.153-1.043,0.458c-0.232,0.306-0.349,0.702-0.349,1.19h-7.649
		c-0.073-1.488,0.225-2.861,0.896-4.118c0.671-1.256,1.721-2.257,3.147-3.001c1.428-0.744,3.19-1.116,5.29-1.116
		C408.167,148.617,410.328,149.282,411.938,150.612z M406.74,169.152v7.76h-8.053v-7.76H406.74z"/>
</g>
</svg>
