<?xml version="1.0" encoding="utf-8"?>
<!-- Generator: Adobe Illustrator 16.0.0, SVG Export Plug-In . SVG Version: 6.00 Build 0)  -->
<!DOCTYPE svg PUBLIC "-//W3C//DTD SVG 1.1//EN" "http://www.w3.org/Graphics/SVG/1.1/DTD/svg11.dtd">
<svg version="1.1" id="Layer_1" xmlns="http://www.w3.org/2000/svg" xmlns:xlink="http://www.w3.org/1999/xlink" x="0px" y="0px"
	 width="600px" height="179.055px" viewBox="0 0 600 179.055" enable-background="new 0 0 600 179.055" xml:space="preserve">
<g enable-background="new    ">
	<path fill="#0055FE" d="M166.39,91.105v7.869h-20.038v-7.869H166.39z"/>
	<path fill="#0055FE" d="M223.837,85.472l-5.762,24.252h-10.75l-2.924-13.674l-3.096,13.674h-10.75l-5.719-24.252h9.46l2.021,14.749
		l3.139-14.749h10.191l3.311,14.921l2.064-14.921H223.837z"/>
	<path fill="#0055FE" d="M238.758,83.666c-0.717,0-1.262,0.136-1.634,0.408c-0.373,0.272-0.631,0.738-0.774,1.397h3.483v7.955
		h-3.569v16.297h-9.546V93.427h-2.58v-7.955h2.58c0.057-3.153,1.054-5.597,2.989-7.332c1.935-1.733,4.651-2.601,8.148-2.601
		c0.401,0,1.06,0.028,1.978,0.086v8.127C239.317,83.695,238.958,83.666,238.758,83.666z"/>
	<path fill="#0055FE" d="M277.716,99.49h-6.407v6.579h-9.159V99.49h-6.407v-8.729h6.407v-6.622h9.159v6.622h6.407V99.49z"/>
</g>
<g enable-background="new    ">
	<path fill="#0055FE" d="M477.416,91.105v7.869h-20.039v-7.869H477.416z"/>
	<path fill="#0055FE" d="M515.491,87.558c1.964,1.591,3.204,3.69,3.72,6.299h-8.901c-0.372-1.376-1.348-2.063-2.924-2.063
		c-0.889,0-1.333,0.344-1.333,1.031c0,0.488,0.322,0.86,0.968,1.118s1.669,0.531,3.074,0.817c1.835,0.344,3.403,0.752,4.708,1.226
		c1.305,0.473,2.43,1.24,3.376,2.3c0.946,1.062,1.419,2.509,1.419,4.344c0,1.434-0.402,2.709-1.204,3.827
		c-0.803,1.117-1.978,1.992-3.526,2.623c-1.547,0.631-3.368,0.945-5.461,0.945c-3.497,0-6.277-0.745-8.342-2.235
		c-2.063-1.49-3.34-3.641-3.826-6.45h9.158c0.172,1.404,1.161,2.106,2.967,2.106c0.975,0,1.463-0.344,1.463-1.031
		c0-0.545-0.33-0.946-0.989-1.204c-0.659-0.259-1.72-0.517-3.183-0.774c-1.863-0.372-3.404-0.773-4.622-1.204
		c-1.219-0.43-2.286-1.161-3.204-2.192c-0.917-1.032-1.375-2.451-1.375-4.258c0-1.462,0.387-2.766,1.16-3.913
		c0.774-1.146,1.921-2.049,3.44-2.709c1.519-0.658,3.368-0.988,5.547-0.988C510.897,85.171,513.528,85.966,515.491,87.558z"/>
	<path fill="#0055FE" d="M558.254,99.49h-6.406v6.579h-9.159V99.49h-6.407v-8.729h6.407v-6.622h9.159v6.622h6.406V99.49z"/>
	<path fill="#0055FE" d="M585.043,101.812h10.105v7.912h-20.555v-7.482l9.246-8.857h-9.117v-7.912h19.996v7.482L585.043,101.812z"/>
</g>
<g>
	<g>
		<path fill="#0A0A0A" d="M99.023,46.469c8.282,2.07,5.797,8.283,10.352,8.283c5.795,0,10.765-7.04,10.765-10.766
			c0-6.625-6.626-12.835-12.834-12.835c-4.141,0-11.178,4.97-11.178,12.007C96.127,44.399,96.952,45.643,99.023,46.469z"/>
		<path fill="#0A0A0A" d="M63.832,66.343c-5.797,0-11.178,6.625-11.178,12.421c0,5.381,2.486,9.108,6.625,9.108
			c4.553,0,11.591-11.595,11.591-12.008C70.869,69.656,67.144,66.343,63.832,66.343z"/>
		<path fill="#0A0A0A" d="M94.883,92.838c4.14,0,7.452-4.139,7.452-9.521c0-7.039-4.967-12.835-9.521-12.835
			c-3.313,0-6.625,2.9-8.28,8.283v0.414c2.484,3.313,2.484,3.726,4.141,7.864C90.331,90.768,91.986,92.838,94.883,92.838z"/>
	</g>
	<g>
		<path fill="#0A0A0A" d="M67.144,96.98c0,1.239,0.83,1.657,3.726,2.898c3.313,1.244,2.07,3.313,3.727,3.313
			c1.244,0,0.831-2.069,4.556-2.486c3.311-0.416,4.14-0.827,4.14-2.068c0-1.657-2.069-4.142-12.423-4.142
			C68.388,94.495,67.144,95.323,67.144,96.98z"/>
		<path fill="#0A0A0A" d="M116.413,70.069c0,21.53-10.353,31.465-26.083,31.465c-6.213,0-2.9,5.797-9.108,5.797
			c-2.487,0-4.141-2.898-7.04-2.898c-1.656,0-3.313,0.829-5.383,0.829c-6.208,0-4.968-7.042-7.039-7.868
			c-8.691-3.725-9.107-3.725-10.763-4.555c-6.624-4.552-9.523-10.763-9.523-19.871c0-9.107,3.726-21.116,9.523-26.499
			c1.656,1.244,2.897,1.656,3.726,1.656c2.071,0,2.898-3.312,8.281-4.967c6.208-2.071,6.208-2.071,6.208-5.382
			c0-8.694-4.966-13.249-10.347-13.249c-7.04,0-14.08,5.797-14.08,11.594c0,2.895,1.657,5.796,3.726,8.278
			c-12.419,7.452-19.456,19.045-19.456,33.535c0,4.97,0.825,6.627,0.825,9.938c0,4.14-1.657,6.623-1.657,10.347
			c0,2.07,0.832,5.799,2.07,8.284C18.704,97.809,12.082,86.63,12.082,73.382c0-12.835,6.21-23.187,16.976-30.64l0.825-0.413
			C14.978,48.539,5.044,63.86,5.044,82.904c0,9.935,2.896,16.147,2.896,19.044c0,1.244-0.414,3.725-0.414,7.452
			c0,6.21,4.97,17.39,9.109,22.771c3.313,4.142,8.28,6.624,14.492,6.624c4.552,0,7.865-1.655,7.865-4.14
			c0-1.654-2.482-5.795-2.482-15.318l8.277,15.733c7.867,14.904,13.664,19.458,26.913,19.458c5.382,0,9.108-1.656,9.108-4.554
			c0-2.069-4.555-7.866-4.555-23.185c0-7.039,1.657-10.763,5.383-10.763c2.899,0,4.139,2.479,4.139,7.862
			c0,8.281-2.069,16.975-2.069,19.461c0,3.313,2.484,5.382,7.04,5.382c8.278,0,15.73-4.968,19.873-12.42
			c5.796-11.18,10.348-32.71,10.348-43.474C120.553,83.73,118.483,74.623,116.413,70.069z M75.01,111.884
			c-3.727,0-7.037-2.071-7.452-4.968c4.968,1.242,9.107,1.658,13.665,1.658C79.979,110.644,77.909,111.884,75.01,111.884z"/>
	</g>
	<g>
		<path fill="#0A0A0A" d="M89.915,101.533c-4.553,0-4.141,3.313-6.21,4.97l28.567,24.427c4.967-11.594,7.867-29.396,7.867-38.918
			c0-8.695-2.07-17.805-4.556-21.943C116.413,91.599,106.061,101.533,89.915,101.533z"/>
		<path fill="#0A0A0A" d="M31.952,62.616l9.109,7.865c0.83-8.693,4.14-19.043,9.109-23.597c1.657,1.241,2.9,1.655,3.726,1.655
			c2.069,0,2.899-3.31,8.282-4.965c6.21-2.071,6.21-2.071,6.21-5.383c0-8.696-4.971-13.247-10.353-13.247
			c-7.037,0-14.073,5.795-14.073,11.591c0,2.898,1.656,5.795,3.726,8.279C41.061,48.956,35.265,55.165,31.952,62.616z"/>
		<path fill="#0A0A0A" d="M19.118,51.439c2.487-3.313,5.797-6.625,9.523-9.109l0.828-0.413c-4.555,2.069-8.696,4.552-12.422,8.278
			L19.118,51.439z"/>
	</g>
	<g>
		<path fill="#0A0A0A" d="M118.483,142.108c-2.07,0-4.141,1.656-4.141,3.728c0,2.069,1.656,4.139,4.141,4.139
			c2.07,0,4.139-1.658,4.139-4.139C122.622,144.177,120.965,142.108,118.483,142.108z M118.483,149.147
			c-1.657,0-3.313-1.242-3.313-3.312c0-1.658,1.657-3.313,3.313-3.313c1.656,0,3.312,1.242,3.312,3.313
			C121.795,147.905,120.553,149.147,118.483,149.147z"/>
		<path fill="#0A0A0A" d="M120.553,145.004c0-0.413,0-0.827-0.414-0.827c-0.415,0-0.831-0.413-1.243-0.413h-2.069v4.552h0.826
			v-2.069h0.831l1.241,2.069h0.829l-1.245-2.069C120.139,146.246,120.553,145.835,120.553,145.004z M118.483,145.835h-0.831v-1.244
			h1.243c0.413,0,1.243,0,1.243,0.827C120.139,145.835,119.308,145.835,118.483,145.835z"/>
	</g>
</g>
<g>
	<path fill="#C6C5CA" d="M417.155,39.704c-9.012-9.013-23.625-9.013-32.643,0l32.643,32.642
		C426.166,63.334,426.166,48.721,417.155,39.704z"/>
	<path fill="#ACABB1" d="M421.044,44.86c-1.03-1.846-2.319-3.586-3.89-5.156c-9.012-9.012-23.625-9.012-32.642,0l9.04,9.045
		C400.998,41.303,412.268,40.008,421.044,44.86z"/>
	<path fill="#787680" d="M411.963,44.895c2.523,2.52,6.586,2.56,9.157,0.123c-1.036-1.905-2.351-3.7-3.966-5.313
		c-1.617-1.612-3.41-2.931-5.31-3.967C409.408,38.315,409.444,42.371,411.963,44.895z"/>
	<g>
		<path fill="#57565C" d="M417.155,39.704c-1.617-1.612-3.41-2.931-5.31-3.967c-1.628,1.723-2.155,4.107-1.569,6.256
			c3.715,0.064,7.417,1.016,10.757,2.86C420.004,43.009,418.724,41.273,417.155,39.704z"/>
		<path fill="#57565C" d="M402.073,37.734c1.266-1.265,1.898-2.913,1.922-4.57c-4.33-0.596-8.792,0.035-12.832,1.898
			c0.305,0.978,0.844,1.897,1.617,2.671C395.346,40.301,399.506,40.301,402.073,37.734z"/>
	</g>
	<path fill="#787680" d="M423.694,52.868c-1.652,0.019-3.305,0.657-4.57,1.918c-2.566,2.565-2.566,6.727,0,9.292
		c0.773,0.774,1.699,1.312,2.672,1.617C423.658,61.658,424.291,57.194,423.694,52.868z"/>
	<path fill="#C2DFF6" d="M413.358,70.834l-27.33-27.329L309.85,85.08c-3.94,2.155-6.251,6.419-5.899,10.896l1.573,20.017
		c0.376,4.793,2.451,9.297,5.854,12.698l16.795,16.793c3.398,3.399,7.9,5.476,12.693,5.853l20.016,1.573
		c4.477,0.353,8.742-1.96,10.898-5.9L413.358,70.834z"/>
	<path fill="#D1E7F8" d="M311.377,128.691l16.795,16.793c1.816,1.819,3.953,3.254,6.281,4.258l78.904-78.907l-27.33-27.329
		l-78.91,78.905C308.122,124.735,309.557,126.869,311.377,128.691z"/>
	<path fill="#D8D7DA" d="M406.514,80.227L376.631,50.35c-3.059-3.059-3.059-8.068,0-11.127l0,0c3.059-3.059,8.074-3.059,11.133,0
		L417.635,69.1c3.059,3.059,3.059,8.065,0,11.127l0,0C414.576,83.285,409.573,83.285,406.514,80.227z"/>
	<path fill="#C6C5CA" d="M388.033,50.622L388.033,50.622c3.059-3.061,8.063-3.061,11.129,0l-11.398-11.399
		c-3.059-3.059-8.072-3.059-11.133,0l0,0c-3.059,3.059-3.059,8.068,0,11.127l11.402,11.397
		C384.975,58.688,384.975,53.684,388.033,50.622z"/>
	<path fill="#DDFFFB" d="M364.069,142.803l19.617-35.933c2.859-4.392,2.367-10.329-1.488-14.18
		c-0.891-0.891-1.895-1.594-2.965-2.125c-0.855-0.425-1.358-1.304-1.348-2.259c0.012-2.391-0.891-4.787-2.719-6.615
		c-1.816-1.816-4.195-2.719-6.572-2.713c-0.965,0-1.842-0.533-2.275-1.404c-0.504-1.037-1.184-2.012-2.074-2.838
		c-6.49-6.018-13.888-1.758-13.888-1.758l-36.3,19.81c-0.902,0.492-1.433,1.474-1.353,2.496l1.573,20.022
		c0.213,2.708,1.391,5.254,3.307,7.174l16.799,16.795c1.915,1.92,4.466,3.093,7.173,3.306l20.017,1.573
		C362.604,144.235,363.576,143.706,364.069,142.803z"/>
	<path fill="#FFFFFF" d="M385.35,98.836c-0.368-2.251-1.418-4.411-3.152-6.146c-0.891-0.891-1.894-1.594-2.965-2.125
		c-0.855-0.425-1.357-1.304-1.348-2.259c0.012-2.391-0.891-4.787-2.719-6.615c-1.816-1.816-4.195-2.719-6.571-2.713
		c-0.964,0-1.843-0.533-2.276-1.404c-0.504-1.037-1.184-2.012-2.074-2.838c-2.109-1.958-4.324-2.824-6.345-3.105l-43.625,43.623
		l0.003,0.053c0.213,2.708,1.391,5.254,3.307,7.174l16.799,16.795c1.915,1.92,4.466,3.093,7.173,3.306l0.049,0.007L385.35,98.836z"
		/>
	<g>
		<path fill="#DDFFFB" d="M347.181,105.184c1.062,0,1.922,0.859,1.922,1.925c0,1.063-0.86,1.923-1.922,1.923
			c-1.064,0-1.922-0.86-1.922-1.923C345.259,106.043,346.116,105.184,347.181,105.184z"/>
		<path fill="#DDFFFB" d="M357.587,107.843c1.067,0,1.923,0.859,1.923,1.923c0,1.059-0.855,1.922-1.923,1.922
			c-1.055,0-1.922-0.863-1.922-1.922C355.665,108.702,356.532,107.843,357.587,107.843z"/>
		<path fill="#DDFFFB" d="M358.795,95.156c1.055,0,1.922,0.863,1.922,1.922c0,1.063-0.867,1.922-1.922,1.922
			c-1.067,0-1.925-0.859-1.925-1.922C356.87,96.019,357.728,95.156,358.795,95.156z"/>
		<path fill="#DDFFFB" d="M368.885,97.077c1.055,0,1.922,0.863,1.922,1.922c0,1.065-0.867,1.925-1.922,1.925
			c-1.066,0-1.922-0.859-1.922-1.925C366.963,97.941,367.819,97.077,368.885,97.077z"/>
		<path fill="#DDFFFB" d="M365.287,87.253c1.055,0,1.922,0.86,1.922,1.927c0,1.061-0.867,1.921-1.922,1.921
			c-1.066,0-1.922-0.86-1.922-1.921C363.365,88.114,364.221,87.253,365.287,87.253z"/>
		<path fill="#DDFFFB" d="M347.889,116.224c1.062,0,1.928,0.859,1.928,1.923s-0.866,1.924-1.928,1.924
			c-1.06,0-1.925-0.86-1.925-1.924S346.829,116.224,347.889,116.224z"/>
		<path fill="#DDFFFB" d="M426.237,95.892c2.835,0,5.121,2.295,5.121,5.12c0,2.827-2.286,5.121-5.121,5.121
			c-2.824,0-5.12-2.294-5.12-5.121C421.116,98.187,423.412,95.892,426.237,95.892z"/>
	</g>
	<path fill="#AAFFF5" d="M426.239,101.011c0-1.895,1.03-3.546,2.564-4.43c-0.755-0.434-1.629-0.69-2.564-0.69
		c-2.826,0-5.117,2.295-5.117,5.12c0,2.828,2.291,5.122,5.117,5.122c0.936,0,1.812-0.255,2.564-0.691
		C427.269,104.555,426.239,102.904,426.239,101.011z"/>
	<g>
		<path fill="#DDFFFB" d="M415.584,116.225c2.824,0,5.121,2.294,5.121,5.119c0,2.828-2.297,5.121-5.121,5.121
			c-2.826,0-5.121-2.293-5.121-5.121C410.463,118.519,412.758,116.225,415.584,116.225z"/>
		<path fill="#DDFFFB" d="M426.237,134.444c2.835,0,5.121,2.29,5.121,5.116c0,2.831-2.286,5.12-5.121,5.12
			c-2.824,0-5.12-2.289-5.12-5.12C421.116,136.734,423.412,134.444,426.237,134.444z"/>
	</g>
	<g>
		<path fill="#AAFFF5" d="M415.584,121.344c0-1.895,1.031-3.545,2.555-4.43c-0.75-0.435-1.62-0.69-2.555-0.69
			c-2.826,0-5.121,2.294-5.121,5.12c0,2.827,2.295,5.121,5.121,5.121c0.935,0,1.805-0.255,2.555-0.691
			C416.615,124.887,415.584,123.239,415.584,121.344z"/>
		<path fill="#AAFFF5" d="M426.239,139.559c0-1.891,1.03-3.543,2.564-4.43c-0.755-0.435-1.629-0.69-2.564-0.69
			c-2.826,0-5.117,2.295-5.117,5.12c0,2.83,2.291,5.121,5.117,5.121c0.936,0,1.812-0.252,2.564-0.691
			C427.269,143.105,426.239,141.454,426.239,139.559z"/>
	</g>
</g>
</svg>
