<?xml version="1.0" encoding="utf-8"?>
<!-- Generator: Adobe Illustrator 16.0.0, SVG Export Plug-In . SVG Version: 6.00 Build 0)  -->
<!DOCTYPE svg PUBLIC "-//W3C//DTD SVG 1.1//EN" "http://www.w3.org/Graphics/SVG/1.1/DTD/svg11.dtd">
<svg version="1.1" id="Capa_1" xmlns="http://www.w3.org/2000/svg" xmlns:xlink="http://www.w3.org/1999/xlink" x="0px" y="0px"
	 width="1397.14px" height="875.445px" viewBox="-20 -33.555 1397.14 875.445" enable-background="new -20 -33.555 1397.14 875.445"
	 xml:space="preserve">
<g id="STAFF_2_">
	<g>
		<g>
			<g>
				<g>
					<path fill="#DEE2E6" d="M1348.723,662.031h-18.794c-0.887,4.707-1.859,9.436-2.931,14.192
						c-1.431,7.368-1.72,14.561-1.635,21.745h23.358c12.844,0,23.253-8.045,23.253-17.969S1361.566,662.031,1348.723,662.031z"/>
					<rect x="523.509" y="662.031" fill="#DEE2E6" width="819.58" height="35.938"/>
					<path fill="#DEE2E6" d="M529.14,676.224c1.07-4.757,2.044-9.485,2.931-14.192h-157.93c-12.843,0-23.254,8.045-23.254,17.969
						s10.411,17.969,23.254,17.969h153.364C527.421,690.784,527.71,683.592,529.14,676.224z"/>
					<path fill="#DEE2E6" d="M119.519,662.031H3.253C-9.59,662.031-20,670.076-20,680s10.41,17.969,23.253,17.969h116.267
						c12.843,0,23.253-8.045,23.253-17.969S132.362,662.031,119.519,662.031z"/>
				</g>
				<g>
					<path fill="#DEE2E6" d="M1349.885,532.031h-17.646c0.278,5.297,0.824,10.592,1.76,15.889
						c0.771,6.706,1.275,13.383,1.542,20.049h14.345c12.843,0,23.253-8.044,23.253-17.969
						C1373.139,540.076,1362.727,532.031,1349.885,532.031z"/>
					<rect x="523.509" y="532.031" fill="#DEE2E6" width="819.58" height="35.938"/>
					<path fill="#DEE2E6" d="M3.253,567.969h86.036c12.843,0,23.254-8.044,23.254-17.969c0-9.924-10.411-17.969-23.254-17.969H3.253
						C-9.59,532.031-20,540.076-20,550C-20,559.925-9.59,567.969,3.253,567.969z"/>
					<path fill="#DEE2E6" d="M534.381,532.031h-56.765c-12.843,0-23.253,8.045-23.253,17.969c0,9.925,10.41,17.969,23.253,17.969
						h60.065c-0.267-6.666-0.771-13.344-1.542-20.049C535.205,542.623,534.659,537.327,534.381,532.031z"/>
				</g>
				<g>
					<path fill="#DEE2E6" d="M1349.885,402.031h-16.057c0.396,11.979,0.68,23.958,0.607,35.938h15.448
						c12.843,0,23.253-8.045,23.253-17.969C1373.137,410.075,1362.727,402.031,1349.885,402.031z"/>
					<rect x="523.509" y="402.031" fill="#DEE2E6" width="819.58" height="35.937"/>
					<path fill="#DEE2E6" d="M3.253,437.969h44.182c12.843,0,23.253-8.045,23.253-17.969c0-9.925-10.41-17.969-23.253-17.969H3.253
						C-9.59,402.031-20,410.076-20,420S-9.59,437.969,3.253,437.969z"/>
					<path fill="#DEE2E6" d="M535.97,402.031h-30.449c-12.843,0-23.253,8.044-23.253,17.969c0,9.924,10.41,17.969,23.253,17.969
						h31.058C536.65,425.989,536.366,414.01,535.97,402.031z"/>
				</g>
				<g>
					<path fill="#DEE2E6" d="M1349.885,272.031h-16.244c-1.058,11.979-1.519,23.958-1.607,35.938h17.853
						c12.843,0,23.253-8.045,23.253-17.969S1362.727,272.031,1349.885,272.031z"/>
					<rect x="523.509" y="272.031" fill="#DEE2E6" width="819.58" height="35.938"/>
					<path fill="#DEE2E6" d="M3.253,307.969h95.338c12.844,0,23.254-8.045,23.254-17.969s-10.41-17.969-23.254-17.969H3.253
						C-9.59,272.031-20,280.076-20,289.999C-20,299.923-9.59,307.969,3.253,307.969z"/>
					<path fill="#DEE2E6" d="M385.767,272.031c-12.843,0-23.253,8.044-23.253,17.969s10.41,17.969,23.253,17.969h148.407
						c0.09-11.979,0.551-23.958,1.607-35.938H385.767L385.767,272.031z"/>
				</g>
				<g>
					<path fill="#DEE2E6" d="M1349.885,142.031h-19.688c1.429,2.806,2.526,5.65,2.801,8.608c1.758,9.056,2.813,18.179,3.374,27.329
						h13.513c12.843,0,23.253-8.044,23.253-17.968C1373.138,150.076,1362.727,142.031,1349.885,142.031z"/>
					<rect x="519.139" y="142.031" fill="#DEE2E6" width="828.188" height="35.937"/>
					<path fill="#DEE2E6" d="M532.34,142.031h-83.789c-12.844,0-23.253,8.044-23.253,17.968c0,9.923,10.409,17.969,23.253,17.969
						h89.964c-0.562-9.149-1.616-18.272-3.374-27.329C534.866,147.681,533.768,144.837,532.34,142.031z"/>
					<path fill="#DEE2E6" d="M3.253,177.968h203.465c12.844,0,23.254-8.044,23.254-17.969s-10.41-17.968-23.254-17.968H3.253
						C-9.59,142.031-20,150.075-20,160S-9.59,177.968,3.253,177.968z"/>
				</g>
			</g>
		</g>
	</g>
</g>
<path id="CLEF_2_" fill="#4DC0B5" d="M440.645,459.21c0-68.152-55.359-123.619-123.475-123.789V264.45
	c7.865-4.009,15.778-7.983,23.667-11.941c17.585-7.753,46.344-30.54,46.344-68.746c0-22.784-9.236-36.675-16.984-44.315
	c-10.709-10.563-25.26-16.144-42.081-16.144c-0.272,0-0.545,0.005-0.878,0.012c-27.247,0.464-56.573,20.307-56.573,62.772v50.13
	c-31.739,16.932-62.357,35.229-88.325,56.812c-47.748,39.69-70.959,83.773-70.959,134.761c0,92.321,69.726,168.662,159.284,179.12
	v41.915c0,12.604-11.064,23.253-24.164,23.253c-12.961,0-23.505-10.432-23.505-23.253c0-12.843-10.41-23.254-23.253-23.254
	s-23.254,10.411-23.254,23.254c0,38.465,31.407,69.759,70.012,69.759c38.967,0,70.671-31.294,70.671-69.759v-42.869
	C387.202,593.846,440.645,532.649,440.645,459.21z M270.664,462.209c-6.699-5.477-10.984-13.8-10.984-23.105
	c0-12.573,4.081-24.214,10.984-33.663V462.209z M270.664,346.289c-34.053,17.016-57.491,52.229-57.491,92.813
	c0,35.592,24.483,65.567,57.491,73.984v46.885c-63.83-10.129-112.776-65.546-112.776-132.181
	c0-61.271,50.313-102.81,112.776-138.491V346.289z M317.171,186.088c0-16.087,7.89-16.221,10.794-16.271l0.282-0.006
	c7.873,0.024,12.43,2.348,12.43,13.952c0,16.983-17.041,25.446-18.865,26.301c-0.541,0.218-0.677,0.298-1.25,0.586
	c-1.131,0.566-2.26,1.135-3.391,1.702V186.088z M317.171,558.427v-176.5c42.472,0.169,76.968,34.772,76.968,77.282
	C394.138,506.9,361.372,547.082,317.171,558.427z"/>
<g id="SHARPS" display="none">
	
		<path display="inline" stroke="#000000" stroke-width="7" stroke-linecap="round" stroke-linejoin="round" stroke-miterlimit="10" d="
		M701.3,118.476c0.506-0.069,0.883-0.502,0.883-1.008v-15.563c0-0.615-0.538-1.083-1.142-1.006l-35.005,4.54l4.546-34.999
		c0.078-0.609-0.395-1.148-1.009-1.148H654.01c-0.508,0-0.938,0.382-1.007,0.886l-4.882,37.587l-60.413,7.839l5.857-45.163
		c0.082-0.609-0.395-1.148-1.008-1.148h-15.564c-0.509,0-0.941,0.382-1.01,0.886l-6.197,47.753l-47.751,6.195
		c-0.505,0.068-0.884,0.497-0.884,1.008v15.562c0,0.616,0.541,1.089,1.147,1.01l45.165-5.859l-7.836,60.415l-37.592,4.881
		c-0.505,0.067-0.884,0.497-0.884,1.008v15.563c0,0.613,0.541,1.088,1.147,1.006l34.999-4.542l-4.542,35.002
		c-0.077,0.608,0.393,1.148,1.007,1.148h15.564c0.508,0,0.942-0.383,1.009-0.889l4.877-37.586l60.417-7.842l-5.858,45.169
		c-0.081,0.608,0.394,1.148,1.008,1.148h15.563c0.509,0,0.945-0.383,1.012-0.889l6.19-47.753l47.756-6.191
		c0.509-0.071,0.882-0.498,0.882-1.011v-15.564c0-0.608-0.537-1.088-1.141-1.009l-45.173,5.858l7.843-60.415L701.3,118.476z
		 M637.959,186.095l-60.422,7.845l7.843-60.42l60.418-7.842L637.959,186.095z"/>
	<path stroke="#000000" stroke-width="7" stroke-linecap="round" stroke-linejoin="round" stroke-miterlimit="10" d="
		M826.216,306.984c0.5-0.069,0.882-0.498,0.882-1.008v-15.563c0-0.615-0.544-1.083-1.146-1.006l-35,4.54l4.546-34.998
		c0.075-0.609-0.395-1.146-1.009-1.146h-15.563c-0.508,0-0.944,0.379-1.009,0.883l-4.881,37.587l-60.411,7.843l5.856-45.167
		c0.082-0.609-0.395-1.147-1.012-1.147h-15.563c-0.506,0-0.938,0.38-1.007,0.884l-6.197,47.754l-47.752,6.194
		c-0.503,0.068-0.883,0.497-0.883,1.008v15.562c0,0.617,0.541,1.089,1.148,1.012l45.164-5.862l-7.841,60.416l-37.589,4.885
		c-0.503,0.063-0.883,0.493-0.883,1.005v15.562c0,0.617,0.541,1.089,1.148,1.007l34.996-4.543l-4.543,35.003
		c-0.072,0.604,0.392,1.147,1.009,1.147h15.563c0.508,0,0.946-0.383,1.013-0.891l4.877-37.584l60.411-7.842l-5.856,45.17
		c-0.082,0.604,0.396,1.147,1.012,1.147h15.563c0.508,0,0.938-0.383,1.004-0.891l6.198-47.752l47.755-6.191
		c0.506-0.068,0.883-0.499,0.883-1.01v-15.563c0-0.612-0.545-1.087-1.146-1.008l-45.167,5.858l7.843-60.414L826.216,306.984z
		 M762.868,374.604l-60.415,7.844l7.844-60.42l60.417-7.839L762.868,374.604z"/>
	<path stroke="#000000" stroke-width="7" stroke-linecap="round" stroke-linejoin="round" stroke-miterlimit="10" d="
		M957.982,73.451c0.504-0.069,0.882-0.501,0.882-1.008V56.879c0-0.615-0.537-1.086-1.141-1.009l-35.005,4.543l4.546-35.001
		c0.078-0.606-0.395-1.146-1.01-1.146h-15.563c-0.508,0-0.938,0.382-1.008,0.884l-4.882,37.589l-60.411,7.84l5.857-45.166
		c0.081-0.606-0.396-1.146-1.013-1.146h-15.563c-0.506,0-0.938,0.382-1.006,0.883l-6.197,47.753L778.718,79.1
		c-0.504,0.07-0.884,0.495-0.884,1.009v15.562c0,0.613,0.542,1.089,1.148,1.01l45.164-5.86l-7.841,60.415l-37.588,4.881
		c-0.504,0.063-0.884,0.497-0.884,1.005v15.562c0,0.617,0.542,1.089,1.148,1.01l34.995-4.546l-4.535,35.002
		c-0.076,0.607,0.385,1.151,1.002,1.151h15.563c0.508,0,0.946-0.382,1.013-0.89l4.877-37.588l60.419-7.839l-5.864,45.166
		c-0.081,0.607,0.396,1.151,1.012,1.151h15.563c0.509,0,0.94-0.382,1.012-0.89l6.19-47.753l47.756-6.194
		c0.505-0.068,0.882-0.495,0.882-1.01v-15.563c0-0.611-0.537-1.087-1.141-1.008l-45.173,5.857l7.843-60.414L957.982,73.451z
		 M894.641,141.066l-60.422,7.848l7.844-60.42l60.418-7.843L894.641,141.066z"/>
	<path stroke="#000000" stroke-width="7" stroke-linecap="round" stroke-linejoin="round" stroke-miterlimit="10" d="
		M1084.421,248.55c0.508-0.071,0.887-0.502,0.887-1.011v-15.564c0-0.611-0.541-1.083-1.146-1.006l-35.004,4.54l4.545-34.998
		c0.078-0.608-0.394-1.145-1.009-1.145h-15.563c-0.509,0-0.938,0.382-1.002,0.882l-4.881,37.59l-60.419,7.84l5.857-45.167
		c0.082-0.608-0.396-1.145-1.009-1.145h-15.562c-0.512,0-0.943,0.382-1.011,0.882l-6.198,47.754l-47.752,6.194
		c-0.503,0.072-0.883,0.497-0.883,1.011v15.562c0,0.613,0.541,1.089,1.148,1.01l45.163-5.86l-7.84,60.415l-37.589,4.881
		c-0.503,0.063-0.883,0.497-0.883,1.005v15.562c0,0.617,0.541,1.089,1.148,1.007l34.996-4.543l-4.536,35.001
		c-0.077,0.608,0.393,1.153,1.002,1.153h15.563c0.515,0,0.944-0.382,1.011-0.893l4.877-37.585l60.42-7.839l-5.857,45.165
		c-0.082,0.608,0.391,1.153,1.004,1.153h15.563c0.51,0,0.947-0.382,1.012-0.893l6.194-47.752l47.753-6.192
		c0.512-0.068,0.886-0.499,0.886-1.01v-15.563c0-0.612-0.541-1.087-1.146-1.008l-45.172,5.857l7.842-60.414L1084.421,248.55z
		 M1021.082,316.166l-60.424,7.846l7.844-60.419l60.419-7.843L1021.082,316.166z"/>
	<path stroke="#000000" stroke-width="7" stroke-linecap="round" stroke-linejoin="round" stroke-miterlimit="10" d="
		M1212.673,442.409c0.506-0.068,0.888-0.499,0.888-1.011v-15.561c0-0.615-0.544-1.083-1.148-1.006l-35,4.539l4.541-34.998
		c0.078-0.609-0.394-1.149-1.007-1.149h-15.562c-0.512,0-0.941,0.382-1.005,0.886l-4.88,37.586l-60.42,7.84l5.857-45.163
		c0.082-0.609-0.394-1.149-1.005-1.149h-15.563c-0.514,0-0.946,0.382-1.015,0.886l-6.193,47.75l-47.755,6.198
		c-0.505,0.068-0.884,0.493-0.884,1.005v15.564c0,0.612,0.541,1.088,1.148,1.011l45.163-5.86L1071,520.197l-37.593,4.882
		c-0.505,0.063-0.884,0.493-0.884,1.001v15.563c0,0.616,0.541,1.092,1.148,1.011l35.003-4.547l-4.543,35.005
		c-0.077,0.608,0.393,1.15,1.004,1.15h15.566c0.51,0,0.939-0.38,1.006-0.894l4.877-37.586l60.42-7.841l-5.857,45.17
		c-0.082,0.608,0.391,1.15,1.004,1.15h15.563c0.512,0,0.946-0.38,1.011-0.894l6.197-47.753l47.75-6.188
		c0.512-0.068,0.889-0.502,0.889-1.014v-15.563c0-0.612-0.545-1.083-1.148-1.005l-45.166,5.857l7.838-60.417L1212.673,442.409z
		 M1149.332,510.028l-60.423,7.843l7.843-60.418l60.422-7.844L1149.332,510.028z"/>
	<path stroke="#000000" stroke-width="7" stroke-linecap="round" stroke-linejoin="round" stroke-miterlimit="10" d="
		M1324.268,184.815c0.501-0.068,0.883-0.501,0.883-1.008v-15.563c0-0.615-0.544-1.083-1.147-1.006l-34.999,4.54l4.54-34.999
		c0.076-0.609-0.388-1.148-1.003-1.148h-15.563c-0.511,0-0.945,0.382-1.009,0.886l-4.881,37.587l-60.417,7.839l5.855-45.163
		c0.085-0.609-0.388-1.148-1.005-1.148h-15.563c-0.507,0-0.94,0.382-1.014,0.886l-6.19,47.752l-47.752,6.196
		c-0.509,0.068-0.884,0.496-0.884,1.008v15.561c0,0.617,0.535,1.089,1.143,1.011l45.17-5.86l-7.84,60.415l-37.589,4.881
		c-0.509,0.067-0.884,0.497-0.884,1.007v15.563c0,0.613,0.535,1.089,1.143,1.007l35.002-4.543l-4.543,35.001
		c-0.077,0.608,0.393,1.149,1.01,1.149h15.563c0.508,0,0.939-0.383,1.009-0.89l4.876-37.588l60.416-7.84l-5.857,45.168
		c-0.082,0.608,0.397,1.149,1.012,1.149h15.561c0.511,0,0.941-0.383,1.007-0.89l6.198-47.753l47.755-6.191
		c0.506-0.071,0.882-0.498,0.882-1.013v-15.563c0-0.608-0.544-1.087-1.147-1.008l-45.166,5.857l7.843-60.414L1324.268,184.815z
		 M1260.922,252.435l-60.415,7.844l7.837-60.419l60.424-7.843L1260.922,252.435z"/>
</g>
<g id="FLATS">
	<g>
		<path stroke="#000000" stroke-width="4" stroke-linecap="round" stroke-linejoin="round" stroke-miterlimit="10" d="
			M625.902,360.968c-16.163-2.903-32.34,4.299-43.713,15.35l-0.05-129.941c0-1.228-0.815-2.224-1.815-2.224h-8.777
			c-1.008,0-1.823,1.007-1.817,2.24l-0.053,247.674c-0.136,0.41,0,1.096-0.005,1.533c-0.003,0.563-0.003,1.125-0.006,1.688
			c0,0.508-0.002,1.019,0,1.529c0.003,0.309,0.034,0.618,0.058,0.93c0.02,0.268-0.028,0.398,0.245,0.418
			c1.12,0.107,2.243-0.851,3.181-1.348c2.146-1.135,4.379-2.107,6.528-3.238c4.495-2.367,8.683-5.31,12.885-8.29
			c2.501-1.777,4.853-3.723,7.302-5.56c1.537-1.269,3.086-2.527,4.6-3.827c3.608-3.096,7.082-6.35,10.399-9.751
			c3.042-3.125,5.951-6.374,8.699-9.749c2.523-3.094,4.91-6.284,7.154-9.584c2.045-3.001,3.967-6.08,5.753-9.247
			c1.622-2.855,3.126-5.78,4.513-8.754c1.236-2.657,2.375-5.361,3.413-8.104c0.906-2.396,1.737-4.823,2.476-7.281
			c0.625-2.078,1.189-4.181,1.676-6.299c0.396-1.709,0.747-3.43,1.037-5.161c0.221-1.278,0.404-2.561,0.552-3.852
			c0.089-0.793,0.168-1.59,0.209-2.384c0.012-0.235,0.012-0.473,0.025-0.71C651.673,378.623,641.601,363.798,625.902,360.968z
			 M636.162,396.514c0,0.486-0.823,46.436-53.94,82.944l-0.025-80.865c7.181-13.895,25.502-26.427,41.185-23.611
			C633.117,376.732,636.827,386.814,636.162,396.514z"/>
	</g>
	<g>
		<path stroke="#000000" stroke-width="4" stroke-linecap="round" stroke-linejoin="round" stroke-miterlimit="10" d="
			M754.68,167.118c-16.164-2.903-32.342,4.299-43.714,15.35l-0.05-129.941c0-1.227-0.816-2.224-1.815-2.224h-8.776
			c-1.01,0-1.825,1.007-1.818,2.24l-0.054,247.675c-0.135,0.41,0,1.096-0.004,1.532c-0.004,0.563-0.004,1.125-0.006,1.688
			c0,0.506-0.003,1.018,0,1.528c0.002,0.31,0.034,0.619,0.057,0.93c0.021,0.268-0.027,0.397,0.245,0.417
			c1.119,0.107,2.244-0.85,3.181-1.348c2.146-1.134,4.38-2.106,6.528-3.238c4.495-2.366,8.684-5.308,12.886-8.29
			c2.503-1.777,4.854-3.722,7.303-5.559c1.536-1.269,3.085-2.528,4.599-3.829c3.609-3.094,7.082-6.348,10.399-9.75
			c3.042-3.125,5.951-6.374,8.699-9.749c2.522-3.093,4.909-6.284,7.155-9.583c2.045-3.001,3.967-6.081,5.752-9.248
			c1.622-2.855,3.126-5.779,4.515-8.754c1.234-2.658,2.376-5.36,3.411-8.103c0.908-2.398,1.737-4.825,2.476-7.282
			c0.625-2.079,1.189-4.182,1.676-6.299c0.397-1.711,0.747-3.43,1.039-5.161c0.22-1.278,0.402-2.562,0.55-3.852
			c0.089-0.794,0.168-1.59,0.21-2.383c0.011-0.236,0.011-0.473,0.026-0.711C780.449,184.774,770.378,169.948,754.68,167.118z
			 M764.938,202.665c0,0.487-0.821,46.435-53.939,82.944l-0.025-80.866c7.181-13.894,25.501-26.426,41.186-23.609
			C761.893,182.882,765.603,192.964,764.938,202.665z"/>
	</g>
	<g>
		<path stroke="#000000" stroke-width="4" stroke-linecap="round" stroke-linejoin="round" stroke-miterlimit="10" d="
			M864.537,424.657c-16.164-2.903-32.34,4.3-43.713,15.35l-0.051-129.941c0-1.228-0.814-2.224-1.813-2.224h-8.778
			c-1.009,0-1.822,1.007-1.816,2.241l-0.054,247.675c-0.136,0.41,0,1.096-0.004,1.532c-0.004,0.564-0.004,1.123-0.006,1.688
			c0,0.508-0.005,1.018,0,1.528c0.002,0.311,0.033,0.62,0.058,0.933c0.018,0.266-0.029,0.395,0.243,0.416
			c1.119,0.108,2.243-0.85,3.183-1.349c2.144-1.134,4.379-2.104,6.526-3.236c4.497-2.367,8.684-5.309,12.887-8.292
			c2.501-1.775,4.854-3.72,7.301-5.559c1.536-1.268,3.087-2.527,4.6-3.828c3.609-3.094,7.083-6.348,10.401-9.751
			c3.04-3.124,5.949-6.372,8.698-9.747c2.521-3.094,4.909-6.285,7.153-9.584c2.046-3.001,3.967-6.081,5.753-9.249
			c1.622-2.855,3.127-5.778,4.515-8.752c1.233-2.659,2.375-5.362,3.412-8.104c0.907-2.399,1.737-4.826,2.476-7.282
			c0.624-2.079,1.188-4.181,1.674-6.3c0.398-1.71,0.748-3.43,1.04-5.16c0.219-1.279,0.403-2.563,0.55-3.854
			c0.089-0.794,0.17-1.59,0.209-2.383c0.013-0.235,0.013-0.473,0.027-0.709C890.308,442.313,880.237,427.488,864.537,424.657z
			 M874.795,460.203c0,0.486-0.821,46.438-53.938,82.944l-0.026-80.866c7.18-13.893,25.503-26.427,41.185-23.609
			C871.753,440.421,875.461,450.504,874.795,460.203z"/>
	</g>
	<g>
		<path stroke="#000000" stroke-width="4" stroke-linecap="round" stroke-linejoin="round" stroke-miterlimit="10" d="
			M984.072,227.354c-16.162-2.903-32.34,4.299-43.712,15.351l-0.051-129.941c0-1.228-0.815-2.225-1.814-2.225h-8.776
			c-1.009,0-1.824,1.007-1.818,2.24l-0.054,247.675c-0.134,0.41,0,1.096-0.004,1.532c-0.004,0.563-0.004,1.125-0.006,1.688
			c0,0.507-0.003,1.018,0,1.528c0.002,0.31,0.035,0.619,0.058,0.931c0.018,0.268-0.028,0.397,0.245,0.417
			c1.119,0.108,2.241-0.85,3.181-1.348c2.146-1.134,4.379-2.105,6.528-3.237c4.495-2.367,8.682-5.309,12.885-8.291
			c2.503-1.777,4.854-3.722,7.303-5.559c1.536-1.269,3.085-2.528,4.6-3.829c3.607-3.094,7.081-6.348,10.399-9.75
			c3.042-3.125,5.951-6.373,8.698-9.748c2.523-3.094,4.909-6.285,7.155-9.584c2.045-3.001,3.967-6.08,5.753-9.248
			c1.622-2.855,3.125-5.779,4.513-8.754c1.235-2.657,2.375-5.36,3.412-8.103c0.906-2.398,1.738-4.825,2.477-7.282
			c0.625-2.079,1.188-4.182,1.675-6.299c0.396-1.711,0.748-3.43,1.039-5.161c0.22-1.278,0.402-2.562,0.551-3.852
			c0.089-0.794,0.168-1.59,0.209-2.383c0.011-0.236,0.011-0.473,0.025-0.711C1009.844,245.011,999.772,230.186,984.072,227.354z
			 M994.332,262.902c0,0.485-0.823,46.435-53.939,82.943l-0.024-80.866c7.18-13.895,25.501-26.426,41.184-23.609
			C991.288,243.119,994.998,253.202,994.332,262.902z"/>
	</g>
	<g display="none">
		
			<path display="inline" stroke="#000000" stroke-width="4" stroke-linecap="round" stroke-linejoin="round" stroke-miterlimit="10" d="
			M1088.034,487.978c-16.164-2.903-32.339,4.298-43.713,15.351l-0.051-129.942c0-1.228-0.816-2.225-1.813-2.225h-8.779
			c-1.009,0-1.824,1.008-1.817,2.241l-0.052,247.676c-0.137,0.408,0,1.095-0.004,1.531c-0.006,0.563-0.006,1.124-0.008,1.688
			c0,0.507-0.004,1.017,0,1.528c0.002,0.311,0.034,0.619,0.057,0.93c0.02,0.269-0.027,0.397,0.245,0.418
			c1.12,0.107,2.244-0.851,3.181-1.348c2.146-1.135,4.379-2.105,6.528-3.238c4.495-2.367,8.684-5.308,12.888-8.29
			c2.5-1.777,4.852-3.722,7.301-5.559c1.535-1.269,3.085-2.528,4.599-3.829c3.609-3.093,7.083-6.347,10.399-9.751
			c3.042-3.124,5.951-6.372,8.699-9.748c2.523-3.093,4.911-6.284,7.154-9.583c2.046-3.001,3.967-6.082,5.753-9.249
			c1.622-2.854,3.126-5.778,4.515-8.754c1.234-2.657,2.375-5.359,3.412-8.102c0.907-2.399,1.736-4.826,2.475-7.282
			c0.625-2.08,1.189-4.183,1.676-6.301c0.397-1.709,0.748-3.429,1.039-5.16c0.219-1.278,0.403-2.562,0.551-3.853
			c0.088-0.794,0.169-1.59,0.209-2.384c0.012-0.235,0.012-0.473,0.026-0.709C1113.803,505.634,1103.733,490.808,1088.034,487.978z
			 M1098.294,523.524c0,0.485-0.822,46.435-53.941,82.944l-0.024-80.867c7.181-13.894,25.502-26.426,41.185-23.608
			C1095.25,503.742,1098.958,513.824,1098.294,523.524z"/>
	</g>
</g>
</svg>
