<svg id="Capa_1" enable-background="new 0 0 510 510" height="512" viewBox="0 0 510 510" width="512" xmlns="http://www.w3.org/2000/svg"><g><path d="m0 180v330h510c0-11.491 0-329.309 0-330zm30 150h45v105h30v45h-75zm345 75v-75h30v75zm0 30v45h-105v-45h30v-105h45v105zm-105-30h-30v-75h30zm-30 30v45h-105v-45h30v-105h45v105zm-105-30h-30v-75h30zm345 75h-75v-45h30v-105h45zm-450-180v-90h450v90c-62.83 0-386.727 0-450 0z"/><path d="m60 240h30v30h-30z"/><path d="m120 240h30v30h-30z"/><path d="m180 240h30v30h-30z"/><path d="m315 240h135v30h-135z"/><path d="m60 120h75v30h-75z"/><path d="m165 120h75v30h-75z"/><path d="m270 120h75v30h-75z"/><path d="m375 120h75v30h-75z"/><path d="m165 60h75v30h-75z"/><path d="m270 60h75v30h-75z"/><path d="m375 60h75v30h-75z"/><path d="m270 0h75v30h-75z"/></g></svg>