<?xml version="1.0" encoding="UTF-8" standalone="no"?>
<!DOCTYPE svg PUBLIC "-//W3C//DTD SVG 1.1//EN" "http://www.w3.org/Graphics/SVG/1.1/DTD/svg11.dtd">
<svg width="100%" height="100%" viewBox="0 0 496 496" version="1.1" xmlns="http://www.w3.org/2000/svg" xmlns:xlink="http://www.w3.org/1999/xlink" xml:space="preserve" xmlns:serif="http://www.serif.com/" style="fill-rule:evenodd;clip-rule:evenodd;stroke-linejoin:round;stroke-miterlimit:2;">
    <g transform="matrix(1.07115,0,0,1.07115,-110.737,-19.6961)">
        <circle cx="334.91" cy="249.916" r="231.528" style="fill:url(#_Radial1);"/>
    </g>
    <g transform="matrix(0.69697,0,0,0.69697,-10.8485,27.0337)">
        <g transform="matrix(1,0,0,1.06287,0,-15.2289)">
            <path d="M272,437C272,445.291 278.709,452 287,452C295.291,452 302,445.291 302,437L302,268.321L288.317,242.23L272,276.893L272,437Z" style="fill:white;fill-rule:nonzero;"/>
        </g>
        <g transform="matrix(1,0,0,1.04385,0,-7.99825)">
            <path d="M482,377C482,385.291 488.709,392 497,392C505.291,392 512,385.291 512,377L512,208.32L497.747,182.393L482,216.893L482,377Z" style="fill:white;fill-rule:nonzero;"/>
        </g>
        <path d="M242,512C208.909,512 182,485.091 182,452C182,418.909 208.909,392 242,392C275.091,392 302,418.909 302,452C302,485.091 275.091,512 242,512Z" style="fill:white;fill-rule:nonzero;"/>
        <g transform="matrix(1,0,0,1,0,-2)">
            <path d="M452,452C418.909,452 392,425.091 392,392C392,358.909 418.909,332 452,332C485.091,332 512,358.909 512,392C512,425.091 485.091,452 452,452Z" style="fill:white;fill-rule:nonzero;"/>
        </g>
        <path d="M506,124.999C502.4,122.3 497.301,121.399 492.8,122.598L392,151.399L282.8,182.598C276.501,184.398 272,190.398 272,196.999L272,276.798L302,268.399L392,242.598L482,216.798L512,208.399L512,137C512,132.199 509.9,128 506,124.999Z" style="fill:white;fill-rule:nonzero;"/>
    </g>
    <defs>
        <radialGradient id="_Radial1" cx="0" cy="0" r="1" gradientUnits="userSpaceOnUse" gradientTransform="matrix(463.056,0,0,463.056,103.382,18.3879)"><stop offset="0" style="stop-color:rgb(255,113,199);stop-opacity:1"/><stop offset="1" style="stop-color:rgb(191,90,242);stop-opacity:1"/></radialGradient>
    </defs>
</svg>
