<?xml version="1.0" encoding="UTF-8" standalone="no"?>
<!DOCTYPE svg PUBLIC "-//W3C//DTD SVG 1.1//EN" "http://www.w3.org/Graphics/SVG/1.1/DTD/svg11.dtd">
<svg width="100%" height="100%" viewBox="0 0 496 496" version="1.1" xmlns="http://www.w3.org/2000/svg" xmlns:xlink="http://www.w3.org/1999/xlink" xml:space="preserve" xmlns:serif="http://www.serif.com/" style="fill-rule:evenodd;clip-rule:evenodd;stroke-linejoin:round;stroke-miterlimit:2;">
    <path d="M496,248C496,384.8 384.8,496 248,496C111.2,496 0,384.8 0,248C0,111.2 111.2,0 248,0C384.8,0 496,111.2 496,248Z" style="fill:rgb(255,55,95);fill-rule:nonzero;"/>
    <g transform="matrix(1.07115,0,0,1.07115,-110.737,-19.6961)">
        <circle cx="334.91" cy="249.916" r="231.528" style="fill:url(#_Radial1);"/>
    </g>
    <path d="M212.8,334.4C211.2,334.4 208.8,333.6 207.2,332.8C203.2,331.2 200,326.4 200,322.4L200,172.8C200,168.8 203.2,164 207.2,162.4C211.2,160.8 216,160.8 220,163.2L321.6,238.4C324.8,240.8 326.4,244 326.4,248C326.4,252 324.8,255.2 321.6,257.6L220,332.8C217.6,333.6 215.2,334.4 212.8,334.4Z" style="fill:white;fill-rule:nonzero;"/>
    <defs>
        <radialGradient id="_Radial1" cx="0" cy="0" r="1" gradientUnits="userSpaceOnUse" gradientTransform="matrix(463.056,0,0,463.056,103.382,18.3879)"><stop offset="0" style="stop-color:rgb(255,52,152);stop-opacity:1"/><stop offset="1" style="stop-color:rgb(255,55,110);stop-opacity:1"/></radialGradient>
    </defs>
</svg>
