<?xml version="1.0" encoding="UTF-8" standalone="no"?>
<!DOCTYPE svg PUBLIC "-//W3C//DTD SVG 1.1//EN" "http://www.w3.org/Graphics/SVG/1.1/DTD/svg11.dtd">
<svg width="100%" height="100%" viewBox="0 0 1000 1000" version="1.1" xmlns="http://www.w3.org/2000/svg" xmlns:xlink="http://www.w3.org/1999/xlink" xml:space="preserve" xmlns:serif="http://www.serif.com/" style="fill-rule:evenodd;clip-rule:evenodd;stroke-linejoin:round;stroke-miterlimit:2;">
    <g transform="matrix(1.37848,0,0,1.37848,-278.697,-209.969)">
        <circle cx="564.894" cy="515.036" r="362.718" style="fill:rgb(0,85,254);"/>
    </g>
    <g id="Speed" transform="matrix(1.30859,0,0,1.30859,165,165.654)">
        <path d="M365,107.016C409.391,117.316 426.371,143.273 447.66,179L365,179L365,107.016ZM105.578,182C114.27,182 120.578,186.195 120.578,196C120.578,204.27 113.887,210.977 105.621,211L15,211C6.715,211 0,217.719 0,226C0,234.285 6.715,241 15,241L150,241C158.363,241 165.059,247.711 165.059,256C165.059,264.285 158.344,271 150.059,271L15,271C6.715,271 0,277.715 0,286C0,294.285 6.715,301 15,301L48,301L48,346C48,354.285 54.715,361 63,361L93.152,361C98.527,387.477 121.922,407 149.5,407C177.078,407 200.473,387.477 205.848,361L358.152,361C363.527,387.477 386.922,407 414.5,407C442.078,407 465.473,387.477 470.848,361L497,361C505.285,361 512,354.285 512,346L512,256C512,211.988 465.578,209.066 465.535,209L350,209C341.715,209 335,202.285 335,194L335,104L63,104C54.715,104 48,110.715 48,119L48,152L30,152C21.715,152 15,158.715 15,167C15,175.285 21.715,182 30,182L105.578,182ZM433.945,330.055C444.684,340.793 444.684,358.211 433.945,368.949C416.672,386.223 387,373.934 387,349.5C387,325.07 416.672,312.781 433.945,330.055ZM168.945,330.055C179.684,340.793 179.684,358.211 168.945,368.949C151.672,386.223 122,373.934 122,349.5C122,325.07 151.672,312.781 168.945,330.055Z" style="fill:rgb(155,189,255);"/>
    </g>
</svg>
