<?xml version="1.0" encoding="utf-8"?>
<!-- Generator: Adobe Illustrator 16.0.0, SVG Export Plug-In . SVG Version: 6.00 Build 0)  -->
<!DOCTYPE svg PUBLIC "-//W3C//DTD SVG 1.1//EN" "http://www.w3.org/Graphics/SVG/1.1/DTD/svg11.dtd">
<svg version="1.1" id="US_UK_Download_on_the" xmlns="http://www.w3.org/2000/svg" xmlns:xlink="http://www.w3.org/1999/xlink"
	 x="0px" y="0px" width="135px" height="40px" viewBox="0 0 135 40" enable-background="new 0 0 135 40" xml:space="preserve">
<g>
	<path fill="#A6A6A6" d="M130.197,40H4.729C2.122,40,0,37.872,0,35.268V4.726C0,2.12,2.122,0,4.729,0h125.468
		C132.803,0,135,2.12,135,4.726v30.542C135,37.872,132.803,40,130.197,40L130.197,40z"/>
	<path d="M134.032,35.268c0,2.116-1.714,3.83-3.834,3.83H4.729c-2.119,0-3.839-1.714-3.839-3.83V4.725
		c0-2.115,1.72-3.835,3.839-3.835h125.468c2.121,0,3.834,1.72,3.834,3.835L134.032,35.268L134.032,35.268z"/>
</g>
<g>
	<path fill="#FFFFFF" d="M48.433,10.395c0,2.034-1.233,3.196-2.908,3.196c-1.71,0-2.791-1.306-2.791-3.088
		c0-1.864,1.17-3.178,2.881-3.178C47.388,7.324,48.433,8.666,48.433,10.395z M43.904,10.484c0,1.233,0.621,2.215,1.683,2.215
		c1.072,0,1.675-0.991,1.675-2.26c0-1.144-0.567-2.224-1.675-2.224C44.489,8.216,43.904,9.233,43.904,10.484z"/>
	<path fill="#FFFFFF" d="M49.34,10.565c0-0.576-0.018-1.044-0.036-1.458h0.972l0.054,0.675h0.018
		c0.324-0.495,0.837-0.774,1.503-0.774c1.008,0,1.846,0.864,1.846,2.233c0,1.584-1,2.35-1.999,2.35
		c-0.549,0-1.008-0.234-1.233-0.585h-0.018v2.269H49.34V10.565z M50.447,11.655c0,0.108,0.009,0.207,0.036,0.306
		c0.108,0.45,0.504,0.774,0.973,0.774c0.702,0,1.116-0.585,1.116-1.449c0-0.774-0.378-1.404-1.089-1.404
		c-0.459,0-0.882,0.333-0.99,0.819c-0.027,0.09-0.045,0.189-0.045,0.279V11.655z"/>
	<path fill="#FFFFFF" d="M55.388,11.61c0.027,0.792,0.648,1.134,1.351,1.134c0.513,0,0.882-0.072,1.215-0.198l0.162,0.765
		c-0.378,0.153-0.9,0.27-1.531,0.27c-1.422,0-2.26-0.873-2.26-2.214c0-1.215,0.738-2.359,2.143-2.359
		c1.423,0,1.891,1.17,1.891,2.134c0,0.207-0.018,0.369-0.036,0.468H55.388z M57.315,10.835c0.009-0.405-0.171-1.071-0.91-1.071
		c-0.684,0-0.972,0.621-1.017,1.071H57.315z"/>
	<path fill="#FFFFFF" d="M59.249,10.412c0-0.504-0.009-0.927-0.036-1.305h0.972l0.054,0.657h0.027
		c0.189-0.342,0.667-0.756,1.396-0.756c0.766,0,1.558,0.495,1.558,1.882v2.602h-1.107v-2.476c0-0.63-0.234-1.107-0.837-1.107
		c-0.441,0-0.747,0.315-0.864,0.648c-0.036,0.099-0.045,0.234-0.045,0.36v2.575h-1.116V10.412z"/>
	<path fill="#FFFFFF" d="M67.528,7.855v1.251h1.054v0.828h-1.054v1.936c0,0.531,0.145,0.811,0.567,0.811
		c0.189,0,0.333-0.027,0.433-0.054l0.018,0.846c-0.162,0.063-0.45,0.108-0.801,0.108c-0.405,0-0.748-0.135-0.955-0.36
		c-0.233-0.252-0.342-0.648-0.342-1.225V9.935h-0.63V9.107h0.63v-0.99L67.528,7.855z"/>
	<path fill="#FFFFFF" d="M69.418,7.099h1.117V9.71h0.018c0.135-0.207,0.315-0.378,0.549-0.504c0.217-0.126,0.478-0.198,0.757-0.198
		c0.747,0,1.53,0.495,1.53,1.899v2.584h-1.107v-2.458c0-0.639-0.234-1.117-0.847-1.117c-0.432,0-0.737,0.288-0.854,0.621
		c-0.036,0.09-0.045,0.208-0.045,0.333v2.62h-1.117V7.099z"/>
	<path fill="#FFFFFF" d="M75.349,11.61c0.027,0.792,0.648,1.134,1.351,1.134c0.514,0,0.883-0.072,1.216-0.198l0.162,0.765
		c-0.378,0.153-0.9,0.27-1.53,0.27c-1.423,0-2.26-0.873-2.26-2.214c0-1.215,0.738-2.359,2.143-2.359c1.422,0,1.891,1.17,1.891,2.134
		c0,0.207-0.019,0.369-0.036,0.468H75.349z M77.275,10.835c0.01-0.405-0.171-1.071-0.909-1.071c-0.684,0-0.972,0.621-1.018,1.071
		H77.275z"/>
</g>
<g>
	<path fill="#FFFFFF" d="M46.01,31.729l-3.3-13.482h2.62l1.28,6.121c0.34,1.64,0.66,3.36,0.88,4.701h0.04
		c0.22-1.421,0.6-3.021,0.98-4.722l1.46-6.101h2.581l1.34,6.201c0.34,1.6,0.62,3.101,0.82,4.561h0.04
		c0.24-1.48,0.56-3.021,0.92-4.661l1.4-6.101h2.5l-3.621,13.482h-2.641l-1.4-6.342c-0.34-1.54-0.58-2.82-0.74-4.28h-0.04
		c-0.24,1.44-0.5,2.74-0.9,4.28l-1.561,6.342H46.01z"/>
	<path fill="#FFFFFF" d="M62.85,27.548c0.06,1.76,1.44,2.521,3,2.521c1.141,0,1.961-0.16,2.701-0.44l0.359,1.7
		c-0.84,0.341-2,0.601-3.4,0.601c-3.161,0-5.021-1.94-5.021-4.921c0-2.701,1.64-5.241,4.761-5.241c3.16,0,4.201,2.601,4.201,4.741
		c0,0.46-0.041,0.819-0.08,1.04H62.85z M67.13,25.827c0.021-0.9-0.38-2.381-2.021-2.381c-1.52,0-2.16,1.381-2.26,2.381H67.13z"/>
	<path fill="#FFFFFF" d="M71.35,31.729c0.039-0.66,0.08-1.74,0.08-2.74V17.525h2.461v5.802h0.039c0.6-0.94,1.66-1.561,3.121-1.561
		c2.381,0,4.08,1.98,4.061,4.94c0,3.501-2.221,5.241-4.422,5.241c-1.26,0-2.379-0.479-3.08-1.68H73.57l-0.121,1.46H71.35z
		 M73.891,27.708c0,0.199,0.02,0.399,0.059,0.58c0.26,0.979,1.121,1.72,2.182,1.72c1.539,0,2.48-1.24,2.48-3.2
		c0-1.721-0.82-3.121-2.461-3.121c-1,0-1.9,0.721-2.182,1.801c-0.039,0.18-0.078,0.4-0.078,0.64V27.708z"/>
	<path fill="#FFFFFF" d="M85.93,27.907l-1.16,3.821h-2.541l4.32-13.482h3.141l4.381,13.482H91.43l-1.221-3.821H85.93z
		 M89.789,26.047l-1.059-3.32c-0.262-0.82-0.48-1.74-0.682-2.521H88.01c-0.201,0.78-0.4,1.721-0.641,2.521l-1.041,3.32H89.789z"/>
	<path fill="#FFFFFF" d="M95.85,25.228c0-1.28-0.041-2.321-0.08-3.241h2.16l0.119,1.5h0.041c0.721-1.1,1.859-1.72,3.34-1.72
		c2.24,0,4.102,1.92,4.102,4.961c0,3.521-2.221,5.221-4.441,5.221c-1.221,0-2.24-0.52-2.74-1.3h-0.039v5.041H95.85V25.228z
		 M98.311,27.647c0,0.24,0.02,0.46,0.078,0.681c0.24,1,1.121,1.72,2.162,1.72c1.561,0,2.48-1.3,2.48-3.221
		c0-1.72-0.84-3.12-2.422-3.12c-1.02,0-1.959,0.74-2.199,1.82c-0.061,0.2-0.1,0.42-0.1,0.62V27.647z"/>
	<path fill="#FFFFFF" d="M107.549,25.228c0-1.28-0.041-2.321-0.08-3.241h2.16l0.119,1.5h0.041c0.721-1.1,1.859-1.72,3.34-1.72
		c2.24,0,4.102,1.92,4.102,4.961c0,3.521-2.221,5.221-4.441,5.221c-1.221,0-2.24-0.52-2.74-1.3h-0.039v5.041h-2.461V25.228z
		 M110.01,27.647c0,0.24,0.02,0.46,0.078,0.681c0.24,1,1.121,1.72,2.162,1.72c1.561,0,2.48-1.3,2.48-3.221
		c0-1.72-0.84-3.12-2.422-3.12c-1.02,0-1.959,0.74-2.199,1.82c-0.061,0.2-0.1,0.42-0.1,0.62V27.647z"/>
</g>
<path fill="#FFFFFF" d="M27.233,14.451c-0.81-4.99-2.721-8.491-4.944-8.491c-2.223,0-4.134,3.501-4.944,8.491H27.233z
	 M16.926,19.813c0,1.24,0.067,2.431,0.185,3.575h10.352c0.118-1.145,0.186-2.335,0.186-3.575s-0.067-2.43-0.186-3.574H17.11
	C16.993,17.384,16.926,18.573,16.926,19.813z M35.066,14.451c-1.598-3.794-4.832-6.727-8.827-7.911
	c1.363,1.888,2.301,4.732,2.793,7.911H35.066z M18.334,6.54c-3.989,1.184-7.229,4.117-8.821,7.911h6.034
	C16.033,11.272,16.971,8.428,18.334,6.54z M35.664,16.239h-6.408c0.117,1.173,0.185,2.373,0.185,3.574s-0.067,2.402-0.185,3.575
	h6.403c0.306-1.145,0.48-2.335,0.48-3.575S35.965,17.384,35.664,16.239z M15.139,19.813c0-1.201,0.067-2.401,0.185-3.574H8.915
	c-0.302,1.145-0.48,2.334-0.48,3.574s0.178,2.431,0.48,3.575h6.403C15.206,22.216,15.139,21.015,15.139,19.813z M17.345,25.177
	c0.81,4.989,2.721,8.492,4.944,8.492c2.224,0,4.134-3.503,4.944-8.492H17.345z M26.245,33.087c3.989-1.184,7.229-4.117,8.828-7.91
	h-6.034C28.546,28.356,27.607,31.199,26.245,33.087z M9.513,25.177c1.598,3.793,4.832,6.727,8.827,7.91
	c-1.363-1.888-2.302-4.73-2.793-7.91H9.513z"/>
</svg>
