<?xml version="1.0" encoding="utf-8"?>
<!-- Generator: Adobe Illustrator 16.0.0, SVG Export Plug-In . SVG Version: 6.00 Build 0)  -->
<!DOCTYPE svg PUBLIC "-//W3C//DTD SVG 1.1//EN" "http://www.w3.org/Graphics/SVG/1.1/DTD/svg11.dtd">
<svg version="1.1" id="Layer_1" xmlns="http://www.w3.org/2000/svg" xmlns:xlink="http://www.w3.org/1999/xlink" x="0px" y="0px"
	 width="480px" height="480px" viewBox="0 0 480 480" enable-background="new 0 0 480 480" xml:space="preserve">
<path fill="#B3DAD6" d="M98.762,284c0.438-0.289,0.934-0.496,1.398-0.801C99.696,283.52,99.199,283.727,98.762,284z"/>
<path fill="#B3DAD6" d="M231.055,281.777c0.594-0.242,1.234-0.387,1.848-0.586C232.289,281.391,231.649,281.527,231.055,281.777z"/>
<path fill="#B3DAD6" d="M235.809,280.426c0.688-0.121,1.406-0.152,2.121-0.219C237.215,280.273,236.504,280.305,235.809,280.426z"/>
<path fill="#B3DAD6" d="M373.809,280.801c0.473,0.121,0.918,0.289,1.383,0.43C374.735,281.063,374.281,280.91,373.809,280.801z"/>
<path fill="#B3DAD6" d="M354.762,284c0.438-0.289,0.934-0.496,1.398-0.801C355.696,283.52,355.199,283.727,354.762,284z"/>
<path fill="#B3DAD6" d="M103.055,281.777c0.594-0.242,1.234-0.387,1.848-0.586C104.289,281.391,103.649,281.527,103.055,281.777z"/>
<path fill="#B3DAD6" d="M369.762,280.063c-0.281,0-0.547,0-0.801,0c0.801,0,1.52,0.129,2.27,0.227
	C370.719,280.258,370.266,280.098,369.762,280.063z"/>
<path fill="#B3DAD6" d="M363.809,280.426c0.688-0.121,1.406-0.152,2.121-0.219C365.215,280.273,364.504,280.305,363.809,280.426z"/>
<path fill="#B3DAD6" d="M359.055,281.777c0.594-0.242,1.234-0.387,1.848-0.586C360.289,281.391,359.649,281.527,359.055,281.777z"/>
<path fill="#B3DAD6" d="M245.809,280.801c0.473,0.121,0.918,0.289,1.383,0.43C246.735,281.063,246.281,280.91,245.809,280.801z"/>
<path fill="#B3DAD6" d="M107.809,280.426c0.688-0.121,1.406-0.152,2.121-0.219C109.215,280.273,108.504,280.305,107.809,280.426z"/>
<path fill="#B3DAD6" d="M226.762,284c0.438-0.289,0.934-0.496,1.398-0.801C227.696,283.52,227.199,283.727,226.762,284z"/>
<path fill="#B3DAD6" d="M113.762,280.063c-0.281,0-0.547,0-0.801,0c0.801,0,1.52,0.129,2.27,0.227
	C114.719,280.258,114.266,280.098,113.762,280.063z"/>
<path fill="#B3DAD6" d="M117.809,280.801c0.473,0.121,0.918,0.289,1.383,0.43C118.735,281.063,118.281,280.91,117.809,280.801z"/>
<path fill="#B3DAD6" d="M241.762,280.063c-0.281,0-0.547,0-0.801,0c0.801,0,1.52,0.129,2.27,0.227
	C242.719,280.258,242.266,280.098,241.762,280.063z"/>
<path fill="#B3DAD6" d="M403.68,364.32C396.199,356.793,392,346.613,392,336v-30.648c0.098-10.797-6.641-20.477-16.801-24.137
	c-0.465-0.145-0.91-0.313-1.383-0.43c-0.855-0.199-1.723-0.355-2.594-0.465c-0.75-0.098-1.504-0.191-2.27-0.223
	c-1.008-0.027-2.016,0.008-3.016,0.109c-0.715,0.066-1.434,0.098-2.121,0.219c-0.984,0.207-1.953,0.473-2.906,0.797
	c-0.613,0.203-1.254,0.344-1.848,0.586c-0.996,0.426-1.965,0.918-2.895,1.48c-0.465,0.262-0.961,0.473-1.398,0.801
	c-1.34,0.879-2.586,1.895-3.723,3.023C346.555,291.586,344.02,297.66,344,304v16c0,22.09-17.91,40-40,40s-40-17.91-40-40v-14.648
	c0.098-10.797-6.641-20.477-16.801-24.137c-0.465-0.145-0.91-0.313-1.383-0.43c-0.855-0.199-1.723-0.355-2.594-0.465
	c-0.75-0.098-1.504-0.191-2.27-0.223c-1.008-0.027-2.016,0.008-3.016,0.109c-0.715,0.066-1.434,0.098-2.121,0.219
	c-0.984,0.207-1.953,0.473-2.906,0.797c-0.613,0.203-1.254,0.344-1.848,0.586c-0.996,0.426-1.965,0.918-2.895,1.48
	c-0.465,0.262-0.961,0.473-1.398,0.801c-1.34,0.879-2.586,1.895-3.723,3.023C218.555,291.586,216.02,297.66,216,304v48
	c0,22.09-17.91,40-40,40s-40-17.91-40-40v-46.648c0.098-10.797-6.641-20.477-16.801-24.137c-0.465-0.145-0.91-0.313-1.383-0.43
	c-0.855-0.199-1.723-0.355-2.594-0.465c-0.75-0.098-1.504-0.191-2.27-0.223c-1.008-0.027-2.016,0.008-3.016,0.109
	c-0.715,0.066-1.434,0.098-2.121,0.219c-0.984,0.207-1.953,0.473-2.906,0.797c-0.613,0.203-1.254,0.344-1.848,0.586
	c-0.996,0.426-1.965,0.918-2.895,1.48c-0.465,0.262-0.961,0.473-1.398,0.801c-1.34,0.879-2.586,1.895-3.723,3.023
	C90.555,291.586,88.02,297.66,88,304v32c0.031,10.617-4.172,20.813-11.68,28.32S58.617,376.031,48,376
	c-5.5-0.004-10.941-1.121-16-3.281V472h416v-99.281c-5.059,2.16-10.5,3.277-16,3.281C421.387,376,411.207,371.801,403.68,364.32z"/>
<path fill="#48A59D" d="M440,232H40c-17.672,0-32,14.328-32,32v72c0,10.613,4.199,20.793,11.68,28.32
	C27.176,371.848,37.379,376.055,48,376c10.617,0.031,20.813-4.172,28.32-11.68S88.031,346.617,88,336v-32
	c0-6.363,2.531-12.469,7.039-16.961c1.137-1.129,2.383-2.141,3.723-3.023c0.438-0.289,0.934-0.496,1.398-0.801
	c0.93-0.559,1.898-1.055,2.895-1.48c0.594-0.246,1.234-0.383,1.848-0.582c0.953-0.324,1.922-0.594,2.906-0.801
	c0.695-0.121,1.406-0.152,2.121-0.215c0.711-0.066,1.359-0.137,2.07-0.137c0.32,0,0.625,0.078,0.945,0.098
	c0.32,0.016,0.535-0.059,0.797,0c0.504,0,0.961,0.191,1.457,0.254c0.871,0.109,1.738,0.266,2.594,0.465
	c0.473,0.129,0.926,0.281,1.383,0.43C129.16,284.332,135.977,293.551,136,304v48c0,22.09,17.91,40,40,40s40-17.91,40-40v-48
	c0-6.363,2.531-12.469,7.039-16.961c1.137-1.129,2.383-2.141,3.723-3.023c0.438-0.289,0.934-0.496,1.398-0.801
	c0.93-0.559,1.898-1.055,2.895-1.48c0.594-0.246,1.234-0.383,1.848-0.582c0.953-0.324,1.922-0.594,2.906-0.801
	c0.695-0.121,1.406-0.152,2.121-0.215c0.711-0.066,1.359-0.137,2.07-0.137c0.32,0,0.625,0.078,0.945,0.098
	c0.32,0.016,0.535-0.059,0.797,0c0.504,0,0.961,0.191,1.457,0.254c0.871,0.109,1.738,0.266,2.594,0.465
	c0.473,0.129,0.926,0.281,1.383,0.43C257.16,284.332,263.977,293.551,264,304v16c0,22.09,17.91,40,40,40s40-17.91,40-40v-16
	c0-6.363,2.531-12.469,7.039-16.961c1.137-1.129,2.383-2.141,3.723-3.023c0.438-0.289,0.934-0.496,1.398-0.801
	c0.93-0.559,1.898-1.055,2.895-1.48c0.594-0.246,1.234-0.383,1.848-0.582c0.953-0.324,1.922-0.594,2.906-0.801
	c0.695-0.121,1.406-0.152,2.121-0.215c0.711-0.066,1.359-0.137,2.07-0.137c0.32,0,0.625,0.078,0.945,0.098
	c0.32,0.016,0.535-0.059,0.797,0c0.504,0,0.961,0.191,1.457,0.254c0.871,0.109,1.738,0.266,2.594,0.465
	c0.473,0.129,0.926,0.281,1.383,0.43C385.16,284.332,391.977,293.551,392,304v32c-0.031,10.617,4.172,20.813,11.68,28.32
	S421.383,376.031,432,376c5.5-0.004,10.941-1.121,16-3.281c14.555-6.418,23.965-20.809,24-36.719v-72
	C472,246.328,457.672,232,440,232z"/>
<path fill="#389D94" d="M76.321,364.32C83.801,356.793,88,346.613,88,336v16c0.031,10.617-4.172,20.813-11.68,28.32
	S58.617,392.031,48,392c-10.621,0.055-20.824-4.152-28.32-11.68C12.199,372.793,8,362.613,8,352v-16
	c0,10.613,4.199,20.793,11.68,28.32C27.176,371.848,37.379,376.055,48,376C58.614,376,68.793,371.801,76.321,364.32z"/>
<path fill="#389D94" d="M204.321,380.32c7.48-7.527,11.68-17.707,11.68-28.32v16c0,22.09-17.91,40-40,40s-40-17.91-40-40v-16
	c0.02,16.18,9.77,30.758,24.711,36.953C175.656,395.145,192.864,391.742,204.321,380.32z"/>
<path fill="#389D94" d="M332.321,348.32c7.48-7.527,11.68-17.707,11.68-28.32v16c0,22.09-17.91,40-40,40s-40-17.91-40-40v-16
	c0.02,16.18,9.77,30.758,24.711,36.953C303.656,363.145,320.864,359.742,332.321,348.32z"/>
<path fill="#389D94" d="M472,336v16c-0.035,15.91-9.445,30.301-24,36.719c-5.059,2.16-10.5,3.277-16,3.281
	c-10.617,0.031-20.813-4.172-28.32-11.68S391.969,362.617,392,352v-16c-0.031,10.617,4.172,20.813,11.68,28.32
	S421.383,376.031,432,376c5.5-0.004,10.941-1.121,16-3.281C462.555,366.301,471.965,351.91,472,336z"/>
<path fill="#A9D5D1" d="M472,480H8c-4.418,0-8-3.582-8-8s3.582-8,8-8h464c4.418,0,8,3.582,8,8S476.418,480,472,480z"/>
<g>
	<path fill="#B3DAD6" d="M351.039,287.039c1.137-1.129,2.383-2.141,3.723-3.023C353.422,284.898,352.176,285.91,351.039,287.039z"/>
	<path fill="#B3DAD6" d="M136,305.352V304c-0.008-10.453-6.816-19.688-16.801-22.785C129.36,284.875,136.098,294.555,136,305.352z"
		/>
	<path fill="#B3DAD6" d="M243.199,280.32c0.871,0.109,1.738,0.266,2.594,0.465C244.938,280.586,244.071,280.43,243.199,280.32z"/>
	<path fill="#B3DAD6" d="M264,305.352V304c-0.008-10.453-6.816-19.688-16.801-22.785C257.36,284.875,264.098,294.555,264,305.352z"
		/>
	<path fill="#B3DAD6" d="M392,305.352V304c-0.008-10.453-6.816-19.688-16.801-22.785C385.36,284.875,392.098,294.555,392,305.352z"
		/>
	<path fill="#B3DAD6" d="M232.903,281.191c0.953-0.324,1.922-0.59,2.906-0.801C234.824,280.602,233.856,280.867,232.903,281.191z"/>
	<path fill="#B3DAD6" d="M112,280c-0.711,0-1.375,0.152-2.07,0.207c1-0.102,2.008-0.137,3.016-0.109
		C112.625,280.078,112.321,280,112,280z"/>
	<path fill="#B3DAD6" d="M115.199,280.32c0.871,0.109,1.738,0.266,2.594,0.465C116.938,280.586,116.071,280.43,115.199,280.32z"/>
	<path fill="#B3DAD6" d="M368,280c-0.711,0-1.375,0.152-2.07,0.207c1-0.102,2.008-0.137,3.016-0.109
		C368.625,280.078,368.321,280,368,280z"/>
	<path fill="#B3DAD6" d="M100.16,283.258c0.93-0.563,1.898-1.055,2.895-1.48C102.059,282.203,101.09,282.695,100.16,283.258z"/>
	<path fill="#B3DAD6" d="M356.16,283.258c0.93-0.563,1.898-1.055,2.895-1.48C358.059,282.203,357.09,282.695,356.16,283.258z"/>
	<path fill="#B3DAD6" d="M360.903,281.191c0.953-0.324,1.922-0.59,2.906-0.801C362.824,280.602,361.856,280.867,360.903,281.191z"/>
	<path fill="#B3DAD6" d="M95.039,287.039c1.137-1.129,2.383-2.141,3.723-3.023C97.422,284.898,96.176,285.91,95.039,287.039z"/>
	<path fill="#B3DAD6" d="M104.903,281.191c0.953-0.324,1.922-0.59,2.906-0.801C106.824,280.602,105.856,280.867,104.903,281.191z"/>
	<path fill="#B3DAD6" d="M240,280c-0.711,0-1.375,0.152-2.07,0.207c1-0.102,2.008-0.137,3.016-0.109
		C240.625,280.078,240.321,280,240,280z"/>
	<path fill="#B3DAD6" d="M223.039,287.039c1.137-1.129,2.383-2.141,3.723-3.023C225.422,284.898,224.176,285.91,223.039,287.039z"/>
	<path fill="#B3DAD6" d="M371.199,280.32c0.871,0.109,1.738,0.266,2.594,0.465C372.938,280.586,372.071,280.43,371.199,280.32z"/>
	<path fill="#B3DAD6" d="M228.16,283.258c0.93-0.563,1.898-1.055,2.895-1.48C230.059,282.203,229.09,282.695,228.16,283.258z"/>
</g>
<path fill="#8EC7C2" d="M216,128h48v104h-48V128z"/>
<path fill="#6CB6B0" d="M208,64c0,17.672,14.328,32,32,32s32-14.328,32-32S240,0,240,0S208,46.328,208,64z"/>
<path fill="#8EC7C2" d="M352,144h48v88h-48V144z"/>
<path fill="#6CB6B0" d="M344,80c0,17.672,14.328,32,32,32s32-14.328,32-32s-32-64-32-64S344,62.328,344,80z"/>
<path fill="#8EC7C2" d="M80,144h48v88H80V144z"/>
<path fill="#6CB6B0" d="M136,80c-0.012,16.098-11.957,29.688-27.922,31.762H108c-1.328,0.16-2.664,0.242-4,0.238
	c-17.672,0-32-14.328-32-32c0-17.68,32-64,32-64s1.602,2.32,4,6C116.641,35.121,136,66.238,136,80z"/>
<path fill="#58ADA5" d="M108,111.762c-1.328,0.16-2.664,0.242-4,0.238c-17.672,0-32-14.328-32-32c0-17.68,32-64,32-64
	s1.602,2.32,4,6C99.36,35.121,80,66.238,80,80C80.02,96.121,92.008,109.719,108,111.762z"/>
<path fill="#58ADA5" d="M244,95.762c-1.328,0.16-2.664,0.242-4,0.238c-17.672,0-32-14.328-32-32c0-17.68,32-64,32-64s1.602,2.32,4,6
	c-8.641,13.121-28,44.238-28,58C216.02,80.121,228.008,93.719,244,95.762z"/>
<path fill="#58ADA5" d="M380,111.762c-1.328,0.16-2.664,0.242-4,0.238c-17.672,0-32-14.328-32-32c0-17.68,32-64,32-64
	s1.602,2.32,4,6c-8.641,13.121-28,44.238-28,58C352.02,96.121,364.008,109.719,380,111.762z"/>
<path fill="#78BCB6" d="M80,144h48v16H80V144z"/>
<path fill="#78BCB6" d="M216,128h48v16h-48V128z"/>
<path fill="#78BCB6" d="M352,144h48v16h-48V144z"/>
</svg>
