<?xml version="1.0" encoding="utf-8"?>
<!-- Generator: Adobe Illustrator 16.0.0, SVG Export Plug-In . SVG Version: 6.00 Build 0)  -->
<!DOCTYPE svg PUBLIC "-//W3C//DTD SVG 1.1//EN" "http://www.w3.org/Graphics/SVG/1.1/DTD/svg11.dtd">
<svg version="1.1" id="Layer_1" xmlns="http://www.w3.org/2000/svg" xmlns:xlink="http://www.w3.org/1999/xlink" x="0px" y="0px"
	 width="420px" height="400px" viewBox="0 -35 420 400" enable-background="new 0 -35 420 400" xml:space="preserve">
<g>
	<g>
		<g>
			<path fill="#0055FE" d="M113.921,197.619c0-18.199-15.033-33.575-32.826-33.575H66.812c-17.822,0-32.877,15.375-32.877,33.588
				l0.103,92.113c0,18.172,14.72,32.955,32.813,32.955h14.387c18.121,0,32.863-14.783,32.863-32.98L113.921,197.619z
				 M81.238,296.896H66.851c-3.799,0-7.006-3.273-7.006-7.162l-0.104-92.115c0-4.064,3.369-7.768,7.07-7.768v0.002h14.283
				c3.674,0,7.021,3.701,7.021,7.793l0.18,92.104C88.295,293.623,85.064,296.896,81.238,296.896z"/>
		</g>
	</g>
	<g>
		<g>
			<path fill="#0055FE" d="M47.032,278.793h-4.078c-3.886,0-7.045-3.143-7.045-7.029l-0.103-56.984c0-3.762,3.189-6.824,7.108-6.824
				h4.117c7.125,0,12.903-5.773,12.903-12.902c0-7.127-5.777-12.902-12.903-12.902h-4.117
				c-18.149,0.002-32.916,14.641-32.916,32.656l0.104,56.982c0,18.094,14.736,32.813,32.852,32.813h4.076
				c7.127,0,12.904-5.775,12.902-12.902C59.935,284.57,54.158,278.793,47.032,278.793z"/>
		</g>
	</g>
	<g>
		<g>
			<path fill="#0055FE" d="M353.07,164.06h-14.529c-18.043,0-32.723,14.735-32.723,32.85v92.891
				c0,18.145,14.68,32.902,32.723,32.902h14.529c18.086,0,32.799-14.76,32.801-32.902V196.91
				C385.871,178.795,371.156,164.06,353.07,164.06z M360.064,289.799c0,3.914-3.139,7.098-6.992,7.098h-14.531
				c-3.877,0-6.914-3.115-6.914-7.098v-92.891c0-3.949,3.037-7.045,6.914-7.045l0,0v0.002h14.531c3.854,0,6.992,3.16,6.992,7.045
				V289.799z"/>
		</g>
	</g>
	<g>
		<g>
			<path fill="#0055FE" d="M377.188,182.148h-4.221c-7.125,0-12.9,5.775-12.9,12.902c0,7.125,5.775,12.902,12.9,12.902h4.221
				c3.863,0,7.008,3.063,7.008,6.803l-0.105,57.133c0,3.871-3.031,6.902-6.902,6.902h-4.221c-7.125,0-12.9,5.777-12.9,12.904
				c0,7.125,5.775,12.9,12.9,12.9h4.221c18.035,0,32.711-14.674,32.711-32.686l0.104-57.133
				C410,196.787,395.279,182.148,377.188,182.148z"/>
		</g>
	</g>
	<g>
		<g>
			<path fill="#0055FE" d="M317.354,51.783C288.729,23.095,250.604,7.296,210,7.296c-40.584,0-78.698,15.798-107.327,44.486
				C74.064,80.45,58.31,118.596,58.31,159.195v17.768c0,7.127,5.776,12.902,12.902,12.902c7.125,0,12.903-5.775,12.903-12.902
				v-17.768c0-69.527,56.471-126.09,125.884-126.09c69.42,0,125.897,56.564,125.897,126.09v17.768c0,7.127,5.775,12.902,12.9,12.902
				c7.127,0,12.904-5.775,12.904-12.902v-17.768C361.703,118.59,345.953,80.444,317.354,51.783z"/>
		</g>
	</g>
</g>
</svg>
