<?xml version="1.0" encoding="utf-8"?>
<!-- Generator: Adobe Illustrator 16.0.0, SVG Export Plug-In . SVG Version: 6.00 Build 0)  -->
<!DOCTYPE svg PUBLIC "-//W3C//DTD SVG 1.1//EN" "http://www.w3.org/Graphics/SVG/1.1/DTD/svg11.dtd">
<svg version="1.1" id="Capa_1" xmlns="http://www.w3.org/2000/svg" xmlns:xlink="http://www.w3.org/1999/xlink" x="0px" y="0px"
	 width="512px" height="512px" viewBox="0 0 512 512" enable-background="new 0 0 512 512" xml:space="preserve">
<g>
	<path fill="#99EEFF" d="M256,378.637l23.811,40.549L256,459.723H66.538C44.184,459.723,26,441.537,26,419.187
		c0-22.354,18.184-40.55,40.538-40.55H256z"/>
	<path fill="#80BFFF" d="M486,419.187c0,22.351-18.186,40.536-40.54,40.536H256v-81.086h189.46
		C467.814,378.637,486,396.832,486,419.187z"/>
	<path fill="#99EEFF" d="M256,215.466l20.664,40.537L256,296.54H66.538C44.184,296.54,26,278.355,26,256.002
		s18.184-40.537,40.538-40.537H256z"/>
	<path fill="#80BFFF" d="M486,256.002c0,22.353-18.186,40.538-40.54,40.538H256v-81.074h189.46
		C467.814,215.466,486,233.649,486,256.002z"/>
	<path fill="#99EEFF" d="M256,52.282l20.664,40.539L256,133.366H66.538C44.184,133.366,26,115.172,26,92.819
		c0-22.354,18.184-40.538,40.538-40.538H256z"/>
	<path fill="#80BFFF" d="M486,92.819c0,22.353-18.186,40.546-40.54,40.546H256V52.282h189.46C467.814,52.282,486,70.465,486,92.819z
		"/>
	<circle fill="#FF6699" cx="153.89" cy="256.002" r="66.817"/>
	<ellipse fill="#FF6699" cx="351.833" cy="92.847" rx="66.806" ry="66.806"/>
	<path fill="#FF6699" d="M256,352.369l13.477,65.844L256,486c-36.846,0-66.817-29.968-66.817-66.813S219.154,352.369,256,352.369z"
		/>
	<path fill="#FF6699" d="M322.817,419.187C322.817,456.032,292.846,486,256,486V352.369
		C292.846,352.369,322.817,382.341,322.817,419.187z"/>
</g>
</svg>
