<svg xmlns="http://www.w3.org/2000/svg" height="32" width="32"><path fill="#C6D5E6" d="M27.329 5.333l2.004 3.214c-2.207 1.41-3.849 2.918-4.923 4.525-1.075 1.607-1.613 3.623-1.613 6.047.175-.056.407-.084.698-.084 1.22 0 2.294.366 3.224 1.1.93.732 1.394 1.775 1.394 3.129 0 1.466-.435 2.622-1.307 3.467-.871.846-1.975 1.269-3.311 1.269-1.685 0-3.022-.663-4.01-1.988-.987-1.325-1.48-3.228-1.48-5.709 0-3.383.798-6.3 2.396-8.753 1.598-2.453 3.907-4.525 6.928-6.217zm-15.338 0l2.005 3.214c-2.208 1.41-3.85 2.918-4.924 4.525C7.997 14.68 7.46 16.695 7.46 19.12c.174-.056.406-.084.697-.084 1.22 0 2.295.366 3.224 1.1.93.732 1.395 1.775 1.395 3.129 0 1.466-.436 2.622-1.308 3.467C10.597 27.577 9.493 28 8.157 28c-1.685 0-3.021-.663-4.009-1.988-.988-1.325-1.481-3.228-1.481-5.709 0-3.383.798-6.3 2.396-8.753 1.598-2.453 3.907-4.525 6.928-6.217z"/></svg>