<?xml version="1.0" encoding="utf-8"?>
<!-- Generator: Adobe Illustrator 16.0.0, SVG Export Plug-In . SVG Version: 6.00 Build 0)  -->
<!DOCTYPE svg PUBLIC "-//W3C//DTD SVG 1.1//EN" "http://www.w3.org/Graphics/SVG/1.1/DTD/svg11.dtd">
<svg version="1.1" id="Capa_1" xmlns="http://www.w3.org/2000/svg" xmlns:xlink="http://www.w3.org/1999/xlink" x="0px" y="0px"
	 width="800px" height="800px" viewBox="0 0 800 800" enable-background="new 0 0 800 800" xml:space="preserve">
<g>
	<path fill="#212529" d="M470.751,400.009l314.59-314.59c19.546-19.529,19.546-51.214,0-70.743
		c-19.545-19.545-51.197-19.545-70.742,0l-314.59,314.59L85.401,14.676c-19.545-19.545-51.197-19.545-70.743,0
		c-19.545,19.528-19.545,51.214,0,70.743l314.606,314.59L14.659,714.599c-19.545,19.528-19.545,51.214,0,70.742
		c9.773,9.756,22.581,14.644,35.372,14.644c12.791,0,25.599-4.888,35.371-14.659l314.607-314.59l314.59,314.59
		c9.772,9.771,22.58,14.659,35.371,14.659s25.6-4.888,35.371-14.659c19.546-19.528,19.546-51.214,0-70.742L470.751,400.009z"/>
</g>
</svg>
