<?xml version="1.0" encoding="utf-8"?>
<!-- Generator: Adobe Illustrator 16.0.0, SVG Export Plug-In . SVG Version: 6.00 Build 0)  -->
<!DOCTYPE svg PUBLIC "-//W3C//DTD SVG 1.1//EN" "http://www.w3.org/Graphics/SVG/1.1/DTD/svg11.dtd">
<svg version="1.1" id="Layer_1" xmlns="http://www.w3.org/2000/svg" xmlns:xlink="http://www.w3.org/1999/xlink" x="0px" y="0px"
	 width="512px" height="512px" viewBox="0 0 512 512" enable-background="new 0 0 512 512" xml:space="preserve">
<g>
	<path fill="#DBEDFF" d="M428.403,152.544c-15.193-13.268-32.429-24.613-51.234-33.608l-12.256,8.88l29.36,117.183l11.54,3.063
		C448.426,236.81,462.293,182.139,428.403,152.544z"/>
	<path fill="#DBEDFF" d="M388.539,359.48c-7.34-8.357-16.714-15.457-28.166-20.6c-22.604-10.148-36.508-23.614-36.508-38.525
		c0-16.035,16.047-30.352,41.623-40.696l11.68-11.597L334.602,107.9l-21.455-15.796l-15.011,4.748
		C163.752,83.038,47.532,178.669,47.532,300.355c0,143.904,159.152,242.89,306.257,191.092
		c29.852-10.512,47.683-34.498,53.021-60.854l8.669-7.46L404.49,363.04L388.539,359.48z"/>
	<path fill="#B5DCFF" d="M110.029,300.355c0-108.755,92.836-196.688,208.5-204.289l-5.383-3.964l-15.011,4.748
		C163.752,83.038,47.532,178.669,47.532,300.355c0,127.697,125.324,220.008,256.343,202.989
		C198.162,489.628,110.029,407.439,110.029,300.355L110.029,300.355z"/>
	<circle fill="#F87C68" cx="164.219" cy="206.598" r="33.643"/>
	<circle fill="#FFE666" cx="255.303" cy="164.304" r="32.638"/>
	<circle fill="#5291D9" cx="180.827" cy="403.618" r="32.638"/>
	<circle fill="#95D6A4" cx="275.88" cy="434.119" r="32.638"/>
	<circle fill="#FF94D5" cx="126.893" cy="308.456" r="39.379"/>
	<path fill="#EC625E" d="M164.065,206.598c0-12.482,6.803-23.369,16.899-29.176c-4.932-2.837-10.646-4.468-16.745-4.468
		c-18.581,0-33.643,15.063-33.643,33.643c0,18.58,15.063,33.643,33.643,33.643c6.098,0,11.812-1.631,16.745-4.468
		C170.868,229.967,164.065,219.08,164.065,206.598z"/>
	<path fill="#FABE2C" d="M256.154,164.304c0-11.903,6.374-22.315,15.893-28.016c-4.896-2.933-10.622-4.622-16.744-4.622
		c-18.026,0-32.638,14.613-32.638,32.638c0,18.025,14.612,32.638,32.638,32.638c6.122,0,11.85-1.689,16.744-4.622
		C262.529,186.618,256.154,176.207,256.154,164.304z"/>
	<path fill="#2E82D4" d="M181.678,403.618c0-11.903,6.374-22.315,15.894-28.017c-4.896-2.933-10.622-4.621-16.745-4.621
		c-18.025,0-32.638,14.612-32.638,32.638s14.613,32.638,32.638,32.638c6.122,0,11.849-1.688,16.745-4.622
		C188.052,425.932,181.678,415.521,181.678,403.618z"/>
	<path fill="#78C2A4" d="M276.73,434.119c0-11.903,6.375-22.315,15.895-28.017c-4.896-2.933-10.622-4.621-16.744-4.621
		c-18.025,0-32.638,14.612-32.638,32.638c0,18.024,14.612,32.638,32.638,32.638c6.122,0,11.85-1.688,16.744-4.622
		C283.105,456.433,276.73,446.021,276.73,434.119z"/>
	<path fill="#FF72C7" d="M121.003,308.456c0-15.759,9.261-29.351,22.634-35.644c-5.082-2.393-10.756-3.735-16.744-3.735
		c-21.748,0-39.379,17.63-39.379,39.379s17.63,39.379,39.379,39.379c5.989,0,11.662-1.343,16.744-3.735
		C130.264,337.806,121.003,324.215,121.003,308.456z"/>
	<path fill="#E39B74" d="M380.771,53.284c-7.588-27.904-33.393-27.557-57.004-51.056c-4.106-4.086-10.668-2.302-12.141,3.301
		c-8.463,32.219-30.893,44.987-23.305,72.89c6.105,22.457,26.113,32.453,37.299,36.383l6.326,5.158l32.966-7.726l2.116-8.69
		C374.686,94.491,386.877,75.741,380.771,53.284z"/>
	<path fill="#DD8858" d="M355.932,111.026c-11.187-3.931-31.193-13.927-37.3-36.383c-6.567-24.153,9.351-36.975,19.238-60.878
		c-4.683-3.184-9.435-6.89-14.103-11.535c-4.106-4.086-10.668-2.302-12.141,3.301c-8.463,32.219-30.893,44.987-23.305,72.89
		c6.105,22.457,26.113,32.453,37.299,36.383l6.326,5.158l27.141-6.361L355.932,111.026z"/>
	<path fill="#477B9E" d="M374.997,110.948c-1.494-5.494-7.159-8.738-12.653-7.244l-32.601,8.864
		c-5.494,1.494-8.738,7.159-7.244,12.654l16.606,61.081l5.978,4.354l44.642-10.645l1.881-7.983L374.997,110.948z"/>
	<path fill="#3F6D8E" d="M367.137,180.611l-17.717-65.164c-0.82-3.015-0.295-6.073,1.198-8.554l-20.875,5.676
		c-5.494,1.494-8.738,7.159-7.244,12.654l16.606,61.081l5.978,4.354l27.005-6.44L367.137,180.611z"/>
	<path fill="#FFE666" d="M464.32,485.727c-0.357-34.656-5.747-69.077-16.003-102.184l-56.236-179.254l-7.337-5.133l-27.875,6.31
		l-1.842,8.897l42.271,183.051c7.919,33.742,20.699,66.154,37.94,96.22l7.119,12.415c2.68,4.674,8.178,6.949,13.377,5.535
		c5.198-1.414,8.787-6.159,8.732-11.547L464.32,485.727z"/>
	<path fill="#FABE2C" d="M459.473,483.332c-17.24-30.066-30.021-62.479-37.939-96.22l-42.27-183.051l0.795-3.845l-23.189,5.249
		l-1.842,8.897l42.271,183.051c7.919,33.742,20.699,66.154,37.94,96.22l7.119,12.415c2.68,4.674,8.178,6.949,13.377,5.535
		c5.198-1.414,8.787-6.159,8.732-11.547l-0.084-8.142L459.473,483.332z"/>
	<path fill="#5895B7" d="M390.063,172.297l-49.492,13.456c-4.672,1.27-7.428,6.085-6.157,10.756l3.64,13.389
		c1.27,4.67,6.086,7.427,10.756,6.157l49.493-13.456c4.67-1.27,7.427-6.085,6.157-10.755l-3.64-13.389
		C399.549,173.783,394.732,171.027,390.063,172.297z"/>
	<path fill="#477B9E" d="M369.13,201.652l-3.887-14.296c-0.896-3.29,0.091-6.641,2.292-8.935l-26.965,7.331
		c-4.672,1.27-7.428,6.085-6.157,10.756l3.64,13.389c1.271,4.67,6.086,7.427,10.756,6.157l27.973-7.604
		C373.221,207.917,370.135,205.348,369.13,201.652z"/>
</g>
</svg>
