<?xml version="1.0" encoding="utf-8"?>
<!-- Generator: Adobe Illustrator 16.0.0, SVG Export Plug-In . SVG Version: 6.00 Build 0)  -->
<!DOCTYPE svg PUBLIC "-//W3C//DTD SVG 1.1//EN" "http://www.w3.org/Graphics/SVG/1.1/DTD/svg11.dtd">
<svg version="1.1" id="Layer_1" xmlns="http://www.w3.org/2000/svg" xmlns:xlink="http://www.w3.org/1999/xlink" x="0px" y="0px"
	 width="420px" height="400px" viewBox="259.5 0 420 400" enable-background="new 259.5 0 420 400" xml:space="preserve">
<g>
	<g>
		<path fill="#0055FE" d="M511.028,259.23c-30.829,0-55.909,25.081-55.909,55.908c0,30.813,25.08,55.883,55.909,55.883
			c30.828,0,55.907-25.069,55.908-55.883C566.938,284.311,541.856,259.23,511.028,259.23z M511.028,345.422
			c-16.713,0-30.31-13.584-30.31-30.283c0-16.713,13.597-30.309,30.31-30.309c16.712,0,30.309,13.596,30.309,30.309
			C541.338,331.837,527.74,345.422,511.028,345.422z"/>
	</g>
</g>
<g>
	<g>
		<path fill="#0055FE" d="M554.507,28.978c-7.069,0-12.8,5.731-12.8,12.8v272.208c0,7.069,5.73,12.8,12.8,12.8s12.8-5.73,12.8-12.8
			V41.778C567.307,34.709,561.576,28.978,554.507,28.978z"/>
	</g>
</g>
<g>
	<g>
		<path fill="#0055FE" d="M636.871,63.865c-21.416-22.497-49.648-34.887-79.495-34.887c-7.069,0-12.8,5.731-12.8,12.8
			c0,7.068,5.73,12.8,12.8,12.8c46.9,0,86.524,41.288,86.524,90.16v55.371c0,7.069,5.73,12.8,12.8,12.8
			c7.067,0,12.8-5.73,12.8-12.801v-55.371C669.5,115.125,657.607,85.647,636.871,63.865z"/>
	</g>
</g>
<g>
	<g>
		<path fill="#0055FE" d="M557.376,94.423c-7.069,0-12.8,5.731-12.8,12.8c0,7.068,5.73,12.8,12.8,12.8
			c47.709,0,86.524,38.802,86.524,86.499c0,7.069,5.73,12.8,12.8,12.8c7.067,0,12.8-5.73,12.8-12.8
			C669.5,144.71,619.201,94.423,557.376,94.423z"/>
	</g>
</g>
<g>
	<g>
		<path fill="#0055FE" d="M505.012,165.089H282.3c-7.068,0-12.8,5.73-12.8,12.8c0,7.069,5.731,12.8,12.8,12.8h222.712
			c7.069,0,12.8-5.731,12.8-12.8S512.081,165.089,505.012,165.089z"/>
	</g>
</g>
<g>
	<g>
		<path fill="#0055FE" d="M505.012,103.228H282.3c-7.068,0-12.8,5.731-12.8,12.8c0,7.068,5.731,12.8,12.8,12.8h222.712
			c7.069,0,12.8-5.731,12.8-12.8C517.812,108.959,512.081,103.228,505.012,103.228z"/>
	</g>
</g>
<g>
	<g>
		<path fill="#0055FE" d="M505.012,41.356H282.3c-7.068,0-12.8,5.731-12.8,12.8s5.731,12.8,12.8,12.8h222.712
			c7.069,0,12.8-5.731,12.8-12.8S512.081,41.356,505.012,41.356z"/>
	</g>
</g>
</svg>
