<?xml version="1.0" encoding="utf-8"?>
<!-- Generator: Adobe Illustrator 16.0.0, SVG Export Plug-In . SVG Version: 6.00 Build 0)  -->
<!DOCTYPE svg PUBLIC "-//W3C//DTD SVG 1.1//EN" "http://www.w3.org/Graphics/SVG/1.1/DTD/svg11.dtd">
<svg version="1.1" id="Layer_1" xmlns="http://www.w3.org/2000/svg" xmlns:xlink="http://www.w3.org/1999/xlink" x="0px" y="0px"
	 width="41px" height="41px" viewBox="0 0 41 41" enable-background="new 0 0 41 41" xml:space="preserve">
<g>
	<path fill="#FFFFFF" d="M20.5,0.5c-11.046,0-20,8.954-20,20s8.954,20,20,20s20-8.954,20-20S31.546,0.5,20.5,0.5z M24.366,16.829
		l-1.268,0.421v4.808l1.268-0.388v3.347l-1.268,0.422v5.296h-0.942v-5.002l-3.183,1.037v4.811h-0.943v-4.485l-1.397,0.457v-3.381
		l1.397-0.454v-4.841l-1.397,0.455v-3.347l1.397-0.456v-5.295h0.943v4.971l3.183-1.04V9.42h0.942v4.452l1.268-0.423V16.829z"/>
	<polygon fill="#FFFFFF" points="18.974,23.424 22.156,22.386 22.156,17.543 18.974,18.583 	"/>
</g>
<g display="none">
	<path display="inline" fill="#FFFFFF" d="M21.361,21.877c-0.108-0.129-0.254-0.236-0.438-0.325
		c-0.185-0.085-0.385-0.129-0.601-0.129c-0.216,0-0.434,0.063-0.649,0.195c-0.218,0.13-0.412,0.357-0.585,0.682
		c-0.216,0.41-0.331,0.928-0.341,1.543c-0.011,0.617-0.017,1.176-0.017,1.674v2.795c0.26-0.195,0.482-0.375,0.667-0.536
		c0.183-0.164,0.378-0.341,0.585-0.536c0.205-0.195,0.394-0.369,0.568-0.521c0.304-0.281,0.563-0.584,0.78-0.909
		c0.217-0.324,0.378-0.737,0.486-1.235c0.133-0.498,0.164-0.984,0.098-1.461C21.85,22.635,21.664,22.225,21.361,21.877z"/>
	<path display="inline" fill="#FFFFFF" d="M20.5,0.5c-11.046,0-20,8.954-20,20s8.954,20,20,20s20-8.954,20-20S31.546,0.5,20.5,0.5z
		 M24.61,23.713c-0.086,0.338-0.193,0.646-0.325,0.927c-0.151,0.369-0.388,0.694-0.713,0.975c-0.325,0.281-0.618,0.553-0.877,0.812
		c-0.088,0.088-0.271,0.239-0.555,0.457c-0.281,0.214-0.6,0.454-0.958,0.713c-0.358,0.262-0.731,0.526-1.121,0.798
		c-0.39,0.271-0.748,0.521-1.072,0.747c-0.325,0.228-0.693,0.502-1.104,0.827V10.765h0.844v2.567v5.751v2.079
		c0.304-0.281,0.585-0.508,0.845-0.682c0.26-0.173,0.509-0.309,0.747-0.405c0.238-0.098,0.492-0.168,0.764-0.211
		c0.271-0.044,0.579-0.066,0.925-0.066c0.413,0,0.779,0.087,1.104,0.26c0.327,0.173,0.608,0.401,0.845,0.681
		c0.239,0.284,0.423,0.597,0.555,0.943c0.13,0.348,0.193,0.685,0.193,1.009C24.729,23.038,24.698,23.379,24.61,23.713z"/>
</g>
</svg>
