<?xml version="1.0" encoding="utf-8"?>
<!-- Generator: Adobe Illustrator 16.0.0, SVG Export Plug-In . SVG Version: 6.00 Build 0)  -->
<!DOCTYPE svg PUBLIC "-//W3C//DTD SVG 1.1//EN" "http://www.w3.org/Graphics/SVG/1.1/DTD/svg11.dtd">
<svg version="1.1" id="Capa_1" xmlns="http://www.w3.org/2000/svg" xmlns:xlink="http://www.w3.org/1999/xlink" x="0px" y="0px"
	 width="512px" height="512px" viewBox="0 0 512 512" enable-background="new 0 0 512 512" xml:space="preserve">
<g>
	<path fill="#99EEFF" d="M193.58,364.884l180.288-180.288c29.479,11.55,64.271,5.431,88.088-18.385
		c23.811-23.81,29.93-58.605,18.387-88.089l-41.591,41.592l-36.649-9.815l-9.818-36.65l41.593-41.592
		c-29.481-11.542-64.278-5.425-88.089,18.386c-23.817,23.817-29.931,58.612-18.384,88.089L147.116,318.42
		c-31.714-13.367-69.738-7.136-95.573,18.701c-34.058,34.059-34.058,89.278,0,123.338c34.057,34.057,89.276,34.057,123.335,0
		C200.713,434.622,206.947,396.597,193.58,364.884L193.58,364.884z M89.977,422.021c-12.833-12.831-12.826-33.637,0-46.461
		c12.833-12.837,33.632-12.836,46.466,0c12.832,12.829,12.832,33.63,0,46.461C123.616,434.85,102.811,434.856,89.977,422.021z"/>
	<path fill="#80BFFF" d="M174.879,460.459c-34.059,34.057-89.279,34.057-123.335,0l38.434-38.438
		c12.834,12.837,33.64,12.83,46.467,0c12.832-12.831,12.831-33.63,0-46.461l265.657-265.661l36.648,9.815l41.592-41.592
		c11.543,29.484,5.425,64.279-18.387,88.088c-23.816,23.816-58.61,29.936-88.089,18.386L193.579,364.884
		C206.947,396.597,200.713,434.622,174.879,460.459L174.879,460.459z"/>
	<path fill="#CDDBF9" d="M360.467,341.409L112.406,93.346l17.082-17.083L65.719,26L26.001,65.718l50.265,63.769l17.082-17.083
		l248.062,248.063L360.467,341.409z"/>
	<path fill="#F3F6FF" d="M350.938,350.938L45.86,45.86L26.001,65.718l50.265,63.769l17.082-17.083l248.063,248.063L350.938,350.938z
		"/>
	<path fill="#29376D" d="M299.517,364.673l46.466,46.466l20.187-0.272l45.009-45.01l-0.039-19.875l-46.465-46.467L299.517,364.673z"
		/>
	<path fill="#47568C" d="M299.517,364.673l46.466,46.466l20.187-0.272l22.347-22.353l-56.42-56.42L299.517,364.673z"/>
	<path fill="#FABE2C" d="M345.982,411.139l61.362,61.361c9.004,9.001,20.793,13.498,32.586,13.498
		c11.789,0,23.581-4.498,32.575-13.494c17.991-17.99,17.991-47.164-0.005-65.16l-61.362-61.362L345.982,411.139z"/>
	<path fill="#FFE666" d="M345.982,411.139l61.362,61.361c9.004,9.001,20.793,13.498,32.586,13.498
		c11.789,0,23.581-4.498,32.575-13.494l-93.945-93.943L345.982,411.139z"/>
</g>
</svg>
