<?xml version="1.0" encoding="utf-8"?>
<!-- Generator: Adobe Illustrator 16.0.0, SVG Export Plug-In . SVG Version: 6.00 Build 0)  -->
<!DOCTYPE svg PUBLIC "-//W3C//DTD SVG 1.1//EN" "http://www.w3.org/Graphics/SVG/1.1/DTD/svg11.dtd">
<svg version="1.1" id="Capa_1" xmlns="http://www.w3.org/2000/svg" xmlns:xlink="http://www.w3.org/1999/xlink" x="0px" y="0px"
	 width="1575.975px" height="875.445px" viewBox="-20 0 1575.975 875.445" enable-background="new -20 0 1575.975 875.445"
	 xml:space="preserve">
<g id="STAFF_2_">
	<g>
		<g>
			<g>
				<g>
					<path fill="#DEE2E6" d="M1532.723,662.031h-18.794c-0.887,4.707-1.859,9.436-2.931,14.191
						c-1.432,7.368-1.721,14.562-1.636,21.745h23.358c12.844,0,23.253-8.045,23.253-17.969S1545.566,662.031,1532.723,662.031z"/>
					<rect x="524.51" y="662.031" fill="#DEE2E6" width="1007.182" height="35.938"/>
					<path fill="#DEE2E6" d="M529.14,676.224c1.07-4.757,2.044-9.484,2.931-14.191h-157.93c-12.843,0-23.254,8.045-23.254,17.969
						s10.411,17.969,23.254,17.969h153.364C527.422,690.784,527.711,683.592,529.14,676.224z"/>
					<path fill="#DEE2E6" d="M119.519,662.031H3.253C-9.59,662.031-20,670.076-20,680s10.41,17.969,23.253,17.969H119.52
						c12.843,0,23.253-8.045,23.253-17.969S132.362,662.031,119.519,662.031z"/>
				</g>
				<g>
					<path fill="#DEE2E6" d="M1533.885,532.031h-17.646c0.278,5.297,0.824,10.592,1.76,15.889
						c0.771,6.706,1.275,13.383,1.543,20.049h14.345c12.843,0,23.253-8.044,23.253-17.969
						C1557.139,540.076,1546.727,532.031,1533.885,532.031z"/>
					<rect x="524.51" y="532.031" fill="#DEE2E6" width="1007.182" height="35.938"/>
					<path fill="#DEE2E6" d="M3.253,567.969h86.036c12.843,0,23.254-8.044,23.254-17.969c0-9.924-10.411-17.969-23.254-17.969H3.253
						C-9.59,532.031-20,540.076-20,550C-20,559.925-9.59,567.969,3.253,567.969z"/>
					<path fill="#DEE2E6" d="M534.382,532.031h-56.766c-12.843,0-23.253,8.045-23.253,17.969c0,9.925,10.41,17.969,23.253,17.969
						h60.065c-0.268-6.666-0.771-13.344-1.542-20.049C535.205,542.623,534.659,537.327,534.382,532.031z"/>
				</g>
				<g>
					<path fill="#DEE2E6" d="M1533.885,402.031h-16.058c0.396,11.979,0.681,23.958,0.607,35.938h15.448
						c12.843,0,23.253-8.045,23.253-17.969C1557.137,410.075,1546.727,402.031,1533.885,402.031z"/>
					<rect x="524.51" y="402.031" fill="#DEE2E6" width="1007.182" height="35.937"/>
					<path fill="#DEE2E6" d="M3.253,437.969h44.183c12.843,0,23.253-8.045,23.253-17.969c0-9.925-10.41-17.969-23.253-17.969H3.253
						C-9.59,402.031-20,410.076-20,420S-9.59,437.969,3.253,437.969z"/>
					<path fill="#DEE2E6" d="M535.97,402.031h-30.449c-12.843,0-23.253,8.044-23.253,17.969c0,9.924,10.41,17.969,23.253,17.969
						h31.058C536.65,425.989,536.366,414.01,535.97,402.031z"/>
				</g>
				<g>
					<path fill="#DEE2E6" d="M1533.885,272.031h-16.244c-1.059,11.979-1.52,23.958-1.607,35.938h17.854
						c12.843,0,23.253-8.045,23.253-17.969S1546.727,272.031,1533.885,272.031z"/>
					<rect x="524.51" y="272.031" fill="#DEE2E6" width="1007.182" height="35.938"/>
					<path fill="#DEE2E6" d="M3.253,307.969h95.338c12.845,0,23.255-8.045,23.255-17.969s-10.41-17.969-23.255-17.969H3.253
						C-9.59,272.031-20,280.076-20,289.999C-20,299.923-9.59,307.969,3.253,307.969z"/>
					<path fill="#DEE2E6" d="M385.767,272.031c-12.843,0-23.253,8.044-23.253,17.969s10.41,17.969,23.253,17.969h148.407
						c0.09-11.979,0.551-23.958,1.606-35.938H385.767L385.767,272.031z"/>
				</g>
				<g>
					<path fill="#DEE2E6" d="M1533.885,142.031h-19.688c1.429,2.806,2.526,5.65,2.802,8.608c1.758,9.056,2.813,18.179,3.373,27.329
						h13.514c12.843,0,23.253-8.044,23.253-17.968S1546.727,142.031,1533.885,142.031z"/>
					<rect x="519.139" y="142.031" fill="#DEE2E6" width="1017.76" height="35.937"/>
					<path fill="#DEE2E6" d="M532.341,142.031h-83.789c-12.844,0-23.253,8.044-23.253,17.968c0,9.923,10.409,17.969,23.253,17.969
						h89.964c-0.563-9.149-1.616-18.272-3.374-27.329C534.866,147.681,533.768,144.837,532.341,142.031z"/>
					<path fill="#DEE2E6" d="M3.253,177.968h203.465c12.845,0,23.255-8.044,23.255-17.969s-10.41-17.968-23.255-17.968H3.253
						C-9.59,142.031-20,150.075-20,160S-9.59,177.968,3.253,177.968z"/>
				</g>
			</g>
		</g>
	</g>
</g>
<path id="CLEF_2_" fill="#4DC0B5" d="M440.645,459.21c0-68.152-55.359-123.619-123.475-123.789V264.45
	c7.864-4.009,15.777-7.983,23.667-11.941c17.585-7.753,46.344-30.54,46.344-68.746c0-22.784-9.236-36.675-16.984-44.315
	c-10.709-10.563-25.26-16.144-42.081-16.144c-0.271,0-0.545,0.005-0.878,0.012c-27.247,0.464-56.573,20.307-56.573,62.772v50.13
	c-31.739,16.932-62.356,35.229-88.325,56.813c-47.748,39.69-70.959,83.773-70.959,134.761c0,92.321,69.727,168.662,159.284,179.12
	v41.915c0,12.604-11.063,23.253-24.164,23.253c-12.961,0-23.505-10.433-23.505-23.253c0-12.843-10.41-23.254-23.253-23.254
	s-23.254,10.411-23.254,23.254c0,38.465,31.407,69.759,70.012,69.759c38.967,0,70.672-31.294,70.672-69.759v-42.869
	C387.202,593.846,440.645,532.649,440.645,459.21z M270.664,462.209c-6.699-5.477-10.983-13.8-10.983-23.105
	c0-12.572,4.081-24.214,10.983-33.662V462.209z M270.664,346.289c-34.053,17.016-57.491,52.229-57.491,92.813
	c0,35.593,24.483,65.567,57.491,73.984v46.885c-63.83-10.129-112.775-65.546-112.775-132.181
	c0-61.271,50.313-102.81,112.775-138.491V346.289z M317.172,186.088c0-16.087,7.89-16.221,10.794-16.271l0.281-0.006
	c7.873,0.024,12.431,2.348,12.431,13.952c0,16.983-17.041,25.446-18.865,26.301c-0.541,0.218-0.677,0.298-1.25,0.586
	c-1.131,0.566-2.26,1.135-3.391,1.702V186.088L317.172,186.088z M317.172,558.427v-176.5c42.472,0.169,76.968,34.772,76.968,77.282
	C394.138,506.9,361.372,547.082,317.172,558.427z"/>
<g id="SHARPS">
	<path stroke="#000000" stroke-width="7" stroke-linecap="round" stroke-linejoin="round" stroke-miterlimit="10" d="
		M701.301,118.476c0.506-0.069,0.883-0.502,0.883-1.008v-15.563c0-0.615-0.538-1.083-1.143-1.006l-35.005,4.54l4.546-34.999
		c0.078-0.609-0.395-1.148-1.009-1.148H654.01c-0.508,0-0.938,0.382-1.007,0.886l-4.883,37.587l-60.413,7.839l5.857-45.163
		c0.082-0.609-0.395-1.148-1.008-1.148h-15.564c-0.509,0-0.94,0.382-1.01,0.886l-6.197,47.753l-47.751,6.195
		c-0.505,0.068-0.884,0.497-0.884,1.008v15.563c0,0.616,0.541,1.089,1.147,1.01l45.165-5.859l-7.837,60.415l-37.592,4.881
		c-0.505,0.067-0.884,0.497-0.884,1.008v15.563c0,0.613,0.541,1.088,1.147,1.006l34.999-4.542l-4.542,35.002
		c-0.077,0.608,0.393,1.148,1.007,1.148h15.563c0.509,0,0.942-0.383,1.009-0.889l4.878-37.586l60.417-7.842l-5.858,45.169
		c-0.081,0.608,0.394,1.148,1.008,1.148h15.563c0.509,0,0.944-0.383,1.012-0.889l6.19-47.753l47.756-6.191
		c0.509-0.071,0.882-0.498,0.882-1.011v-15.564c0-0.608-0.537-1.088-1.141-1.009l-45.174,5.858l7.844-60.415L701.301,118.476z
		 M637.96,186.095l-60.423,7.845l7.844-60.42l60.418-7.842L637.96,186.095z"/>
	<path stroke="#000000" stroke-width="7" stroke-linecap="round" stroke-linejoin="round" stroke-miterlimit="10" d="
		M826.217,306.984c0.5-0.069,0.882-0.498,0.882-1.008v-15.563c0-0.615-0.544-1.083-1.146-1.006l-35,4.54l4.547-34.998
		c0.074-0.609-0.396-1.146-1.01-1.146h-15.563c-0.508,0-0.944,0.379-1.009,0.883l-4.882,37.587l-60.41,7.843l5.855-45.167
		c0.082-0.609-0.395-1.147-1.012-1.147h-15.563c-0.506,0-0.938,0.38-1.007,0.884l-6.197,47.754l-47.752,6.194
		c-0.503,0.068-0.883,0.497-0.883,1.008v15.562c0,0.617,0.541,1.089,1.148,1.012l45.164-5.862l-7.842,60.416l-37.589,4.885
		c-0.503,0.063-0.883,0.493-0.883,1.005v15.562c0,0.617,0.541,1.089,1.148,1.008l34.996-4.544l-4.543,35.004
		c-0.072,0.604,0.392,1.146,1.009,1.146h15.563c0.508,0,0.946-0.383,1.014-0.891l4.877-37.584l60.41-7.842l-5.855,45.17
		c-0.082,0.604,0.396,1.146,1.012,1.146h15.563c0.508,0,0.938-0.383,1.004-0.891l6.198-47.752l47.755-6.191
		c0.506-0.068,0.883-0.499,0.883-1.01v-15.563c0-0.612-0.545-1.087-1.146-1.008l-45.167,5.858l7.844-60.414L826.217,306.984z
		 M762.868,374.604l-60.415,7.844l7.845-60.42l60.417-7.839L762.868,374.604z"/>
	
		<path display="none" stroke="#000000" stroke-width="7" stroke-linecap="round" stroke-linejoin="round" stroke-miterlimit="10" d="
		M957.982,73.451c0.504-0.069,0.882-0.501,0.882-1.008V56.879c0-0.615-0.537-1.086-1.141-1.009l-35.005,4.543l4.546-35.001
		c0.078-0.606-0.396-1.146-1.01-1.146h-15.563c-0.508,0-0.938,0.382-1.008,0.884l-4.882,37.589l-60.411,7.84l5.856-45.166
		c0.081-0.606-0.396-1.146-1.013-1.146h-15.563c-0.507,0-0.938,0.382-1.007,0.883l-6.196,47.753l-47.75,6.197
		c-0.504,0.07-0.884,0.495-0.884,1.009v15.562c0,0.613,0.542,1.089,1.147,1.01l45.164-5.86l-7.841,60.415l-37.588,4.881
		c-0.504,0.063-0.884,0.497-0.884,1.005v15.562c0,0.617,0.542,1.089,1.147,1.01l34.995-4.546l-4.535,35.002
		c-0.076,0.607,0.385,1.151,1.002,1.151h15.563c0.508,0,0.945-0.382,1.013-0.89l4.877-37.588l60.419-7.839l-5.864,45.166
		c-0.081,0.607,0.396,1.151,1.013,1.151h15.563c0.509,0,0.94-0.382,1.013-0.89l6.189-47.753l47.756-6.194
		c0.505-0.068,0.882-0.495,0.882-1.01v-15.563c0-0.611-0.536-1.087-1.141-1.008l-45.173,5.857l7.843-60.414L957.982,73.451z
		 M894.641,141.066l-60.422,7.848l7.844-60.42l60.418-7.843L894.641,141.066z"/>
	
		<path display="none" stroke="#000000" stroke-width="7" stroke-linecap="round" stroke-linejoin="round" stroke-miterlimit="10" d="
		M1084.422,248.55c0.508-0.071,0.887-0.502,0.887-1.011v-15.564c0-0.611-0.541-1.083-1.146-1.006l-35.004,4.54l4.545-34.998
		c0.078-0.608-0.394-1.145-1.009-1.145h-15.563c-0.51,0-0.938,0.382-1.002,0.882l-4.881,37.59l-60.42,7.84l5.857-45.167
		c0.082-0.608-0.396-1.145-1.009-1.145h-15.563c-0.512,0-0.942,0.382-1.011,0.882l-6.198,47.754l-47.752,6.194
		c-0.503,0.072-0.883,0.497-0.883,1.011v15.562c0,0.613,0.541,1.089,1.148,1.01l45.163-5.86l-7.841,60.415l-37.589,4.881
		c-0.503,0.063-0.883,0.497-0.883,1.005v15.562c0,0.617,0.541,1.089,1.148,1.007l34.996-4.543l-4.536,35.001
		c-0.077,0.608,0.393,1.153,1.002,1.153h15.563c0.516,0,0.944-0.382,1.011-0.893l4.877-37.585l60.421-7.839l-5.857,45.165
		c-0.082,0.608,0.391,1.153,1.004,1.153h15.563c0.51,0,0.946-0.382,1.012-0.893l6.193-47.752l47.754-6.192
		c0.512-0.068,0.886-0.499,0.886-1.01v-15.563c0-0.612-0.541-1.087-1.146-1.008l-45.172,5.857l7.843-60.414L1084.422,248.55z
		 M1021.082,316.166l-60.424,7.846l7.845-60.419l60.418-7.843L1021.082,316.166z"/>
	
		<path display="none" stroke="#000000" stroke-width="7" stroke-linecap="round" stroke-linejoin="round" stroke-miterlimit="10" d="
		M1212.674,442.409c0.506-0.068,0.888-0.499,0.888-1.011v-15.562c0-0.615-0.544-1.083-1.148-1.006l-35,4.539l4.541-34.998
		c0.078-0.609-0.394-1.149-1.007-1.149h-15.562c-0.512,0-0.941,0.382-1.005,0.886l-4.88,37.586l-60.421,7.84l5.857-45.163
		c0.082-0.609-0.394-1.149-1.005-1.149h-15.563c-0.514,0-0.945,0.382-1.015,0.886l-6.193,47.75l-47.755,6.197
		c-0.505,0.068-0.884,0.493-0.884,1.006v15.563c0,0.612,0.541,1.088,1.148,1.011l45.162-5.859l-7.832,60.42l-37.594,4.882
		c-0.505,0.063-0.884,0.493-0.884,1.001v15.563c0,0.616,0.541,1.093,1.147,1.012l35.004-4.547l-4.543,35.005
		c-0.077,0.607,0.393,1.149,1.004,1.149h15.565c0.511,0,0.939-0.38,1.007-0.894l4.877-37.586l60.42-7.841l-5.857,45.17
		c-0.082,0.607,0.391,1.149,1.004,1.149h15.563c0.512,0,0.945-0.38,1.011-0.894l6.197-47.753l47.75-6.188
		c0.512-0.067,0.889-0.502,0.889-1.014V502.85c0-0.612-0.545-1.084-1.148-1.006l-45.166,5.857l7.839-60.417L1212.674,442.409z
		 M1149.333,510.028l-60.424,7.843l7.844-60.418l60.422-7.844L1149.333,510.028z"/>
	
		<path display="none" stroke="#000000" stroke-width="7" stroke-linecap="round" stroke-linejoin="round" stroke-miterlimit="10" d="
		M1324.268,184.815c0.501-0.068,0.883-0.501,0.883-1.008v-15.563c0-0.615-0.544-1.083-1.146-1.006l-34.999,4.54l4.54-34.999
		c0.076-0.609-0.389-1.148-1.004-1.148h-15.563c-0.511,0-0.945,0.382-1.009,0.886l-4.881,37.587l-60.417,7.839l5.854-45.163
		c0.085-0.609-0.388-1.148-1.005-1.148h-15.563c-0.508,0-0.94,0.382-1.015,0.886l-6.189,47.752l-47.752,6.196
		c-0.51,0.068-0.885,0.496-0.885,1.008v15.561c0,0.617,0.535,1.089,1.144,1.011l45.17-5.86l-7.84,60.415l-37.589,4.881
		c-0.51,0.067-0.885,0.497-0.885,1.007v15.563c0,0.613,0.535,1.089,1.144,1.007l35.002-4.543l-4.543,35.001
		c-0.077,0.608,0.393,1.149,1.01,1.149h15.563c0.509,0,0.939-0.383,1.01-0.89l4.876-37.588l60.416-7.84l-5.857,45.168
		c-0.082,0.608,0.397,1.149,1.012,1.149h15.562c0.511,0,0.941-0.383,1.007-0.89l6.198-47.753l47.755-6.191
		c0.506-0.071,0.882-0.498,0.882-1.013v-15.563c0-0.608-0.544-1.087-1.146-1.008l-45.166,5.857l7.843-60.414L1324.268,184.815z
		 M1260.923,252.435l-60.415,7.844l7.837-60.419l60.424-7.843L1260.923,252.435z"/>
</g>
<g id="FLATS">
</g>
</svg>
