<?xml version="1.0" encoding="utf-8"?>
<!-- Generator: Adobe Illustrator 16.0.0, SVG Export Plug-In . SVG Version: 6.00 Build 0)  -->
<!DOCTYPE svg PUBLIC "-//W3C//DTD SVG 1.1//EN" "http://www.w3.org/Graphics/SVG/1.1/DTD/svg11.dtd">
<svg version="1.1" id="Icon" xmlns="http://www.w3.org/2000/svg" xmlns:xlink="http://www.w3.org/1999/xlink" x="0px" y="0px"
	 width="1238px" height="1238.5px" viewBox="0 -19.25 1238 1238.5" enable-background="new 0 -19.25 1238 1238.5"
	 xml:space="preserve">
<g id="Background">
	<rect x="0" y="-19.25" fill="#FFFFFF" width="1238" height="1238.5"/>
</g>
<g id="Circles" display="none">
	<g id="Back" display="inline" opacity="0.05">
		<path fill="#FFFFFF" d="M1129,600c0,281.67-228.33,510-510,510c-281.663,0-510-228.33-510-510c0-281.663,228.337-510,510-510
			C900.67,90,1129,318.337,1129,600z"/>
	</g>
	<g id="Front" display="inline" opacity="0.04">
		<circle fill="#FFFFFF" cx="619" cy="600" r="390"/>
	</g>
</g>
<g id="Designs">
	<g id="Keyboard">
		<rect x="0" y="910.03" fill="#FFFFFF" width="1238.5" height="309.22"/>
		<rect id="Background_1_" x="0" y="651.812" fill="#1E2638" width="1238.5" height="258.218"/>
		<rect x="1001.466" y="910.03" fill="#CFF5FF" width="48.445" height="309.22"/>
		<path fill="#1E2638" d="M1075.62,909.152v150.262c0,6.494-5.104,11.775-11.324,11.775h-28.772
			c-6.221,0-11.325-5.277-11.325-11.775V909.152H1075.62z"/>
		<rect x="1098.061" y="910.03" fill="#CFF5FF" width="48.445" height="309.22"/>
		<path fill="#1E2638" d="M1172.216,909.152v150.262c0,6.494-5.021,11.775-11.243,11.775h-28.854
			c-6.221,0-11.241-5.277-11.241-11.775V909.152H1172.216z"/>
		<rect x="1195.182" y="910.03" fill="#CFF5FF" width="43.318" height="309.22"/>
		<rect x="613.795" y="910.03" fill="#CFF5FF" width="48.445" height="309.22"/>
		<path fill="#1E2638" d="M687.866,909.152v150.262c0,6.494-5.021,11.775-11.241,11.775h-28.772
			c-6.304,0-11.325-5.277-11.325-11.775V909.152H687.866z"/>
		<rect x="710.39" y="910.03" fill="#CFF5FF" width="48.445" height="309.22"/>
		<path fill="#1E2638" d="M784.545,909.152v150.262c0,6.494-5.104,11.775-11.325,11.775h-28.772
			c-6.221,0-11.325-5.277-11.325-11.775V909.152H784.545z"/>
		<rect x="807.428" y="910.03" fill="#CFF5FF" width="48.444" height="309.22"/>
		<path fill="#1E2638" d="M881.582,909.152v150.262c0,6.494-5.021,11.775-11.324,11.775h-28.772
			c-6.221,0-11.242-5.277-11.242-11.775V909.152H881.582z"/>
		<rect x="904.105" y="910.03" fill="#CFF5FF" width="48.445" height="309.22"/>
		<path fill="#1E2638" d="M978.178,909.152v150.262c0,6.494-5.021,11.775-11.242,11.775h-28.773
			c-6.303,0-11.323-5.277-11.323-11.775V909.152H978.178z"/>
		<rect x="226.376" y="910.03" fill="#CFF5FF" width="48.445" height="309.22"/>
		<path fill="#1E2638" d="M300.49,909.152v150.262c0,6.494-5.063,11.775-11.283,11.775h-28.772c-6.262,0-11.325-5.277-11.325-11.775
			V909.152H300.49z"/>
		<rect x="322.971" y="910.03" fill="#CFF5FF" width="48.486" height="309.22"/>
		<path fill="#1E2638" d="M397.126,909.152v150.262c0,6.494-5.063,11.775-11.284,11.775h-28.814
			c-6.221,0-11.284-5.277-11.284-11.775V909.152H397.126z"/>
		<rect x="420.051" y="910.03" fill="#CFF5FF" width="48.445" height="309.22"/>
		<path fill="#1E2638" d="M494.173,909.152v150.262c0,6.494-5.072,11.775-11.292,11.775h-28.772
			c-6.262,0-11.325-5.277-11.325-11.775V909.152H494.173z"/>
		<rect x="516.646" y="910.03" fill="#CFF5FF" width="48.445" height="309.22"/>
		<path fill="#1E2638" d="M590.801,909.152v150.262c0,6.494-5.021,11.775-11.325,11.775h-28.772
			c-6.221,0-11.241-5.277-11.241-11.775V909.152H590.801z"/>
		<rect x="32.338" y="910.03" fill="#CFF5FF" width="48.446" height="309.22"/>
		<path fill="#1E2638" d="M106.494,909.152v150.262c0,6.494-5.063,11.775-11.325,11.775H66.396c-6.221,0-11.284-5.277-11.284-11.775
			V909.152H106.494z"/>
		<rect x="128.975" y="910.03" fill="#CFF5FF" width="48.446" height="309.22"/>
		<path fill="#1E2638" d="M203.088,909.152v150.262c0,6.494-5.063,11.775-11.284,11.775h-28.771
			c-6.263,0-11.325-5.277-11.325-11.775V909.152H203.088z"/>
		<rect x="0" y="651.812" fill="#303A59" width="1238.5" height="176.051"/>
	</g>
	<g id="Stand">
		<path fill="#303A59" d="M914.132,309.487H323.864c-27.533,0-49.863,23.042-49.863,51.477v391.361h690v-391.36
			C963.995,332.529,941.687,309.487,914.132,309.487L914.132,309.487z"/>
		<path fill="#CFF5FF" d="M505.732,391.363c-39.973-3.653-80.532-0.903-119.682,8.306c-21.243,4.98-42.05,11.866-62.18,20.526
			c-0.004,0.024-0.008,0.029-0.008,0.033v294.538c0,12.194,11.714,20.613,22.909,16.643c12.872-4.539,26.001-8.42,39.277-11.548
			c39.152-9.191,79.709-11.961,119.682-8.288c38.882,3.556,77.164,13.291,113.202,28.803c0.052,0.007,0.063,0,0.063-0.016V420.219
			l-0.004-0.024C582.952,404.678,544.622,394.938,505.732,391.363L505.732,391.363z"/>
		<path fill="#8FC7F5" d="M800.865,391.363c-40.013-3.653-80.527-0.903-119.682,8.306c-21.271,4.98-42.091,11.866-62.179,20.526
			c-0.005,0.024-0.009,0.029-0.009,0.033v320.2c20.093-8.683,40.911-15.564,62.188-20.567c39.153-9.191,79.713-11.961,119.686-8.288
			c30.735,2.801,61.123,9.477,90.346,19.836c11.201,3.971,22.921-4.463,22.921-16.706V420.219c-0.004,0-0.004,0-0.004-0.024
			C878.086,404.678,839.756,394.938,800.865,391.363L800.865,391.363z"/>
		<path fill="#FFFFFF" d="M505.732,355.263c-39.973-3.678-80.532-0.927-119.682,8.283c-18.703,4.409-37.062,10.256-54.907,17.492
			c-4.41,1.806-7.279,6.26-7.279,11.163v294.486c0,8.407,8.091,14.123,15.739,11.255c15.163-5.758,30.686-10.49,46.447-14.186
			c39.148-9.232,79.709-11.963,119.682-8.325c33.349,3.056,66.245,10.685,97.692,22.577c7.559,2.857,15.572-3.052,15.572-11.39
			V392.195c0-4.897-2.885-9.352-7.274-11.146C577.823,367.269,542.041,358.573,505.732,355.263L505.732,355.263z"/>
		<path fill="#CFF5FF" d="M800.865,355.263c-40.013-3.678-80.527-0.927-119.682,8.283c-18.714,4.409-37.057,10.256-54.907,17.492
			c-4.435,1.806-7.278,6.26-7.278,11.163v294.486c0,8.407,8.09,14.123,15.713,11.255c15.162-5.758,30.712-10.49,46.474-14.186
			c39.149-9.232,79.669-11.963,119.682-8.325c33.35,3.056,66.245,10.685,97.695,22.577c7.556,2.857,15.57-3.052,15.57-11.39V392.195
			c0-4.897-2.881-9.352-7.275-11.146C872.96,367.269,837.175,358.573,800.865,355.263L800.865,355.263z"/>
		<path fill="#303A59" d="M563.884,414.175c-61.188-12.038-124.716-12.135-185.92-0.281c-5.461,1.049-9.421,6.053-9.421,11.794
			c0,7.508,6.604,13.179,13.752,11.791c58.347-11.274,118.854-11.171,177.148,0.302c7.191,1.397,13.805-4.271,13.805-11.788v-0.028
			C573.247,420.252,569.341,415.251,563.884,414.175L563.884,414.175z"/>
		<path fill="#303A59" d="M563.884,479.753c-61.188-12.037-124.716-12.141-185.92-0.286c-5.461,1.054-9.421,6.056-9.421,11.794
			c0,7.514,6.604,13.175,13.752,11.798c58.347-11.281,118.854-11.173,177.148,0.296c7.191,1.398,13.805-4.272,13.805-11.789v-0.023
			C573.247,485.832,569.341,480.83,563.884,479.753L563.884,479.753z"/>
		<path fill="#303A59" d="M563.884,545.324c-61.188-12.053-124.716-12.132-185.92-0.294c-5.461,1.062-9.421,6.068-9.421,11.81
			c0,7.51,6.604,13.176,13.752,11.785c58.347-11.288,118.854-11.161,177.148,0.291c7.191,1.418,13.805-4.256,13.805-11.791v-0.008
			C573.247,551.381,569.341,546.404,563.884,545.324L563.884,545.324z"/>
		<path fill="#303A59" d="M563.884,610.888c-61.191-12.037-124.716-12.131-185.92-0.286c-5.493,1.06-9.421,6.055-9.421,11.814
			c0,7.513,6.601,13.158,13.747,11.775c58.352-11.276,118.854-11.157,177.153,0.28c7.188,1.436,13.8-4.247,13.8-11.768v-0.009
			C573.247,616.951,569.341,611.976,563.884,610.888L563.884,610.888z"/>
		<path fill="#303A59" d="M859.553,414.175c-61.191-12.038-124.717-12.135-185.96-0.281c-5.466,1.049-9.381,6.053-9.381,11.794
			c0,7.508,6.601,13.179,13.747,11.791c58.352-11.274,118.854-11.171,177.153,0.302c7.147,1.397,13.804-4.271,13.804-11.788v-0.028
			C868.916,420.252,865.006,415.251,859.553,414.175L859.553,414.175z"/>
		<path fill="#303A59" d="M859.553,479.753c-61.191-12.037-124.717-12.141-185.96-0.286c-5.466,1.054-9.381,6.056-9.381,11.794
			c0,7.514,6.601,13.175,13.747,11.798c58.352-11.281,118.854-11.173,177.153,0.296c7.147,1.398,13.804-4.272,13.804-11.789v-0.023
			C868.916,485.832,865.006,480.83,859.553,479.753L859.553,479.753z"/>
		<path fill="#303A59" d="M859.553,545.324c-61.191-12.053-124.722-12.132-185.96-0.294c-5.466,1.062-9.381,6.068-9.381,11.81
			c0,7.51,6.601,13.176,13.747,11.785c58.352-11.288,118.854-11.161,177.153,0.291c7.147,1.418,13.804-4.256,13.804-11.791v-0.008
			C868.916,551.381,865.006,546.404,859.553,545.324L859.553,545.324z"/>
		<path fill="#303A59" d="M859.553,610.888c-61.191-12.037-124.717-12.131-185.96-0.286c-5.466,1.06-9.381,6.055-9.381,11.814
			c0,7.513,6.601,13.158,13.747,11.775c58.352-11.276,118.854-11.157,177.153,0.28c7.147,1.436,13.804-4.247,13.804-11.768v-0.009
			C868.916,616.951,865.006,611.976,859.553,610.888L859.553,610.888z"/>
	</g>
</g>
</svg>
