<?xml version="1.0" encoding="utf-8"?>
<!-- Generator: Adobe Illustrator 16.0.0, SVG Export Plug-In . SVG Version: 6.00 Build 0)  -->
<!DOCTYPE svg PUBLIC "-//W3C//DTD SVG 1.1//EN" "http://www.w3.org/Graphics/SVG/1.1/DTD/svg11.dtd">
<svg version="1.1" id="Icon" xmlns="http://www.w3.org/2000/svg" xmlns:xlink="http://www.w3.org/1999/xlink" x="0px" y="0px"
	 width="1238px" height="1200px" viewBox="0 0 1238 1200" enable-background="new 0 0 1238 1200" xml:space="preserve">
<g id="Background">
	<rect y="0" fill="#4464EB" width="1238" height="1200"/>
</g>
<g id="Circles" display="none">
	<g id="Back" display="inline" opacity="0.05">
		<path fill="#FFFFFF" d="M1129,600c0,281.67-228.33,510-510,510c-281.663,0-510-228.33-510-510c0-281.663,228.337-510,510-510
			C900.67,90,1129,318.337,1129,600z"/>
	</g>
	<g id="Front" display="inline" opacity="0.04">
		<circle fill="#FFFFFF" cx="619" cy="600" r="390"/>
	</g>
</g>
<g id="Designs">
	<g id="Keyboard">
		<rect y="900.393" fill="#FFFFFF" width="1238.5" height="299.607"/>
		<rect id="Background_1_" y="650.201" fill="#1E2638" width="1238.5" height="250.191"/>
		<rect x="1001.466" y="900.393" fill="#CFF5FF" width="48.446" height="299.607"/>
		<path fill="#1E2638" d="M1075.621,899.542v145.591c0,6.292-5.104,11.409-11.325,11.409h-28.772
			c-6.221,0-11.325-5.113-11.325-11.409V899.542H1075.621z M1075.621,899.542"/>
		<rect x="1098.061" y="900.393" fill="#CFF5FF" width="48.445" height="299.607"/>
		<path fill="#1E2638" d="M1172.216,899.542v145.591c0,6.292-5.021,11.409-11.243,11.409h-28.854
			c-6.221,0-11.242-5.113-11.242-11.409V899.542H1172.216z M1172.216,899.542"/>
		<rect x="1195.182" y="900.393" fill="#CFF5FF" width="43.318" height="299.607"/>
		<rect x="613.795" y="900.393" fill="#CFF5FF" width="48.446" height="299.607"/>
		<path fill="#1E2638" d="M687.867,899.542v145.591c0,6.292-5.021,11.409-11.242,11.409h-28.772
			c-6.304,0-11.325-5.113-11.325-11.409V899.542H687.867z M687.867,899.542"/>
		<rect x="710.39" y="900.393" fill="#CFF5FF" width="48.445" height="299.607"/>
		<path fill="#1E2638" d="M784.545,899.542v145.591c0,6.292-5.104,11.409-11.325,11.409h-28.772
			c-6.221,0-11.325-5.113-11.325-11.409V899.542H784.545z M784.545,899.542"/>
		<rect x="807.428" y="900.393" fill="#CFF5FF" width="48.445" height="299.607"/>
		<path fill="#1E2638" d="M881.583,899.542v145.591c0,6.292-5.021,11.409-11.325,11.409h-28.772
			c-6.221,0-11.242-5.113-11.242-11.409V899.542H881.583z M881.583,899.542"/>
		<rect x="904.105" y="900.393" fill="#CFF5FF" width="48.445" height="299.607"/>
		<path fill="#1E2638" d="M978.178,899.542v145.591c0,6.292-5.021,11.409-11.242,11.409h-28.773
			c-6.303,0-11.324-5.113-11.324-11.409V899.542H978.178z M978.178,899.542"/>
		<rect x="226.376" y="900.393" fill="#CFF5FF" width="48.446" height="299.607"/>
		<path fill="#1E2638" d="M300.49,899.542v145.591c0,6.292-5.063,11.409-11.284,11.409h-28.772c-6.262,0-11.325-5.113-11.325-11.409
			V899.542H300.49z M300.49,899.542"/>
		<rect x="322.971" y="900.393" fill="#CFF5FF" width="48.487" height="299.607"/>
		<path fill="#1E2638" d="M397.126,899.542v145.591c0,6.292-5.063,11.409-11.284,11.409h-28.814
			c-6.221,0-11.284-5.113-11.284-11.409V899.542H397.126z M397.126,899.542"/>
		<rect x="420.051" y="900.393" fill="#CFF5FF" width="48.446" height="299.607"/>
		<path fill="#1E2638" d="M494.173,899.542v145.591c0,6.292-5.072,11.409-11.292,11.409h-28.772
			c-6.262,0-11.325-5.113-11.325-11.409V899.542H494.173z M494.173,899.542"/>
		<rect x="516.646" y="900.393" fill="#CFF5FF" width="48.445" height="299.607"/>
		<path fill="#1E2638" d="M590.801,899.542v145.591c0,6.292-5.021,11.409-11.325,11.409h-28.772
			c-6.221,0-11.242-5.113-11.242-11.409V899.542H590.801z M590.801,899.542"/>
		<rect x="32.338" y="900.393" fill="#CFF5FF" width="48.446" height="299.607"/>
		<path fill="#1E2638" d="M106.494,899.542v145.591c0,6.292-5.063,11.409-11.325,11.409H66.396c-6.221,0-11.284-5.113-11.284-11.409
			V899.542H106.494z M106.494,899.542"/>
		<rect x="128.975" y="900.393" fill="#CFF5FF" width="48.446" height="299.607"/>
		<path fill="#1E2638" d="M203.088,899.542v145.591c0,6.292-5.063,11.409-11.284,11.409h-28.772
			c-6.262,0-11.325-5.113-11.325-11.409V899.542H203.088z M203.088,899.542"/>
		<rect y="650.201" fill="#303A59" width="1238.5" height="170.578"/>
	</g>
	<g id="Stand">
		<path fill="#303A59" d="M914.132,318.518H323.864c-27.534,0-49.864,22.326-49.864,49.877V747.59h690V368.396
			C963.996,340.844,941.687,318.518,914.132,318.518L914.132,318.518z M914.132,318.518"/>
		<path fill="#CFF5FF" d="M505.732,397.849c-39.973-3.54-80.532-0.875-119.682,8.047c-21.243,4.826-42.05,11.498-62.179,19.888
			c-0.004,0.024-0.008,0.028-0.008,0.032v285.382c0,11.816,11.714,19.973,22.909,16.125c12.872-4.398,26.001-8.158,39.277-11.188
			c39.153-8.906,79.709-11.59,119.682-8.031c38.882,3.445,77.164,12.877,113.202,27.908c0.052,0.006,0.063,0,0.063-0.016V425.808
			l-0.004-0.024C582.953,410.75,544.623,401.313,505.732,397.849L505.732,397.849z M505.732,397.849"/>
		<path fill="#8FC7F5" d="M800.866,397.849c-40.013-3.54-80.528-0.875-119.682,8.047c-21.271,4.826-42.091,11.498-62.179,19.888
			c-0.004,0.024-0.008,0.028-0.008,0.032v310.247c20.092-8.414,40.911-15.082,62.187-19.928
			c39.153-8.906,79.713-11.59,119.686-8.031c30.735,2.713,61.123,9.182,90.345,19.219c11.202,3.848,22.921-4.324,22.921-16.186
			V425.808c-0.004,0-0.004,0-0.004-0.024C878.086,410.75,839.756,401.313,800.866,397.849L800.866,397.849z M800.866,397.849"/>
		<path fill="#FFFFFF" d="M505.732,362.871c-39.973-3.564-80.532-0.898-119.682,8.026c-18.703,4.272-37.061,9.937-54.907,16.948
			c-4.41,1.75-7.279,6.066-7.279,10.816v285.332c0,8.146,8.091,13.684,15.739,10.904c15.163-5.578,30.686-10.164,46.447-13.744
			c39.149-8.945,79.709-11.59,119.682-8.066c33.349,2.961,66.245,10.352,97.692,21.875c7.559,2.768,15.573-2.957,15.573-11.035
			V398.655c0-4.745-2.885-9.061-7.275-10.8C577.823,374.504,542.041,366.078,505.732,362.871L505.732,362.871z M505.732,362.871"/>
		<path fill="#CFF5FF" d="M800.866,362.871c-40.013-3.564-80.528-0.898-119.682,8.026c-18.714,4.272-37.057,9.937-54.907,16.948
			c-4.435,1.75-7.279,6.066-7.279,10.816v285.332c0,8.146,8.09,13.684,15.713,10.904c15.162-5.578,30.712-10.164,46.474-13.744
			c39.149-8.945,79.669-11.59,119.682-8.066c33.349,2.961,66.245,10.352,97.695,21.875c7.556,2.768,15.57-2.957,15.57-11.035
			V398.655c0-4.745-2.881-9.061-7.275-10.8C872.96,374.504,837.175,366.078,800.866,362.871L800.866,362.871z M800.866,362.871"/>
		<path fill="#303A59" d="M563.884,419.951c-61.188-11.663-124.716-11.758-185.92-0.272c-5.461,1.016-9.421,5.865-9.421,11.427
			c0,7.275,6.604,12.769,13.752,11.424c58.347-10.924,118.855-10.824,177.149,0.293c7.191,1.354,13.804-4.138,13.804-11.422v-0.027
			C573.248,425.84,569.341,420.994,563.884,419.951L563.884,419.951z M563.884,419.951"/>
		<path fill="#303A59" d="M563.884,483.491c-61.188-11.663-124.716-11.763-185.92-0.277c-5.461,1.021-9.421,5.867-9.421,11.428
			c0,7.28,6.604,12.765,13.752,11.431c58.347-10.93,118.855-10.826,177.149,0.287c7.191,1.355,13.804-4.139,13.804-11.422v-0.023
			C573.248,489.381,569.341,484.534,563.884,483.491L563.884,483.491z M563.884,483.491"/>
		<path fill="#303A59" d="M563.884,547.023c-61.188-11.678-124.716-11.754-185.92-0.285c-5.461,1.029-9.421,5.879-9.421,11.443
			c0,7.276,6.604,12.766,13.752,11.419c58.347-10.938,118.855-10.815,177.149,0.281c7.191,1.374,13.804-4.124,13.804-11.424v-0.008
			C573.248,552.893,569.341,548.07,563.884,547.023L563.884,547.023z M563.884,547.023"/>
		<path fill="#303A59" d="M563.884,610.549c-61.191-11.662-124.716-11.754-185.92-0.277c-5.493,1.027-9.421,5.867-9.421,11.447
			c0,7.279,6.601,12.75,13.748,11.41c58.351-10.926,118.854-10.811,177.153,0.271c7.188,1.391,13.8-4.115,13.8-11.402v-0.008
			C573.248,616.424,569.341,611.604,563.884,610.549L563.884,610.549z M563.884,610.549"/>
		<path fill="#303A59" d="M859.553,419.951c-61.191-11.663-124.717-11.758-185.96-0.272c-5.465,1.016-9.381,5.865-9.381,11.427
			c0,7.275,6.601,12.769,13.748,11.424c58.351-10.924,118.854-10.824,177.153,0.293c7.147,1.354,13.804-4.138,13.804-11.422v-0.027
			C868.917,425.84,865.006,420.994,859.553,419.951L859.553,419.951z M859.553,419.951"/>
		<path fill="#303A59" d="M859.553,483.491c-61.191-11.663-124.717-11.763-185.96-0.277c-5.465,1.021-9.381,5.867-9.381,11.428
			c0,7.28,6.601,12.765,13.748,11.431c58.351-10.93,118.854-10.826,177.153,0.287c7.147,1.355,13.804-4.139,13.804-11.422v-0.023
			C868.917,489.381,865.006,484.534,859.553,483.491L859.553,483.491z M859.553,483.491"/>
		<path fill="#303A59" d="M859.553,547.023c-61.191-11.678-124.721-11.754-185.96-0.285c-5.465,1.029-9.381,5.879-9.381,11.443
			c0,7.276,6.601,12.766,13.748,11.419c58.351-10.938,118.854-10.815,177.153,0.281c7.147,1.374,13.804-4.124,13.804-11.424v-0.008
			C868.917,552.893,865.006,548.07,859.553,547.023L859.553,547.023z M859.553,547.023"/>
		<path fill="#303A59" d="M859.553,610.549c-61.191-11.662-124.717-11.754-185.96-0.277c-5.465,1.027-9.381,5.867-9.381,11.447
			c0,7.279,6.601,12.75,13.748,11.41c58.351-10.926,118.854-10.811,177.153,0.271c7.147,1.391,13.804-4.115,13.804-11.402v-0.008
			C868.917,616.424,865.006,611.604,859.553,610.549L859.553,610.549z M859.553,610.549"/>
	</g>
</g>
</svg>
