<?xml version="1.0" encoding="utf-8"?>
<!-- Generator: Adobe Illustrator 16.0.0, SVG Export Plug-In . SVG Version: 6.00 Build 0)  -->
<!DOCTYPE svg PUBLIC "-//W3C//DTD SVG 1.1//EN" "http://www.w3.org/Graphics/SVG/1.1/DTD/svg11.dtd">
<svg version="1.1" id="Icon" xmlns="http://www.w3.org/2000/svg" xmlns:xlink="http://www.w3.org/1999/xlink" x="0px" y="0px"
	 width="1238px" height="1200px" viewBox="0 0 1238 1200" enable-background="new 0 0 1238 1200" xml:space="preserve">
<g id="Background">
	<rect x="0" fill="#0055FE" width="1238" height="1200"/>
</g>
<g id="Circles" display="none">
	<g id="Back" display="inline" opacity="0.05">
		<path fill="#FFFFFF" d="M1129,600c0,281.67-228.33,510-510,510c-281.663,0-510-228.33-510-510c0-281.663,228.337-510,510-510
			C900.67,90,1129,318.337,1129,600z"/>
	</g>
	<g id="Front" display="inline" opacity="0.04">
		<circle fill="#FFFFFF" cx="619" cy="600" r="390"/>
	</g>
</g>
<g id="Designs">
	<g id="Keyboard">
		<rect x="0" y="900.393" fill="#FFFFFF" width="1238.5" height="299.607"/>
		<rect id="Background_1_" x="0" y="650.201" fill="#1E2638" width="1238.5" height="250.188"/>
		<rect x="1001.466" y="900.393" fill="#CFF5FF" width="48.443" height="299.607"/>
		<path fill="#1E2638" d="M1075.618,899.542v145.591c0,6.292-5.104,11.409-11.322,11.409h-28.772
			c-6.221,0-11.325-5.113-11.325-11.409V899.542H1075.618z"/>
		<rect x="1098.061" y="900.393" fill="#CFF5FF" width="48.445" height="299.607"/>
		<path fill="#1E2638" d="M1172.216,899.542v145.591c0,6.292-5.021,11.409-11.243,11.409h-28.854
			c-6.221,0-11.241-5.113-11.241-11.409V899.542H1172.216z"/>
		<rect x="1195.182" y="900.393" fill="#CFF5FF" width="43.318" height="299.607"/>
		<rect x="613.795" y="900.393" fill="#CFF5FF" width="48.443" height="299.607"/>
		<path fill="#1E2638" d="M687.865,899.542v145.591c0,6.292-5.021,11.409-11.239,11.409h-28.772
			c-6.304,0-11.325-5.113-11.325-11.409V899.542H687.865z"/>
		<rect x="710.39" y="900.393" fill="#CFF5FF" width="48.445" height="299.607"/>
		<path fill="#1E2638" d="M784.545,899.542v145.591c0,6.292-5.104,11.409-11.325,11.409h-28.772
			c-6.221,0-11.325-5.113-11.325-11.409V899.542H784.545z"/>
		<rect x="807.428" y="900.393" fill="#CFF5FF" width="48.442" height="299.607"/>
		<path fill="#1E2638" d="M881.58,899.542v145.591c0,6.292-5.021,11.409-11.322,11.409h-28.772c-6.221,0-11.242-5.113-11.242-11.409
			V899.542H881.58z"/>
		<rect x="904.105" y="900.393" fill="#CFF5FF" width="48.445" height="299.607"/>
		<path fill="#1E2638" d="M978.178,899.542v145.591c0,6.292-5.021,11.409-11.242,11.409h-28.773
			c-6.303,0-11.321-5.113-11.321-11.409V899.542H978.178z"/>
		<rect x="226.376" y="900.393" fill="#CFF5FF" width="48.443" height="299.607"/>
		<path fill="#1E2638" d="M300.49,899.542v145.591c0,6.292-5.063,11.409-11.281,11.409h-28.772c-6.262,0-11.325-5.113-11.325-11.409
			V899.542H300.49z"/>
		<rect x="322.971" y="900.393" fill="#CFF5FF" width="48.484" height="299.607"/>
		<path fill="#1E2638" d="M397.126,899.542v145.591c0,6.292-5.063,11.409-11.284,11.409h-28.814
			c-6.221,0-11.284-5.113-11.284-11.409V899.542H397.126z"/>
		<rect x="420.051" y="900.393" fill="#CFF5FF" width="48.443" height="299.607"/>
		<path fill="#1E2638" d="M494.173,899.542v145.591c0,6.292-5.072,11.409-11.292,11.409h-28.772
			c-6.262,0-11.325-5.113-11.325-11.409V899.542H494.173z"/>
		<rect x="516.646" y="900.393" fill="#CFF5FF" width="48.445" height="299.607"/>
		<path fill="#1E2638" d="M590.801,899.542v145.591c0,6.292-5.021,11.409-11.325,11.409h-28.772
			c-6.221,0-11.239-5.113-11.239-11.409V899.542H590.801z"/>
		<rect x="32.338" y="900.393" fill="#CFF5FF" width="48.446" height="299.607"/>
		<path fill="#1E2638" d="M106.494,899.542v145.591c0,6.292-5.063,11.409-11.325,11.409H66.396c-6.221,0-11.284-5.113-11.284-11.409
			V899.542H106.494z"/>
		<rect x="128.975" y="900.393" fill="#CFF5FF" width="48.446" height="299.607"/>
		<path fill="#1E2638" d="M203.088,899.542v145.591c0,6.292-5.063,11.409-11.284,11.409h-28.771
			c-6.265,0-11.325-5.113-11.325-11.409V899.542H203.088z"/>
		<rect x="0" y="650.201" fill="#303A59" width="1238.5" height="170.578"/>
	</g>
	<g id="Stand">
		<path fill="#303A59" d="M914.132,318.518H323.864c-27.531,0-49.861,22.326-49.861,49.877V747.59H964V368.396
			C963.993,340.844,941.687,318.518,914.132,318.518L914.132,318.518z"/>
		<path fill="#CFF5FF" d="M505.732,397.849c-39.973-3.54-80.532-0.875-119.682,8.05c-21.243,4.823-42.05,11.495-62.182,19.888
			c-0.004,0.021-0.008,0.028-0.008,0.032V711.2c0,11.813,11.714,19.973,22.909,16.125c12.872-4.398,26.001-8.158,39.277-11.188
			c39.15-8.904,79.709-11.59,119.682-8.029c38.882,3.443,77.164,12.878,113.202,27.906c0.052,0.006,0.063,0,0.063-0.016v-310.19
			l-0.004-0.021C582.95,410.75,544.62,401.313,505.732,397.849L505.732,397.849z"/>
		<path fill="#8FC7F5" d="M800.865,397.849c-40.013-3.54-80.525-0.875-119.682,8.05c-21.271,4.823-42.091,11.495-62.179,19.888
			c-0.007,0.021-0.011,0.028-0.011,0.032v310.244c20.095-8.411,40.911-15.079,62.188-19.928
			c39.152-8.906,79.713-11.59,119.686-8.031c30.735,2.716,61.123,9.185,90.348,19.222c11.199,3.848,22.921-4.324,22.921-16.188
			V425.808c-0.004,0-0.004,0-0.004-0.021C878.086,410.75,839.756,401.313,800.865,397.849L800.865,397.849z"/>
		<path fill="#FFFFFF" d="M505.732,362.871c-39.973-3.564-80.532-0.898-119.682,8.026c-18.703,4.272-37.063,9.937-54.907,16.948
			c-4.41,1.75-7.279,6.066-7.279,10.816v285.332c0,8.146,8.091,13.684,15.739,10.904c15.163-5.578,30.686-10.164,46.447-13.744
			c39.146-8.945,79.709-11.591,119.682-8.066c33.349,2.961,66.245,10.354,97.692,21.875c7.559,2.771,15.57-2.957,15.57-11.035
			V398.655c0-4.745-2.885-9.063-7.272-10.8C577.823,374.504,542.041,366.078,505.732,362.871L505.732,362.871z"/>
		<path fill="#CFF5FF" d="M800.865,362.871c-40.013-3.564-80.525-0.898-119.682,8.026c-18.714,4.272-37.058,9.937-54.907,16.948
			c-4.435,1.75-7.278,6.066-7.278,10.816v285.332c0,8.146,8.092,13.684,15.715,10.904c15.16-5.578,30.712-10.164,46.474-13.744
			c39.148-8.945,79.669-11.591,119.682-8.066c33.352,2.961,66.245,10.354,97.695,21.875c7.556,2.771,15.57-2.957,15.57-11.035
			V398.655c0-4.745-2.881-9.063-7.275-10.8C872.96,374.504,837.175,366.078,800.865,362.871L800.865,362.871z"/>
		<path fill="#303A59" d="M563.884,419.951c-61.188-11.663-124.716-11.758-185.92-0.272c-5.461,1.019-9.421,5.865-9.421,11.43
			c0,7.272,6.604,12.769,13.752,11.424c58.347-10.924,118.854-10.824,177.146,0.293c7.191,1.354,13.805-4.141,13.805-11.422v-0.027
			C573.245,425.84,569.341,420.994,563.884,419.951L563.884,419.951z"/>
		<path fill="#303A59" d="M563.884,483.491c-61.188-11.663-124.716-11.766-185.92-0.277c-5.461,1.021-9.421,5.867-9.421,11.428
			c0,7.28,6.604,12.768,13.752,11.434c58.347-10.933,118.854-10.826,177.146,0.287c7.191,1.354,13.805-4.142,13.805-11.425v-0.021
			C573.245,489.381,569.341,484.534,563.884,483.491L563.884,483.491z"/>
		<path fill="#303A59" d="M563.884,547.023c-61.188-11.681-124.716-11.757-185.92-0.285c-5.461,1.026-9.421,5.879-9.421,11.44
			c0,7.276,6.604,12.769,13.752,11.419c58.347-10.938,118.854-10.813,177.146,0.281c7.191,1.374,13.805-4.124,13.805-11.424v-0.008
			C573.245,552.893,569.341,548.07,563.884,547.023L563.884,547.023z"/>
		<path fill="#303A59" d="M563.884,610.549c-61.191-11.662-124.716-11.754-185.92-0.274c-5.493,1.024-9.421,5.864-9.421,11.444
			c0,7.279,6.601,12.75,13.745,11.41c58.354-10.926,118.854-10.811,177.153,0.271c7.188,1.391,13.8-4.115,13.8-11.402v-0.008
			C573.245,616.424,569.341,611.604,563.884,610.549L563.884,610.549z"/>
		<path fill="#303A59" d="M859.553,419.951c-61.191-11.663-124.717-11.758-185.96-0.272c-5.466,1.019-9.381,5.865-9.381,11.43
			c0,7.272,6.601,12.769,13.747,11.424c58.352-10.924,118.854-10.824,177.151,0.293c7.147,1.354,13.805-4.141,13.805-11.422v-0.027
			C868.916,425.84,865.006,420.994,859.553,419.951L859.553,419.951z"/>
		<path fill="#303A59" d="M859.553,483.491c-61.191-11.663-124.717-11.766-185.96-0.277c-5.466,1.021-9.381,5.867-9.381,11.428
			c0,7.28,6.601,12.768,13.747,11.434c58.352-10.933,118.854-10.826,177.151,0.287c7.147,1.354,13.805-4.142,13.805-11.425v-0.021
			C868.916,489.381,865.006,484.534,859.553,483.491L859.553,483.491z"/>
		<path fill="#303A59" d="M859.553,547.023c-61.191-11.681-124.724-11.757-185.96-0.285c-5.466,1.026-9.381,5.879-9.381,11.44
			c0,7.276,6.601,12.769,13.747,11.419c58.352-10.938,118.854-10.813,177.151,0.281c7.147,1.374,13.805-4.124,13.805-11.424v-0.008
			C868.916,552.893,865.006,548.07,859.553,547.023L859.553,547.023z"/>
		<path fill="#303A59" d="M859.553,610.549c-61.191-11.662-124.717-11.754-185.96-0.274c-5.466,1.024-9.381,5.864-9.381,11.444
			c0,7.279,6.601,12.75,13.747,11.41c58.352-10.926,118.854-10.811,177.151,0.271c7.147,1.391,13.805-4.115,13.805-11.402v-0.008
			C868.916,616.424,865.006,611.604,859.553,610.549L859.553,610.549z"/>
	</g>
</g>
</svg>
