<?xml version="1.0" encoding="utf-8"?>
<!-- Generator: Adobe Illustrator 16.0.0, SVG Export Plug-In . SVG Version: 6.00 Build 0)  -->
<!DOCTYPE svg PUBLIC "-//W3C//DTD SVG 1.1//EN" "http://www.w3.org/Graphics/SVG/1.1/DTD/svg11.dtd">
<svg version="1.1" id="Icon" xmlns="http://www.w3.org/2000/svg" xmlns:xlink="http://www.w3.org/1999/xlink" x="0px" y="0px"
	 width="2060px" height="465.01px" viewBox="375.595 367.496 2060 465.01" enable-background="new 375.595 367.496 2060 465.01"
	 xml:space="preserve">
<g id="Circles" display="none">
	<g id="Back" display="inline" opacity="0.05">
		<path fill="#FFFFFF" d="M1129,600c0,281.67-228.33,510-510,510c-281.663,0-510-228.33-510-510c0-281.663,228.337-510,510-510
			C900.67,90,1129,318.337,1129,600z"/>
	</g>
	<g id="Front" display="inline" opacity="0.04">
		<circle fill="#FFFFFF" cx="619" cy="600" r="390"/>
	</g>
</g>
<g>
	<path d="M913.283,719.623V512.755c0-2.172,0.593-3.802,1.778-4.89c1.186-1.083,2.668-1.63,4.446-1.63h95.136
		c10.076,0,19.311,2.075,27.711,6.224c8.396,4.149,15.605,9.586,21.635,16.3c6.024,6.72,10.716,14.375,14.078,22.969
		c3.357,8.595,5.038,17.439,5.038,26.525c0,8.891-1.63,17.588-4.891,26.08c-3.26,8.498-7.854,16.107-13.781,22.822
		c-5.927,6.719-13.04,12.104-21.339,16.152c-8.298,4.051-17.485,6.074-27.563,6.074h-45.345v70.24c0,4.35-2.274,6.521-6.816,6.521
		h-43.863C915.358,726.145,913.283,723.973,913.283,719.623z M1002.195,553.062h-32.008v49.495h32.008
		c7.308,0,12.938-2.52,16.894-7.558c3.95-5.039,5.928-10.716,5.928-17.042c0-2.964-0.547-5.928-1.63-8.891
		c-1.089-2.964-2.57-5.631-4.446-8.002c-1.88-2.371-4.251-4.297-7.112-5.779C1008.961,553.803,1005.752,553.062,1002.195,553.062z"
		/>
	<path d="M1115.111,719.623V512.755c0-4.344,2.074-6.521,6.224-6.521h44.456c4.344,0,6.521,2.177,6.521,6.521v206.868
		c0,4.35-2.177,6.521-6.521,6.521h-44.456C1117.186,726.145,1115.111,723.973,1115.111,719.623z"/>
	<path d="M1202.242,719.623l80.316-206.868c1.778-4.344,4.84-6.521,9.188-6.521h36.157c4.543,0,7.507,2.177,8.891,6.521
		l80.91,206.868c1.778,4.35,0.394,6.521-4.149,6.521h-44.159c-4.349,0-7.215-2.172-8.595-6.521l-10.373-29.043h-80.91
		l-10.076,29.043c-1.385,4.35-4.349,6.521-8.892,6.521h-44.159C1201.844,726.145,1200.464,723.973,1202.242,719.623z
		 M1309.529,575.586l-23.414,67.574h47.124L1309.529,575.586z"/>
	<path d="M1579.525,719.623l-77.946-128.032v128.032c0,4.35-2.371,6.521-7.113,6.521h-41.492c-4.149,0-6.224-2.172-6.224-6.521
		V512.755c0-1.778,0.491-3.307,1.481-4.594c0.986-1.283,2.565-1.927,4.742-1.927h48.013c4.344,0,7.9,2.177,10.669,6.521
		l74.094,120.032V512.755c0-1.778,0.593-3.307,1.778-4.594c1.186-1.283,2.861-1.927,5.038-1.927h41.196
		c1.579,0,3.158,0.593,4.741,1.778c1.579,1.186,2.371,2.77,2.371,4.742v206.868c0,4.35-2.371,6.521-7.112,6.521h-43.567
		C1585.647,726.145,1582.091,723.973,1579.525,719.623z"/>
	<path d="M1679.696,616.486c0-15.805,2.964-30.573,8.892-44.308c5.928-13.73,13.976-25.733,24.154-36.009
		c10.174-10.271,22.177-18.375,36.01-24.303c13.827-5.927,28.549-8.891,44.159-8.891c15.606,0,30.276,2.964,44.012,8.891
		c13.73,5.927,25.733,14.031,36.009,24.303c10.271,10.276,18.376,22.279,24.303,36.009c5.928,13.735,8.892,28.503,8.892,44.308
		c0,15.609-2.964,30.281-8.892,44.012c-5.927,13.734-14.031,25.688-24.303,35.861c-10.275,10.178-22.278,18.227-36.009,24.154
		c-13.735,5.926-28.405,8.891-44.012,8.891c-15.61,0-30.332-2.965-44.159-8.891c-13.833-5.928-25.836-13.977-36.01-24.154
		c-10.179-10.174-18.227-22.127-24.154-35.861C1682.66,646.768,1679.696,632.096,1679.696,616.486z M1736.896,616.189
		c0,8.299,1.38,16.004,4.149,23.117c2.765,7.113,6.617,13.291,11.559,18.523c4.937,5.238,10.864,9.387,17.782,12.447
		c6.914,3.066,14.421,4.594,22.524,4.594c8.1,0,15.606-1.527,22.524-4.594c6.914-3.061,12.842-7.209,17.782-12.447
		c4.937-5.232,8.789-11.41,11.559-18.523c2.765-7.113,4.149-14.818,4.149-23.117c0-8.1-1.385-15.708-4.149-22.821
		c-2.77-7.113-6.622-13.336-11.559-18.671c-4.94-5.334-10.868-9.53-17.782-12.596c-6.918-3.061-14.425-4.594-22.524-4.594
		c-8.104,0-15.61,1.533-22.524,4.594c-6.918,3.065-12.846,7.261-17.782,12.596c-4.941,5.335-8.794,11.559-11.559,18.671
		C1738.276,600.482,1736.896,608.09,1736.896,616.189z"/>
	<path d="M1942.28,719.623V512.755c0-2.172,0.639-3.802,1.927-4.89c1.282-1.083,2.713-1.63,4.297-1.63h44.456
		c4.149,0,6.224,2.177,6.224,6.521v160.93h82.392c4.149,0,6.225,2.178,6.225,6.521v39.416c0,4.35-2.075,6.521-6.225,6.521h-133.071
		C1944.354,726.145,1942.28,723.973,1942.28,719.623z"/>
	<path d="M2121.287,719.623V512.755c0-4.344,2.074-6.521,6.224-6.521h44.456c4.344,0,6.521,2.177,6.521,6.521v206.868
		c0,4.35-2.177,6.521-6.521,6.521h-44.456C2123.361,726.145,2121.287,723.973,2121.287,719.623z"/>
	<path d="M2213.751,550.395v-37.639c0-4.344,2.172-6.521,6.521-6.521h160.635c4.344,0,6.52,2.177,6.52,6.521v37.639
		c0,4.349-2.176,6.521-6.52,6.521h-52.458v162.708c0,4.35-2.274,6.521-6.817,6.521h-42.678c-4.348,0-6.52-2.172-6.52-6.521V556.915
		h-52.162C2215.923,556.915,2213.751,554.743,2213.751,550.395z"/>
</g>
<g>
	<defs>
		<path id="SVGID_1_" d="M846.69,730c0,55.229-44.771,100-100,100h-260c-55.229,0-100-44.771-100-100V470
			c0-55.229,44.771-100,100-100h260c55.229,0,100,44.771,100,100V730z"/>
	</defs>
	<clipPath id="SVGID_2_">
		<use xlink:href="#SVGID_1_"  overflow="visible"/>
	</clipPath>
	<g clip-path="url(#SVGID_2_)">
		<g id="Background">
			<rect x="386.69" y="377.155" fill="#0055FE" width="459.805" height="445.689"/>
		</g>
		<g id="Designs">
			<g id="Keyboard">
				<rect x="386.69" y="711.563" fill="#FFFFFF" width="460" height="111.281"/>
				<rect id="Background_1_" x="386.69" y="618.657" fill="#1E2638" width="460" height="92.906"/>
				<rect x="758.665" y="711.563" fill="#CFF5FF" width="17.971" height="111.281"/>
				<path fill="#1E2638" d="M786.202,711.252v54.086c0,2.336-1.898,4.223-4.223,4.223h-10.691c-2.289,0-4.182-1.887-4.182-4.223
					v-54.086H786.202z"/>
				<rect x="794.517" y="711.563" fill="#CFF5FF" width="18.01" height="111.281"/>
				<path fill="#1E2638" d="M822.068,711.252v54.086c0,2.336-1.858,4.223-4.173,4.223h-10.713c-2.314,0-4.18-1.887-4.18-4.223
					v-54.086H822.068z"/>
				<rect x="830.589" y="711.563" fill="#CFF5FF" width="16.102" height="111.281"/>
				<rect x="614.657" y="711.563" fill="#CFF5FF" width="18.002" height="111.281"/>
				<path fill="#1E2638" d="M642.183,711.252v54.086c0,2.336-1.887,4.223-4.176,4.223h-10.691c-2.336,0-4.217-1.887-4.217-4.223
					v-54.086H642.183z"/>
				<rect x="650.538" y="711.563" fill="#CFF5FF" width="18.004" height="111.281"/>
				<path fill="#1E2638" d="M678.077,711.252v54.086c0,2.336-1.887,4.223-4.197,4.223h-10.678c-2.332,0-4.219-1.887-4.219-4.223
					v-54.086H678.077z"/>
				<rect x="686.573" y="711.563" fill="#CFF5FF" width="18.008" height="111.281"/>
				<path fill="#1E2638" d="M714.121,711.252v54.086c0,2.336-1.86,4.223-4.196,4.223h-10.691c-2.31,0-4.176-1.887-4.176-4.223
					v-54.086H714.121z"/>
				<rect x="722.503" y="711.563" fill="#CFF5FF" width="17.969" height="111.281"/>
				<path fill="#1E2638" d="M749.995,711.252v54.086c0,2.336-1.848,4.223-4.176,4.223h-10.691c-2.336,0-4.18-1.887-4.18-4.223
					v-54.086H749.995z"/>
				<rect x="470.772" y="711.563" fill="#CFF5FF" width="17.992" height="111.281"/>
				<path fill="#1E2638" d="M498.296,711.252v54.086c0,2.336-1.873,4.223-4.186,4.223h-10.691c-2.321,0-4.201-1.887-4.201-4.223
					v-54.086H498.296z"/>
				<rect x="506.644" y="711.563" fill="#CFF5FF" width="18.015" height="111.281"/>
				<path fill="#1E2638" d="M534.187,711.252v54.086c0,2.336-1.871,4.223-4.183,4.223h-10.712c-2.307,0-4.182-1.887-4.182-4.223
					v-54.086H534.187z"/>
				<rect x="542.705" y="711.563" fill="#CFF5FF" width="17.995" height="111.281"/>
				<path fill="#1E2638" d="M570.229,711.252v54.086c0,2.336-1.885,4.223-4.189,4.223h-10.68c-2.336,0-4.215-1.887-4.215-4.223
					v-54.086H570.229z"/>
				<rect x="578.585" y="711.563" fill="#CFF5FF" width="17.993" height="111.281"/>
				<path fill="#1E2638" d="M606.122,711.252v54.086c0,2.336-1.862,4.223-4.198,4.223h-10.691c-2.315,0-4.178-1.887-4.178-4.223
					v-54.086H606.122z"/>
				<rect x="398.696" y="711.563" fill="#CFF5FF" width="17.994" height="111.281"/>
				<path fill="#1E2638" d="M426.244,711.252v54.086c0,2.336-1.876,4.223-4.212,4.223h-10.684c-2.307,0-4.186-1.887-4.186-4.223
					v-54.086H426.244z"/>
				<rect x="434.589" y="711.563" fill="#CFF5FF" width="17.993" height="111.281"/>
				<path fill="#1E2638" d="M462.126,711.252v54.086c0,2.336-1.887,4.223-4.201,4.223h-10.684c-2.32,0-4.207-1.887-4.207-4.223
					v-54.086H462.126z"/>
				<rect x="386.69" y="618.657" fill="#303A59" width="460" height="63.348"/>
			</g>
			<g id="Stand">
				<path fill="#303A59" d="M726.223,495.457H506.979c-10.22,0-18.521,8.288-18.521,18.53V654.83h256.283V513.987
					C744.741,503.745,736.444,495.457,726.223,495.457L726.223,495.457z"/>
				<path fill="#CFF5FF" d="M574.522,524.925c-14.848-1.324-29.898-0.334-44.453,2.989c-7.882,1.794-15.609,4.269-23.09,7.388
					c0,0,0,0,0,0.001v106.003c0,4.396,4.353,7.415,8.514,5.978c4.777-1.617,9.657-3.013,14.576-4.133
					c14.551-3.324,29.604-4.313,44.452-3.002c14.44,1.295,28.66,4.799,42.047,10.369c0.021,0,0.021,0,0.021,0V535.302l0,0
					C603.202,529.711,588.968,526.207,574.522,524.925L574.522,524.925z"/>
				<path fill="#8FC7F5" d="M684.14,524.925c-14.867-1.324-29.916-0.334-44.441,2.989c-7.891,1.794-15.634,4.269-23.102,7.388
					c-0.007,0-0.008,0-0.008,0.001v115.238c7.472-3.126,15.211-5.594,23.107-7.393c14.525-3.322,29.612-4.311,44.443-3.005
					c11.41,1.03,22.708,3.408,33.559,7.14c4.176,1.438,8.528-1.592,8.528-6.006V535.302c-0.004,0-0.004,0-0.004,0
					C712.832,529.711,698.602,526.207,684.14,524.925L684.14,524.925z"/>
				<path fill="#FFFFFF" d="M574.522,511.926c-14.848-1.322-29.898-0.328-44.453,2.982c-6.938,1.595-13.764,3.69-20.393,6.292
					c-1.636,0.649-2.697,2.265-2.697,4.019v105.982c0,3.013,3.01,5.073,5.84,4.043c5.64-2.066,11.408-3.773,17.25-5.097
					c14.551-3.319,29.605-4.295,44.453-2.989c12.397,1.078,24.616,3.833,36.296,8.128c2.806,1.025,5.771-1.12,5.771-4.114V525.219
					c0-1.755-1.063-3.37-2.695-4.008C601.302,516.256,588.019,513.118,574.522,511.926L574.522,511.926z"/>
				<path fill="#CFF5FF" d="M684.14,511.926c-14.867-1.322-29.916-0.328-44.441,2.982c-6.949,1.595-13.777,3.69-20.391,6.292
					c-1.652,0.649-2.717,2.265-2.717,4.019v105.982c0,3.013,2.998,5.073,5.831,4.043c5.655-2.066,11.405-3.773,17.281-5.097
					c14.519-3.319,29.569-4.295,44.437-2.989c12.398,1.078,24.617,3.833,36.297,8.128c2.792,1.025,5.788-1.12,5.788-4.114V525.219
					c0-1.755-1.069-3.37-2.713-4.008C710.913,516.256,697.618,513.118,684.14,511.926L684.14,511.926z"/>
				<path fill="#303A59" d="M596.129,533.126c-22.73-4.331-46.319-4.358-69.054-0.091c-2.037,0.377-3.495,2.177-3.495,4.243
					c0,2.695,2.446,4.742,5.097,4.246c21.677-4.066,44.152-4.021,65.8,0.104c2.667,0.502,5.132-1.539,5.132-4.237v-0.022
					C599.608,535.323,598.15,533.519,596.129,533.126L596.129,533.126z"/>
				<path fill="#303A59" d="M596.129,556.729c-22.73-4.333-46.319-4.373-69.054-0.106c-2.037,0.376-3.495,2.18-3.495,4.243
					c0,2.715,2.446,4.748,5.097,4.25c21.677-4.053,44.152-4.021,65.8,0.104c2.667,0.511,5.132-1.527,5.132-4.243l0,0
					C599.608,558.913,598.15,557.113,596.129,556.729L596.129,556.729z"/>
				<path fill="#303A59" d="M596.129,580.329c-22.73-4.345-46.319-4.373-69.054-0.105c-2.037,0.384-3.495,2.181-3.495,4.247
					c0,2.696,2.446,4.737,5.097,4.243c21.677-4.063,44.152-4.019,65.8,0.101c2.667,0.508,5.132-1.538,5.132-4.239v-0.008
					C599.608,582.511,598.15,580.718,596.129,580.329L596.129,580.329z"/>
				<path fill="#303A59" d="M596.129,603.931c-22.73-4.346-46.319-4.369-69.054-0.11c-2.037,0.38-3.495,2.177-3.495,4.243
					c0,2.695,2.446,4.745,5.097,4.241c21.677-4.062,44.145-4.014,65.8,0.117c2.664,0.493,5.132-1.528,5.132-4.254v-0.008
					C599.608,606.092,598.15,604.312,596.129,603.931L596.129,603.931z"/>
				<path fill="#303A59" d="M705.931,533.126c-22.722-4.331-46.318-4.358-69.049-0.091c-2.029,0.377-3.504,2.177-3.504,4.243
					c0,2.695,2.473,4.742,5.121,4.246c21.659-4.066,44.148-4.021,65.802,0.104c2.659,0.502,5.132-1.539,5.132-4.237v-0.022
					C709.433,535.323,707.963,533.519,705.931,533.126L705.931,533.126z"/>
				<path fill="#303A59" d="M705.931,556.729c-22.722-4.333-46.318-4.373-69.049-0.106c-2.029,0.376-3.504,2.18-3.504,4.243
					c0,2.715,2.473,4.748,5.121,4.25c21.659-4.053,44.148-4.021,65.802,0.104c2.659,0.511,5.132-1.527,5.132-4.243l0,0
					C709.433,558.913,707.963,557.113,705.931,556.729L705.931,556.729z"/>
				<path fill="#303A59" d="M705.931,580.329c-22.722-4.345-46.318-4.373-69.049-0.105c-2.029,0.384-3.504,2.181-3.504,4.247
					c0,2.696,2.473,4.737,5.121,4.243c21.659-4.063,44.148-4.019,65.802,0.101c2.659,0.508,5.132-1.538,5.132-4.239v-0.008
					C709.433,582.511,707.963,580.718,705.931,580.329L705.931,580.329z"/>
				<path fill="#303A59" d="M705.931,603.931c-22.722-4.346-46.318-4.369-69.049-0.11c-2.029,0.38-3.504,2.177-3.504,4.243
					c0,2.695,2.473,4.745,5.121,4.241c21.659-4.062,44.148-4.014,65.802,0.117c2.659,0.493,5.132-1.528,5.132-4.254v-0.008
					C709.433,606.092,707.963,604.312,705.931,603.931L705.931,603.931z"/>
			</g>
		</g>
	</g>
</g>
</svg>
